<?xml version="1.0" encoding="UTF-8" standalone="no"?>
<!DOCTYPE svg PUBLIC "-//W3C//DTD SVG 1.1//EN"
 "http://www.w3.org/Graphics/SVG/1.1/DTD/svg11.dtd">
<!-- Generated by graphviz version 9.0.0 (20231125.0833)
 -->
<!-- Title: snakemake_dag Pages: 1 -->
<svg width="1414pt" height="2248pt"
 viewBox="0.00 0.00 1414.00 2248.00" xmlns="http://www.w3.org/2000/svg" xmlns:xlink="http://www.w3.org/1999/xlink">
<g id="graph0" class="graph" transform="scale(1 1) rotate(0) translate(4 2244)">
<title>snakemake_dag</title>
<polygon fill="white" stroke="none" points="-4,4 -4,-2244 1410,-2244 1410,4 -4,4"/>
<!-- 0 -->
<g id="node1" class="node">
<title>0</title>
<path fill="none" stroke="#97d856" stroke-width="2" d="M584,-36C584,-36 554,-36 554,-36 548,-36 542,-30 542,-24 542,-24 542,-12 542,-12 542,-6 548,0 554,0 554,0 584,0 584,0 590,0 596,-6 596,-12 596,-12 596,-24 596,-24 596,-30 590,-36 584,-36"/>
<text text-anchor="middle" x="569" y="-14.88" font-family="sans" font-size="10.00">all</text>
</g>
<!-- 1 -->
<g id="node2" class="node">
<title>1</title>
<path fill="none" stroke="#b6d856" stroke-width="2" d="M1074.12,-2182C1074.12,-2182 971.88,-2182 971.88,-2182 965.88,-2182 959.88,-2176 959.88,-2170 959.88,-2170 959.88,-2158 959.88,-2158 959.88,-2152 965.88,-2146 971.88,-2146 971.88,-2146 1074.12,-2146 1074.12,-2146 1080.12,-2146 1086.12,-2152 1086.12,-2158 1086.12,-2158 1086.12,-2170 1086.12,-2170 1086.12,-2176 1080.12,-2182 1074.12,-2182"/>
<text text-anchor="middle" x="1023" y="-2160.88" font-family="sans" font-size="10.00">extract_ref_hor_arrays</text>
</g>
<!-- 1&#45;&gt;0 -->
<g id="edge3" class="edge">
<title>1&#45;&gt;0</title>
<path fill="none" stroke="grey" stroke-width="2" d="M959.01,-2162.62C735.05,-2160.45 0,-2145.95 0,-2049 0,-2049 0,-2049 0,-133 0,-95.01 9.06,-78.57 41,-58 81.61,-31.85 411.44,-22.35 528.21,-19.79"/>
<polygon fill="grey" stroke="grey" stroke-width="2" points="528.1,-23.29 538.02,-19.58 527.95,-16.29 528.1,-23.29"/>
</g>
<!-- 6 -->
<g id="node7" class="node">
<title>6</title>
<path fill="none" stroke="#c6d856" stroke-width="2" d="M1066.25,-2124C1066.25,-2124 979.75,-2124 979.75,-2124 973.75,-2124 967.75,-2118 967.75,-2112 967.75,-2112 967.75,-2100 967.75,-2100 967.75,-2094 973.75,-2088 979.75,-2088 979.75,-2088 1066.25,-2088 1066.25,-2088 1072.25,-2088 1078.25,-2094 1078.25,-2100 1078.25,-2100 1078.25,-2112 1078.25,-2112 1078.25,-2118 1072.25,-2124 1066.25,-2124"/>
<text text-anchor="middle" x="1023" y="-2102.88" font-family="sans" font-size="10.00">asm_ref_alignment</text>
</g>
<!-- 1&#45;&gt;6 -->
<g id="edge30" class="edge">
<title>1&#45;&gt;6</title>
<path fill="none" stroke="grey" stroke-width="2" d="M1023,-2145.28C1023,-2142.83 1023,-2140.26 1023,-2137.65"/>
<polygon fill="grey" stroke="grey" stroke-width="2" points="1026.5,-2137.82 1023,-2127.82 1019.5,-2137.82 1026.5,-2137.82"/>
</g>
<!-- 7 -->
<g id="node8" class="node">
<title>7</title>
<path fill="none" stroke="#78d856" stroke-width="2" d="M1152.25,-2066C1152.25,-2066 1059.75,-2066 1059.75,-2066 1053.75,-2066 1047.75,-2060 1047.75,-2054 1047.75,-2054 1047.75,-2042 1047.75,-2042 1047.75,-2036 1053.75,-2030 1059.75,-2030 1059.75,-2030 1152.25,-2030 1152.25,-2030 1158.25,-2030 1164.25,-2036 1164.25,-2042 1164.25,-2042 1164.25,-2054 1164.25,-2054 1164.25,-2060 1158.25,-2066 1152.25,-2066"/>
<text text-anchor="middle" x="1106" y="-2044.88" font-family="sans" font-size="10.00">asm_ref_alignment2</text>
</g>
<!-- 1&#45;&gt;7 -->
<g id="edge32" class="edge">
<title>1&#45;&gt;7</title>
<path fill="none" stroke="grey" stroke-width="2" d="M1063.06,-2145.13C1072.04,-2139.5 1080.74,-2132.48 1087,-2124 1096.47,-2111.17 1101.24,-2094.12 1103.64,-2079.52"/>
<polygon fill="grey" stroke="grey" stroke-width="2" points="1107.06,-2080.35 1104.85,-2069.99 1100.11,-2079.47 1107.06,-2080.35"/>
</g>
<!-- 2 -->
<g id="node3" class="node">
<title>2</title>
<path fill="none" stroke="#566bd8" stroke-width="2" d="M1071.88,-2240C1071.88,-2240 974.12,-2240 974.12,-2240 968.12,-2240 962.12,-2234 962.12,-2228 962.12,-2228 962.12,-2216 962.12,-2216 962.12,-2210 968.12,-2204 974.12,-2204 974.12,-2204 1071.88,-2204 1071.88,-2204 1077.88,-2204 1083.88,-2210 1083.88,-2216 1083.88,-2216 1083.88,-2228 1083.88,-2228 1083.88,-2234 1077.88,-2240 1071.88,-2240"/>
<text text-anchor="middle" x="1023" y="-2218.88" font-family="sans" font-size="10.00">adjust_ref_hor_arrays</text>
</g>
<!-- 2&#45;&gt;1 -->
<g id="edge25" class="edge">
<title>2&#45;&gt;1</title>
<path fill="none" stroke="grey" stroke-width="2" d="M1023,-2203.28C1023,-2200.83 1023,-2198.26 1023,-2195.65"/>
<polygon fill="grey" stroke="grey" stroke-width="2" points="1026.5,-2195.82 1023,-2185.82 1019.5,-2195.82 1026.5,-2195.82"/>
</g>
<!-- 3 -->
<g id="node4" class="node">
<title>3</title>
<path fill="none" stroke="#d8d356" stroke-width="2" d="M1195.25,-2182C1195.25,-2182 1144.75,-2182 1144.75,-2182 1138.75,-2182 1132.75,-2176 1132.75,-2170 1132.75,-2170 1132.75,-2158 1132.75,-2158 1132.75,-2152 1138.75,-2146 1144.75,-2146 1144.75,-2146 1195.25,-2146 1195.25,-2146 1201.25,-2146 1207.25,-2152 1207.25,-2158 1207.25,-2158 1207.25,-2170 1207.25,-2170 1207.25,-2176 1201.25,-2182 1195.25,-2182"/>
<text text-anchor="middle" x="1170" y="-2160.88" font-family="sans" font-size="10.00">concat_asm</text>
</g>
<!-- 3&#45;&gt;0 -->
<g id="edge21" class="edge">
<title>3&#45;&gt;0</title>
<path fill="none" stroke="grey" stroke-width="2" d="M1208.18,-2161.47C1274.97,-2156.54 1406,-2135.8 1406,-2049 1406,-2049 1406,-2049 1406,-133 1406,-92.44 1389.46,-77.7 1354,-58 1288.73,-21.74 761.15,-18.97 609.58,-18.93"/>
<polygon fill="grey" stroke="grey" stroke-width="2" points="609.94,-15.43 599.94,-18.94 609.94,-22.43 609.94,-15.43"/>
</g>
<!-- 3&#45;&gt;6 -->
<g id="edge29" class="edge">
<title>3&#45;&gt;6</title>
<path fill="none" stroke="grey" stroke-width="2" d="M1131.76,-2148.43C1116.63,-2142.67 1098.89,-2135.91 1082.18,-2129.54"/>
<polygon fill="grey" stroke="grey" stroke-width="2" points="1083.66,-2126.36 1073.07,-2126.08 1081.17,-2132.91 1083.66,-2126.36"/>
</g>
<!-- 3&#45;&gt;7 -->
<g id="edge31" class="edge">
<title>3&#45;&gt;7</title>
<path fill="none" stroke="grey" stroke-width="2" d="M1160,-2145.19C1149.9,-2127.2 1134.14,-2099.12 1122.25,-2077.94"/>
<polygon fill="grey" stroke="grey" stroke-width="2" points="1125.36,-2076.33 1117.41,-2069.33 1119.26,-2079.76 1125.36,-2076.33"/>
</g>
<!-- 15 -->
<g id="node16" class="node">
<title>15</title>
<path fill="none" stroke="#56d88a" stroke-width="2" d="M1040.62,-1660C1040.62,-1660 959.38,-1660 959.38,-1660 953.38,-1660 947.38,-1654 947.38,-1648 947.38,-1648 947.38,-1636 947.38,-1636 947.38,-1630 953.38,-1624 959.38,-1624 959.38,-1624 1040.62,-1624 1040.62,-1624 1046.62,-1624 1052.62,-1630 1052.62,-1636 1052.62,-1636 1052.62,-1648 1052.62,-1648 1052.62,-1654 1046.62,-1660 1040.62,-1660"/>
<text text-anchor="middle" x="1000" y="-1638.88" font-family="sans" font-size="10.00">asm_rename_ctgs</text>
</g>
<!-- 3&#45;&gt;15 -->
<g id="edge41" class="edge">
<title>3&#45;&gt;15</title>
<path fill="none" stroke="grey" stroke-width="2" d="M1175.67,-2145.04C1182.18,-2122.75 1192,-2083.47 1192,-2049 1192,-2049 1192,-2049 1192,-1757 1192,-1696.94 1121.68,-1667.82 1066.15,-1654.19"/>
<polygon fill="grey" stroke="grey" stroke-width="2" points="1066.96,-1650.79 1056.43,-1651.96 1065.4,-1657.61 1066.96,-1650.79"/>
</g>
<!-- 4 -->
<g id="node5" class="node">
<title>4</title>
<path fill="none" stroke="#56d863" stroke-width="2" d="M894.12,-1950C894.12,-1950 803.88,-1950 803.88,-1950 797.88,-1950 791.88,-1944 791.88,-1938 791.88,-1938 791.88,-1926 791.88,-1926 791.88,-1920 797.88,-1914 803.88,-1914 803.88,-1914 894.12,-1914 894.12,-1914 900.12,-1914 906.12,-1920 906.12,-1926 906.12,-1926 906.12,-1938 906.12,-1938 906.12,-1944 900.12,-1950 894.12,-1950"/>
<text text-anchor="middle" x="849" y="-1928.88" font-family="sans" font-size="10.00">asm_ref_aln_to_bed</text>
</g>
<!-- 4&#45;&gt;0 -->
<g id="edge1" class="edge">
<title>4&#45;&gt;0</title>
<path fill="none" stroke="grey" stroke-width="2" d="M791,-1928.96C605.38,-1921.66 38,-1893.11 38,-1817 38,-1817 38,-1817 38,-133 38,-94.8 47.83,-78.61 80,-58 117.34,-34.07 417.7,-23.26 528.3,-20.06"/>
<polygon fill="grey" stroke="grey" stroke-width="2" points="528.2,-23.57 538.09,-19.79 528,-16.57 528.2,-23.57"/>
</g>
<!-- 14 -->
<g id="node15" class="node">
<title>14</title>
<path fill="none" stroke="#78d856" stroke-width="2" d="M923,-1892C923,-1892 775,-1892 775,-1892 769,-1892 763,-1886 763,-1880 763,-1880 763,-1868 763,-1868 763,-1862 769,-1856 775,-1856 775,-1856 923,-1856 923,-1856 929,-1856 935,-1862 935,-1868 935,-1868 935,-1880 935,-1880 935,-1886 929,-1892 923,-1892"/>
<text text-anchor="middle" x="849" y="-1870.88" font-family="sans" font-size="10.00">format_hor_ref_aln_cen_contigs</text>
</g>
<!-- 4&#45;&gt;14 -->
<g id="edge40" class="edge">
<title>4&#45;&gt;14</title>
<path fill="none" stroke="grey" stroke-width="2" d="M849,-1913.28C849,-1910.83 849,-1908.26 849,-1905.65"/>
<polygon fill="grey" stroke="grey" stroke-width="2" points="852.5,-1905.82 849,-1895.82 845.5,-1905.82 852.5,-1905.82"/>
</g>
<!-- 5 -->
<g id="node6" class="node">
<title>5</title>
<path fill="none" stroke="#56d87b" stroke-width="2" d="M1114.25,-2008C1114.25,-2008 1003.75,-2008 1003.75,-2008 997.75,-2008 991.75,-2002 991.75,-1996 991.75,-1996 991.75,-1984 991.75,-1984 991.75,-1978 997.75,-1972 1003.75,-1972 1003.75,-1972 1114.25,-1972 1114.25,-1972 1120.25,-1972 1126.25,-1978 1126.25,-1984 1126.25,-1984 1126.25,-1996 1126.25,-1996 1126.25,-2002 1120.25,-2008 1114.25,-2008"/>
<text text-anchor="middle" x="1059" y="-1986.88" font-family="sans" font-size="10.00">asm_ref_compress_sam</text>
</g>
<!-- 5&#45;&gt;4 -->
<g id="edge26" class="edge">
<title>5&#45;&gt;4</title>
<path fill="none" stroke="grey" stroke-width="2" d="M991.69,-1971.05C968.6,-1964.89 942.72,-1957.99 919.4,-1951.77"/>
<polygon fill="grey" stroke="grey" stroke-width="2" points="920.59,-1948.47 910.03,-1949.27 918.79,-1955.23 920.59,-1948.47"/>
</g>
<!-- 8 -->
<g id="node9" class="node">
<title>8</title>
<path fill="none" stroke="#d89c56" stroke-width="2" d="M1308,-210C1308,-210 1214,-210 1214,-210 1208,-210 1202,-204 1202,-198 1202,-198 1202,-186 1202,-186 1202,-180 1208,-174 1214,-174 1214,-174 1308,-174 1308,-174 1314,-174 1320,-180 1320,-186 1320,-186 1320,-198 1320,-198 1320,-204 1314,-210 1308,-210"/>
<text text-anchor="middle" x="1261" y="-188.88" font-family="sans" font-size="10.00">asm_ref_sam_to_paf</text>
</g>
<!-- 5&#45;&gt;8 -->
<g id="edge34" class="edge">
<title>5&#45;&gt;8</title>
<path fill="none" stroke="grey" stroke-width="2" d="M1088.02,-1971.06C1115.96,-1951.3 1154,-1916.74 1154,-1875 1154,-1875 1154,-1875 1154,-1815 1154,-1731.43 1230,-1726.57 1230,-1643 1230,-1643 1230,-1643 1230,-307 1230,-277.54 1239.76,-245.26 1248.32,-222.59"/>
<polygon fill="grey" stroke="grey" stroke-width="2" points="1251.47,-224.16 1251.9,-213.57 1244.96,-221.58 1251.47,-224.16"/>
</g>
<!-- 6&#45;&gt;5 -->
<g id="edge28" class="edge">
<title>6&#45;&gt;5</title>
<path fill="none" stroke="grey" stroke-width="2" d="M1025.46,-2087.06C1027.9,-2071.63 1032.26,-2048.94 1039,-2030 1040.16,-2026.75 1041.53,-2023.43 1043.01,-2020.17"/>
<polygon fill="grey" stroke="grey" stroke-width="2" points="1045.99,-2022.04 1047.27,-2011.52 1039.71,-2018.94 1045.99,-2022.04"/>
</g>
<!-- 6&#45;&gt;7 -->
<g id="edge33" class="edge">
<title>6&#45;&gt;7</title>
<path fill="none" stroke="grey" stroke-width="2" d="M1049.26,-2087.28C1055.41,-2083.13 1062.07,-2078.64 1068.6,-2074.23"/>
<polygon fill="grey" stroke="grey" stroke-width="2" points="1070.5,-2077.18 1076.83,-2068.68 1066.58,-2071.37 1070.5,-2077.18"/>
</g>
<!-- 7&#45;&gt;5 -->
<g id="edge27" class="edge">
<title>7&#45;&gt;5</title>
<path fill="none" stroke="grey" stroke-width="2" d="M1091.13,-2029.28C1088.3,-2025.91 1085.28,-2022.31 1082.26,-2018.71"/>
<polygon fill="grey" stroke="grey" stroke-width="2" points="1084.99,-2016.52 1075.88,-2011.11 1079.63,-2021.02 1084.99,-2016.52"/>
</g>
<!-- 8&#45;&gt;0 -->
<g id="edge14" class="edge">
<title>8&#45;&gt;0</title>
<path fill="none" stroke="grey" stroke-width="2" d="M1320.97,-175.61C1332.06,-170 1342.26,-162.37 1349,-152 1372.64,-115.67 1358.76,-82.49 1323,-58 1264.01,-17.6 757.86,-17.73 609.63,-18.66"/>
<polygon fill="grey" stroke="grey" stroke-width="2" points="609.82,-15.16 599.84,-18.72 609.87,-22.16 609.82,-15.16"/>
</g>
<!-- 9 -->
<g id="node10" class="node">
<title>9</title>
<path fill="none" stroke="#56d873" stroke-width="2" d="M1328.25,-152C1328.25,-152 1193.75,-152 1193.75,-152 1187.75,-152 1181.75,-146 1181.75,-140 1181.75,-140 1181.75,-128 1181.75,-128 1181.75,-122 1187.75,-116 1193.75,-116 1193.75,-116 1328.25,-116 1328.25,-116 1334.25,-116 1340.25,-122 1340.25,-128 1340.25,-128 1340.25,-140 1340.25,-140 1340.25,-146 1334.25,-152 1328.25,-152"/>
<text text-anchor="middle" x="1261" y="-130.88" font-family="sans" font-size="10.00">asm_ref_trim_and_break_paf</text>
</g>
<!-- 8&#45;&gt;9 -->
<g id="edge35" class="edge">
<title>8&#45;&gt;9</title>
<path fill="none" stroke="grey" stroke-width="2" d="M1261,-173.28C1261,-170.83 1261,-168.26 1261,-165.65"/>
<polygon fill="grey" stroke="grey" stroke-width="2" points="1264.5,-165.82 1261,-155.82 1257.5,-165.82 1264.5,-165.82"/>
</g>
<!-- 9&#45;&gt;0 -->
<g id="edge5" class="edge">
<title>9&#45;&gt;0</title>
<path fill="none" stroke="grey" stroke-width="2" d="M1237.72,-115.11C1229.25,-108.53 1219.65,-100.99 1211,-94 1191.62,-78.33 1191.14,-67.27 1168,-58 1066.34,-17.27 727.85,-17.13 609.93,-18.39"/>
<polygon fill="grey" stroke="grey" stroke-width="2" points="609.98,-14.89 600.02,-18.5 610.06,-21.89 609.98,-14.89"/>
</g>
<!-- 10 -->
<g id="node11" class="node">
<title>10</title>
<path fill="none" stroke="#56d8d0" stroke-width="2" d="M1302.38,-94C1302.38,-94 1231.62,-94 1231.62,-94 1225.62,-94 1219.62,-88 1219.62,-82 1219.62,-82 1219.62,-70 1219.62,-70 1219.62,-64 1225.62,-58 1231.62,-58 1231.62,-58 1302.38,-58 1302.38,-58 1308.38,-58 1314.38,-64 1314.38,-70 1314.38,-70 1314.38,-82 1314.38,-82 1314.38,-88 1308.38,-94 1302.38,-94"/>
<text text-anchor="middle" x="1267" y="-72.88" font-family="sans" font-size="10.00">asm_ref_SafFire</text>
</g>
<!-- 9&#45;&gt;10 -->
<g id="edge36" class="edge">
<title>9&#45;&gt;10</title>
<path fill="none" stroke="grey" stroke-width="2" d="M1262.9,-115.28C1263.16,-112.83 1263.44,-110.26 1263.72,-107.65"/>
<polygon fill="grey" stroke="grey" stroke-width="2" points="1267.19,-108.12 1264.77,-97.81 1260.23,-107.38 1267.19,-108.12"/>
</g>
<!-- 10&#45;&gt;0 -->
<g id="edge19" class="edge">
<title>10&#45;&gt;0</title>
<path fill="none" stroke="grey" stroke-width="2" d="M1218.93,-60.59C1214.58,-59.6 1210.23,-58.71 1206,-58 983.23,-20.57 711.27,-18.02 609.76,-18.54"/>
<polygon fill="grey" stroke="grey" stroke-width="2" points="609.87,-15.04 599.89,-18.6 609.92,-22.04 609.87,-15.04"/>
</g>
<!-- 11 -->
<g id="node12" class="node">
<title>11</title>
<path fill="none" stroke="#8fd856" stroke-width="2" d="M934.25,-1718C934.25,-1718 763.75,-1718 763.75,-1718 757.75,-1718 751.75,-1712 751.75,-1706 751.75,-1706 751.75,-1694 751.75,-1694 751.75,-1688 757.75,-1682 763.75,-1682 763.75,-1682 934.25,-1682 934.25,-1682 940.25,-1682 946.25,-1688 946.25,-1694 946.25,-1694 946.25,-1706 946.25,-1706 946.25,-1712 940.25,-1718 934.25,-1718"/>
<text text-anchor="middle" x="849" y="-1696.88" font-family="sans" font-size="10.00">asm_create_renamed_bed_n_legend</text>
</g>
<!-- 11&#45;&gt;0 -->
<g id="edge11" class="edge">
<title>11&#45;&gt;0</title>
<path fill="none" stroke="grey" stroke-width="2" d="M751.1,-1694.6C543.1,-1683.94 76,-1652.49 76,-1585 76,-1585 76,-1585 76,-133 76,-94.58 86.62,-78.68 119,-58 153.07,-36.24 424.24,-24.23 528.42,-20.38"/>
<polygon fill="grey" stroke="grey" stroke-width="2" points="528.23,-23.89 538.1,-20.03 527.98,-16.9 528.23,-23.89"/>
</g>
<!-- 11&#45;&gt;15 -->
<g id="edge42" class="edge">
<title>11&#45;&gt;15</title>
<path fill="none" stroke="grey" stroke-width="2" d="M897.19,-1681.13C910.61,-1676.15 925.36,-1670.68 939.39,-1665.48"/>
<polygon fill="grey" stroke="grey" stroke-width="2" points="940.49,-1668.8 948.65,-1662.04 938.06,-1662.24 940.49,-1668.8"/>
</g>
<!-- 17 -->
<g id="node18" class="node">
<title>17</title>
<path fill="none" stroke="#d86656" stroke-width="2" d="M722.62,-1660C722.62,-1660 593.38,-1660 593.38,-1660 587.38,-1660 581.38,-1654 581.38,-1648 581.38,-1648 581.38,-1636 581.38,-1636 581.38,-1630 587.38,-1624 593.38,-1624 593.38,-1624 722.62,-1624 722.62,-1624 728.62,-1624 734.62,-1630 734.62,-1636 734.62,-1636 734.62,-1648 734.62,-1648 734.62,-1654 728.62,-1660 722.62,-1660"/>
<text text-anchor="middle" x="658" y="-1638.88" font-family="sans" font-size="10.00">filter_cens_oriented_regions</text>
</g>
<!-- 11&#45;&gt;17 -->
<g id="edge44" class="edge">
<title>11&#45;&gt;17</title>
<path fill="none" stroke="grey" stroke-width="2" d="M787.78,-1681.05C769.87,-1675.8 750.11,-1670.01 731.53,-1664.56"/>
<polygon fill="grey" stroke="grey" stroke-width="2" points="732.69,-1661.25 722.11,-1661.8 730.72,-1667.97 732.69,-1661.25"/>
</g>
<!-- 56 -->
<g id="node57" class="node">
<title>56</title>
<path fill="none" stroke="#61d856" stroke-width="2" d="M770.5,-616C770.5,-616 637.5,-616 637.5,-616 631.5,-616 625.5,-610 625.5,-604 625.5,-604 625.5,-592 625.5,-592 625.5,-586 631.5,-580 637.5,-580 637.5,-580 770.5,-580 770.5,-580 776.5,-580 782.5,-586 782.5,-592 782.5,-592 782.5,-604 782.5,-604 782.5,-610 776.5,-616 770.5,-616"/>
<text text-anchor="middle" x="704" y="-594.88" font-family="sans" font-size="10.00">fix_incorrect_merged_legend</text>
</g>
<!-- 11&#45;&gt;56 -->
<g id="edge96" class="edge">
<title>11&#45;&gt;56</title>
<path fill="none" stroke="grey" stroke-width="2" d="M946.83,-1685.87C1048.21,-1669.46 1192,-1637.01 1192,-1585 1192,-1585 1192,-1585 1192,-1061 1192,-887.09 992.85,-969.63 824,-928 789.15,-919.41 690.75,-929.92 664,-906 638.37,-883.08 645,-865.39 645,-831 645,-831 645,-831 645,-771 645,-718.42 669.97,-661.46 687.42,-628.07"/>
<polygon fill="grey" stroke="grey" stroke-width="2" points="690.35,-630.01 692.02,-619.55 684.19,-626.69 690.35,-630.01"/>
</g>
<!-- 12 -->
<g id="node13" class="node">
<title>12</title>
<path fill="none" stroke="#61d856" stroke-width="2" d="M892.62,-1776C892.62,-1776 805.38,-1776 805.38,-1776 799.38,-1776 793.38,-1770 793.38,-1764 793.38,-1764 793.38,-1752 793.38,-1752 793.38,-1746 799.38,-1740 805.38,-1740 805.38,-1740 892.62,-1740 892.62,-1740 898.62,-1740 904.62,-1746 904.62,-1752 904.62,-1752 904.62,-1764 904.62,-1764 904.62,-1770 898.62,-1776 892.62,-1776"/>
<text text-anchor="middle" x="849" y="-1754.88" font-family="sans" font-size="10.00">map_collapse_cens</text>
</g>
<!-- 12&#45;&gt;11 -->
<g id="edge37" class="edge">
<title>12&#45;&gt;11</title>
<path fill="none" stroke="grey" stroke-width="2" d="M849,-1739.28C849,-1736.83 849,-1734.26 849,-1731.65"/>
<polygon fill="grey" stroke="grey" stroke-width="2" points="852.5,-1731.82 849,-1721.82 845.5,-1731.82 852.5,-1731.82"/>
</g>
<!-- 13 -->
<g id="node14" class="node">
<title>13</title>
<path fill="none" stroke="#9fd856" stroke-width="2" d="M900.5,-1834C900.5,-1834 797.5,-1834 797.5,-1834 791.5,-1834 785.5,-1828 785.5,-1822 785.5,-1822 785.5,-1810 785.5,-1810 785.5,-1804 791.5,-1798 797.5,-1798 797.5,-1798 900.5,-1798 900.5,-1798 906.5,-1798 912.5,-1804 912.5,-1810 912.5,-1810 912.5,-1822 912.5,-1822 912.5,-1828 906.5,-1834 900.5,-1834"/>
<text text-anchor="middle" x="849" y="-1812.88" font-family="sans" font-size="10.00">intersect_with_pq_arm</text>
</g>
<!-- 13&#45;&gt;12 -->
<g id="edge38" class="edge">
<title>13&#45;&gt;12</title>
<path fill="none" stroke="grey" stroke-width="2" d="M849,-1797.28C849,-1794.83 849,-1792.26 849,-1789.65"/>
<polygon fill="grey" stroke="grey" stroke-width="2" points="852.5,-1789.82 849,-1779.82 845.5,-1789.82 852.5,-1789.82"/>
</g>
<!-- 14&#45;&gt;13 -->
<g id="edge39" class="edge">
<title>14&#45;&gt;13</title>
<path fill="none" stroke="grey" stroke-width="2" d="M849,-1855.28C849,-1852.83 849,-1850.26 849,-1847.65"/>
<polygon fill="grey" stroke="grey" stroke-width="2" points="852.5,-1847.82 849,-1837.82 845.5,-1847.82 852.5,-1847.82"/>
</g>
<!-- 15&#45;&gt;0 -->
<g id="edge9" class="edge">
<title>15&#45;&gt;0</title>
<path fill="none" stroke="grey" stroke-width="2" d="M1053.43,-1625.69C1097.91,-1609.28 1154,-1578.39 1154,-1527 1154,-1527 1154,-1527 1154,-133 1154,-86.48 1123.14,-77.71 1081,-58 997.64,-19.02 715.75,-17.54 609.75,-18.44"/>
<polygon fill="grey" stroke="grey" stroke-width="2" points="609.85,-14.93 599.88,-18.53 609.92,-21.93 609.85,-14.93"/>
</g>
<!-- 16 -->
<g id="node17" class="node">
<title>16</title>
<path fill="none" stroke="#d8ac56" stroke-width="2" d="M1113.75,-1312C1113.75,-1312 994.25,-1312 994.25,-1312 988.25,-1312 982.25,-1306 982.25,-1300 982.25,-1300 982.25,-1288 982.25,-1288 982.25,-1282 988.25,-1276 994.25,-1276 994.25,-1276 1113.75,-1276 1113.75,-1276 1119.75,-1276 1125.75,-1282 1125.75,-1288 1125.75,-1288 1125.75,-1300 1125.75,-1300 1125.75,-1306 1119.75,-1312 1113.75,-1312"/>
<text text-anchor="middle" x="1054" y="-1290.88" font-family="sans" font-size="10.00">asm_index_renamed_ctgs</text>
</g>
<!-- 15&#45;&gt;16 -->
<g id="edge43" class="edge">
<title>15&#45;&gt;16</title>
<path fill="none" stroke="grey" stroke-width="2" d="M1015.74,-1623.24C1020.81,-1616.87 1026.11,-1609.41 1030,-1602 1046.25,-1571 1054,-1562 1054,-1527 1054,-1527 1054,-1527 1054,-1409 1054,-1380.81 1054,-1348.7 1054,-1325.75"/>
<polygon fill="grey" stroke="grey" stroke-width="2" points="1057.5,-1325.8 1054,-1315.8 1050.5,-1325.8 1057.5,-1325.8"/>
</g>
<!-- 18 -->
<g id="node19" class="node">
<title>18</title>
<path fill="none" stroke="#afd856" stroke-width="2" d="M728.62,-1602C728.62,-1602 587.38,-1602 587.38,-1602 581.38,-1602 575.38,-1596 575.38,-1590 575.38,-1590 575.38,-1578 575.38,-1578 575.38,-1572 581.38,-1566 587.38,-1566 587.38,-1566 728.62,-1566 728.62,-1566 734.62,-1566 740.62,-1572 740.62,-1578 740.62,-1578 740.62,-1590 740.62,-1590 740.62,-1596 734.62,-1602 728.62,-1602"/>
<text text-anchor="middle" x="658" y="-1580.88" font-family="sans" font-size="10.00">extract_cens_oriented_regions</text>
</g>
<!-- 15&#45;&gt;18 -->
<g id="edge46" class="edge">
<title>15&#45;&gt;18</title>
<path fill="none" stroke="grey" stroke-width="2" d="M946.39,-1630.03C935.68,-1627.94 924.49,-1625.84 914,-1624 861.25,-1614.77 802.17,-1605.69 754.07,-1598.61"/>
<polygon fill="grey" stroke="grey" stroke-width="2" points="754.85,-1595.19 744.45,-1597.21 753.83,-1602.12 754.85,-1595.19"/>
</g>
<!-- 26 -->
<g id="node27" class="node">
<title>26</title>
<path fill="none" stroke="#68d856" stroke-width="2" d="M912.38,-1428C912.38,-1428 745.62,-1428 745.62,-1428 739.62,-1428 733.62,-1422 733.62,-1416 733.62,-1416 733.62,-1404 733.62,-1404 733.62,-1398 739.62,-1392 745.62,-1392 745.62,-1392 912.38,-1392 912.38,-1392 918.38,-1392 924.38,-1398 924.38,-1404 924.38,-1404 924.38,-1416 924.38,-1416 924.38,-1422 918.38,-1428 912.38,-1428"/>
<text text-anchor="middle" x="829" y="-1406.88" font-family="sans" font-size="10.00">extract_new_oriented_cens_regions</text>
</g>
<!-- 15&#45;&gt;26 -->
<g id="edge57" class="edge">
<title>15&#45;&gt;26</title>
<path fill="none" stroke="grey" stroke-width="2" d="M997.28,-1623.24C990.72,-1586.25 970.77,-1500.21 921,-1450 915.31,-1444.26 908.64,-1439.32 901.54,-1435.07"/>
<polygon fill="grey" stroke="grey" stroke-width="2" points="903.25,-1432.01 892.78,-1430.39 899.95,-1438.19 903.25,-1432.01"/>
</g>
<!-- 33 -->
<g id="node34" class="node">
<title>33</title>
<path fill="none" stroke="#d87d56" stroke-width="2" d="M892.75,-1602C892.75,-1602 803.25,-1602 803.25,-1602 797.25,-1602 791.25,-1596 791.25,-1590 791.25,-1590 791.25,-1578 791.25,-1578 791.25,-1572 797.25,-1566 803.25,-1566 803.25,-1566 892.75,-1566 892.75,-1566 898.75,-1566 904.75,-1572 904.75,-1578 904.75,-1578 904.75,-1590 904.75,-1590 904.75,-1596 898.75,-1602 892.75,-1602"/>
<text text-anchor="middle" x="848" y="-1580.88" font-family="sans" font-size="10.00">align_reads_to_asm</text>
</g>
<!-- 15&#45;&gt;33 -->
<g id="edge66" class="edge">
<title>15&#45;&gt;33</title>
<path fill="none" stroke="grey" stroke-width="2" d="M951.49,-1623.13C937.98,-1618.15 923.14,-1612.68 909.01,-1607.48"/>
<polygon fill="grey" stroke="grey" stroke-width="2" points="910.27,-1604.21 899.67,-1604.04 907.85,-1610.78 910.27,-1604.21"/>
</g>
<!-- 43 -->
<g id="node44" class="node">
<title>43</title>
<path fill="none" stroke="#56d8c1" stroke-width="2" d="M702.75,-1080C702.75,-1080 559.25,-1080 559.25,-1080 553.25,-1080 547.25,-1074 547.25,-1068 547.25,-1068 547.25,-1056 547.25,-1056 547.25,-1050 553.25,-1044 559.25,-1044 559.25,-1044 702.75,-1044 702.75,-1044 708.75,-1044 714.75,-1050 714.75,-1056 714.75,-1056 714.75,-1068 714.75,-1068 714.75,-1074 708.75,-1080 702.75,-1080"/>
<text text-anchor="middle" x="631" y="-1058.88" font-family="sans" font-size="10.00">extract_correct_alr_regions_rm</text>
</g>
<!-- 15&#45;&gt;43 -->
<g id="edge77" class="edge">
<title>15&#45;&gt;43</title>
<path fill="none" stroke="grey" stroke-width="2" d="M1001.47,-1623.1C1002.48,-1607.89 1003.41,-1585.49 1002,-1566 991.31,-1418.62 954,-1384.77 954,-1237 954,-1237 954,-1237 954,-1177 954,-1128.55 823.16,-1095.6 728.03,-1078.04"/>
<polygon fill="grey" stroke="grey" stroke-width="2" points="728.88,-1074.64 718.42,-1076.3 727.64,-1081.52 728.88,-1074.64"/>
</g>
<!-- 16&#45;&gt;0 -->
<g id="edge17" class="edge">
<title>16&#45;&gt;0</title>
<path fill="none" stroke="grey" stroke-width="2" d="M1060.18,-1275.08C1067.29,-1252.83 1078,-1213.59 1078,-1179 1078,-1179 1078,-1179 1078,-1003 1078,-873.89 1116,-844.11 1116,-715 1116,-715 1116,-715 1116,-133 1116,-82.28 1076.7,-77.79 1030,-58 954.78,-26.13 708,-20.28 609.82,-19.23"/>
<polygon fill="grey" stroke="grey" stroke-width="2" points="610.04,-15.73 600.01,-19.13 609.98,-22.73 610.04,-15.73"/>
</g>
<!-- 17&#45;&gt;0 -->
<g id="edge8" class="edge">
<title>17&#45;&gt;0</title>
<path fill="none" stroke="grey" stroke-width="2" d="M580.64,-1640.7C430.45,-1638.02 114,-1621.2 114,-1527 114,-1527 114,-1527 114,-133 114,-93.18 128.93,-78.61 163,-58 223.66,-21.32 437.79,-18.16 528.22,-18.52"/>
<polygon fill="grey" stroke="grey" stroke-width="2" points="528.08,-22.02 538.1,-18.58 528.12,-15.02 528.08,-22.02"/>
</g>
<!-- 17&#45;&gt;18 -->
<g id="edge45" class="edge">
<title>17&#45;&gt;18</title>
<path fill="none" stroke="grey" stroke-width="2" d="M658,-1623.28C658,-1620.83 658,-1618.26 658,-1615.65"/>
<polygon fill="grey" stroke="grey" stroke-width="2" points="661.5,-1615.82 658,-1605.82 654.5,-1615.82 661.5,-1615.82"/>
</g>
<!-- 18&#45;&gt;0 -->
<g id="edge7" class="edge">
<title>18&#45;&gt;0</title>
<path fill="none" stroke="grey" stroke-width="2" d="M574.44,-1581.23C430.73,-1575.91 152,-1554.55 152,-1469 152,-1469 152,-1469 152,-133 152,-78.51 198.59,-78.7 249,-58 298.65,-37.61 453.54,-25.88 528.1,-21.28"/>
<polygon fill="grey" stroke="grey" stroke-width="2" points="528.25,-24.78 538.02,-20.68 527.83,-17.79 528.25,-24.78"/>
</g>
<!-- 23 -->
<g id="node24" class="node">
<title>23</title>
<path fill="none" stroke="#d8bc56" stroke-width="2" d="M687,-1544C687,-1544 629,-1544 629,-1544 623,-1544 617,-1538 617,-1532 617,-1532 617,-1520 617,-1520 617,-1514 623,-1508 629,-1508 629,-1508 687,-1508 687,-1508 693,-1508 699,-1514 699,-1520 699,-1520 699,-1532 699,-1532 699,-1538 693,-1544 687,-1544"/>
<text text-anchor="middle" x="658" y="-1522.88" font-family="sans" font-size="10.00">run_dna_brnn</text>
</g>
<!-- 18&#45;&gt;23 -->
<g id="edge51" class="edge">
<title>18&#45;&gt;23</title>
<path fill="none" stroke="grey" stroke-width="2" d="M658,-1565.28C658,-1562.83 658,-1560.26 658,-1557.65"/>
<polygon fill="grey" stroke="grey" stroke-width="2" points="661.5,-1557.82 658,-1547.82 654.5,-1557.82 661.5,-1557.82"/>
</g>
<!-- 19 -->
<g id="node20" class="node">
<title>19</title>
<path fill="none" stroke="#56d0d8" stroke-width="2" d="M509.62,-1428C509.62,-1428 326.38,-1428 326.38,-1428 320.38,-1428 314.38,-1422 314.38,-1416 314.38,-1416 314.38,-1404 314.38,-1404 314.38,-1398 320.38,-1392 326.38,-1392 326.38,-1392 509.62,-1392 509.62,-1392 515.62,-1392 521.62,-1398 521.62,-1404 521.62,-1404 521.62,-1416 521.62,-1416 521.62,-1422 515.62,-1428 509.62,-1428"/>
<text text-anchor="middle" x="418" y="-1406.88" font-family="sans" font-size="10.00">aggregate_dnabrnn_alr_regions_by_chr</text>
</g>
<!-- 19&#45;&gt;0 -->
<g id="edge22" class="edge">
<title>19&#45;&gt;0</title>
<path fill="none" stroke="grey" stroke-width="2" d="M344.56,-1391.06C297.81,-1374.76 246,-1345.33 246,-1295 246,-1295 246,-1295 246,-133 246,-94.8 256.45,-79.54 288,-58 326.32,-31.83 460.48,-23.06 528.62,-20.25"/>
<polygon fill="grey" stroke="grey" stroke-width="2" points="528.44,-23.76 538.3,-19.88 528.17,-16.76 528.44,-23.76"/>
</g>
<!-- 25 -->
<g id="node26" class="node">
<title>25</title>
<path fill="none" stroke="#56a9d8" stroke-width="2" d="M663.62,-1370C663.62,-1370 504.38,-1370 504.38,-1370 498.38,-1370 492.38,-1364 492.38,-1358 492.38,-1358 492.38,-1346 492.38,-1346 492.38,-1340 498.38,-1334 504.38,-1334 504.38,-1334 663.62,-1334 663.62,-1334 669.62,-1334 675.62,-1340 675.62,-1346 675.62,-1346 675.62,-1358 675.62,-1358 675.62,-1364 669.62,-1370 663.62,-1370"/>
<text text-anchor="middle" x="584" y="-1348.88" font-family="sans" font-size="10.00">extract_alr_region_sample_by_chr</text>
</g>
<!-- 19&#45;&gt;25 -->
<g id="edge54" class="edge">
<title>19&#45;&gt;25</title>
<path fill="none" stroke="grey" stroke-width="2" d="M470.98,-1391.13C486.18,-1386 502.93,-1380.35 518.77,-1375"/>
<polygon fill="grey" stroke="grey" stroke-width="2" points="519.44,-1378.47 527.8,-1371.96 517.21,-1371.84 519.44,-1378.47"/>
</g>
<!-- 28 -->
<g id="node29" class="node">
<title>28</title>
<path fill="none" stroke="#a7d856" stroke-width="2" d="M462.38,-1370C462.38,-1370 325.62,-1370 325.62,-1370 319.62,-1370 313.62,-1364 313.62,-1358 313.62,-1358 313.62,-1346 313.62,-1346 313.62,-1340 319.62,-1334 325.62,-1334 325.62,-1334 462.38,-1334 462.38,-1334 468.38,-1334 474.38,-1340 474.38,-1346 474.38,-1346 474.38,-1358 474.38,-1358 474.38,-1364 468.38,-1370 462.38,-1370"/>
<text text-anchor="middle" x="394" y="-1348.88" font-family="sans" font-size="10.00">extract_alr_region_ref_by_chr</text>
</g>
<!-- 19&#45;&gt;28 -->
<g id="edge59" class="edge">
<title>19&#45;&gt;28</title>
<path fill="none" stroke="grey" stroke-width="2" d="M410.41,-1391.28C409.22,-1388.52 407.98,-1385.61 406.72,-1382.67"/>
<polygon fill="grey" stroke="grey" stroke-width="2" points="409.98,-1381.39 402.82,-1373.58 403.54,-1384.15 409.98,-1381.39"/>
</g>
<!-- 20 -->
<g id="node21" class="node">
<title>20</title>
<path fill="none" stroke="#56d85b" stroke-width="2" d="M313.88,-1486C313.88,-1486 192.12,-1486 192.12,-1486 186.12,-1486 180.12,-1480 180.12,-1474 180.12,-1474 180.12,-1462 180.12,-1462 180.12,-1456 186.12,-1450 192.12,-1450 192.12,-1450 313.88,-1450 313.88,-1450 319.88,-1450 325.88,-1456 325.88,-1462 325.88,-1462 325.88,-1474 325.88,-1474 325.88,-1480 319.88,-1486 313.88,-1486"/>
<text text-anchor="middle" x="253" y="-1464.88" font-family="sans" font-size="10.00">get_dnabrnn_ref_cens_pos</text>
</g>
<!-- 20&#45;&gt;19 -->
<g id="edge49" class="edge">
<title>20&#45;&gt;19</title>
<path fill="none" stroke="grey" stroke-width="2" d="M305.66,-1449.13C320.62,-1444.05 337.09,-1438.46 352.7,-1433.16"/>
<polygon fill="grey" stroke="grey" stroke-width="2" points="353.78,-1436.49 362.12,-1429.96 351.53,-1429.86 353.78,-1436.49"/>
</g>
<!-- 21 -->
<g id="node22" class="node">
<title>21</title>
<path fill="none" stroke="#56d8b9" stroke-width="2" d="M503.62,-1486C503.62,-1486 356.38,-1486 356.38,-1486 350.38,-1486 344.38,-1480 344.38,-1474 344.38,-1474 344.38,-1462 344.38,-1462 344.38,-1456 350.38,-1450 356.38,-1450 356.38,-1450 503.62,-1450 503.62,-1450 509.62,-1450 515.62,-1456 515.62,-1462 515.62,-1462 515.62,-1474 515.62,-1474 515.62,-1480 509.62,-1486 503.62,-1486"/>
<text text-anchor="middle" x="430" y="-1464.88" font-family="sans" font-size="10.00">filter_dnabrnn_ref_cens_regions</text>
</g>
<!-- 21&#45;&gt;19 -->
<g id="edge47" class="edge">
<title>21&#45;&gt;19</title>
<path fill="none" stroke="grey" stroke-width="2" d="M426.2,-1449.28C425.66,-1446.73 425.08,-1444.04 424.5,-1441.33"/>
<polygon fill="grey" stroke="grey" stroke-width="2" points="427.97,-1440.8 422.45,-1431.76 421.12,-1442.27 427.97,-1440.8"/>
</g>
<!-- 22 -->
<g id="node23" class="node">
<title>22</title>
<path fill="none" stroke="#56b1d8" stroke-width="2" d="M715.88,-1486C715.88,-1486 546.12,-1486 546.12,-1486 540.12,-1486 534.12,-1480 534.12,-1474 534.12,-1474 534.12,-1462 534.12,-1462 534.12,-1456 540.12,-1450 546.12,-1450 546.12,-1450 715.88,-1450 715.88,-1450 721.88,-1450 727.88,-1456 727.88,-1462 727.88,-1462 727.88,-1474 727.88,-1474 727.88,-1480 721.88,-1486 715.88,-1486"/>
<text text-anchor="middle" x="631" y="-1464.88" font-family="sans" font-size="10.00">filter_dnabrnn_sample_cens_regions</text>
</g>
<!-- 22&#45;&gt;19 -->
<g id="edge48" class="edge">
<title>22&#45;&gt;19</title>
<path fill="none" stroke="grey" stroke-width="2" d="M562.73,-1449.05C542.38,-1443.7 519.88,-1437.79 498.81,-1432.25"/>
<polygon fill="grey" stroke="grey" stroke-width="2" points="499.74,-1428.87 489.18,-1429.71 497.96,-1435.64 499.74,-1428.87"/>
</g>
<!-- 23&#45;&gt;22 -->
<g id="edge50" class="edge">
<title>23&#45;&gt;22</title>
<path fill="none" stroke="grey" stroke-width="2" d="M649.46,-1507.28C648.08,-1504.42 646.62,-1501.4 645.15,-1498.35"/>
<polygon fill="grey" stroke="grey" stroke-width="2" points="648.39,-1497.01 640.89,-1489.52 642.09,-1500.05 648.39,-1497.01"/>
</g>
<!-- 27 -->
<g id="node28" class="node">
<title>27</title>
<path fill="none" stroke="#59d856" stroke-width="2" d="M900.38,-1486C900.38,-1486 757.62,-1486 757.62,-1486 751.62,-1486 745.62,-1480 745.62,-1474 745.62,-1474 745.62,-1462 745.62,-1462 745.62,-1456 751.62,-1450 757.62,-1450 757.62,-1450 900.38,-1450 900.38,-1450 906.38,-1450 912.38,-1456 912.38,-1462 912.38,-1462 912.38,-1474 912.38,-1474 912.38,-1480 906.38,-1486 900.38,-1486"/>
<text text-anchor="middle" x="829" y="-1464.88" font-family="sans" font-size="10.00">create_format_orient_cens_list</text>
</g>
<!-- 23&#45;&gt;27 -->
<g id="edge58" class="edge">
<title>23&#45;&gt;27</title>
<path fill="none" stroke="grey" stroke-width="2" d="M699.83,-1511.3C718.59,-1505.16 741.19,-1497.76 762.2,-1490.87"/>
<polygon fill="grey" stroke="grey" stroke-width="2" points="763.06,-1494.28 771.47,-1487.84 760.88,-1487.62 763.06,-1494.28"/>
</g>
<!-- 24 -->
<g id="node25" class="node">
<title>24</title>
<path fill="none" stroke="#56c9d8" stroke-width="2" d="M454.12,-1312C454.12,-1312 333.88,-1312 333.88,-1312 327.88,-1312 321.88,-1306 321.88,-1300 321.88,-1300 321.88,-1288 321.88,-1288 321.88,-1282 327.88,-1276 333.88,-1276 333.88,-1276 454.12,-1276 454.12,-1276 460.12,-1276 466.12,-1282 466.12,-1288 466.12,-1288 466.12,-1300 466.12,-1300 466.12,-1306 460.12,-1312 454.12,-1312"/>
<text text-anchor="middle" x="394" y="-1290.88" font-family="sans" font-size="10.00">merge_alr_regions_by_chr</text>
</g>
<!-- 24&#45;&gt;0 -->
<g id="edge24" class="edge">
<title>24&#45;&gt;0</title>
<path fill="none" stroke="grey" stroke-width="2" d="M343.94,-1275.08C333.4,-1269.56 323.05,-1262.6 315,-1254 290.36,-1227.66 284,-1215.07 284,-1179 284,-1179 284,-1179 284,-133 284,-94.8 294.68,-79.88 326,-58 358,-35.65 468.07,-25.34 528.5,-21.26"/>
<polygon fill="grey" stroke="grey" stroke-width="2" points="528.52,-24.77 538.28,-20.64 528.07,-17.78 528.52,-24.77"/>
</g>
<!-- 29 -->
<g id="node30" class="node">
<title>29</title>
<path fill="none" stroke="#56d86b" stroke-width="2" d="M451.88,-1254C451.88,-1254 336.12,-1254 336.12,-1254 330.12,-1254 324.12,-1248 324.12,-1242 324.12,-1242 324.12,-1230 324.12,-1230 324.12,-1224 330.12,-1218 336.12,-1218 336.12,-1218 451.88,-1218 451.88,-1218 457.88,-1218 463.88,-1224 463.88,-1230 463.88,-1230 463.88,-1242 463.88,-1242 463.88,-1248 457.88,-1254 451.88,-1254"/>
<text text-anchor="middle" x="394" y="-1232.88" font-family="sans" font-size="10.00">make_new_cens_bed_file</text>
</g>
<!-- 24&#45;&gt;29 -->
<g id="edge60" class="edge">
<title>24&#45;&gt;29</title>
<path fill="none" stroke="grey" stroke-width="2" d="M394,-1275.28C394,-1272.83 394,-1270.26 394,-1267.65"/>
<polygon fill="grey" stroke="grey" stroke-width="2" points="397.5,-1267.82 394,-1257.82 390.5,-1267.82 397.5,-1267.82"/>
</g>
<!-- 25&#45;&gt;24 -->
<g id="edge53" class="edge">
<title>25&#45;&gt;24</title>
<path fill="none" stroke="grey" stroke-width="2" d="M523.1,-1333.05C505.29,-1327.8 485.63,-1322.01 467.14,-1316.56"/>
<polygon fill="grey" stroke="grey" stroke-width="2" points="468.37,-1313.27 457.79,-1313.8 466.39,-1319.98 468.37,-1313.27"/>
</g>
<!-- 26&#45;&gt;25 -->
<g id="edge55" class="edge">
<title>26&#45;&gt;25</title>
<path fill="none" stroke="grey" stroke-width="2" d="M750.47,-1391.05C726.4,-1385.55 699.73,-1379.45 674.91,-1373.78"/>
<polygon fill="grey" stroke="grey" stroke-width="2" points="675.99,-1370.44 665.46,-1371.62 674.43,-1377.26 675.99,-1370.44"/>
</g>
<!-- 27&#45;&gt;26 -->
<g id="edge56" class="edge">
<title>27&#45;&gt;26</title>
<path fill="none" stroke="grey" stroke-width="2" d="M829,-1449.28C829,-1446.83 829,-1444.26 829,-1441.65"/>
<polygon fill="grey" stroke="grey" stroke-width="2" points="832.5,-1441.82 829,-1431.82 825.5,-1441.82 832.5,-1441.82"/>
</g>
<!-- 28&#45;&gt;24 -->
<g id="edge52" class="edge">
<title>28&#45;&gt;24</title>
<path fill="none" stroke="grey" stroke-width="2" d="M394,-1333.28C394,-1330.83 394,-1328.26 394,-1325.65"/>
<polygon fill="grey" stroke="grey" stroke-width="2" points="397.5,-1325.82 394,-1315.82 390.5,-1325.82 397.5,-1325.82"/>
</g>
<!-- 29&#45;&gt;0 -->
<g id="edge4" class="edge">
<title>29&#45;&gt;0</title>
<path fill="none" stroke="grey" stroke-width="2" d="M373.56,-1217.05C352.27,-1196.26 322,-1159.86 322,-1121 322,-1121 322,-1121 322,-133 322,-94.35 334.44,-80.3 366,-58 391.56,-39.94 476.52,-28.39 528.08,-22.86"/>
<polygon fill="grey" stroke="grey" stroke-width="2" points="528.43,-26.34 538.02,-21.83 527.71,-19.38 528.43,-26.34"/>
</g>
<!-- 30 -->
<g id="node31" class="node">
<title>30</title>
<path fill="none" stroke="#565bd8" stroke-width="2" d="M525.38,-1196C525.38,-1196 436.62,-1196 436.62,-1196 430.62,-1196 424.62,-1190 424.62,-1184 424.62,-1184 424.62,-1172 424.62,-1172 424.62,-1166 430.62,-1160 436.62,-1160 436.62,-1160 525.38,-1160 525.38,-1160 531.38,-1160 537.38,-1166 537.38,-1172 537.38,-1172 537.38,-1184 537.38,-1184 537.38,-1190 531.38,-1196 525.38,-1196"/>
<text text-anchor="middle" x="481" y="-1174.88" font-family="sans" font-size="10.00">check_asm_nucfreq</text>
</g>
<!-- 29&#45;&gt;30 -->
<g id="edge62" class="edge">
<title>29&#45;&gt;30</title>
<path fill="none" stroke="grey" stroke-width="2" d="M421.53,-1217.28C428.13,-1213.03 435.3,-1208.42 442.3,-1203.91"/>
<polygon fill="grey" stroke="grey" stroke-width="2" points="443.99,-1206.98 450.51,-1198.63 440.21,-1201.1 443.99,-1206.98"/>
</g>
<!-- 30&#45;&gt;0 -->
<g id="edge23" class="edge">
<title>30&#45;&gt;0</title>
<path fill="none" stroke="grey" stroke-width="2" d="M440.03,-1159.02C404.93,-1140.51 360,-1108.02 360,-1063 360,-1063 360,-1063 360,-133 360,-93.18 376.49,-80.99 409,-58 444.34,-33 493.84,-23.93 528.4,-20.69"/>
<polygon fill="grey" stroke="grey" stroke-width="2" points="528.58,-24.19 538.28,-19.92 528.04,-17.21 528.58,-24.19"/>
</g>
<!-- 44 -->
<g id="node45" class="node">
<title>44</title>
<path fill="none" stroke="#5663d8" stroke-width="2" d="M638.88,-1138C638.88,-1138 523.12,-1138 523.12,-1138 517.12,-1138 511.12,-1132 511.12,-1126 511.12,-1126 511.12,-1114 511.12,-1114 511.12,-1108 517.12,-1102 523.12,-1102 523.12,-1102 638.88,-1102 638.88,-1102 644.88,-1102 650.88,-1108 650.88,-1114 650.88,-1114 650.88,-1126 650.88,-1126 650.88,-1132 644.88,-1138 638.88,-1138"/>
<text text-anchor="middle" x="581" y="-1116.88" font-family="sans" font-size="10.00">get_valid_regions_for_rm</text>
</g>
<!-- 30&#45;&gt;44 -->
<g id="edge78" class="edge">
<title>30&#45;&gt;44</title>
<path fill="none" stroke="grey" stroke-width="2" d="M512.92,-1159.13C520.85,-1154.68 529.49,-1149.84 537.87,-1145.15"/>
<polygon fill="grey" stroke="grey" stroke-width="2" points="539.39,-1148.31 546.4,-1140.37 535.97,-1142.21 539.39,-1148.31"/>
</g>
<!-- 31 -->
<g id="node32" class="node">
<title>31</title>
<path fill="none" stroke="#569ad8" stroke-width="2" d="M800.5,-1254C800.5,-1254 643.5,-1254 643.5,-1254 637.5,-1254 631.5,-1248 631.5,-1242 631.5,-1242 631.5,-1230 631.5,-1230 631.5,-1224 637.5,-1218 643.5,-1218 643.5,-1218 800.5,-1218 800.5,-1218 806.5,-1218 812.5,-1224 812.5,-1230 812.5,-1230 812.5,-1242 812.5,-1242 812.5,-1248 806.5,-1254 800.5,-1254"/>
<text text-anchor="middle" x="722" y="-1232.88" font-family="sans" font-size="10.00">merge_hifi_read_asm_alignments</text>
</g>
<!-- 31&#45;&gt;30 -->
<g id="edge61" class="edge">
<title>31&#45;&gt;30</title>
<path fill="none" stroke="grey" stroke-width="2" d="M644.75,-1217.05C614.51,-1210.02 580.09,-1202.02 550.63,-1195.18"/>
<polygon fill="grey" stroke="grey" stroke-width="2" points="551.82,-1191.86 541.28,-1193.01 550.23,-1198.68 551.82,-1191.86"/>
</g>
<!-- 32 -->
<g id="node33" class="node">
<title>32</title>
<path fill="none" stroke="#d8b456" stroke-width="2" d="M899.62,-1544C899.62,-1544 782.38,-1544 782.38,-1544 776.38,-1544 770.38,-1538 770.38,-1532 770.38,-1532 770.38,-1520 770.38,-1520 770.38,-1514 776.38,-1508 782.38,-1508 782.38,-1508 899.62,-1508 899.62,-1508 905.62,-1508 911.62,-1514 911.62,-1520 911.62,-1520 911.62,-1532 911.62,-1532 911.62,-1538 905.62,-1544 899.62,-1544"/>
<text text-anchor="middle" x="841" y="-1522.88" font-family="sans" font-size="10.00">filter_align_reads_to_asm</text>
</g>
<!-- 32&#45;&gt;31 -->
<g id="edge63" class="edge">
<title>32&#45;&gt;31</title>
<path fill="none" stroke="grey" stroke-width="2" d="M895,-1507.13C904.86,-1501.71 914.17,-1494.78 921,-1486 946.84,-1452.74 952.02,-1429.58 933,-1392 900.91,-1328.61 829.33,-1284.84 778.46,-1260.36"/>
<polygon fill="grey" stroke="grey" stroke-width="2" points="780.26,-1257.34 769.72,-1256.28 777.3,-1263.68 780.26,-1257.34"/>
</g>
<!-- 33&#45;&gt;32 -->
<g id="edge64" class="edge">
<title>33&#45;&gt;32</title>
<path fill="none" stroke="grey" stroke-width="2" d="M845.79,-1565.28C845.48,-1562.83 845.16,-1560.26 844.83,-1557.65"/>
<polygon fill="grey" stroke="grey" stroke-width="2" points="848.31,-1557.29 843.6,-1547.8 841.37,-1558.16 848.31,-1557.29"/>
</g>
<!-- 34 -->
<g id="node35" class="node">
<title>34</title>
<path fill="none" stroke="#56d882" stroke-width="2" d="M893.5,-1660C893.5,-1660 802.5,-1660 802.5,-1660 796.5,-1660 790.5,-1654 790.5,-1648 790.5,-1648 790.5,-1636 790.5,-1636 790.5,-1630 796.5,-1624 802.5,-1624 802.5,-1624 893.5,-1624 893.5,-1624 899.5,-1624 905.5,-1630 905.5,-1636 905.5,-1636 905.5,-1648 905.5,-1648 905.5,-1654 899.5,-1660 893.5,-1660"/>
<text text-anchor="middle" x="848" y="-1638.88" font-family="sans" font-size="10.00">convert_reads_to_fq</text>
</g>
<!-- 34&#45;&gt;33 -->
<g id="edge65" class="edge">
<title>34&#45;&gt;33</title>
<path fill="none" stroke="grey" stroke-width="2" d="M848,-1623.28C848,-1620.83 848,-1618.26 848,-1615.65"/>
<polygon fill="grey" stroke="grey" stroke-width="2" points="851.5,-1615.82 848,-1605.82 844.5,-1615.82 851.5,-1615.82"/>
</g>
<!-- 35 -->
<g id="node36" class="node">
<title>35</title>
<path fill="none" stroke="#ced856" stroke-width="2" d="M866.5,-674C866.5,-674 763.5,-674 763.5,-674 757.5,-674 751.5,-668 751.5,-662 751.5,-662 751.5,-650 751.5,-650 751.5,-644 757.5,-638 763.5,-638 763.5,-638 866.5,-638 866.5,-638 872.5,-638 878.5,-644 878.5,-650 878.5,-650 878.5,-662 878.5,-662 878.5,-668 872.5,-674 866.5,-674"/>
<text text-anchor="middle" x="815" y="-652.88" font-family="sans" font-size="10.00">merge_corrections_list</text>
</g>
<!-- 35&#45;&gt;0 -->
<g id="edge2" class="edge">
<title>35&#45;&gt;0</title>
<path fill="none" stroke="grey" stroke-width="2" d="M869.81,-637.07C946.89,-611.05 1078,-563.49 1078,-541 1078,-541 1078,-541 1078,-133 1078,-37.19 730.26,-21.88 609.63,-19.45"/>
<polygon fill="grey" stroke="grey" stroke-width="2" points="609.81,-15.95 599.75,-19.28 609.69,-22.95 609.81,-15.95"/>
</g>
<!-- 46 -->
<g id="node47" class="node">
<title>46</title>
<path fill="none" stroke="#d8c356" stroke-width="2" d="M905.38,-558C905.38,-558 780.62,-558 780.62,-558 774.62,-558 768.62,-552 768.62,-546 768.62,-546 768.62,-534 768.62,-534 768.62,-528 774.62,-522 780.62,-522 780.62,-522 905.38,-522 905.38,-522 911.38,-522 917.38,-528 917.38,-534 917.38,-534 917.38,-546 917.38,-546 917.38,-552 911.38,-558 905.38,-558"/>
<text text-anchor="middle" x="843" y="-536.88" font-family="sans" font-size="10.00">fix_incorrect_mapped_cens</text>
</g>
<!-- 35&#45;&gt;46 -->
<g id="edge81" class="edge">
<title>35&#45;&gt;46</title>
<path fill="none" stroke="grey" stroke-width="2" d="M819.38,-637.19C823.71,-619.54 830.43,-592.16 835.6,-571.13"/>
<polygon fill="grey" stroke="grey" stroke-width="2" points="838.95,-572.17 837.93,-561.63 832.15,-570.5 838.95,-572.17"/>
</g>
<!-- 35&#45;&gt;56 -->
<g id="edge95" class="edge">
<title>35&#45;&gt;56</title>
<path fill="none" stroke="grey" stroke-width="2" d="M779.57,-637.13C770.46,-632.53 760.52,-627.51 750.92,-622.67"/>
<polygon fill="grey" stroke="grey" stroke-width="2" points="752.68,-619.64 742.17,-618.26 749.52,-625.89 752.68,-619.64"/>
</g>
<!-- 36 -->
<g id="node37" class="node">
<title>36</title>
<path fill="none" stroke="#56d8b1" stroke-width="2" d="M869.75,-732C869.75,-732 786.25,-732 786.25,-732 780.25,-732 774.25,-726 774.25,-720 774.25,-720 774.25,-708 774.25,-708 774.25,-702 780.25,-696 786.25,-696 786.25,-696 869.75,-696 869.75,-696 875.75,-696 881.75,-702 881.75,-708 881.75,-708 881.75,-720 881.75,-720 881.75,-726 875.75,-732 869.75,-732"/>
<text text-anchor="middle" x="828" y="-710.88" font-family="sans" font-size="10.00">check_cens_status</text>
</g>
<!-- 36&#45;&gt;35 -->
<g id="edge67" class="edge">
<title>36&#45;&gt;35</title>
<path fill="none" stroke="grey" stroke-width="2" d="M823.89,-695.28C823.29,-692.73 822.67,-690.04 822.04,-687.33"/>
<polygon fill="grey" stroke="grey" stroke-width="2" points="825.49,-686.69 819.82,-677.74 818.67,-688.28 825.49,-686.69"/>
</g>
<!-- 47 -->
<g id="node48" class="node">
<title>47</title>
<path fill="none" stroke="#56a9d8" stroke-width="2" d="M1043.62,-674C1043.62,-674 908.38,-674 908.38,-674 902.38,-674 896.38,-668 896.38,-662 896.38,-662 896.38,-650 896.38,-650 896.38,-644 902.38,-638 908.38,-638 908.38,-638 1043.62,-638 1043.62,-638 1049.62,-638 1055.62,-644 1055.62,-650 1055.62,-650 1055.62,-662 1055.62,-662 1055.62,-668 1049.62,-674 1043.62,-674"/>
<text text-anchor="middle" x="976" y="-652.88" font-family="sans" font-size="10.00">create_correct_oriented_cens</text>
</g>
<!-- 36&#45;&gt;47 -->
<g id="edge84" class="edge">
<title>36&#45;&gt;47</title>
<path fill="none" stroke="grey" stroke-width="2" d="M875.24,-695.13C888.39,-690.15 902.84,-684.68 916.6,-679.48"/>
<polygon fill="grey" stroke="grey" stroke-width="2" points="917.51,-682.87 925.62,-676.06 915.03,-676.33 917.51,-682.87"/>
</g>
<!-- 37 -->
<g id="node38" class="node">
<title>37</title>
<path fill="none" stroke="#56d8a9" stroke-width="2" d="M805.88,-790C805.88,-790 702.12,-790 702.12,-790 696.12,-790 690.12,-784 690.12,-778 690.12,-778 690.12,-766 690.12,-766 690.12,-760 696.12,-754 702.12,-754 702.12,-754 805.88,-754 805.88,-754 811.88,-754 817.88,-760 817.88,-766 817.88,-766 817.88,-778 817.88,-778 817.88,-784 811.88,-790 805.88,-790"/>
<text text-anchor="middle" x="754" y="-768.88" font-family="sans" font-size="10.00">extract_rm_out_by_chr</text>
</g>
<!-- 37&#45;&gt;36 -->
<g id="edge68" class="edge">
<title>37&#45;&gt;36</title>
<path fill="none" stroke="grey" stroke-width="2" d="M777.41,-753.28C782.76,-749.24 788.55,-744.86 794.23,-740.56"/>
<polygon fill="grey" stroke="grey" stroke-width="2" points="795.95,-743.64 801.82,-734.82 791.73,-738.06 795.95,-743.64"/>
</g>
<!-- 37&#45;&gt;47 -->
<g id="edge82" class="edge">
<title>37&#45;&gt;47</title>
<path fill="none" stroke="grey" stroke-width="2" d="M818.71,-758.86C842.36,-752.83 868.76,-744.16 891,-732 913.95,-719.46 935.99,-699.72 951.86,-683.64"/>
<polygon fill="grey" stroke="grey" stroke-width="2" points="953.97,-686.5 958.37,-676.86 948.92,-681.66 953.97,-686.5"/>
</g>
<!-- 51 -->
<g id="node52" class="node">
<title>51</title>
<path fill="none" stroke="#56d8a2" stroke-width="2" d="M551.25,-616C551.25,-616 410.75,-616 410.75,-616 404.75,-616 398.75,-610 398.75,-604 398.75,-604 398.75,-592 398.75,-592 398.75,-586 404.75,-580 410.75,-580 410.75,-580 551.25,-580 551.25,-580 557.25,-580 563.25,-586 563.25,-592 563.25,-592 563.25,-604 563.25,-604 563.25,-610 557.25,-616 551.25,-616"/>
<text text-anchor="middle" x="481" y="-594.88" font-family="sans" font-size="10.00">plot_og_cens_from_rm_by_chr</text>
</g>
<!-- 37&#45;&gt;51 -->
<g id="edge88" class="edge">
<title>37&#45;&gt;51</title>
<path fill="none" stroke="grey" stroke-width="2" d="M725.56,-753.08C676.5,-722.17 575.88,-658.78 520.21,-623.71"/>
<polygon fill="grey" stroke="grey" stroke-width="2" points="522.27,-620.86 511.94,-618.49 518.54,-626.79 522.27,-620.86"/>
</g>
<!-- 38 -->
<g id="node39" class="node">
<title>38</title>
<path fill="none" stroke="#56b9d8" stroke-width="2" d="M881.38,-848C881.38,-848 684.62,-848 684.62,-848 678.62,-848 672.62,-842 672.62,-836 672.62,-836 672.62,-824 672.62,-824 672.62,-818 678.62,-812 684.62,-812 684.62,-812 881.38,-812 881.38,-812 887.38,-812 893.38,-818 893.38,-824 893.38,-824 893.38,-836 893.38,-836 893.38,-842 887.38,-848 881.38,-848"/>
<text text-anchor="middle" x="783" y="-826.88" font-family="sans" font-size="10.00">format_add_control_repeatmasker_output</text>
</g>
<!-- 38&#45;&gt;37 -->
<g id="edge70" class="edge">
<title>38&#45;&gt;37</title>
<path fill="none" stroke="grey" stroke-width="2" d="M773.82,-811.28C772.34,-808.42 770.78,-805.4 769.2,-802.35"/>
<polygon fill="grey" stroke="grey" stroke-width="2" points="772.31,-800.75 764.61,-793.48 766.1,-803.97 772.31,-800.75"/>
</g>
<!-- 48 -->
<g id="node49" class="node">
<title>48</title>
<path fill="none" stroke="#80d856" stroke-width="2" d="M1075.62,-790C1075.62,-790 886.38,-790 886.38,-790 880.38,-790 874.38,-784 874.38,-778 874.38,-778 874.38,-766 874.38,-766 874.38,-760 880.38,-754 886.38,-754 886.38,-754 1075.62,-754 1075.62,-754 1081.62,-754 1087.62,-760 1087.62,-766 1087.62,-766 1087.62,-778 1087.62,-778 1087.62,-784 1081.62,-790 1075.62,-790"/>
<text text-anchor="middle" x="981" y="-768.88" font-family="sans" font-size="10.00">reverse_complete_repeatmasker_output</text>
</g>
<!-- 38&#45;&gt;48 -->
<g id="edge85" class="edge">
<title>38&#45;&gt;48</title>
<path fill="none" stroke="grey" stroke-width="2" d="M846.47,-811.05C865.12,-805.78 885.71,-799.95 905.05,-794.48"/>
<polygon fill="grey" stroke="grey" stroke-width="2" points="905.97,-797.86 914.64,-791.77 904.07,-791.12 905.97,-797.86"/>
</g>
<!-- 39 -->
<g id="node40" class="node">
<title>39</title>
<path fill="none" stroke="#56d892" stroke-width="2" d="M1033,-906C1033,-906 861,-906 861,-906 855,-906 849,-900 849,-894 849,-894 849,-882 849,-882 849,-876 855,-870 861,-870 861,-870 1033,-870 1033,-870 1039,-870 1045,-876 1045,-882 1045,-882 1045,-894 1045,-894 1045,-900 1039,-906 1033,-906"/>
<text text-anchor="middle" x="947" y="-884.88" font-family="sans" font-size="10.00">merge_control_repeatmasker_output</text>
</g>
<!-- 39&#45;&gt;36 -->
<g id="edge69" class="edge">
<title>39&#45;&gt;36</title>
<path fill="none" stroke="grey" stroke-width="2" d="M939.45,-869.26C931.82,-852.91 918.78,-828.72 902,-812 888.44,-798.5 877.99,-804.05 865,-790 853.11,-777.14 844.2,-759.74 838.12,-744.94"/>
<polygon fill="grey" stroke="grey" stroke-width="2" points="841.39,-743.71 834.56,-735.61 834.85,-746.2 841.39,-743.71"/>
</g>
<!-- 39&#45;&gt;38 -->
<g id="edge71" class="edge">
<title>39&#45;&gt;38</title>
<path fill="none" stroke="grey" stroke-width="2" d="M894.66,-869.13C879.79,-864.05 863.42,-858.46 847.9,-853.16"/>
<polygon fill="grey" stroke="grey" stroke-width="2" points="849.15,-849.89 838.55,-849.97 846.89,-856.51 849.15,-849.89"/>
</g>
<!-- 40 -->
<g id="node41" class="node">
<title>40</title>
<path fill="none" stroke="#56d8c9" stroke-width="2" d="M818.5,-906C818.5,-906 685.5,-906 685.5,-906 679.5,-906 673.5,-900 673.5,-894 673.5,-894 673.5,-882 673.5,-882 673.5,-876 679.5,-870 685.5,-870 685.5,-870 818.5,-870 818.5,-870 824.5,-870 830.5,-876 830.5,-882 830.5,-882 830.5,-894 830.5,-894 830.5,-900 824.5,-906 818.5,-906"/>
<text text-anchor="middle" x="752" y="-884.88" font-family="sans" font-size="10.00">merge_repeatmasker_output</text>
</g>
<!-- 40&#45;&gt;38 -->
<g id="edge72" class="edge">
<title>40&#45;&gt;38</title>
<path fill="none" stroke="grey" stroke-width="2" d="M761.81,-869.28C763.45,-866.32 765.19,-863.18 766.93,-860.02"/>
<polygon fill="grey" stroke="grey" stroke-width="2" points="769.9,-861.89 771.68,-851.44 763.78,-858.5 769.9,-861.89"/>
</g>
<!-- 41 -->
<g id="node42" class="node">
<title>41</title>
<path fill="none" stroke="#bed856" stroke-width="2" d="M802.62,-964C802.62,-964 661.38,-964 661.38,-964 655.38,-964 649.38,-958 649.38,-952 649.38,-952 649.38,-940 649.38,-940 649.38,-934 655.38,-928 661.38,-928 661.38,-928 802.62,-928 802.62,-928 808.62,-928 814.62,-934 814.62,-940 814.62,-940 814.62,-952 814.62,-952 814.62,-958 808.62,-964 802.62,-964"/>
<text text-anchor="middle" x="732" y="-942.88" font-family="sans" font-size="10.00">remove_repeatmasker_header</text>
</g>
<!-- 41&#45;&gt;40 -->
<g id="edge73" class="edge">
<title>41&#45;&gt;40</title>
<path fill="none" stroke="grey" stroke-width="2" d="M738.33,-927.28C739.28,-924.63 740.28,-921.83 741.29,-919"/>
<polygon fill="grey" stroke="grey" stroke-width="2" points="744.56,-920.24 744.63,-909.65 737.97,-917.89 744.56,-920.24"/>
</g>
<!-- 42 -->
<g id="node43" class="node">
<title>42</title>
<path fill="none" stroke="#5673d8" stroke-width="2" d="M731.25,-1022C731.25,-1022 650.75,-1022 650.75,-1022 644.75,-1022 638.75,-1016 638.75,-1010 638.75,-1010 638.75,-998 638.75,-998 638.75,-992 644.75,-986 650.75,-986 650.75,-986 731.25,-986 731.25,-986 737.25,-986 743.25,-992 743.25,-998 743.25,-998 743.25,-1010 743.25,-1010 743.25,-1016 737.25,-1022 731.25,-1022"/>
<text text-anchor="middle" x="691" y="-1000.88" font-family="sans" font-size="10.00">run_repeatmasker</text>
</g>
<!-- 42&#45;&gt;41 -->
<g id="edge74" class="edge">
<title>42&#45;&gt;41</title>
<path fill="none" stroke="grey" stroke-width="2" d="M703.97,-985.28C706.37,-982.01 708.92,-978.53 711.47,-975.04"/>
<polygon fill="grey" stroke="grey" stroke-width="2" points="714.1,-977.37 717.18,-967.24 708.45,-973.24 714.1,-977.37"/>
</g>
<!-- 43&#45;&gt;42 -->
<g id="edge75" class="edge">
<title>43&#45;&gt;42</title>
<path fill="none" stroke="grey" stroke-width="2" d="M649.98,-1043.28C654.03,-1039.5 658.39,-1035.43 662.71,-1031.41"/>
<polygon fill="grey" stroke="grey" stroke-width="2" points="664.8,-1034.24 669.72,-1024.86 660.02,-1029.13 664.8,-1034.24"/>
</g>
<!-- 55 -->
<g id="node56" class="node">
<title>55</title>
<path fill="none" stroke="#ced856" stroke-width="2" d="M650.75,-558C650.75,-558 543.25,-558 543.25,-558 537.25,-558 531.25,-552 531.25,-546 531.25,-546 531.25,-534 531.25,-534 531.25,-528 537.25,-522 543.25,-522 543.25,-522 650.75,-522 650.75,-522 656.75,-522 662.75,-528 662.75,-534 662.75,-534 662.75,-546 662.75,-546 662.75,-552 656.75,-558 650.75,-558"/>
<text text-anchor="middle" x="597" y="-536.88" font-family="sans" font-size="10.00">fmt_correct_alr_regions</text>
</g>
<!-- 43&#45;&gt;55 -->
<g id="edge93" class="edge">
<title>43&#45;&gt;55</title>
<path fill="none" stroke="grey" stroke-width="2" d="M622.24,-1043.32C612.17,-1021.32 597,-982.32 597,-947 597,-947 597,-947 597,-655 597,-626.81 597,-594.7 597,-571.75"/>
<polygon fill="grey" stroke="grey" stroke-width="2" points="600.5,-571.8 597,-561.8 593.5,-571.8 600.5,-571.8"/>
</g>
<!-- 44&#45;&gt;43 -->
<g id="edge76" class="edge">
<title>44&#45;&gt;43</title>
<path fill="none" stroke="grey" stroke-width="2" d="M596.82,-1101.28C599.92,-1097.81 603.24,-1094.09 606.55,-1090.39"/>
<polygon fill="grey" stroke="grey" stroke-width="2" points="609.05,-1092.84 613.09,-1083.05 603.82,-1088.18 609.05,-1092.84"/>
</g>
<!-- 45 -->
<g id="node46" class="node">
<title>45</title>
<path fill="none" stroke="#d8cb56" stroke-width="2" d="M1013.88,-268C1013.88,-268 916.12,-268 916.12,-268 910.12,-268 904.12,-262 904.12,-256 904.12,-256 904.12,-244 904.12,-244 904.12,-238 910.12,-232 916.12,-232 916.12,-232 1013.88,-232 1013.88,-232 1019.88,-232 1025.88,-238 1025.88,-244 1025.88,-244 1025.88,-256 1025.88,-256 1025.88,-262 1019.88,-268 1013.88,-268"/>
<text text-anchor="middle" x="965" y="-246.88" font-family="sans" font-size="10.00">count_complete_cens</text>
</g>
<!-- 45&#45;&gt;0 -->
<g id="edge20" class="edge">
<title>45&#45;&gt;0</title>
<path fill="none" stroke="grey" stroke-width="2" d="M964.62,-231.02C962.73,-192.43 952.43,-101.63 898,-58 854.41,-23.06 687.53,-18.69 609.57,-18.61"/>
<polygon fill="grey" stroke="grey" stroke-width="2" points="609.99,-15.11 600,-18.63 610.01,-22.11 609.99,-15.11"/>
</g>
<!-- 46&#45;&gt;45 -->
<g id="edge79" class="edge">
<title>46&#45;&gt;45</title>
<path fill="none" stroke="grey" stroke-width="2" d="M918.22,-530.49C959.85,-524.29 1006.11,-514.41 1021,-500 1045.71,-476.08 1040,-459.39 1040,-425 1040,-425 1040,-425 1040,-365 1040,-329.86 1035.27,-318.7 1015,-290 1011.73,-285.37 1007.76,-281.03 1003.49,-277.05"/>
<polygon fill="grey" stroke="grey" stroke-width="2" points="1006.07,-274.64 996.17,-270.87 1001.56,-279.99 1006.07,-274.64"/>
</g>
<!-- 50 -->
<g id="node51" class="node">
<title>50</title>
<path fill="none" stroke="#56d8b9" stroke-width="2" d="M721.75,-500C721.75,-500 602.25,-500 602.25,-500 596.25,-500 590.25,-494 590.25,-488 590.25,-488 590.25,-476 590.25,-476 590.25,-470 596.25,-464 602.25,-464 602.25,-464 721.75,-464 721.75,-464 727.75,-464 733.75,-470 733.75,-476 733.75,-476 733.75,-488 733.75,-488 733.75,-494 727.75,-500 721.75,-500"/>
<text text-anchor="middle" x="662" y="-478.88" font-family="sans" font-size="10.00">split_corrected_rm_output</text>
</g>
<!-- 46&#45;&gt;50 -->
<g id="edge87" class="edge">
<title>46&#45;&gt;50</title>
<path fill="none" stroke="grey" stroke-width="2" d="M785.23,-521.13C768.42,-515.92 749.86,-510.18 732.36,-504.77"/>
<polygon fill="grey" stroke="grey" stroke-width="2" points="733.63,-501.5 723.04,-501.89 731.56,-508.19 733.63,-501.5"/>
</g>
<!-- 65 -->
<g id="node66" class="node">
<title>65</title>
<path fill="none" stroke="#bed856" stroke-width="2" d="M999.88,-500C999.88,-500 872.12,-500 872.12,-500 866.12,-500 860.12,-494 860.12,-488 860.12,-488 860.12,-476 860.12,-476 860.12,-470 866.12,-464 872.12,-464 872.12,-464 999.88,-464 999.88,-464 1005.88,-464 1011.88,-470 1011.88,-476 1011.88,-476 1011.88,-488 1011.88,-488 1011.88,-494 1005.88,-500 999.88,-500"/>
<text text-anchor="middle" x="936" y="-478.88" font-family="sans" font-size="10.00">create_annotated_satellites</text>
</g>
<!-- 46&#45;&gt;65 -->
<g id="edge107" class="edge">
<title>46&#45;&gt;65</title>
<path fill="none" stroke="grey" stroke-width="2" d="M872.68,-521.13C879.9,-516.78 887.73,-512.06 895.36,-507.47"/>
<polygon fill="grey" stroke="grey" stroke-width="2" points="896.93,-510.61 903.69,-502.46 893.32,-504.62 896.93,-510.61"/>
</g>
<!-- 66 -->
<g id="node67" class="node">
<title>66</title>
<path fill="none" stroke="#56d8b9" stroke-width="2" d="M830.5,-500C830.5,-500 763.5,-500 763.5,-500 757.5,-500 751.5,-494 751.5,-488 751.5,-488 751.5,-476 751.5,-476 751.5,-470 757.5,-464 763.5,-464 763.5,-464 830.5,-464 830.5,-464 836.5,-464 842.5,-470 842.5,-476 842.5,-476 842.5,-488 842.5,-488 842.5,-494 836.5,-500 830.5,-500"/>
<text text-anchor="middle" x="797" y="-478.88" font-family="sans" font-size="10.00">create_ct_track</text>
</g>
<!-- 46&#45;&gt;66 -->
<g id="edge108" class="edge">
<title>46&#45;&gt;66</title>
<path fill="none" stroke="grey" stroke-width="2" d="M828.45,-521.28C825.68,-517.91 822.72,-514.31 819.77,-510.71"/>
<polygon fill="grey" stroke="grey" stroke-width="2" points="822.59,-508.64 813.54,-503.13 817.18,-513.08 822.59,-508.64"/>
</g>
<!-- 47&#45;&gt;46 -->
<g id="edge80" class="edge">
<title>47&#45;&gt;46</title>
<path fill="none" stroke="grey" stroke-width="2" d="M955.22,-637.19C933.26,-618.36 898.41,-588.49 873.37,-567.03"/>
<polygon fill="grey" stroke="grey" stroke-width="2" points="875.8,-564.51 865.93,-560.66 871.25,-569.82 875.8,-564.51"/>
</g>
<!-- 48&#45;&gt;47 -->
<g id="edge83" class="edge">
<title>48&#45;&gt;47</title>
<path fill="none" stroke="grey" stroke-width="2" d="M980.22,-753.19C979.45,-735.62 978.26,-708.42 977.33,-687.43"/>
<polygon fill="grey" stroke="grey" stroke-width="2" points="980.84,-687.55 976.91,-677.71 973.85,-687.86 980.84,-687.55"/>
</g>
<!-- 49 -->
<g id="node50" class="node">
<title>49</title>
<path fill="none" stroke="#d85e56" stroke-width="2" d="M826.62,-384C826.62,-384 703.38,-384 703.38,-384 697.38,-384 691.38,-378 691.38,-372 691.38,-372 691.38,-360 691.38,-360 691.38,-354 697.38,-348 703.38,-348 703.38,-348 826.62,-348 826.62,-348 832.62,-348 838.62,-354 838.62,-360 838.62,-360 838.62,-372 838.62,-372 838.62,-378 832.62,-384 826.62,-384"/>
<text text-anchor="middle" x="765" y="-362.88" font-family="sans" font-size="10.00">plot_cens_from_rm_by_chr</text>
</g>
<!-- 49&#45;&gt;0 -->
<g id="edge6" class="edge">
<title>49&#45;&gt;0</title>
<path fill="none" stroke="grey" stroke-width="2" d="M779.56,-347.11C821.64,-293.31 934.88,-132.11 845,-58 809.82,-28.99 676.89,-21.56 609.17,-19.65"/>
<polygon fill="grey" stroke="grey" stroke-width="2" points="609.66,-16.17 599.57,-19.42 609.49,-23.16 609.66,-16.17"/>
</g>
<!-- 50&#45;&gt;49 -->
<g id="edge86" class="edge">
<title>50&#45;&gt;49</title>
<path fill="none" stroke="grey" stroke-width="2" d="M678.09,-463.19C694.8,-444.7 721.14,-415.55 740.44,-394.18"/>
<polygon fill="grey" stroke="grey" stroke-width="2" points="742.88,-396.7 746.99,-386.93 737.69,-392.01 742.88,-396.7"/>
</g>
<!-- 53 -->
<g id="node54" class="node">
<title>53</title>
<path fill="none" stroke="#88d856" stroke-width="2" d="M615.88,-442C615.88,-442 464.12,-442 464.12,-442 458.12,-442 452.12,-436 452.12,-430 452.12,-430 452.12,-418 452.12,-418 452.12,-412 458.12,-406 464.12,-406 464.12,-406 615.88,-406 615.88,-406 621.88,-406 627.88,-412 627.88,-418 627.88,-418 627.88,-430 627.88,-430 627.88,-436 621.88,-442 615.88,-442"/>
<text text-anchor="middle" x="540" y="-420.88" font-family="sans" font-size="10.00">extract_cens_for_humas_hmmer</text>
</g>
<!-- 50&#45;&gt;53 -->
<g id="edge90" class="edge">
<title>50&#45;&gt;53</title>
<path fill="none" stroke="grey" stroke-width="2" d="M623.06,-463.13C612.72,-458.38 601.4,-453.18 590.53,-448.19"/>
<polygon fill="grey" stroke="grey" stroke-width="2" points="592.29,-445.15 581.74,-444.16 589.36,-451.51 592.29,-445.15"/>
</g>
<!-- 51&#45;&gt;0 -->
<g id="edge13" class="edge">
<title>51&#45;&gt;0</title>
<path fill="none" stroke="grey" stroke-width="2" d="M456.99,-579.34C432.48,-559.08 398,-523.39 398,-483 398,-483 398,-483 398,-133 398,-70.47 478.13,-40.13 528.69,-27.21"/>
<polygon fill="grey" stroke="grey" stroke-width="2" points="529.29,-30.66 538.2,-24.93 527.66,-23.86 529.29,-30.66"/>
</g>
<!-- 52 -->
<g id="node53" class="node">
<title>52</title>
<path fill="none" stroke="#80d856" stroke-width="2" d="M609.12,-384C609.12,-384 470.88,-384 470.88,-384 464.88,-384 458.88,-378 458.88,-372 458.88,-372 458.88,-360 458.88,-360 458.88,-354 464.88,-348 470.88,-348 470.88,-348 609.12,-348 609.12,-348 615.12,-348 621.12,-354 621.12,-360 621.12,-360 621.12,-372 621.12,-372 621.12,-378 615.12,-384 609.12,-384"/>
<text text-anchor="middle" x="540" y="-362.88" font-family="sans" font-size="10.00">split_cens_for_humas_hmmer</text>
</g>
<!-- 67 -->
<g id="node68" class="node">
<title>67</title>
<path fill="none" stroke="#56d8c9" stroke-width="2" d="M650.25,-326C650.25,-326 515.75,-326 515.75,-326 509.75,-326 503.75,-320 503.75,-314 503.75,-314 503.75,-302 503.75,-302 503.75,-296 509.75,-290 515.75,-290 515.75,-290 650.25,-290 650.25,-290 656.25,-290 662.25,-296 662.25,-302 662.25,-302 662.25,-314 662.25,-314 662.25,-320 656.25,-326 650.25,-326"/>
<text text-anchor="middle" x="583" y="-304.88" font-family="sans" font-size="10.00">run_humas_hmmer_for_anvil</text>
</g>
<!-- 52&#45;&gt;67 -->
<g id="edge109" class="edge">
<title>52&#45;&gt;67</title>
<path fill="none" stroke="grey" stroke-width="2" d="M553.61,-347.28C556.12,-344.01 558.79,-340.53 561.47,-337.04"/>
<polygon fill="grey" stroke="grey" stroke-width="2" points="564.18,-339.26 567.49,-329.2 558.63,-335 564.18,-339.26"/>
</g>
<!-- 68 -->
<g id="node69" class="node">
<title>68</title>
<path fill="none" stroke="#56d89a" stroke-width="2" d="M514,-268C514,-268 438,-268 438,-268 432,-268 426,-262 426,-256 426,-256 426,-244 426,-244 426,-238 432,-232 438,-232 438,-232 514,-232 514,-232 520,-232 526,-238 526,-244 526,-244 526,-256 526,-256 526,-262 520,-268 514,-268"/>
<text text-anchor="middle" x="476" y="-246.88" font-family="sans" font-size="10.00">stained_glass_all</text>
</g>
<!-- 52&#45;&gt;68 -->
<g id="edge110" class="edge">
<title>52&#45;&gt;68</title>
<path fill="none" stroke="grey" stroke-width="2" d="M513.93,-347.06C506.89,-341.09 499.88,-333.92 495,-326 486.77,-312.66 482.1,-295.89 479.45,-281.6"/>
<polygon fill="grey" stroke="grey" stroke-width="2" points="482.93,-281.18 477.94,-271.84 476.01,-282.25 482.93,-281.18"/>
</g>
<!-- 53&#45;&gt;52 -->
<g id="edge89" class="edge">
<title>53&#45;&gt;52</title>
<path fill="none" stroke="grey" stroke-width="2" d="M540,-405.28C540,-402.83 540,-400.26 540,-397.65"/>
<polygon fill="grey" stroke="grey" stroke-width="2" points="543.5,-397.82 540,-387.82 536.5,-397.82 543.5,-397.82"/>
</g>
<!-- 54 -->
<g id="node55" class="node">
<title>54</title>
<path fill="none" stroke="#d8a456" stroke-width="2" d="M559.88,-500C559.88,-500 438.12,-500 438.12,-500 432.12,-500 426.12,-494 426.12,-488 426.12,-488 426.12,-476 426.12,-476 426.12,-470 432.12,-464 438.12,-464 438.12,-464 559.88,-464 559.88,-464 565.88,-464 571.88,-470 571.88,-476 571.88,-476 571.88,-488 571.88,-488 571.88,-494 565.88,-500 559.88,-500"/>
<text text-anchor="middle" x="499" y="-478.88" font-family="sans" font-size="10.00">merge_correct_alr_regions</text>
</g>
<!-- 54&#45;&gt;53 -->
<g id="edge91" class="edge">
<title>54&#45;&gt;53</title>
<path fill="none" stroke="grey" stroke-width="2" d="M511.97,-463.28C514.37,-460.01 516.92,-456.53 519.47,-453.04"/>
<polygon fill="grey" stroke="grey" stroke-width="2" points="522.1,-455.37 525.18,-445.24 516.45,-451.24 522.1,-455.37"/>
</g>
<!-- 55&#45;&gt;54 -->
<g id="edge92" class="edge">
<title>55&#45;&gt;54</title>
<path fill="none" stroke="grey" stroke-width="2" d="M565.72,-521.13C558.03,-516.73 549.67,-511.95 541.54,-507.31"/>
<polygon fill="grey" stroke="grey" stroke-width="2" points="543.36,-504.32 532.94,-502.4 539.89,-510.4 543.36,-504.32"/>
</g>
<!-- 56&#45;&gt;55 -->
<g id="edge94" class="edge">
<title>56&#45;&gt;55</title>
<path fill="none" stroke="grey" stroke-width="2" d="M669.85,-579.13C661.16,-574.58 651.69,-569.62 642.54,-564.83"/>
<polygon fill="grey" stroke="grey" stroke-width="2" points="644.36,-561.83 633.87,-560.3 641.11,-568.04 644.36,-561.83"/>
</g>
<!-- 57 -->
<g id="node58" class="node">
<title>57</title>
<path fill="none" stroke="#8fd856" stroke-width="2" d="M806,-94C806,-94 718,-94 718,-94 712,-94 706,-88 706,-82 706,-82 706,-70 706,-70 706,-64 712,-58 718,-58 718,-58 806,-58 806,-58 812,-58 818,-64 818,-70 818,-70 818,-82 818,-82 818,-88 812,-94 806,-94"/>
<text text-anchor="middle" x="762" y="-72.88" font-family="sans" font-size="10.00">plot_stv_with_order</text>
</g>
<!-- 57&#45;&gt;0 -->
<g id="edge10" class="edge">
<title>57&#45;&gt;0</title>
<path fill="none" stroke="grey" stroke-width="2" d="M705.14,-58.5C674.32,-49.56 636.99,-38.73 609.21,-30.67"/>
<polygon fill="grey" stroke="grey" stroke-width="2" points="610.29,-27.34 599.71,-27.91 608.34,-34.06 610.29,-27.34"/>
</g>
<!-- 58 -->
<g id="node59" class="node">
<title>58</title>
<path fill="none" stroke="#56d892" stroke-width="2" d="M772.25,-210C772.25,-210 631.75,-210 631.75,-210 625.75,-210 619.75,-204 619.75,-198 619.75,-198 619.75,-186 619.75,-186 619.75,-180 625.75,-174 631.75,-174 631.75,-174 772.25,-174 772.25,-174 778.25,-174 784.25,-180 784.25,-186 784.25,-186 784.25,-198 784.25,-198 784.25,-204 778.25,-210 772.25,-210"/>
<text text-anchor="middle" x="702" y="-188.88" font-family="sans" font-size="10.00">aggregate_format_all_stv_row</text>
</g>
<!-- 58&#45;&gt;57 -->
<g id="edge97" class="edge">
<title>58&#45;&gt;57</title>
<path fill="none" stroke="grey" stroke-width="2" d="M707.96,-173.15C713.49,-157.58 722.44,-134.63 733,-116 735.08,-112.33 737.45,-108.61 739.93,-104.99"/>
<polygon fill="grey" stroke="grey" stroke-width="2" points="742.63,-107.22 745.68,-97.07 736.97,-103.11 742.63,-107.22"/>
</g>
<!-- 61 -->
<g id="node62" class="node">
<title>61</title>
<path fill="none" stroke="#56c1d8" stroke-width="2" d="M672.88,-152C672.88,-152 563.12,-152 563.12,-152 557.12,-152 551.12,-146 551.12,-140 551.12,-140 551.12,-128 551.12,-128 551.12,-122 557.12,-116 563.12,-116 563.12,-116 672.88,-116 672.88,-116 678.88,-116 684.88,-122 684.88,-128 684.88,-128 684.88,-140 684.88,-140 684.88,-146 678.88,-152 672.88,-152"/>
<text text-anchor="middle" x="618" y="-130.88" font-family="sans" font-size="10.00">calculate_as_hor_length</text>
</g>
<!-- 58&#45;&gt;61 -->
<g id="edge101" class="edge">
<title>58&#45;&gt;61</title>
<path fill="none" stroke="grey" stroke-width="2" d="M675.42,-173.28C669.05,-169.03 662.13,-164.42 655.37,-159.91"/>
<polygon fill="grey" stroke="grey" stroke-width="2" points="657.76,-157.3 647.5,-154.67 653.88,-163.13 657.76,-157.3"/>
</g>
<!-- 62 -->
<g id="node63" class="node">
<title>62</title>
<path fill="none" stroke="#d6d856" stroke-width="2" d="M843.75,-152C843.75,-152 754.25,-152 754.25,-152 748.25,-152 742.25,-146 742.25,-140 742.25,-140 742.25,-128 742.25,-128 742.25,-122 748.25,-116 754.25,-116 754.25,-116 843.75,-116 843.75,-116 849.75,-116 855.75,-122 855.75,-128 855.75,-128 855.75,-140 855.75,-140 855.75,-146 849.75,-152 843.75,-152"/>
<text text-anchor="middle" x="799" y="-130.88" font-family="sans" font-size="10.00">plot_complete_cens</text>
</g>
<!-- 58&#45;&gt;62 -->
<g id="edge103" class="edge">
<title>58&#45;&gt;62</title>
<path fill="none" stroke="grey" stroke-width="2" d="M732.96,-173.13C740.57,-168.73 748.85,-163.95 756.89,-159.31"/>
<polygon fill="grey" stroke="grey" stroke-width="2" points="758.47,-162.44 765.38,-154.41 754.97,-156.38 758.47,-162.44"/>
</g>
<!-- 59 -->
<g id="node60" class="node">
<title>59</title>
<path fill="none" stroke="#56d88a" stroke-width="2" d="M773.75,-268C773.75,-268 594.25,-268 594.25,-268 588.25,-268 582.25,-262 582.25,-256 582.25,-256 582.25,-244 582.25,-244 582.25,-238 588.25,-232 594.25,-232 594.25,-232 773.75,-232 773.75,-232 779.75,-232 785.75,-238 785.75,-244 785.75,-244 785.75,-256 785.75,-256 785.75,-262 779.75,-268 773.75,-268"/>
<text text-anchor="middle" x="684" y="-246.88" font-family="sans" font-size="10.00">get_stv_row_from_humas_hmmer_out</text>
</g>
<!-- 59&#45;&gt;58 -->
<g id="edge98" class="edge">
<title>59&#45;&gt;58</title>
<path fill="none" stroke="grey" stroke-width="2" d="M689.7,-231.28C690.55,-228.63 691.45,-225.83 692.36,-223"/>
<polygon fill="grey" stroke="grey" stroke-width="2" points="695.63,-224.27 695.35,-213.68 688.96,-222.13 695.63,-224.27"/>
</g>
<!-- 60 -->
<g id="node61" class="node">
<title>60</title>
<path fill="none" stroke="#70d856" stroke-width="2" d="M675.5,-94C675.5,-94 560.5,-94 560.5,-94 554.5,-94 548.5,-88 548.5,-82 548.5,-82 548.5,-70 548.5,-70 548.5,-64 554.5,-58 560.5,-58 560.5,-58 675.5,-58 675.5,-58 681.5,-58 687.5,-64 687.5,-70 687.5,-70 687.5,-82 687.5,-82 687.5,-88 681.5,-94 675.5,-94"/>
<text text-anchor="middle" x="618" y="-72.88" font-family="sans" font-size="10.00">aggregate_as_hor_length</text>
</g>
<!-- 60&#45;&gt;0 -->
<g id="edge16" class="edge">
<title>60&#45;&gt;0</title>
<path fill="none" stroke="grey" stroke-width="2" d="M602.5,-57.28C599.46,-53.81 596.2,-50.09 592.96,-46.39"/>
<polygon fill="grey" stroke="grey" stroke-width="2" points="595.78,-44.29 586.56,-39.07 590.52,-48.9 595.78,-44.29"/>
</g>
<!-- 61&#45;&gt;60 -->
<g id="edge100" class="edge">
<title>61&#45;&gt;60</title>
<path fill="none" stroke="grey" stroke-width="2" d="M618,-115.28C618,-112.83 618,-110.26 618,-107.65"/>
<polygon fill="grey" stroke="grey" stroke-width="2" points="621.5,-107.82 618,-97.82 614.5,-107.82 621.5,-107.82"/>
</g>
<!-- 62&#45;&gt;0 -->
<g id="edge15" class="edge">
<title>62&#45;&gt;0</title>
<path fill="none" stroke="grey" stroke-width="2" d="M814.95,-115.13C827.65,-98.69 841.14,-74.44 827,-58 799.43,-25.95 674.92,-19.9 609.48,-18.98"/>
<polygon fill="grey" stroke="grey" stroke-width="2" points="609.91,-15.48 599.88,-18.88 609.84,-22.48 609.91,-15.48"/>
</g>
<!-- 63 -->
<g id="node64" class="node">
<title>63</title>
<path fill="none" stroke="#d8b456" stroke-width="2" d="M993.88,-326C993.88,-326 854.12,-326 854.12,-326 848.12,-326 842.12,-320 842.12,-314 842.12,-314 842.12,-302 842.12,-302 842.12,-296 848.12,-290 854.12,-290 854.12,-290 993.88,-290 993.88,-290 999.88,-290 1005.88,-296 1005.88,-302 1005.88,-302 1005.88,-314 1005.88,-314 1005.88,-320 999.88,-326 993.88,-326"/>
<text text-anchor="middle" x="924" y="-304.88" font-family="sans" font-size="10.00">split_rm_satellite_annotations</text>
</g>
<!-- 63&#45;&gt;62 -->
<g id="edge102" class="edge">
<title>63&#45;&gt;62</title>
<path fill="none" stroke="grey" stroke-width="2" d="M910.66,-289.18C905.72,-282.54 900.09,-274.94 895,-268 868.52,-231.86 838.33,-189.91 818.99,-162.94"/>
<polygon fill="grey" stroke="grey" stroke-width="2" points="822.09,-161.25 813.42,-155.16 816.4,-165.33 822.09,-161.25"/>
</g>
<!-- 64 -->
<g id="node65" class="node">
<title>64</title>
<path fill="none" stroke="#d85656" stroke-width="2" d="M1000.12,-442C1000.12,-442 831.88,-442 831.88,-442 825.88,-442 819.88,-436 819.88,-430 819.88,-430 819.88,-418 819.88,-418 819.88,-412 825.88,-406 831.88,-406 831.88,-406 1000.12,-406 1000.12,-406 1006.12,-406 1012.12,-412 1012.12,-418 1012.12,-418 1012.12,-430 1012.12,-430 1012.12,-436 1006.12,-442 1000.12,-442"/>
<text text-anchor="middle" x="916" y="-420.88" font-family="sans" font-size="10.00">aggregate_rm_satellite_annotations</text>
</g>
<!-- 64&#45;&gt;63 -->
<g id="edge104" class="edge">
<title>64&#45;&gt;63</title>
<path fill="none" stroke="grey" stroke-width="2" d="M917.25,-405.19C918.48,-387.62 920.39,-360.42 921.86,-339.43"/>
<polygon fill="grey" stroke="grey" stroke-width="2" points="925.34,-339.93 922.55,-329.71 918.36,-339.44 925.34,-339.93"/>
</g>
<!-- 65&#45;&gt;64 -->
<g id="edge105" class="edge">
<title>65&#45;&gt;64</title>
<path fill="none" stroke="grey" stroke-width="2" d="M929.67,-463.28C928.72,-460.63 927.72,-457.83 926.71,-455"/>
<polygon fill="grey" stroke="grey" stroke-width="2" points="930.03,-453.89 923.37,-445.65 923.44,-456.24 930.03,-453.89"/>
</g>
<!-- 66&#45;&gt;64 -->
<g id="edge106" class="edge">
<title>66&#45;&gt;64</title>
<path fill="none" stroke="grey" stroke-width="2" d="M834.98,-463.13C844.96,-458.43 855.88,-453.29 866.37,-448.35"/>
<polygon fill="grey" stroke="grey" stroke-width="2" points="867.68,-451.61 875.23,-444.18 864.7,-445.28 867.68,-451.61"/>
</g>
<!-- 67&#45;&gt;0 -->
<g id="edge18" class="edge">
<title>67&#45;&gt;0</title>
<path fill="none" stroke="grey" stroke-width="2" d="M576.97,-289.12C567.63,-260.54 549.91,-202.6 542,-152 538.01,-126.5 539.67,-119.8 539,-94 538.59,-78.01 533.85,-73.15 539,-58 540.21,-54.44 541.9,-50.94 543.85,-47.6"/>
<polygon fill="grey" stroke="grey" stroke-width="2" points="546.7,-49.64 549.54,-39.44 540.95,-45.64 546.7,-49.64"/>
</g>
<!-- 67&#45;&gt;59 -->
<g id="edge99" class="edge">
<title>67&#45;&gt;59</title>
<path fill="none" stroke="grey" stroke-width="2" d="M615.23,-289.13C623.25,-284.68 631.98,-279.84 640.44,-275.15"/>
<polygon fill="grey" stroke="grey" stroke-width="2" points="642.03,-278.27 649.08,-270.36 638.63,-272.15 642.03,-278.27"/>
</g>
<!-- 68&#45;&gt;0 -->
<g id="edge12" class="edge">
<title>68&#45;&gt;0</title>
<path fill="none" stroke="grey" stroke-width="2" d="M474.15,-231.2C471.35,-195.23 469.7,-112.67 506,-58 511.97,-49.01 520.79,-41.72 529.96,-35.99"/>
<polygon fill="grey" stroke="grey" stroke-width="2" points="531.46,-39.16 538.49,-31.23 528.05,-33.04 531.46,-39.16"/>
</g>
</g>
</svg>
