<?xml version="1.0" encoding="UTF-8" standalone="no"?>
<!DOCTYPE svg PUBLIC "-//W3C//DTD SVG 1.1//EN"
 "http://www.w3.org/Graphics/SVG/1.1/DTD/svg11.dtd">
<!-- Generated by graphviz version 9.0.0 (20231125.0833)
 -->
<!-- Title: snakemake_dag Pages: 1 -->
<svg width="1816pt" height="1412pt"
 viewBox="0.00 0.00 1816.25 1412.00" xmlns="http://www.w3.org/2000/svg" xmlns:xlink="http://www.w3.org/1999/xlink">
<g id="graph0" class="graph" transform="scale(1 1) rotate(0) translate(4 1408)">
<title>snakemake_dag</title>
<polygon fill="white" stroke="none" points="-4,4 -4,-1408 1812.25,-1408 1812.25,4 -4,4"/>
<!-- 0 -->
<g id="node1" class="node">
<title>0</title>
<path fill="none" stroke="#56d87b" stroke-width="2" d="M760,-36C760,-36 730,-36 730,-36 724,-36 718,-30 718,-24 718,-24 718,-12 718,-12 718,-6 724,0 730,0 730,0 760,0 760,0 766,0 772,-6 772,-12 772,-12 772,-24 772,-24 772,-30 766,-36 760,-36"/>
<text text-anchor="middle" x="745" y="-14.88" font-family="sans" font-size="10.00">all</text>
</g>
<!-- 1 -->
<g id="node2" class="node">
<title>1</title>
<path fill="none" stroke="#56d86b" stroke-width="2" d="M213,-1404C213,-1404 137,-1404 137,-1404 131,-1404 125,-1398 125,-1392 125,-1392 125,-1380 125,-1380 125,-1374 131,-1368 137,-1368 137,-1368 213,-1368 213,-1368 219,-1368 225,-1374 225,-1380 225,-1380 225,-1392 225,-1392 225,-1398 219,-1404 213,-1404"/>
<text text-anchor="middle" x="175" y="-1382.88" font-family="sans" font-size="10.00">mask_hor_arrays</text>
</g>
<!-- 1&#45;&gt;0 -->
<g id="edge6" class="edge">
<title>1&#45;&gt;0</title>
<path fill="none" stroke="grey" stroke-width="2" d="M124.38,-1368.4C72.7,-1347.89 0,-1307.56 0,-1243 0,-1243 0,-1243 0,-161 0,-84.24 75.02,-95.78 148,-72 251.97,-38.12 587.63,-24.15 704.46,-20.23"/>
<polygon fill="grey" stroke="grey" stroke-width="2" points="704.37,-23.73 714.25,-19.91 704.15,-16.74 704.37,-23.73"/>
</g>
<!-- 2 -->
<g id="node3" class="node">
<title>2</title>
<path fill="none" stroke="#80d856" stroke-width="2" d="M167.5,-1260C167.5,-1260 40.5,-1260 40.5,-1260 34.5,-1260 28.5,-1254 28.5,-1248 28.5,-1248 28.5,-1236 28.5,-1236 28.5,-1230 34.5,-1224 40.5,-1224 40.5,-1224 167.5,-1224 167.5,-1224 173.5,-1224 179.5,-1230 179.5,-1236 179.5,-1236 179.5,-1248 179.5,-1248 179.5,-1254 173.5,-1260 167.5,-1260"/>
<text text-anchor="middle" x="104" y="-1238.88" font-family="sans" font-size="10.00">extract_masked_hor_arrays</text>
</g>
<!-- 1&#45;&gt;2 -->
<g id="edge29" class="edge">
<title>1&#45;&gt;2</title>
<path fill="none" stroke="grey" stroke-width="2" d="M166.01,-1367.02C154.11,-1343.22 132.99,-1300.97 118.74,-1272.48"/>
<polygon fill="grey" stroke="grey" stroke-width="2" points="121.88,-1270.92 114.27,-1263.55 115.61,-1274.06 121.88,-1270.92"/>
</g>
<!-- 7 -->
<g id="node8" class="node">
<title>7</title>
<path fill="none" stroke="#afd856" stroke-width="2" d="M410.25,-1332C410.25,-1332 323.75,-1332 323.75,-1332 317.75,-1332 311.75,-1326 311.75,-1320 311.75,-1320 311.75,-1308 311.75,-1308 311.75,-1302 317.75,-1296 323.75,-1296 323.75,-1296 410.25,-1296 410.25,-1296 416.25,-1296 422.25,-1302 422.25,-1308 422.25,-1308 422.25,-1320 422.25,-1320 422.25,-1326 416.25,-1332 410.25,-1332"/>
<text text-anchor="middle" x="367" y="-1310.88" font-family="sans" font-size="10.00">asm_ref_alignment</text>
</g>
<!-- 1&#45;&gt;7 -->
<g id="edge33" class="edge">
<title>1&#45;&gt;7</title>
<path fill="none" stroke="grey" stroke-width="2" d="M223.95,-1367.15C248.79,-1358.1 279.21,-1347.01 305.61,-1337.38"/>
<polygon fill="grey" stroke="grey" stroke-width="2" points="306.77,-1340.68 314.97,-1333.97 304.37,-1334.11 306.77,-1340.68"/>
</g>
<!-- 8 -->
<g id="node9" class="node">
<title>8</title>
<path fill="none" stroke="#56d88a" stroke-width="2" d="M496.25,-1260C496.25,-1260 403.75,-1260 403.75,-1260 397.75,-1260 391.75,-1254 391.75,-1248 391.75,-1248 391.75,-1236 391.75,-1236 391.75,-1230 397.75,-1224 403.75,-1224 403.75,-1224 496.25,-1224 496.25,-1224 502.25,-1224 508.25,-1230 508.25,-1236 508.25,-1236 508.25,-1248 508.25,-1248 508.25,-1254 502.25,-1260 496.25,-1260"/>
<text text-anchor="middle" x="450" y="-1238.88" font-family="sans" font-size="10.00">asm_ref_alignment2</text>
</g>
<!-- 1&#45;&gt;8 -->
<g id="edge37" class="edge">
<title>1&#45;&gt;8</title>
<path fill="none" stroke="grey" stroke-width="2" d="M196.98,-1367.03C221.62,-1347.54 263.32,-1316.5 303,-1296 326.82,-1283.7 354.15,-1273 378.73,-1264.49"/>
<polygon fill="grey" stroke="grey" stroke-width="2" points="379.7,-1267.86 388.06,-1261.34 377.46,-1261.23 379.7,-1267.86"/>
</g>
<!-- 2&#45;&gt;0 -->
<g id="edge23" class="edge">
<title>2&#45;&gt;0</title>
<path fill="none" stroke="grey" stroke-width="2" d="M110.84,-1223.37C120.5,-1196.83 137,-1144.81 137,-1099 137,-1099 137,-1099 137,-161 137,-114.03 153.92,-96.49 194,-72 279.6,-19.69 592.01,-17.45 704.39,-18.4"/>
<polygon fill="grey" stroke="grey" stroke-width="2" points="704.01,-21.9 714.04,-18.5 704.08,-14.9 704.01,-21.9"/>
</g>
<!-- 3 -->
<g id="node4" class="node">
<title>3</title>
<path fill="none" stroke="#5692d8" stroke-width="2" d="M408.75,-1404C408.75,-1404 325.25,-1404 325.25,-1404 319.25,-1404 313.25,-1398 313.25,-1392 313.25,-1392 313.25,-1380 313.25,-1380 313.25,-1374 319.25,-1368 325.25,-1368 325.25,-1368 408.75,-1368 408.75,-1368 414.75,-1368 420.75,-1374 420.75,-1380 420.75,-1380 420.75,-1392 420.75,-1392 420.75,-1398 414.75,-1404 408.75,-1404"/>
<text text-anchor="middle" x="367" y="-1382.88" font-family="sans" font-size="10.00">extract_hor_arrays</text>
</g>
<!-- 3&#45;&gt;0 -->
<g id="edge15" class="edge">
<title>3&#45;&gt;0</title>
<path fill="none" stroke="grey" stroke-width="2" d="M314.2,-1367.01C294.9,-1358.57 273.93,-1347.01 258,-1332 224.98,-1300.88 208,-1288.37 208,-1243 208,-1243 208,-1243 208,-161 208,-116.47 217.27,-97.17 254,-72 326.77,-22.15 599.76,-18.19 704.1,-18.56"/>
<polygon fill="grey" stroke="grey" stroke-width="2" points="704.06,-22.06 714.08,-18.62 704.1,-15.06 704.06,-22.06"/>
</g>
<!-- 3&#45;&gt;7 -->
<g id="edge35" class="edge">
<title>3&#45;&gt;7</title>
<path fill="none" stroke="grey" stroke-width="2" d="M367,-1367.34C367,-1360.75 367,-1353.08 367,-1345.67"/>
<polygon fill="grey" stroke="grey" stroke-width="2" points="370.5,-1345.93 367,-1335.93 363.5,-1345.93 370.5,-1345.93"/>
</g>
<!-- 3&#45;&gt;8 -->
<g id="edge39" class="edge">
<title>3&#45;&gt;8</title>
<path fill="none" stroke="grey" stroke-width="2" d="M396.36,-1367.15C408.85,-1358.11 422.48,-1346.07 431,-1332 441.63,-1314.45 446.37,-1291.8 448.45,-1273.74"/>
<polygon fill="grey" stroke="grey" stroke-width="2" points="451.92,-1274.27 449.32,-1264 444.95,-1273.65 451.92,-1274.27"/>
</g>
<!-- 4 -->
<g id="node5" class="node">
<title>4</title>
<path fill="none" stroke="#d89c56" stroke-width="2" d="M513.25,-1404C513.25,-1404 462.75,-1404 462.75,-1404 456.75,-1404 450.75,-1398 450.75,-1392 450.75,-1392 450.75,-1380 450.75,-1380 450.75,-1374 456.75,-1368 462.75,-1368 462.75,-1368 513.25,-1368 513.25,-1368 519.25,-1368 525.25,-1374 525.25,-1380 525.25,-1380 525.25,-1392 525.25,-1392 525.25,-1398 519.25,-1404 513.25,-1404"/>
<text text-anchor="middle" x="488" y="-1382.88" font-family="sans" font-size="10.00">concat_asm</text>
</g>
<!-- 4&#45;&gt;0 -->
<g id="edge12" class="edge">
<title>4&#45;&gt;0</title>
<path fill="none" stroke="grey" stroke-width="2" d="M449.95,-1373.8C443.3,-1371.85 436.45,-1369.86 430,-1368 373.63,-1351.75 350.1,-1366.97 303,-1332 265.29,-1304 246,-1289.97 246,-1243 246,-1243 246,-1243 246,-161 246,-115.63 258.26,-97.18 296,-72 362.42,-27.7 606.81,-20.34 704.38,-19.18"/>
<polygon fill="grey" stroke="grey" stroke-width="2" points="704.15,-22.69 714.11,-19.09 704.08,-15.69 704.15,-22.69"/>
</g>
<!-- 4&#45;&gt;7 -->
<g id="edge34" class="edge">
<title>4&#45;&gt;7</title>
<path fill="none" stroke="grey" stroke-width="2" d="M457.15,-1367.15C442.5,-1358.68 424.77,-1348.42 408.93,-1339.25"/>
<polygon fill="grey" stroke="grey" stroke-width="2" points="410.82,-1336.31 400.41,-1334.33 407.31,-1342.37 410.82,-1336.31"/>
</g>
<!-- 4&#45;&gt;8 -->
<g id="edge38" class="edge">
<title>4&#45;&gt;8</title>
<path fill="none" stroke="grey" stroke-width="2" d="M483.19,-1367.02C476.88,-1343.44 465.72,-1301.73 458.1,-1273.25"/>
<polygon fill="grey" stroke="grey" stroke-width="2" points="461.52,-1272.52 455.56,-1263.76 454.76,-1274.33 461.52,-1272.52"/>
</g>
<!-- 18 -->
<g id="node19" class="node">
<title>18</title>
<path fill="none" stroke="#569ad8" stroke-width="2" d="M968.62,-684C968.62,-684 827.38,-684 827.38,-684 821.38,-684 815.38,-678 815.38,-672 815.38,-672 815.38,-660 815.38,-660 815.38,-654 821.38,-648 827.38,-648 827.38,-648 968.62,-648 968.62,-648 974.62,-648 980.62,-654 980.62,-660 980.62,-660 980.62,-672 980.62,-672 980.62,-678 974.62,-684 968.62,-684"/>
<text text-anchor="middle" x="898" y="-662.88" font-family="sans" font-size="10.00">extract_cens_oriented_regions</text>
</g>
<!-- 4&#45;&gt;18 -->
<g id="edge51" class="edge">
<title>4&#45;&gt;18</title>
<path fill="none" stroke="grey" stroke-width="2" d="M526.04,-1381.51C636.25,-1370.37 948,-1331.07 948,-1243 948,-1243 948,-1243 948,-809 948,-768.02 929.24,-723.97 914.71,-695.98"/>
<polygon fill="grey" stroke="grey" stroke-width="2" points="917.87,-694.48 910.04,-687.34 911.71,-697.8 917.87,-694.48"/>
</g>
<!-- 30 -->
<g id="node31" class="node">
<title>30</title>
<path fill="none" stroke="#a7d856" stroke-width="2" d="M1461.38,-324C1461.38,-324 1294.62,-324 1294.62,-324 1288.62,-324 1282.62,-318 1282.62,-312 1282.62,-312 1282.62,-300 1282.62,-300 1282.62,-294 1288.62,-288 1294.62,-288 1294.62,-288 1461.38,-288 1461.38,-288 1467.38,-288 1473.38,-294 1473.38,-300 1473.38,-300 1473.38,-312 1473.38,-312 1473.38,-318 1467.38,-324 1461.38,-324"/>
<text text-anchor="middle" x="1378" y="-302.88" font-family="sans" font-size="10.00">extract_new_oriented_cens_regions</text>
</g>
<!-- 4&#45;&gt;30 -->
<g id="edge67" class="edge">
<title>4&#45;&gt;30</title>
<path fill="none" stroke="grey" stroke-width="2" d="M526.24,-1383.01C696.59,-1373.62 1378,-1330.62 1378,-1243 1378,-1243 1378,-1243 1378,-449 1378,-410.65 1378,-366.48 1378,-337.72"/>
<polygon fill="grey" stroke="grey" stroke-width="2" points="1381.5,-337.96 1378,-327.96 1374.5,-337.96 1381.5,-337.96"/>
</g>
<!-- 5 -->
<g id="node6" class="node">
<title>5</title>
<path fill="none" stroke="#56d873" stroke-width="2" d="M567.12,-1116C567.12,-1116 476.88,-1116 476.88,-1116 470.88,-1116 464.88,-1110 464.88,-1104 464.88,-1104 464.88,-1092 464.88,-1092 464.88,-1086 470.88,-1080 476.88,-1080 476.88,-1080 567.12,-1080 567.12,-1080 573.12,-1080 579.12,-1086 579.12,-1092 579.12,-1092 579.12,-1104 579.12,-1104 579.12,-1110 573.12,-1116 567.12,-1116"/>
<text text-anchor="middle" x="522" y="-1094.88" font-family="sans" font-size="10.00">asm_ref_aln_to_bed</text>
</g>
<!-- 5&#45;&gt;0 -->
<g id="edge11" class="edge">
<title>5&#45;&gt;0</title>
<path fill="none" stroke="grey" stroke-width="2" d="M464.08,-1088.33C393.63,-1074.13 284,-1038.6 284,-955 284,-955 284,-955 284,-161 284,-112.79 304.83,-97.08 346,-72 405.6,-35.69 615.11,-23.78 704.3,-20.29"/>
<polygon fill="grey" stroke="grey" stroke-width="2" points="704.16,-23.8 714.03,-19.93 703.9,-16.81 704.16,-23.8"/>
</g>
<!-- 12 -->
<g id="node13" class="node">
<title>12</title>
<path fill="none" stroke="#567bd8" stroke-width="2" d="M573.25,-1044C573.25,-1044 474.75,-1044 474.75,-1044 468.75,-1044 462.75,-1038 462.75,-1032 462.75,-1032 462.75,-1020 462.75,-1020 462.75,-1014 468.75,-1008 474.75,-1008 474.75,-1008 573.25,-1008 573.25,-1008 579.25,-1008 585.25,-1014 585.25,-1020 585.25,-1020 585.25,-1032 585.25,-1032 585.25,-1038 579.25,-1044 573.25,-1044"/>
<text text-anchor="middle" x="524" y="-1022.88" font-family="sans" font-size="10.00">intersect_cen_regions</text>
</g>
<!-- 5&#45;&gt;12 -->
<g id="edge43" class="edge">
<title>5&#45;&gt;12</title>
<path fill="none" stroke="grey" stroke-width="2" d="M522.5,-1079.34C522.69,-1072.75 522.91,-1065.08 523.12,-1057.67"/>
<polygon fill="grey" stroke="grey" stroke-width="2" points="526.61,-1058.02 523.4,-1047.93 519.62,-1057.82 526.61,-1058.02"/>
</g>
<!-- 14 -->
<g id="node15" class="node">
<title>14</title>
<path fill="none" stroke="#56d8c9" stroke-width="2" d="M879.75,-972C879.75,-972 706.25,-972 706.25,-972 700.25,-972 694.25,-966 694.25,-960 694.25,-960 694.25,-948 694.25,-948 694.25,-942 700.25,-936 706.25,-936 706.25,-936 879.75,-936 879.75,-936 885.75,-936 891.75,-942 891.75,-948 891.75,-948 891.75,-960 891.75,-960 891.75,-966 885.75,-972 879.75,-972"/>
<text text-anchor="middle" x="793" y="-950.88" font-family="sans" font-size="10.00">collapse_cens_contigs_only_t2t_cens</text>
</g>
<!-- 5&#45;&gt;14 -->
<g id="edge45" class="edge">
<title>5&#45;&gt;14</title>
<path fill="none" stroke="grey" stroke-width="2" d="M556.32,-1079.02C604.89,-1053.57 693.74,-1007.01 747.68,-978.75"/>
<polygon fill="grey" stroke="grey" stroke-width="2" points="749.04,-981.98 756.28,-974.24 745.79,-975.78 749.04,-981.98"/>
</g>
<!-- 6 -->
<g id="node7" class="node">
<title>6</title>
<path fill="none" stroke="#d88d56" stroke-width="2" d="M495.25,-1188C495.25,-1188 384.75,-1188 384.75,-1188 378.75,-1188 372.75,-1182 372.75,-1176 372.75,-1176 372.75,-1164 372.75,-1164 372.75,-1158 378.75,-1152 384.75,-1152 384.75,-1152 495.25,-1152 495.25,-1152 501.25,-1152 507.25,-1158 507.25,-1164 507.25,-1164 507.25,-1176 507.25,-1176 507.25,-1182 501.25,-1188 495.25,-1188"/>
<text text-anchor="middle" x="440" y="-1166.88" font-family="sans" font-size="10.00">asm_ref_compress_sam</text>
</g>
<!-- 6&#45;&gt;5 -->
<g id="edge30" class="edge">
<title>6&#45;&gt;5</title>
<path fill="none" stroke="grey" stroke-width="2" d="M460.69,-1151.34C469.94,-1143.44 481.04,-1133.96 491.24,-1125.26"/>
<polygon fill="grey" stroke="grey" stroke-width="2" points="493.39,-1128.02 498.73,-1118.87 488.85,-1122.7 493.39,-1128.02"/>
</g>
<!-- 9 -->
<g id="node10" class="node">
<title>9</title>
<path fill="none" stroke="#56d8c1" stroke-width="2" d="M476,-252C476,-252 382,-252 382,-252 376,-252 370,-246 370,-240 370,-240 370,-228 370,-228 370,-222 376,-216 382,-216 382,-216 476,-216 476,-216 482,-216 488,-222 488,-228 488,-228 488,-240 488,-240 488,-246 482,-252 476,-252"/>
<text text-anchor="middle" x="429" y="-230.88" font-family="sans" font-size="10.00">asm_ref_sam_to_paf</text>
</g>
<!-- 6&#45;&gt;9 -->
<g id="edge40" class="edge">
<title>6&#45;&gt;9</title>
<path fill="none" stroke="grey" stroke-width="2" d="M438.14,-1151.09C435.5,-1124.18 431,-1071.71 431,-1027 431,-1027 431,-1027 431,-377 431,-338.65 430.26,-294.48 429.68,-265.72"/>
<polygon fill="grey" stroke="grey" stroke-width="2" points="433.19,-265.88 429.48,-255.96 426.19,-266.03 433.19,-265.88"/>
</g>
<!-- 7&#45;&gt;6 -->
<g id="edge31" class="edge">
<title>7&#45;&gt;6</title>
<path fill="none" stroke="grey" stroke-width="2" d="M366.94,-1295.19C367.6,-1276.4 370.74,-1246.46 383,-1224 388.4,-1214.11 396.33,-1205.04 404.57,-1197.31"/>
<polygon fill="grey" stroke="grey" stroke-width="2" points="406.72,-1200.07 411.96,-1190.86 402.12,-1194.79 406.72,-1200.07"/>
</g>
<!-- 7&#45;&gt;8 -->
<g id="edge36" class="edge">
<title>7&#45;&gt;8</title>
<path fill="none" stroke="grey" stroke-width="2" d="M387.94,-1295.34C397.31,-1287.44 408.54,-1277.96 418.86,-1269.26"/>
<polygon fill="grey" stroke="grey" stroke-width="2" points="421.07,-1271.98 426.46,-1262.85 416.56,-1266.62 421.07,-1271.98"/>
</g>
<!-- 8&#45;&gt;6 -->
<g id="edge32" class="edge">
<title>8&#45;&gt;6</title>
<path fill="none" stroke="grey" stroke-width="2" d="M447.48,-1223.34C446.54,-1216.75 445.44,-1209.08 444.38,-1201.67"/>
<polygon fill="grey" stroke="grey" stroke-width="2" points="447.86,-1201.3 442.99,-1191.9 440.93,-1202.29 447.86,-1201.3"/>
</g>
<!-- 9&#45;&gt;0 -->
<g id="edge1" class="edge">
<title>9&#45;&gt;0</title>
<path fill="none" stroke="grey" stroke-width="2" d="M380.57,-215.24C365.12,-207.01 349.77,-195.53 341,-180 314.7,-133.45 348.22,-99.63 394,-72 445.67,-40.81 623.71,-26.33 704.53,-21.24"/>
<polygon fill="grey" stroke="grey" stroke-width="2" points="704.29,-24.76 714.06,-20.66 703.87,-17.77 704.29,-24.76"/>
</g>
<!-- 10 -->
<g id="node11" class="node">
<title>10</title>
<path fill="none" stroke="#56d863" stroke-width="2" d="M496.25,-180C496.25,-180 361.75,-180 361.75,-180 355.75,-180 349.75,-174 349.75,-168 349.75,-168 349.75,-156 349.75,-156 349.75,-150 355.75,-144 361.75,-144 361.75,-144 496.25,-144 496.25,-144 502.25,-144 508.25,-150 508.25,-156 508.25,-156 508.25,-168 508.25,-168 508.25,-174 502.25,-180 496.25,-180"/>
<text text-anchor="middle" x="429" y="-158.88" font-family="sans" font-size="10.00">asm_ref_trim_and_break_paf</text>
</g>
<!-- 9&#45;&gt;10 -->
<g id="edge41" class="edge">
<title>9&#45;&gt;10</title>
<path fill="none" stroke="grey" stroke-width="2" d="M429,-215.34C429,-208.75 429,-201.08 429,-193.67"/>
<polygon fill="grey" stroke="grey" stroke-width="2" points="432.5,-193.93 429,-183.93 425.5,-193.93 432.5,-193.93"/>
</g>
<!-- 10&#45;&gt;0 -->
<g id="edge5" class="edge">
<title>10&#45;&gt;0</title>
<path fill="none" stroke="grey" stroke-width="2" d="M415.78,-143.22C402.94,-123.61 387.72,-92.18 405,-72 443.1,-27.5 622.37,-20.08 704.15,-19.04"/>
<polygon fill="grey" stroke="grey" stroke-width="2" points="704.09,-22.54 714.06,-18.95 704.03,-15.54 704.09,-22.54"/>
</g>
<!-- 11 -->
<g id="node12" class="node">
<title>11</title>
<path fill="none" stroke="#56d89a" stroke-width="2" d="M496.38,-108C496.38,-108 425.62,-108 425.62,-108 419.62,-108 413.62,-102 413.62,-96 413.62,-96 413.62,-84 413.62,-84 413.62,-78 419.62,-72 425.62,-72 425.62,-72 496.38,-72 496.38,-72 502.38,-72 508.38,-78 508.38,-84 508.38,-84 508.38,-96 508.38,-96 508.38,-102 502.38,-108 496.38,-108"/>
<text text-anchor="middle" x="461" y="-86.88" font-family="sans" font-size="10.00">asm_ref_SafFire</text>
</g>
<!-- 10&#45;&gt;11 -->
<g id="edge42" class="edge">
<title>10&#45;&gt;11</title>
<path fill="none" stroke="grey" stroke-width="2" d="M437.07,-143.34C440.23,-136.43 443.94,-128.31 447.49,-120.56"/>
<polygon fill="grey" stroke="grey" stroke-width="2" points="450.58,-122.2 451.56,-111.65 444.22,-119.29 450.58,-122.2"/>
</g>
<!-- 11&#45;&gt;0 -->
<g id="edge22" class="edge">
<title>11&#45;&gt;0</title>
<path fill="none" stroke="grey" stroke-width="2" d="M509.24,-75.37C513.55,-74.21 517.85,-73.07 522,-72 585.51,-55.61 659.69,-38.35 704.47,-28.14"/>
<polygon fill="grey" stroke="grey" stroke-width="2" points="705.18,-31.57 714.15,-25.94 703.62,-24.74 705.18,-31.57"/>
</g>
<!-- 12&#45;&gt;0 -->
<g id="edge20" class="edge">
<title>12&#45;&gt;0</title>
<path fill="none" stroke="grey" stroke-width="2" d="M524.58,-1007.02C526.98,-930.95 536,-628.02 536,-379 536,-379 536,-379 536,-161 536,-115.41 551.75,-100.92 587,-72 621.02,-44.09 670.37,-30.64 704.84,-24.31"/>
<polygon fill="grey" stroke="grey" stroke-width="2" points="704.99,-27.84 714.27,-22.73 703.83,-20.94 704.99,-27.84"/>
</g>
<!-- 13 -->
<g id="node14" class="node">
<title>13</title>
<path fill="none" stroke="#56d8c9" stroke-width="2" d="M664.38,-972C664.38,-972 563.62,-972 563.62,-972 557.62,-972 551.62,-966 551.62,-960 551.62,-960 551.62,-948 551.62,-948 551.62,-942 557.62,-936 563.62,-936 563.62,-936 664.38,-936 664.38,-936 670.38,-936 676.38,-942 676.38,-948 676.38,-948 676.38,-960 676.38,-960 676.38,-966 670.38,-972 664.38,-972"/>
<text text-anchor="middle" x="614" y="-950.88" font-family="sans" font-size="10.00">collapse_cens_contigs</text>
</g>
<!-- 12&#45;&gt;13 -->
<g id="edge44" class="edge">
<title>12&#45;&gt;13</title>
<path fill="none" stroke="grey" stroke-width="2" d="M546.71,-1007.34C557.08,-999.27 569.55,-989.57 580.93,-980.72"/>
<polygon fill="grey" stroke="grey" stroke-width="2" points="582.85,-983.66 588.59,-974.76 578.55,-978.14 582.85,-983.66"/>
</g>
<!-- 13&#45;&gt;0 -->
<g id="edge2" class="edge">
<title>13&#45;&gt;0</title>
<path fill="none" stroke="grey" stroke-width="2" d="M605.52,-935.08C593.78,-908.58 574,-857.1 574,-811 574,-811 574,-811 574,-161 574,-114.73 593.38,-102.69 628,-72 650.17,-52.35 680.83,-38.82 705.21,-30.35"/>
<polygon fill="grey" stroke="grey" stroke-width="2" points="706.02,-33.77 714.43,-27.32 703.84,-27.12 706.02,-33.77"/>
</g>
<!-- 15 -->
<g id="node16" class="node">
<title>15</title>
<path fill="none" stroke="#5663d8" stroke-width="2" d="M851.38,-900C851.38,-900 708.62,-900 708.62,-900 702.62,-900 696.62,-894 696.62,-888 696.62,-888 696.62,-876 696.62,-876 696.62,-870 702.62,-864 708.62,-864 708.62,-864 851.38,-864 851.38,-864 857.38,-864 863.38,-870 863.38,-876 863.38,-876 863.38,-888 863.38,-888 863.38,-894 857.38,-900 851.38,-900"/>
<text text-anchor="middle" x="780" y="-878.88" font-family="sans" font-size="10.00">intersect_filter_both_cens_ctgs</text>
</g>
<!-- 13&#45;&gt;15 -->
<g id="edge46" class="edge">
<title>13&#45;&gt;15</title>
<path fill="none" stroke="grey" stroke-width="2" d="M656.32,-935.15C677.41,-926.26 703.15,-915.41 725.68,-905.91"/>
<polygon fill="grey" stroke="grey" stroke-width="2" points="726.83,-909.22 734.68,-902.11 724.11,-902.77 726.83,-909.22"/>
</g>
<!-- 14&#45;&gt;0 -->
<g id="edge3" class="edge">
<title>14&#45;&gt;0</title>
<path fill="none" stroke="grey" stroke-width="2" d="M735.73,-935.03C682.7,-914.4 612,-874.9 612,-811 612,-811 612,-811 612,-161 612,-105.51 666.77,-62.76 706.02,-39.25"/>
<polygon fill="grey" stroke="grey" stroke-width="2" points="707.58,-42.39 714.5,-34.37 704.08,-36.33 707.58,-42.39"/>
</g>
<!-- 14&#45;&gt;15 -->
<g id="edge47" class="edge">
<title>14&#45;&gt;15</title>
<path fill="none" stroke="grey" stroke-width="2" d="M789.72,-935.34C788.5,-928.75 787.07,-921.08 785.7,-913.67"/>
<polygon fill="grey" stroke="grey" stroke-width="2" points="789.14,-913.07 783.88,-903.88 782.26,-914.35 789.14,-913.07"/>
</g>
<!-- 15&#45;&gt;0 -->
<g id="edge28" class="edge">
<title>15&#45;&gt;0</title>
<path fill="none" stroke="grey" stroke-width="2" d="M717.84,-863.12C699.7,-855.09 681.43,-843.76 669,-828 643.95,-796.24 650,-779.45 650,-739 650,-739 650,-739 650,-161 650,-114.3 685.93,-71.34 713.6,-45.17"/>
<polygon fill="grey" stroke="grey" stroke-width="2" points="715.69,-48 720.73,-38.68 710.98,-42.82 715.69,-48"/>
</g>
<!-- 16 -->
<g id="node17" class="node">
<title>16</title>
<path fill="none" stroke="#d89556" stroke-width="2" d="M870.12,-828C870.12,-828 689.88,-828 689.88,-828 683.88,-828 677.88,-822 677.88,-816 677.88,-816 677.88,-804 677.88,-804 677.88,-798 683.88,-792 689.88,-792 689.88,-792 870.12,-792 870.12,-792 876.12,-792 882.12,-798 882.12,-804 882.12,-804 882.12,-816 882.12,-816 882.12,-822 876.12,-828 870.12,-828"/>
<text text-anchor="middle" x="780" y="-806.88" font-family="sans" font-size="10.00">collapse_intersected_filtered_cen_ctgs</text>
</g>
<!-- 15&#45;&gt;16 -->
<g id="edge48" class="edge">
<title>15&#45;&gt;16</title>
<path fill="none" stroke="grey" stroke-width="2" d="M780,-863.34C780,-856.75 780,-849.08 780,-841.67"/>
<polygon fill="grey" stroke="grey" stroke-width="2" points="783.5,-841.93 780,-831.93 776.5,-841.93 783.5,-841.93"/>
</g>
<!-- 17 -->
<g id="node18" class="node">
<title>17</title>
<path fill="none" stroke="#9fd856" stroke-width="2" d="M892,-756C892,-756 744,-756 744,-756 738,-756 732,-750 732,-744 732,-744 732,-732 732,-732 732,-726 738,-720 744,-720 744,-720 892,-720 892,-720 898,-720 904,-726 904,-732 904,-732 904,-744 904,-744 904,-750 898,-756 892,-756"/>
<text text-anchor="middle" x="818" y="-734.88" font-family="sans" font-size="10.00">reintersect_sort_uniq_cens_ctgs</text>
</g>
<!-- 15&#45;&gt;17 -->
<g id="edge50" class="edge">
<title>15&#45;&gt;17</title>
<path fill="none" stroke="grey" stroke-width="2" d="M847.72,-863.02C864.73,-855.13 880.98,-843.9 891,-828 899.54,-814.47 898.27,-806.25 891,-792 885.35,-780.92 876.18,-771.61 866.22,-764.05"/>
<polygon fill="grey" stroke="grey" stroke-width="2" points="868.38,-761.29 858.16,-758.5 864.42,-767.05 868.38,-761.29"/>
</g>
<!-- 16&#45;&gt;0 -->
<g id="edge10" class="edge">
<title>16&#45;&gt;0</title>
<path fill="none" stroke="grey" stroke-width="2" d="M756.28,-791.13C745.01,-781.67 732.06,-769.29 723,-756 699.06,-720.88 688,-709.5 688,-667 688,-667 688,-667 688,-161 688,-119.39 709.34,-75.54 725.9,-47.77"/>
<polygon fill="grey" stroke="grey" stroke-width="2" points="728.75,-49.82 731.04,-39.48 722.8,-46.14 728.75,-49.82"/>
</g>
<!-- 16&#45;&gt;17 -->
<g id="edge49" class="edge">
<title>16&#45;&gt;17</title>
<path fill="none" stroke="grey" stroke-width="2" d="M789.59,-791.34C793.39,-784.34 797.85,-776.12 802.11,-768.28"/>
<polygon fill="grey" stroke="grey" stroke-width="2" points="805.14,-770.02 806.84,-759.56 798.99,-766.68 805.14,-770.02"/>
</g>
<!-- 17&#45;&gt;0 -->
<g id="edge14" class="edge">
<title>17&#45;&gt;0</title>
<path fill="none" stroke="grey" stroke-width="2" d="M796.66,-719.21C769.48,-694.43 726,-646.7 726,-595 726,-595 726,-595 726,-161 726,-122.31 733.01,-78.21 738.52,-49.56"/>
<polygon fill="grey" stroke="grey" stroke-width="2" points="741.94,-50.29 740.47,-39.8 735.08,-48.92 741.94,-50.29"/>
</g>
<!-- 17&#45;&gt;18 -->
<g id="edge52" class="edge">
<title>17&#45;&gt;18</title>
<path fill="none" stroke="grey" stroke-width="2" d="M838.19,-719.34C847.21,-711.44 858.04,-701.96 867.99,-693.26"/>
<polygon fill="grey" stroke="grey" stroke-width="2" points="870.04,-696.11 875.26,-686.9 865.43,-690.85 870.04,-696.11"/>
</g>
<!-- 18&#45;&gt;0 -->
<g id="edge13" class="edge">
<title>18&#45;&gt;0</title>
<path fill="none" stroke="grey" stroke-width="2" d="M832.44,-647.06C814.04,-639.08 795.63,-627.79 783,-612 757.74,-580.41 764,-563.45 764,-523 764,-523 764,-523 764,-161 764,-122.31 756.99,-78.21 751.48,-49.56"/>
<polygon fill="grey" stroke="grey" stroke-width="2" points="754.92,-48.92 749.53,-39.8 748.06,-50.29 754.92,-48.92"/>
</g>
<!-- 19 -->
<g id="node20" class="node">
<title>19</title>
<path fill="none" stroke="#70d856" stroke-width="2" d="M991.88,-612C991.88,-612 804.12,-612 804.12,-612 798.12,-612 792.12,-606 792.12,-600 792.12,-600 792.12,-588 792.12,-588 792.12,-582 798.12,-576 804.12,-576 804.12,-576 991.88,-576 991.88,-576 997.88,-576 1003.88,-582 1003.88,-588 1003.88,-588 1003.88,-600 1003.88,-600 1003.88,-606 997.88,-612 991.88,-612"/>
<text text-anchor="middle" x="898" y="-590.88" font-family="sans" font-size="10.00">cens_create_oriented_ctg_name_legend</text>
</g>
<!-- 18&#45;&gt;19 -->
<g id="edge53" class="edge">
<title>18&#45;&gt;19</title>
<path fill="none" stroke="grey" stroke-width="2" d="M898,-647.34C898,-640.75 898,-633.08 898,-625.67"/>
<polygon fill="grey" stroke="grey" stroke-width="2" points="901.5,-625.93 898,-615.93 894.5,-625.93 901.5,-625.93"/>
</g>
<!-- 20 -->
<g id="node21" class="node">
<title>20</title>
<path fill="none" stroke="#afd856" stroke-width="2" d="M1202.5,-612C1202.5,-612 1033.5,-612 1033.5,-612 1027.5,-612 1021.5,-606 1021.5,-600 1021.5,-600 1021.5,-588 1021.5,-588 1021.5,-582 1027.5,-576 1033.5,-576 1033.5,-576 1202.5,-576 1202.5,-576 1208.5,-576 1214.5,-582 1214.5,-588 1214.5,-588 1214.5,-600 1214.5,-600 1214.5,-606 1208.5,-612 1202.5,-612"/>
<text text-anchor="middle" x="1118" y="-590.88" font-family="sans" font-size="10.00">cens_split_oriented_assembly_fasta</text>
</g>
<!-- 18&#45;&gt;20 -->
<g id="edge54" class="edge">
<title>18&#45;&gt;20</title>
<path fill="none" stroke="grey" stroke-width="2" d="M954.37,-647.06C983.35,-637.84 1018.91,-626.53 1049.46,-616.81"/>
<polygon fill="grey" stroke="grey" stroke-width="2" points="1050.42,-620.17 1058.89,-613.81 1048.3,-613.5 1050.42,-620.17"/>
</g>
<!-- 19&#45;&gt;0 -->
<g id="edge25" class="edge">
<title>19&#45;&gt;0</title>
<path fill="none" stroke="grey" stroke-width="2" d="M864.6,-575.18C850.82,-566.29 835.81,-554.35 826,-540 802.87,-506.18 802,-491.97 802,-451 802,-451 802,-451 802,-161 802,-120.03 794.34,-109.57 778,-72 774.44,-63.81 769.76,-55.41 765.04,-47.78"/>
<polygon fill="grey" stroke="grey" stroke-width="2" points="768.02,-45.94 759.64,-39.45 762.15,-49.75 768.02,-45.94"/>
</g>
<!-- 21 -->
<g id="node22" class="node">
<title>21</title>
<path fill="none" stroke="#56d8d0" stroke-width="2" d="M1043.25,-540C1043.25,-540 914.75,-540 914.75,-540 908.75,-540 902.75,-534 902.75,-528 902.75,-528 902.75,-516 902.75,-516 902.75,-510 908.75,-504 914.75,-504 914.75,-504 1043.25,-504 1043.25,-504 1049.25,-504 1055.25,-510 1055.25,-516 1055.25,-516 1055.25,-528 1055.25,-528 1055.25,-534 1049.25,-540 1043.25,-540"/>
<text text-anchor="middle" x="979" y="-518.88" font-family="sans" font-size="10.00">cens_rename_oriented_ctgs</text>
</g>
<!-- 19&#45;&gt;21 -->
<g id="edge55" class="edge">
<title>19&#45;&gt;21</title>
<path fill="none" stroke="grey" stroke-width="2" d="M918.44,-575.34C927.58,-567.44 938.54,-557.96 948.61,-549.26"/>
<polygon fill="grey" stroke="grey" stroke-width="2" points="950.72,-552.07 955.99,-542.88 946.14,-546.77 950.72,-552.07"/>
</g>
<!-- 20&#45;&gt;0 -->
<g id="edge9" class="edge">
<title>20&#45;&gt;0</title>
<path fill="none" stroke="grey" stroke-width="2" d="M1027.44,-575.03C970.3,-563.09 905.23,-548.17 894,-540 856.58,-512.78 840,-497.27 840,-451 840,-451 840,-451 840,-161 840,-114.3 804.07,-71.34 776.4,-45.17"/>
<polygon fill="grey" stroke="grey" stroke-width="2" points="779.02,-42.82 769.27,-38.68 774.31,-48 779.02,-42.82"/>
</g>
<!-- 20&#45;&gt;21 -->
<g id="edge56" class="edge">
<title>20&#45;&gt;21</title>
<path fill="none" stroke="grey" stroke-width="2" d="M1082.56,-575.15C1065.33,-566.47 1044.38,-555.92 1025.84,-546.59"/>
<polygon fill="grey" stroke="grey" stroke-width="2" points="1027.58,-543.55 1017.07,-542.17 1024.43,-549.8 1027.58,-543.55"/>
</g>
<!-- 21&#45;&gt;0 -->
<g id="edge4" class="edge">
<title>21&#45;&gt;0</title>
<path fill="none" stroke="grey" stroke-width="2" d="M954.81,-503.04C924.93,-478.59 878,-431.79 878,-379 878,-379 878,-379 878,-161 878,-120.03 880.1,-103.58 854,-72 836.47,-50.79 808.4,-37.42 785.14,-29.41"/>
<polygon fill="grey" stroke="grey" stroke-width="2" points="786.28,-26.1 775.69,-26.42 784.17,-32.78 786.28,-26.1"/>
</g>
<!-- 22 -->
<g id="node23" class="node">
<title>22</title>
<path fill="none" stroke="#b6d856" stroke-width="2" d="M1039.5,-396C1039.5,-396 918.5,-396 918.5,-396 912.5,-396 906.5,-390 906.5,-384 906.5,-384 906.5,-372 906.5,-372 906.5,-366 912.5,-360 918.5,-360 918.5,-360 1039.5,-360 1039.5,-360 1045.5,-360 1051.5,-366 1051.5,-372 1051.5,-372 1051.5,-384 1051.5,-384 1051.5,-390 1045.5,-396 1039.5,-396"/>
<text text-anchor="middle" x="979" y="-374.88" font-family="sans" font-size="10.00">cens_index_renamed_ctgs</text>
</g>
<!-- 21&#45;&gt;22 -->
<g id="edge57" class="edge">
<title>21&#45;&gt;22</title>
<path fill="none" stroke="grey" stroke-width="2" d="M979,-503.02C979,-479.54 979,-438.11 979,-409.64"/>
<polygon fill="grey" stroke="grey" stroke-width="2" points="982.5,-409.87 979,-399.87 975.5,-409.87 982.5,-409.87"/>
</g>
<!-- 23 -->
<g id="node24" class="node">
<title>23</title>
<path fill="none" stroke="#5682d8" stroke-width="2" d="M1147,-468C1147,-468 1089,-468 1089,-468 1083,-468 1077,-462 1077,-456 1077,-456 1077,-444 1077,-444 1077,-438 1083,-432 1089,-432 1089,-432 1147,-432 1147,-432 1153,-432 1159,-438 1159,-444 1159,-444 1159,-456 1159,-456 1159,-462 1153,-468 1147,-468"/>
<text text-anchor="middle" x="1118" y="-446.88" font-family="sans" font-size="10.00">run_dna_brnn</text>
</g>
<!-- 21&#45;&gt;23 -->
<g id="edge58" class="edge">
<title>21&#45;&gt;23</title>
<path fill="none" stroke="grey" stroke-width="2" d="M1014.44,-503.15C1031.67,-494.47 1052.62,-483.92 1071.16,-474.59"/>
<polygon fill="grey" stroke="grey" stroke-width="2" points="1072.57,-477.8 1079.93,-470.17 1069.42,-471.55 1072.57,-477.8"/>
</g>
<!-- 22&#45;&gt;0 -->
<g id="edge8" class="edge">
<title>22&#45;&gt;0</title>
<path fill="none" stroke="grey" stroke-width="2" d="M965.33,-359.29C946.8,-333.47 916,-283.28 916,-235 916,-235 916,-235 916,-161 916,-120.03 919.75,-102.14 892,-72 864.34,-41.96 818.39,-28.92 785.22,-23.28"/>
<polygon fill="grey" stroke="grey" stroke-width="2" points="786.16,-19.88 775.75,-21.85 785.11,-26.8 786.16,-19.88"/>
</g>
<!-- 23&#45;&gt;0 -->
<g id="edge19" class="edge">
<title>23&#45;&gt;0</title>
<path fill="none" stroke="grey" stroke-width="2" d="M1109.48,-431.25C1075.2,-360.1 947.65,-98.11 916,-72 878.47,-41.04 822.89,-28.13 785.38,-22.76"/>
<polygon fill="grey" stroke="grey" stroke-width="2" points="786.29,-19.35 775.93,-21.55 785.4,-26.3 786.29,-19.35"/>
</g>
<!-- 25 -->
<g id="node26" class="node">
<title>25</title>
<path fill="none" stroke="#566bd8" stroke-width="2" d="M1201.88,-180C1201.88,-180 1032.12,-180 1032.12,-180 1026.12,-180 1020.12,-174 1020.12,-168 1020.12,-168 1020.12,-156 1020.12,-156 1020.12,-150 1026.12,-144 1032.12,-144 1032.12,-144 1201.88,-144 1201.88,-144 1207.88,-144 1213.88,-150 1213.88,-156 1213.88,-156 1213.88,-168 1213.88,-168 1213.88,-174 1207.88,-180 1201.88,-180"/>
<text text-anchor="middle" x="1117" y="-158.88" font-family="sans" font-size="10.00">filter_dnabrnn_sample_cens_regions</text>
</g>
<!-- 23&#45;&gt;25 -->
<g id="edge59" class="edge">
<title>23&#45;&gt;25</title>
<path fill="none" stroke="grey" stroke-width="2" d="M1117.94,-431.11C1117.77,-383.56 1117.32,-253.6 1117.11,-193.83"/>
<polygon fill="grey" stroke="grey" stroke-width="2" points="1120.61,-193.9 1117.07,-183.91 1113.61,-193.92 1120.61,-193.9"/>
</g>
<!-- 28 -->
<g id="node29" class="node">
<title>28</title>
<path fill="none" stroke="#56a9d8" stroke-width="2" d="M1559.62,-252C1559.62,-252 1346.38,-252 1346.38,-252 1340.38,-252 1334.38,-246 1334.38,-240 1334.38,-240 1334.38,-228 1334.38,-228 1334.38,-222 1340.38,-216 1346.38,-216 1346.38,-216 1559.62,-216 1559.62,-216 1565.62,-216 1571.62,-222 1571.62,-228 1571.62,-228 1571.62,-240 1571.62,-240 1571.62,-246 1565.62,-252 1559.62,-252"/>
<text text-anchor="middle" x="1453" y="-230.88" font-family="sans" font-size="10.00">new_cens_create_oriented_ctg_name_legend</text>
</g>
<!-- 23&#45;&gt;28 -->
<g id="edge64" class="edge">
<title>23&#45;&gt;28</title>
<path fill="none" stroke="grey" stroke-width="2" d="M1126.8,-431.26C1136.77,-412.26 1154.36,-381.9 1175,-360 1212.32,-320.41 1225.21,-312.07 1274,-288 1300.46,-274.95 1330.73,-264.47 1358.76,-256.4"/>
<polygon fill="grey" stroke="grey" stroke-width="2" points="1359.44,-259.85 1368.13,-253.79 1357.55,-253.1 1359.44,-259.85"/>
</g>
<!-- 31 -->
<g id="node32" class="node">
<title>31</title>
<path fill="none" stroke="#d86e56" stroke-width="2" d="M1338.38,-396C1338.38,-396 1195.62,-396 1195.62,-396 1189.62,-396 1183.62,-390 1183.62,-384 1183.62,-384 1183.62,-372 1183.62,-372 1183.62,-366 1189.62,-360 1195.62,-360 1195.62,-360 1338.38,-360 1338.38,-360 1344.38,-360 1350.38,-366 1350.38,-372 1350.38,-372 1350.38,-384 1350.38,-384 1350.38,-390 1344.38,-396 1338.38,-396"/>
<text text-anchor="middle" x="1267" y="-374.88" font-family="sans" font-size="10.00">create_format_orient_cens_list</text>
</g>
<!-- 23&#45;&gt;31 -->
<g id="edge68" class="edge">
<title>23&#45;&gt;31</title>
<path fill="none" stroke="grey" stroke-width="2" d="M1155.98,-431.15C1174.56,-422.43 1197.17,-411.81 1217.12,-402.43"/>
<polygon fill="grey" stroke="grey" stroke-width="2" points="1218.52,-405.64 1226.09,-398.22 1215.55,-399.31 1218.52,-405.64"/>
</g>
<!-- 24 -->
<g id="node25" class="node">
<title>24</title>
<path fill="none" stroke="#d8b456" stroke-width="2" d="M1304.62,-252C1304.62,-252 1157.38,-252 1157.38,-252 1151.38,-252 1145.38,-246 1145.38,-240 1145.38,-240 1145.38,-228 1145.38,-228 1145.38,-222 1151.38,-216 1157.38,-216 1157.38,-216 1304.62,-216 1304.62,-216 1310.62,-216 1316.62,-222 1316.62,-228 1316.62,-228 1316.62,-240 1316.62,-240 1316.62,-246 1310.62,-252 1304.62,-252"/>
<text text-anchor="middle" x="1231" y="-230.88" font-family="sans" font-size="10.00">filter_dnabrnn_ref_cens_regions</text>
</g>
<!-- 24&#45;&gt;0 -->
<g id="edge17" class="edge">
<title>24&#45;&gt;0</title>
<path fill="none" stroke="grey" stroke-width="2" d="M1144.61,-220.52C1092.02,-211.36 1031.19,-197.5 1011,-180 971.96,-146.16 1007.09,-105.78 968,-72 940.96,-48.64 842.1,-31.97 785.5,-24.1"/>
<polygon fill="grey" stroke="grey" stroke-width="2" points="786.14,-20.66 775.76,-22.78 785.21,-27.59 786.14,-20.66"/>
</g>
<!-- 26 -->
<g id="node27" class="node">
<title>26</title>
<path fill="none" stroke="#88d856" stroke-width="2" d="M1365.88,-180C1365.88,-180 1244.12,-180 1244.12,-180 1238.12,-180 1232.12,-174 1232.12,-168 1232.12,-168 1232.12,-156 1232.12,-156 1232.12,-150 1238.12,-144 1244.12,-144 1244.12,-144 1365.88,-144 1365.88,-144 1371.88,-144 1377.88,-150 1377.88,-156 1377.88,-156 1377.88,-168 1377.88,-168 1377.88,-174 1371.88,-180 1365.88,-180"/>
<text text-anchor="middle" x="1305" y="-158.88" font-family="sans" font-size="10.00">get_dnabrnn_ref_cens_pos</text>
</g>
<!-- 24&#45;&gt;26 -->
<g id="edge60" class="edge">
<title>24&#45;&gt;26</title>
<path fill="none" stroke="grey" stroke-width="2" d="M1249.67,-215.34C1257.85,-207.6 1267.62,-198.36 1276.66,-189.81"/>
<polygon fill="grey" stroke="grey" stroke-width="2" points="1279.02,-192.4 1283.88,-182.98 1274.21,-187.31 1279.02,-192.4"/>
</g>
<!-- 27 -->
<g id="node28" class="node">
<title>27</title>
<path fill="none" stroke="#d8ac56" stroke-width="2" d="M1366.62,-108C1366.62,-108 1183.38,-108 1183.38,-108 1177.38,-108 1171.38,-102 1171.38,-96 1171.38,-96 1171.38,-84 1171.38,-84 1171.38,-78 1177.38,-72 1183.38,-72 1183.38,-72 1366.62,-72 1366.62,-72 1372.62,-72 1378.62,-78 1378.62,-84 1378.62,-84 1378.62,-96 1378.62,-96 1378.62,-102 1372.62,-108 1366.62,-108"/>
<text text-anchor="middle" x="1275" y="-86.88" font-family="sans" font-size="10.00">aggregate_dnabrnn_alr_regions_by_chr</text>
</g>
<!-- 24&#45;&gt;27 -->
<g id="edge61" class="edge">
<title>24&#45;&gt;27</title>
<path fill="none" stroke="grey" stroke-width="2" d="M1310.84,-215C1344.12,-205.74 1377.3,-193.54 1387,-180 1396.32,-166.99 1395.56,-157.52 1387,-144 1379.21,-131.7 1367.72,-122.2 1355.01,-114.88"/>
<polygon fill="grey" stroke="grey" stroke-width="2" points="1356.79,-111.85 1346.3,-110.38 1353.58,-118.07 1356.79,-111.85"/>
</g>
<!-- 25&#45;&gt;0 -->
<g id="edge26" class="edge">
<title>25&#45;&gt;0</title>
<path fill="none" stroke="grey" stroke-width="2" d="M1100.35,-143.29C1080.07,-122.82 1043.8,-89.71 1006,-72 933.01,-37.81 838.4,-25.61 785.46,-21.3"/>
<polygon fill="grey" stroke="grey" stroke-width="2" points="785.87,-17.82 775.64,-20.57 785.36,-24.8 785.87,-17.82"/>
</g>
<!-- 25&#45;&gt;27 -->
<g id="edge62" class="edge">
<title>25&#45;&gt;27</title>
<path fill="none" stroke="grey" stroke-width="2" d="M1157.28,-143.15C1177.17,-134.34 1201.4,-123.61 1222.7,-114.17"/>
<polygon fill="grey" stroke="grey" stroke-width="2" points="1224.03,-117.41 1231.75,-110.16 1221.19,-111.01 1224.03,-117.41"/>
</g>
<!-- 26&#45;&gt;0 -->
<g id="edge21" class="edge">
<title>26&#45;&gt;0</title>
<path fill="none" stroke="grey" stroke-width="2" d="M1255.91,-143.02C1192.96,-120.16 1087.14,-82.38 1047,-72 954.72,-48.15 843.79,-31.73 785.44,-24.02"/>
<polygon fill="grey" stroke="grey" stroke-width="2" points="786.16,-20.59 775.8,-22.77 785.26,-27.53 786.16,-20.59"/>
</g>
<!-- 26&#45;&gt;27 -->
<g id="edge63" class="edge">
<title>26&#45;&gt;27</title>
<path fill="none" stroke="grey" stroke-width="2" d="M1297.43,-143.34C1294.5,-136.51 1291.07,-128.5 1287.79,-120.83"/>
<polygon fill="grey" stroke="grey" stroke-width="2" points="1291.02,-119.5 1283.86,-111.68 1284.59,-122.25 1291.02,-119.5"/>
</g>
<!-- 27&#45;&gt;0 -->
<g id="edge16" class="edge">
<title>27&#45;&gt;0</title>
<path fill="none" stroke="grey" stroke-width="2" d="M1170.61,-75.21C1052.89,-59.66 867.29,-35.15 785.73,-24.38"/>
<polygon fill="grey" stroke="grey" stroke-width="2" points="786.25,-20.92 775.88,-23.08 785.34,-27.86 786.25,-20.92"/>
</g>
<!-- 28&#45;&gt;0 -->
<g id="edge7" class="edge">
<title>28&#45;&gt;0</title>
<path fill="none" stroke="grey" stroke-width="2" d="M1451.67,-215.08C1448.07,-180.87 1434.97,-106.58 1388,-72 1339.55,-36.33 919.44,-23.2 785.71,-19.9"/>
<polygon fill="grey" stroke="grey" stroke-width="2" points="786.07,-16.41 775.99,-19.67 785.91,-23.41 786.07,-16.41"/>
</g>
<!-- 32 -->
<g id="node33" class="node">
<title>32</title>
<path fill="none" stroke="#d8bc56" stroke-width="2" d="M1693,-180C1693,-180 1539,-180 1539,-180 1533,-180 1527,-174 1527,-168 1527,-168 1527,-156 1527,-156 1527,-150 1533,-144 1539,-144 1539,-144 1693,-144 1693,-144 1699,-144 1705,-150 1705,-156 1705,-156 1705,-168 1705,-168 1705,-174 1699,-180 1693,-180"/>
<text text-anchor="middle" x="1616" y="-158.88" font-family="sans" font-size="10.00">new_cens_rename_oriented_ctgs</text>
</g>
<!-- 28&#45;&gt;32 -->
<g id="edge69" class="edge">
<title>28&#45;&gt;32</title>
<path fill="none" stroke="grey" stroke-width="2" d="M1494.55,-215.15C1515.17,-206.3 1540.31,-195.51 1562.36,-186.04"/>
<polygon fill="grey" stroke="grey" stroke-width="2" points="1563.65,-189.29 1571.46,-182.13 1560.89,-182.86 1563.65,-189.29"/>
</g>
<!-- 29 -->
<g id="node30" class="node">
<title>29</title>
<path fill="none" stroke="#70d856" stroke-width="2" d="M1796.25,-252C1796.25,-252 1601.75,-252 1601.75,-252 1595.75,-252 1589.75,-246 1589.75,-240 1589.75,-240 1589.75,-228 1589.75,-228 1589.75,-222 1595.75,-216 1601.75,-216 1601.75,-216 1796.25,-216 1796.25,-216 1802.25,-216 1808.25,-222 1808.25,-228 1808.25,-228 1808.25,-240 1808.25,-240 1808.25,-246 1802.25,-252 1796.25,-252"/>
<text text-anchor="middle" x="1699" y="-230.88" font-family="sans" font-size="10.00">new_cens_split_oriented_assembly_fasta</text>
</g>
<!-- 29&#45;&gt;0 -->
<g id="edge27" class="edge">
<title>29&#45;&gt;0</title>
<path fill="none" stroke="grey" stroke-width="2" d="M1602.91,-215.06C1574.24,-207.08 1543.65,-195.79 1518,-180 1462.04,-145.54 1476.21,-100.51 1417,-72 1304.59,-17.86 913.22,-17.14 785.59,-18.41"/>
<polygon fill="grey" stroke="grey" stroke-width="2" points="785.7,-14.91 775.74,-18.52 785.78,-21.91 785.7,-14.91"/>
</g>
<!-- 29&#45;&gt;32 -->
<g id="edge70" class="edge">
<title>29&#45;&gt;32</title>
<path fill="none" stroke="grey" stroke-width="2" d="M1678.06,-215.34C1668.69,-207.44 1657.46,-197.96 1647.14,-189.26"/>
<polygon fill="grey" stroke="grey" stroke-width="2" points="1649.44,-186.62 1639.54,-182.85 1644.93,-191.98 1649.44,-186.62"/>
</g>
<!-- 30&#45;&gt;29 -->
<g id="edge65" class="edge">
<title>30&#45;&gt;29</title>
<path fill="none" stroke="grey" stroke-width="2" d="M1460.25,-287.06C1504.14,-277.49 1558.37,-265.67 1604.05,-255.71"/>
<polygon fill="grey" stroke="grey" stroke-width="2" points="1604.7,-259.15 1613.73,-253.59 1603.21,-252.31 1604.7,-259.15"/>
</g>
<!-- 31&#45;&gt;30 -->
<g id="edge66" class="edge">
<title>31&#45;&gt;30</title>
<path fill="none" stroke="grey" stroke-width="2" d="M1295.3,-359.15C1308.61,-350.76 1324.69,-340.62 1339.12,-331.52"/>
<polygon fill="grey" stroke="grey" stroke-width="2" points="1340.6,-334.72 1347.19,-326.43 1336.87,-328.8 1340.6,-334.72"/>
</g>
<!-- 32&#45;&gt;0 -->
<g id="edge18" class="edge">
<title>32&#45;&gt;0</title>
<path fill="none" stroke="grey" stroke-width="2" d="M1588.83,-143.21C1573.89,-133.2 1555.15,-120.28 1539,-108 1519.16,-92.92 1519.11,-81.33 1496,-72 1365.36,-19.25 922.21,-17.76 785.5,-18.6"/>
<polygon fill="grey" stroke="grey" stroke-width="2" points="785.89,-15.1 775.91,-18.67 785.94,-22.1 785.89,-15.1"/>
</g>
<!-- 33 -->
<g id="node34" class="node">
<title>33</title>
<path fill="none" stroke="#56d8a2" stroke-width="2" d="M1706.25,-108C1706.25,-108 1559.75,-108 1559.75,-108 1553.75,-108 1547.75,-102 1547.75,-96 1547.75,-96 1547.75,-84 1547.75,-84 1547.75,-78 1553.75,-72 1559.75,-72 1559.75,-72 1706.25,-72 1706.25,-72 1712.25,-72 1718.25,-78 1718.25,-84 1718.25,-84 1718.25,-96 1718.25,-96 1718.25,-102 1712.25,-108 1706.25,-108"/>
<text text-anchor="middle" x="1633" y="-86.88" font-family="sans" font-size="10.00">new_cens_index_renamed_ctgs</text>
</g>
<!-- 32&#45;&gt;33 -->
<g id="edge71" class="edge">
<title>32&#45;&gt;33</title>
<path fill="none" stroke="grey" stroke-width="2" d="M1620.29,-143.34C1621.91,-136.67 1623.8,-128.89 1625.62,-121.39"/>
<polygon fill="grey" stroke="grey" stroke-width="2" points="1628.98,-122.39 1627.94,-111.84 1622.18,-120.73 1628.98,-122.39"/>
</g>
<!-- 33&#45;&gt;0 -->
<g id="edge24" class="edge">
<title>33&#45;&gt;0</title>
<path fill="none" stroke="grey" stroke-width="2" d="M1546.95,-73.68C1542.58,-73.07 1538.24,-72.51 1534,-72 1248.46,-37.99 901.99,-24.15 785.44,-20.25"/>
<polygon fill="grey" stroke="grey" stroke-width="2" points="785.83,-16.76 775.72,-19.93 785.6,-23.75 785.83,-16.76"/>
</g>
</g>
</svg>
