<?xml version="1.0" encoding="UTF-8" standalone="no"?>
<!DOCTYPE svg PUBLIC "-//W3C//DTD SVG 1.1//EN"
 "http://www.w3.org/Graphics/SVG/1.1/DTD/svg11.dtd">
<!-- Generated by graphviz version 2.50.0 (0)
 -->
<!-- Title: snakemake_dag Pages: 1 -->
<svg width="2300pt" height="2708pt"
 viewBox="0.00 0.00 2300.00 2708.00" xmlns="http://www.w3.org/2000/svg" xmlns:xlink="http://www.w3.org/1999/xlink">
<g id="graph0" class="graph" transform="scale(1 1) rotate(0) translate(4 2704)">
<title>snakemake_dag</title>
<polygon fill="white" stroke="transparent" points="-4,4 -4,-2704 2296,-2704 2296,4 -4,4"/>
<!-- 0 -->
<g id="node1" class="node">
<title>0</title>
<path fill="none" stroke="#d87d56" stroke-width="2" d="M1103,-36C1103,-36 1073,-36 1073,-36 1067,-36 1061,-30 1061,-24 1061,-24 1061,-12 1061,-12 1061,-6 1067,0 1073,0 1073,0 1103,0 1103,0 1109,0 1115,-6 1115,-12 1115,-12 1115,-24 1115,-24 1115,-30 1109,-36 1103,-36"/>
<text text-anchor="middle" x="1088" y="-15.5" font-family="sans" font-size="10.00">all</text>
</g>
<!-- 1 -->
<g id="node2" class="node">
<title>1</title>
<path fill="none" stroke="#d8bc56" stroke-width="2" d="M335.5,-2700C335.5,-2700 232.5,-2700 232.5,-2700 226.5,-2700 220.5,-2694 220.5,-2688 220.5,-2688 220.5,-2676 220.5,-2676 220.5,-2670 226.5,-2664 232.5,-2664 232.5,-2664 335.5,-2664 335.5,-2664 341.5,-2664 347.5,-2670 347.5,-2676 347.5,-2676 347.5,-2688 347.5,-2688 347.5,-2694 341.5,-2700 335.5,-2700"/>
<text text-anchor="middle" x="284" y="-2679.5" font-family="sans" font-size="10.00">extract_ref_hor_arrays</text>
</g>
<!-- 1&#45;&gt;0 -->
<g id="edge38" class="edge">
<title>1&#45;&gt;0</title>
<path fill="none" stroke="grey" stroke-width="2" d="M220.26,-2676.73C136.53,-2667.27 0,-2636.85 0,-2539 0,-2539 0,-2539 0,-161 0,-116.47 8.57,-96.11 46,-72 131.85,-16.69 875.08,-17.7 1050.85,-18.72"/>
<polygon fill="grey" stroke="grey" stroke-width="2" points="1050.88,-22.22 1060.9,-18.79 1050.92,-15.22 1050.88,-22.22"/>
</g>
<!-- 5 -->
<g id="node6" class="node">
<title>5</title>
<path fill="none" stroke="#d8b456" stroke-width="2" d="M327.5,-2628C327.5,-2628 240.5,-2628 240.5,-2628 234.5,-2628 228.5,-2622 228.5,-2616 228.5,-2616 228.5,-2604 228.5,-2604 228.5,-2598 234.5,-2592 240.5,-2592 240.5,-2592 327.5,-2592 327.5,-2592 333.5,-2592 339.5,-2598 339.5,-2604 339.5,-2604 339.5,-2616 339.5,-2616 339.5,-2622 333.5,-2628 327.5,-2628"/>
<text text-anchor="middle" x="284" y="-2607.5" font-family="sans" font-size="10.00">asm_ref_alignment</text>
</g>
<!-- 1&#45;&gt;5 -->
<g id="edge57" class="edge">
<title>1&#45;&gt;5</title>
<path fill="none" stroke="grey" stroke-width="2" d="M284,-2663.7C284,-2655.98 284,-2646.71 284,-2638.11"/>
<polygon fill="grey" stroke="grey" stroke-width="2" points="287.5,-2638.1 284,-2628.1 280.5,-2638.1 287.5,-2638.1"/>
</g>
<!-- 6 -->
<g id="node7" class="node">
<title>6</title>
<path fill="none" stroke="#d8c356" stroke-width="2" d="M414.5,-2556C414.5,-2556 321.5,-2556 321.5,-2556 315.5,-2556 309.5,-2550 309.5,-2544 309.5,-2544 309.5,-2532 309.5,-2532 309.5,-2526 315.5,-2520 321.5,-2520 321.5,-2520 414.5,-2520 414.5,-2520 420.5,-2520 426.5,-2526 426.5,-2532 426.5,-2532 426.5,-2544 426.5,-2544 426.5,-2550 420.5,-2556 414.5,-2556"/>
<text text-anchor="middle" x="368" y="-2535.5" font-family="sans" font-size="10.00">asm_ref_alignment2</text>
</g>
<!-- 1&#45;&gt;6 -->
<g id="edge59" class="edge">
<title>1&#45;&gt;6</title>
<path fill="none" stroke="grey" stroke-width="2" d="M312.82,-2663.95C325.78,-2654.86 340.12,-2642.54 349,-2628 360.36,-2609.4 365,-2585.01 366.85,-2566.47"/>
<polygon fill="grey" stroke="grey" stroke-width="2" points="370.36,-2566.55 367.66,-2556.31 363.38,-2566 370.36,-2566.55"/>
</g>
<!-- 2 -->
<g id="node3" class="node">
<title>2</title>
<path fill="none" stroke="#d8cb56" stroke-width="2" d="M1786.5,-2700C1786.5,-2700 1735.5,-2700 1735.5,-2700 1729.5,-2700 1723.5,-2694 1723.5,-2688 1723.5,-2688 1723.5,-2676 1723.5,-2676 1723.5,-2670 1729.5,-2664 1735.5,-2664 1735.5,-2664 1786.5,-2664 1786.5,-2664 1792.5,-2664 1798.5,-2670 1798.5,-2676 1798.5,-2676 1798.5,-2688 1798.5,-2688 1798.5,-2694 1792.5,-2700 1786.5,-2700"/>
<text text-anchor="middle" x="1761" y="-2679.5" font-family="sans" font-size="10.00">concat_asm</text>
</g>
<!-- 2&#45;&gt;0 -->
<g id="edge49" class="edge">
<title>2&#45;&gt;0</title>
<path fill="none" stroke="grey" stroke-width="2" d="M1798.76,-2679.06C1920.07,-2671.8 2292,-2641.23 2292,-2539 2292,-2539 2292,-2539 2292,-161 2292,-116.47 2283.49,-96.02 2246,-72 2197.74,-41.09 1318.3,-23.22 1125.26,-19.66"/>
<polygon fill="grey" stroke="grey" stroke-width="2" points="1125.12,-16.16 1115.05,-19.48 1124.99,-23.16 1125.12,-16.16"/>
</g>
<!-- 2&#45;&gt;5 -->
<g id="edge58" class="edge">
<title>2&#45;&gt;5</title>
<path fill="none" stroke="grey" stroke-width="2" d="M1723.38,-2679.22C1525.55,-2669.84 605.12,-2626.22 349.82,-2614.12"/>
<polygon fill="grey" stroke="grey" stroke-width="2" points="349.74,-2610.61 339.59,-2613.63 349.41,-2617.6 349.74,-2610.61"/>
</g>
<!-- 2&#45;&gt;6 -->
<g id="edge61" class="edge">
<title>2&#45;&gt;6</title>
<path fill="none" stroke="grey" stroke-width="2" d="M1723.38,-2677.17C1534.12,-2657.87 685.42,-2571.36 436.7,-2546"/>
<polygon fill="grey" stroke="grey" stroke-width="2" points="437.01,-2542.52 426.71,-2544.98 436.3,-2549.48 437.01,-2542.52"/>
</g>
<!-- 14 -->
<g id="node15" class="node">
<title>14</title>
<path fill="none" stroke="#56d8d8" stroke-width="2" d="M1923,-2052C1923,-2052 1841,-2052 1841,-2052 1835,-2052 1829,-2046 1829,-2040 1829,-2040 1829,-2028 1829,-2028 1829,-2022 1835,-2016 1841,-2016 1841,-2016 1923,-2016 1923,-2016 1929,-2016 1935,-2022 1935,-2028 1935,-2028 1935,-2040 1935,-2040 1935,-2046 1929,-2052 1923,-2052"/>
<text text-anchor="middle" x="1882" y="-2031.5" font-family="sans" font-size="10.00">asm_rename_ctgs</text>
</g>
<!-- 2&#45;&gt;14 -->
<g id="edge70" class="edge">
<title>2&#45;&gt;14</title>
<path fill="none" stroke="grey" stroke-width="2" d="M1798.62,-2677.43C1907.63,-2666.06 2216,-2626.2 2216,-2539 2216,-2539 2216,-2539 2216,-2177 2216,-2060.73 2042.47,-2038.3 1945.57,-2034.84"/>
<polygon fill="grey" stroke="grey" stroke-width="2" points="1945.39,-2031.33 1935.29,-2034.53 1945.18,-2038.33 1945.39,-2031.33"/>
</g>
<!-- 3 -->
<g id="node4" class="node">
<title>3</title>
<path fill="none" stroke="#56d87b" stroke-width="2" d="M326.5,-2412C326.5,-2412 235.5,-2412 235.5,-2412 229.5,-2412 223.5,-2406 223.5,-2400 223.5,-2400 223.5,-2388 223.5,-2388 223.5,-2382 229.5,-2376 235.5,-2376 235.5,-2376 326.5,-2376 326.5,-2376 332.5,-2376 338.5,-2382 338.5,-2388 338.5,-2388 338.5,-2400 338.5,-2400 338.5,-2406 332.5,-2412 326.5,-2412"/>
<text text-anchor="middle" x="281" y="-2391.5" font-family="sans" font-size="10.00">asm_ref_aln_to_bed</text>
</g>
<!-- 3&#45;&gt;0 -->
<g id="edge10" class="edge">
<title>3&#45;&gt;0</title>
<path fill="none" stroke="grey" stroke-width="2" d="M275.13,-2375.74C266.66,-2349.25 252,-2296.79 252,-2251 252,-2251 252,-2251 252,-161 252,-117.26 257.86,-96.63 294,-72 356.99,-29.06 901.63,-20.77 1050.52,-19.3"/>
<polygon fill="grey" stroke="grey" stroke-width="2" points="1050.97,-22.79 1060.94,-19.2 1050.91,-15.79 1050.97,-22.79"/>
</g>
<!-- 10 -->
<g id="node11" class="node">
<title>10</title>
<path fill="none" stroke="#5692d8" stroke-width="2" d="M441.5,-2340C441.5,-2340 292.5,-2340 292.5,-2340 286.5,-2340 280.5,-2334 280.5,-2328 280.5,-2328 280.5,-2316 280.5,-2316 280.5,-2310 286.5,-2304 292.5,-2304 292.5,-2304 441.5,-2304 441.5,-2304 447.5,-2304 453.5,-2310 453.5,-2316 453.5,-2316 453.5,-2328 453.5,-2328 453.5,-2334 447.5,-2340 441.5,-2340"/>
<text text-anchor="middle" x="367" y="-2319.5" font-family="sans" font-size="10.00">format_hor_ref_aln_cen_contigs</text>
</g>
<!-- 3&#45;&gt;10 -->
<g id="edge65" class="edge">
<title>3&#45;&gt;10</title>
<path fill="none" stroke="grey" stroke-width="2" d="M302.26,-2375.7C313.09,-2366.88 326.42,-2356.03 338.16,-2346.47"/>
<polygon fill="grey" stroke="grey" stroke-width="2" points="340.44,-2349.13 345.99,-2340.1 336.02,-2343.7 340.44,-2349.13"/>
</g>
<!-- 4 -->
<g id="node5" class="node">
<title>4</title>
<path fill="none" stroke="#56a2d8" stroke-width="2" d="M336.5,-2484C336.5,-2484 225.5,-2484 225.5,-2484 219.5,-2484 213.5,-2478 213.5,-2472 213.5,-2472 213.5,-2460 213.5,-2460 213.5,-2454 219.5,-2448 225.5,-2448 225.5,-2448 336.5,-2448 336.5,-2448 342.5,-2448 348.5,-2454 348.5,-2460 348.5,-2460 348.5,-2472 348.5,-2472 348.5,-2478 342.5,-2484 336.5,-2484"/>
<text text-anchor="middle" x="281" y="-2463.5" font-family="sans" font-size="10.00">asm_ref_compress_sam</text>
</g>
<!-- 4&#45;&gt;3 -->
<g id="edge54" class="edge">
<title>4&#45;&gt;3</title>
<path fill="none" stroke="grey" stroke-width="2" d="M281,-2447.7C281,-2439.98 281,-2430.71 281,-2422.11"/>
<polygon fill="grey" stroke="grey" stroke-width="2" points="284.5,-2422.1 281,-2412.1 277.5,-2422.1 284.5,-2422.1"/>
</g>
<!-- 7 -->
<g id="node8" class="node">
<title>7</title>
<path fill="none" stroke="#d88556" stroke-width="2" d="M192.5,-252C192.5,-252 97.5,-252 97.5,-252 91.5,-252 85.5,-246 85.5,-240 85.5,-240 85.5,-228 85.5,-228 85.5,-222 91.5,-216 97.5,-216 97.5,-216 192.5,-216 192.5,-216 198.5,-216 204.5,-222 204.5,-228 204.5,-228 204.5,-240 204.5,-240 204.5,-246 198.5,-252 192.5,-252"/>
<text text-anchor="middle" x="145" y="-231.5" font-family="sans" font-size="10.00">asm_ref_sam_to_paf</text>
</g>
<!-- 4&#45;&gt;7 -->
<g id="edge62" class="edge">
<title>4&#45;&gt;7</title>
<path fill="none" stroke="grey" stroke-width="2" d="M252.8,-2447.79C239.73,-2438.59 224.93,-2426.22 215,-2412 191.1,-2377.78 185,-2364.74 185,-2323 185,-2323 185,-2323 185,-377 185,-335.48 168.96,-289.61 157.2,-261.54"/>
<polygon fill="grey" stroke="grey" stroke-width="2" points="160.27,-259.84 153.09,-252.05 153.85,-262.62 160.27,-259.84"/>
</g>
<!-- 5&#45;&gt;4 -->
<g id="edge55" class="edge">
<title>5&#45;&gt;4</title>
<path fill="none" stroke="grey" stroke-width="2" d="M283.64,-2591.87C283.13,-2567.67 282.19,-2523.21 281.58,-2494.39"/>
<polygon fill="grey" stroke="grey" stroke-width="2" points="285.07,-2494.11 281.36,-2484.19 278.08,-2494.26 285.07,-2494.11"/>
</g>
<!-- 5&#45;&gt;6 -->
<g id="edge60" class="edge">
<title>5&#45;&gt;6</title>
<path fill="none" stroke="grey" stroke-width="2" d="M304.76,-2591.7C315.24,-2582.97 328.11,-2572.24 339.5,-2562.75"/>
<polygon fill="grey" stroke="grey" stroke-width="2" points="342.03,-2565.19 347.47,-2556.1 337.55,-2559.82 342.03,-2565.19"/>
</g>
<!-- 6&#45;&gt;4 -->
<g id="edge56" class="edge">
<title>6&#45;&gt;4</title>
<path fill="none" stroke="grey" stroke-width="2" d="M346.49,-2519.7C335.54,-2510.88 322.05,-2500.03 310.18,-2490.47"/>
<polygon fill="grey" stroke="grey" stroke-width="2" points="312.24,-2487.65 302.26,-2484.1 307.86,-2493.1 312.24,-2487.65"/>
</g>
<!-- 7&#45;&gt;0 -->
<g id="edge18" class="edge">
<title>7&#45;&gt;0</title>
<path fill="none" stroke="grey" stroke-width="2" d="M96.97,-215.85C81.03,-207.6 65.06,-195.95 56,-180 31.65,-137.17 41.62,-101.6 81,-72 120.49,-42.31 873.5,-23.77 1050.83,-19.8"/>
<polygon fill="grey" stroke="grey" stroke-width="2" points="1051.04,-23.3 1060.96,-19.58 1050.89,-16.3 1051.04,-23.3"/>
</g>
<!-- 8 -->
<g id="node9" class="node">
<title>8</title>
<path fill="none" stroke="#56d85b" stroke-width="2" d="M212.5,-180C212.5,-180 77.5,-180 77.5,-180 71.5,-180 65.5,-174 65.5,-168 65.5,-168 65.5,-156 65.5,-156 65.5,-150 71.5,-144 77.5,-144 77.5,-144 212.5,-144 212.5,-144 218.5,-144 224.5,-150 224.5,-156 224.5,-156 224.5,-168 224.5,-168 224.5,-174 218.5,-180 212.5,-180"/>
<text text-anchor="middle" x="145" y="-159.5" font-family="sans" font-size="10.00">asm_ref_trim_and_break_paf</text>
</g>
<!-- 7&#45;&gt;8 -->
<g id="edge63" class="edge">
<title>7&#45;&gt;8</title>
<path fill="none" stroke="grey" stroke-width="2" d="M145,-215.7C145,-207.98 145,-198.71 145,-190.11"/>
<polygon fill="grey" stroke="grey" stroke-width="2" points="148.5,-190.1 145,-180.1 141.5,-190.1 148.5,-190.1"/>
</g>
<!-- 8&#45;&gt;0 -->
<g id="edge50" class="edge">
<title>8&#45;&gt;0</title>
<path fill="none" stroke="grey" stroke-width="2" d="M160.21,-143.87C181.51,-120.34 219.68,-80.02 238,-72 313.06,-39.12 895.49,-23.44 1050.31,-19.83"/>
<polygon fill="grey" stroke="grey" stroke-width="2" points="1050.79,-23.32 1060.71,-19.59 1050.63,-16.32 1050.79,-23.32"/>
</g>
<!-- 9 -->
<g id="node10" class="node">
<title>9</title>
<path fill="none" stroke="#56a9d8" stroke-width="2" d="M173.5,-108C173.5,-108 102.5,-108 102.5,-108 96.5,-108 90.5,-102 90.5,-96 90.5,-96 90.5,-84 90.5,-84 90.5,-78 96.5,-72 102.5,-72 102.5,-72 173.5,-72 173.5,-72 179.5,-72 185.5,-78 185.5,-84 185.5,-84 185.5,-96 185.5,-96 185.5,-102 179.5,-108 173.5,-108"/>
<text text-anchor="middle" x="138" y="-87.5" font-family="sans" font-size="10.00">asm_ref_SafFire</text>
</g>
<!-- 8&#45;&gt;9 -->
<g id="edge64" class="edge">
<title>8&#45;&gt;9</title>
<path fill="none" stroke="grey" stroke-width="2" d="M143.27,-143.7C142.5,-135.98 141.57,-126.71 140.71,-118.11"/>
<polygon fill="grey" stroke="grey" stroke-width="2" points="144.19,-117.71 139.71,-108.1 137.22,-118.4 144.19,-117.71"/>
</g>
<!-- 9&#45;&gt;0 -->
<g id="edge21" class="edge">
<title>9&#45;&gt;0</title>
<path fill="none" stroke="grey" stroke-width="2" d="M185.51,-74.9C190.37,-73.78 195.26,-72.78 200,-72 526.15,-18.16 927.68,-17.3 1050.54,-18.47"/>
<polygon fill="grey" stroke="grey" stroke-width="2" points="1050.85,-21.97 1060.89,-18.57 1050.93,-14.97 1050.85,-21.97"/>
</g>
<!-- 10&#45;&gt;0 -->
<g id="edge35" class="edge">
<title>10&#45;&gt;0</title>
<path fill="none" stroke="grey" stroke-width="2" d="M350.29,-2303.81C327.65,-2278.62 290,-2229.2 290,-2179 290,-2179 290,-2179 290,-161 290,-117.26 295.9,-96.69 332,-72 391.73,-31.14 907.1,-21.37 1050.89,-19.43"/>
<polygon fill="grey" stroke="grey" stroke-width="2" points="1051.02,-22.92 1060.97,-19.29 1050.93,-15.93 1051.02,-22.92"/>
</g>
<!-- 11 -->
<g id="node12" class="node">
<title>11</title>
<path fill="none" stroke="#9fd856" stroke-width="2" d="M448,-2268C448,-2268 344,-2268 344,-2268 338,-2268 332,-2262 332,-2256 332,-2256 332,-2244 332,-2244 332,-2238 338,-2232 344,-2232 344,-2232 448,-2232 448,-2232 454,-2232 460,-2238 460,-2244 460,-2244 460,-2256 460,-2256 460,-2262 454,-2268 448,-2268"/>
<text text-anchor="middle" x="396" y="-2247.5" font-family="sans" font-size="10.00">intersect_with_pq_arm</text>
</g>
<!-- 10&#45;&gt;11 -->
<g id="edge66" class="edge">
<title>10&#45;&gt;11</title>
<path fill="none" stroke="grey" stroke-width="2" d="M374.17,-2303.7C377.43,-2295.81 381.37,-2286.3 385,-2277.55"/>
<polygon fill="grey" stroke="grey" stroke-width="2" points="388.32,-2278.68 388.91,-2268.1 381.85,-2276 388.32,-2278.68"/>
</g>
<!-- 11&#45;&gt;0 -->
<g id="edge25" class="edge">
<title>11&#45;&gt;0</title>
<path fill="none" stroke="grey" stroke-width="2" d="M460.23,-2248.5C787.47,-2245.11 2254,-2219.62 2254,-2035 2254,-2035 2254,-2035 2254,-161 2254,-118.16 2252.07,-96.61 2217,-72 2171.33,-39.96 1315.59,-23.01 1125.29,-19.63"/>
<polygon fill="grey" stroke="grey" stroke-width="2" points="1125.28,-16.13 1115.22,-19.46 1125.16,-23.13 1125.28,-16.13"/>
</g>
<!-- 12 -->
<g id="node13" class="node">
<title>12</title>
<path fill="none" stroke="#5673d8" stroke-width="2" d="M440,-2196C440,-2196 352,-2196 352,-2196 346,-2196 340,-2190 340,-2184 340,-2184 340,-2172 340,-2172 340,-2166 346,-2160 352,-2160 352,-2160 440,-2160 440,-2160 446,-2160 452,-2166 452,-2172 452,-2172 452,-2184 452,-2184 452,-2190 446,-2196 440,-2196"/>
<text text-anchor="middle" x="396" y="-2175.5" font-family="sans" font-size="10.00">map_collapse_cens</text>
</g>
<!-- 11&#45;&gt;12 -->
<g id="edge67" class="edge">
<title>11&#45;&gt;12</title>
<path fill="none" stroke="grey" stroke-width="2" d="M396,-2231.7C396,-2223.98 396,-2214.71 396,-2206.11"/>
<polygon fill="grey" stroke="grey" stroke-width="2" points="399.5,-2206.1 396,-2196.1 392.5,-2206.1 399.5,-2206.1"/>
</g>
<!-- 12&#45;&gt;0 -->
<g id="edge45" class="edge">
<title>12&#45;&gt;0</title>
<path fill="none" stroke="grey" stroke-width="2" d="M381.58,-2159.89C361.62,-2134.42 328,-2084.2 328,-2035 328,-2035 328,-2035 328,-161 328,-117.26 333.94,-96.76 370,-72 426.36,-33.29 910.87,-22.04 1050.49,-19.58"/>
<polygon fill="grey" stroke="grey" stroke-width="2" points="1050.75,-23.08 1060.69,-19.41 1050.63,-16.08 1050.75,-23.08"/>
</g>
<!-- 13 -->
<g id="node14" class="node">
<title>13</title>
<path fill="none" stroke="#d89556" stroke-width="2" d="M585.5,-2124C585.5,-2124 414.5,-2124 414.5,-2124 408.5,-2124 402.5,-2118 402.5,-2112 402.5,-2112 402.5,-2100 402.5,-2100 402.5,-2094 408.5,-2088 414.5,-2088 414.5,-2088 585.5,-2088 585.5,-2088 591.5,-2088 597.5,-2094 597.5,-2100 597.5,-2100 597.5,-2112 597.5,-2112 597.5,-2118 591.5,-2124 585.5,-2124"/>
<text text-anchor="middle" x="500" y="-2103.5" font-family="sans" font-size="10.00">asm_create_renamed_bed_n_legend</text>
</g>
<!-- 12&#45;&gt;13 -->
<g id="edge68" class="edge">
<title>12&#45;&gt;13</title>
<path fill="none" stroke="grey" stroke-width="2" d="M421.44,-2159.88C434.79,-2150.89 451.32,-2139.76 465.78,-2130.03"/>
<polygon fill="grey" stroke="grey" stroke-width="2" points="468.12,-2132.68 474.46,-2124.19 464.21,-2126.87 468.12,-2132.68"/>
</g>
<!-- 13&#45;&gt;0 -->
<g id="edge24" class="edge">
<title>13&#45;&gt;0</title>
<path fill="none" stroke="grey" stroke-width="2" d="M463.07,-2087.82C446.6,-2078.85 427.84,-2066.67 414,-2052 383.15,-2019.32 366,-2007.94 366,-1963 366,-1963 366,-1963 366,-161 366,-117.26 372,-96.83 408,-72 461.09,-35.38 916.25,-22.71 1050.73,-19.74"/>
<polygon fill="grey" stroke="grey" stroke-width="2" points="1051.02,-23.24 1060.94,-19.52 1050.87,-16.24 1051.02,-23.24"/>
</g>
<!-- 13&#45;&gt;14 -->
<g id="edge69" class="edge">
<title>13&#45;&gt;14</title>
<path fill="none" stroke="grey" stroke-width="2" d="M597.73,-2100.05C864.18,-2086.55 1598.1,-2049.38 1818.56,-2038.21"/>
<polygon fill="grey" stroke="grey" stroke-width="2" points="1818.86,-2041.7 1828.67,-2037.7 1818.5,-2034.71 1818.86,-2041.7"/>
</g>
<!-- 16 -->
<g id="node17" class="node">
<title>16</title>
<path fill="none" stroke="#a7d856" stroke-width="2" d="M565,-2052C565,-2052 435,-2052 435,-2052 429,-2052 423,-2046 423,-2040 423,-2040 423,-2028 423,-2028 423,-2022 429,-2016 435,-2016 435,-2016 565,-2016 565,-2016 571,-2016 577,-2022 577,-2028 577,-2028 577,-2040 577,-2040 577,-2046 571,-2052 565,-2052"/>
<text text-anchor="middle" x="500" y="-2031.5" font-family="sans" font-size="10.00">filter_cens_oriented_regions</text>
</g>
<!-- 13&#45;&gt;16 -->
<g id="edge72" class="edge">
<title>13&#45;&gt;16</title>
<path fill="none" stroke="grey" stroke-width="2" d="M500,-2087.7C500,-2079.98 500,-2070.71 500,-2062.11"/>
<polygon fill="grey" stroke="grey" stroke-width="2" points="503.5,-2062.1 500,-2052.1 496.5,-2062.1 503.5,-2062.1"/>
</g>
<!-- 45 -->
<g id="node46" class="node">
<title>45</title>
<path fill="none" stroke="#d87d56" stroke-width="2" d="M1365,-756C1365,-756 1231,-756 1231,-756 1225,-756 1219,-750 1219,-744 1219,-744 1219,-732 1219,-732 1219,-726 1225,-720 1231,-720 1231,-720 1365,-720 1365,-720 1371,-720 1377,-726 1377,-732 1377,-732 1377,-744 1377,-744 1377,-750 1371,-756 1365,-756"/>
<text text-anchor="middle" x="1298" y="-735.5" font-family="sans" font-size="10.00">fix_incorrect_merged_legend</text>
</g>
<!-- 13&#45;&gt;45 -->
<g id="edge108" class="edge">
<title>13&#45;&gt;45</title>
<path fill="none" stroke="grey" stroke-width="2" d="M597.81,-2102.86C765.97,-2093.38 1107.63,-2047.54 1272,-1836 1335.77,-1753.93 1292,-1706.94 1292,-1603 1292,-1603 1292,-1603 1292,-1457 1292,-1361.88 1295,-1338.12 1295,-1243 1295,-1243 1295,-1243 1295,-1025 1295,-929.93 1296.68,-817.1 1297.52,-766.25"/>
<polygon fill="grey" stroke="grey" stroke-width="2" points="1301.03,-766.14 1297.7,-756.08 1294.03,-766.02 1301.03,-766.14"/>
</g>
<!-- 14&#45;&gt;0 -->
<g id="edge4" class="edge">
<title>14&#45;&gt;0</title>
<path fill="none" stroke="grey" stroke-width="2" d="M1935.13,-2019.78C1958.31,-2011.66 1984.19,-1999.05 2002,-1980 2085.46,-1890.73 2178,-1581.21 2178,-1459 2178,-1459 2178,-1459 2178,-161 2178,-118.16 2176.02,-96.66 2141,-72 2098.65,-42.18 1307.87,-23.66 1125.36,-19.77"/>
<polygon fill="grey" stroke="grey" stroke-width="2" points="1125.26,-16.26 1115.19,-19.55 1125.11,-23.26 1125.26,-16.26"/>
</g>
<!-- 15 -->
<g id="node16" class="node">
<title>15</title>
<path fill="none" stroke="#68d856" stroke-width="2" d="M2214,-1908C2214,-1908 2094,-1908 2094,-1908 2088,-1908 2082,-1902 2082,-1896 2082,-1896 2082,-1884 2082,-1884 2082,-1878 2088,-1872 2094,-1872 2094,-1872 2214,-1872 2214,-1872 2220,-1872 2226,-1878 2226,-1884 2226,-1884 2226,-1896 2226,-1896 2226,-1902 2220,-1908 2214,-1908"/>
<text text-anchor="middle" x="2154" y="-1887.5" font-family="sans" font-size="10.00">asm_index_renamed_ctgs</text>
</g>
<!-- 14&#45;&gt;15 -->
<g id="edge71" class="edge">
<title>14&#45;&gt;15</title>
<path fill="none" stroke="grey" stroke-width="2" d="M1935.06,-2025.49C1973.98,-2018.24 2026.96,-2004.6 2068,-1980 2095.41,-1963.57 2120,-1936.18 2135.8,-1916.12"/>
<polygon fill="grey" stroke="grey" stroke-width="2" points="2138.7,-1918.09 2142.01,-1908.02 2133.15,-1913.83 2138.7,-1918.09"/>
</g>
<!-- 17 -->
<g id="node18" class="node">
<title>17</title>
<path fill="none" stroke="#ced856" stroke-width="2" d="M623,-1980C623,-1980 481,-1980 481,-1980 475,-1980 469,-1974 469,-1968 469,-1968 469,-1956 469,-1956 469,-1950 475,-1944 481,-1944 481,-1944 623,-1944 623,-1944 629,-1944 635,-1950 635,-1956 635,-1956 635,-1968 635,-1968 635,-1974 629,-1980 623,-1980"/>
<text text-anchor="middle" x="552" y="-1959.5" font-family="sans" font-size="10.00">extract_cens_oriented_regions</text>
</g>
<!-- 14&#45;&gt;17 -->
<g id="edge74" class="edge">
<title>14&#45;&gt;17</title>
<path fill="none" stroke="grey" stroke-width="2" d="M1828.63,-2030.19C1626.24,-2019.54 904.5,-1981.55 645.42,-1967.92"/>
<polygon fill="grey" stroke="grey" stroke-width="2" points="645.46,-1964.41 635.29,-1967.38 645.09,-1971.4 645.46,-1964.41"/>
</g>
<!-- 24 -->
<g id="node25" class="node">
<title>24</title>
<path fill="none" stroke="#56d0d8" stroke-width="2" d="M742.5,-1764C742.5,-1764 575.5,-1764 575.5,-1764 569.5,-1764 563.5,-1758 563.5,-1752 563.5,-1752 563.5,-1740 563.5,-1740 563.5,-1734 569.5,-1728 575.5,-1728 575.5,-1728 742.5,-1728 742.5,-1728 748.5,-1728 754.5,-1734 754.5,-1740 754.5,-1740 754.5,-1752 754.5,-1752 754.5,-1758 748.5,-1764 742.5,-1764"/>
<text text-anchor="middle" x="659" y="-1743.5" font-family="sans" font-size="10.00">extract_new_oriented_cens_regions</text>
</g>
<!-- 14&#45;&gt;24 -->
<g id="edge82" class="edge">
<title>14&#45;&gt;24</title>
<path fill="none" stroke="grey" stroke-width="2" d="M1828.92,-2026.61C1676.99,-2007.48 1228.28,-1945.15 870,-1836 810.25,-1817.8 744.36,-1788.41 702.38,-1768.43"/>
<polygon fill="grey" stroke="grey" stroke-width="2" points="703.8,-1765.23 693.27,-1764.07 700.78,-1771.55 703.8,-1765.23"/>
</g>
<!-- 31 -->
<g id="node32" class="node">
<title>31</title>
<path fill="none" stroke="#d88556" stroke-width="2" d="M1981,-1980C1981,-1980 1891,-1980 1891,-1980 1885,-1980 1879,-1974 1879,-1968 1879,-1968 1879,-1956 1879,-1956 1879,-1950 1885,-1944 1891,-1944 1891,-1944 1981,-1944 1981,-1944 1987,-1944 1993,-1950 1993,-1956 1993,-1956 1993,-1968 1993,-1968 1993,-1974 1987,-1980 1981,-1980"/>
<text text-anchor="middle" x="1936" y="-1959.5" font-family="sans" font-size="10.00">align_reads_to_asm</text>
</g>
<!-- 14&#45;&gt;31 -->
<g id="edge91" class="edge">
<title>14&#45;&gt;31</title>
<path fill="none" stroke="grey" stroke-width="2" d="M1895.35,-2015.7C1901.76,-2007.39 1909.56,-1997.28 1916.61,-1988.14"/>
<polygon fill="grey" stroke="grey" stroke-width="2" points="1919.47,-1990.16 1922.81,-1980.1 1913.93,-1985.88 1919.47,-1990.16"/>
</g>
<!-- 33 -->
<g id="node34" class="node">
<title>33</title>
<path fill="none" stroke="#5673d8" stroke-width="2" d="M1911,-1332C1911,-1332 1767,-1332 1767,-1332 1761,-1332 1755,-1326 1755,-1320 1755,-1320 1755,-1308 1755,-1308 1755,-1302 1761,-1296 1767,-1296 1767,-1296 1911,-1296 1911,-1296 1917,-1296 1923,-1302 1923,-1308 1923,-1308 1923,-1320 1923,-1320 1923,-1326 1917,-1332 1911,-1332"/>
<text text-anchor="middle" x="1839" y="-1311.5" font-family="sans" font-size="10.00">extract_correct_alr_regions_rm</text>
</g>
<!-- 14&#45;&gt;33 -->
<g id="edge95" class="edge">
<title>14&#45;&gt;33</title>
<path fill="none" stroke="grey" stroke-width="2" d="M1873.09,-2015.58C1860.5,-1989.3 1839,-1937.62 1839,-1891 1839,-1891 1839,-1891 1839,-1457 1839,-1417 1839,-1370.65 1839,-1342.08"/>
<polygon fill="grey" stroke="grey" stroke-width="2" points="1842.5,-1342.05 1839,-1332.05 1835.5,-1342.05 1842.5,-1342.05"/>
</g>
<!-- 15&#45;&gt;0 -->
<g id="edge40" class="edge">
<title>15&#45;&gt;0</title>
<path fill="none" stroke="grey" stroke-width="2" d="M2167.15,-1871.69C2185.35,-1845.95 2216,-1795.42 2216,-1747 2216,-1747 2216,-1747 2216,-161 2216,-120.03 2223.92,-97.69 2192,-72 2149.57,-37.85 1313.67,-22.58 1125.43,-19.57"/>
<polygon fill="grey" stroke="grey" stroke-width="2" points="1125.27,-16.07 1115.21,-19.41 1125.15,-23.06 1125.27,-16.07"/>
</g>
<!-- 16&#45;&gt;0 -->
<g id="edge19" class="edge">
<title>16&#45;&gt;0</title>
<path fill="none" stroke="grey" stroke-width="2" d="M478.22,-2015.83C449.89,-1991.39 404,-1943.67 404,-1891 404,-1891 404,-1891 404,-161 404,-117.26 410.05,-96.92 446,-72 495.79,-37.49 921.14,-23.43 1050.7,-19.93"/>
<polygon fill="grey" stroke="grey" stroke-width="2" points="1051.01,-23.42 1060.91,-19.65 1050.82,-16.42 1051.01,-23.42"/>
</g>
<!-- 16&#45;&gt;17 -->
<g id="edge73" class="edge">
<title>16&#45;&gt;17</title>
<path fill="none" stroke="grey" stroke-width="2" d="M512.85,-2015.7C519.03,-2007.39 526.54,-1997.28 533.32,-1988.14"/>
<polygon fill="grey" stroke="grey" stroke-width="2" points="536.14,-1990.22 539.29,-1980.1 530.52,-1986.04 536.14,-1990.22"/>
</g>
<!-- 17&#45;&gt;0 -->
<g id="edge53" class="edge">
<title>17&#45;&gt;0</title>
<path fill="none" stroke="grey" stroke-width="2" d="M526.21,-1943.94C493.7,-1920.16 442,-1873.73 442,-1819 442,-1819 442,-1819 442,-161 442,-117.26 448.12,-97.01 484,-72 530.47,-39.61 925.73,-24.22 1050.45,-20.14"/>
<polygon fill="grey" stroke="grey" stroke-width="2" points="1050.77,-23.63 1060.65,-19.81 1050.55,-16.64 1050.77,-23.63"/>
</g>
<!-- 18 -->
<g id="node19" class="node">
<title>18</title>
<path fill="none" stroke="#59d856" stroke-width="2" d="M594.5,-1908C594.5,-1908 535.5,-1908 535.5,-1908 529.5,-1908 523.5,-1902 523.5,-1896 523.5,-1896 523.5,-1884 523.5,-1884 523.5,-1878 529.5,-1872 535.5,-1872 535.5,-1872 594.5,-1872 594.5,-1872 600.5,-1872 606.5,-1878 606.5,-1884 606.5,-1884 606.5,-1896 606.5,-1896 606.5,-1902 600.5,-1908 594.5,-1908"/>
<text text-anchor="middle" x="565" y="-1887.5" font-family="sans" font-size="10.00">run_dna_brnn</text>
</g>
<!-- 17&#45;&gt;18 -->
<g id="edge75" class="edge">
<title>17&#45;&gt;18</title>
<path fill="none" stroke="grey" stroke-width="2" d="M555.21,-1943.7C556.65,-1935.98 558.37,-1926.71 559.96,-1918.11"/>
<polygon fill="grey" stroke="grey" stroke-width="2" points="563.44,-1918.58 561.82,-1908.1 556.56,-1917.3 563.44,-1918.58"/>
</g>
<!-- 18&#45;&gt;0 -->
<g id="edge46" class="edge">
<title>18&#45;&gt;0</title>
<path fill="none" stroke="grey" stroke-width="2" d="M535.4,-1871.81C522.33,-1862.76 507.94,-1850.51 499,-1836 477.78,-1801.57 480,-1787.45 480,-1747 480,-1747 480,-1747 480,-161 480,-117.26 486.19,-97.11 522,-72 565.24,-41.68 931.84,-25.01 1050.85,-20.36"/>
<polygon fill="grey" stroke="grey" stroke-width="2" points="1051.08,-23.85 1060.94,-19.97 1050.81,-16.86 1051.08,-23.85"/>
</g>
<!-- 22 -->
<g id="node23" class="node">
<title>22</title>
<path fill="none" stroke="#5663d8" stroke-width="2" d="M1061,-1836C1061,-1836 891,-1836 891,-1836 885,-1836 879,-1830 879,-1824 879,-1824 879,-1812 879,-1812 879,-1806 885,-1800 891,-1800 891,-1800 1061,-1800 1061,-1800 1067,-1800 1073,-1806 1073,-1812 1073,-1812 1073,-1824 1073,-1824 1073,-1830 1067,-1836 1061,-1836"/>
<text text-anchor="middle" x="976" y="-1815.5" font-family="sans" font-size="10.00">filter_dnabrnn_sample_cens_regions</text>
</g>
<!-- 18&#45;&gt;22 -->
<g id="edge79" class="edge">
<title>18&#45;&gt;22</title>
<path fill="none" stroke="grey" stroke-width="2" d="M606.67,-1881.9C667.62,-1871.52 783.14,-1851.85 868.83,-1837.25"/>
<polygon fill="grey" stroke="grey" stroke-width="2" points="869.59,-1840.67 878.86,-1835.54 868.41,-1833.77 869.59,-1840.67"/>
</g>
<!-- 23 -->
<g id="node24" class="node">
<title>23</title>
<path fill="none" stroke="#5663d8" stroke-width="2" d="M662.5,-1836C662.5,-1836 519.5,-1836 519.5,-1836 513.5,-1836 507.5,-1830 507.5,-1824 507.5,-1824 507.5,-1812 507.5,-1812 507.5,-1806 513.5,-1800 519.5,-1800 519.5,-1800 662.5,-1800 662.5,-1800 668.5,-1800 674.5,-1806 674.5,-1812 674.5,-1812 674.5,-1824 674.5,-1824 674.5,-1830 668.5,-1836 662.5,-1836"/>
<text text-anchor="middle" x="591" y="-1815.5" font-family="sans" font-size="10.00">create_format_orient_cens_list</text>
</g>
<!-- 18&#45;&gt;23 -->
<g id="edge80" class="edge">
<title>18&#45;&gt;23</title>
<path fill="none" stroke="grey" stroke-width="2" d="M571.43,-1871.7C574.36,-1863.81 577.89,-1854.3 581.14,-1845.55"/>
<polygon fill="grey" stroke="grey" stroke-width="2" points="584.45,-1846.7 584.65,-1836.1 577.88,-1844.26 584.45,-1846.7"/>
</g>
<!-- 19 -->
<g id="node20" class="node">
<title>19</title>
<path fill="none" stroke="#68d856" stroke-width="2" d="M2001,-1836C2001,-1836 1879,-1836 1879,-1836 1873,-1836 1867,-1830 1867,-1824 1867,-1824 1867,-1812 1867,-1812 1867,-1806 1873,-1800 1879,-1800 1879,-1800 2001,-1800 2001,-1800 2007,-1800 2013,-1806 2013,-1812 2013,-1812 2013,-1824 2013,-1824 2013,-1830 2007,-1836 2001,-1836"/>
<text text-anchor="middle" x="1940" y="-1815.5" font-family="sans" font-size="10.00">get_dnabrnn_ref_cens_pos</text>
</g>
<!-- 19&#45;&gt;0 -->
<g id="edge41" class="edge">
<title>19&#45;&gt;0</title>
<path fill="none" stroke="grey" stroke-width="2" d="M1940,-1799.95C1940,-1773.29 1940,-1720.11 1940,-1675 1940,-1675 1940,-1675 1940,-1601 1940,-1366.56 2102,-1333.44 2102,-1099 2102,-1099 2102,-1099 2102,-161 2102,-118.16 2099.98,-96.73 2065,-72 1987.18,-16.97 1294.88,-17.69 1125.34,-18.71"/>
<polygon fill="grey" stroke="grey" stroke-width="2" points="1125.15,-15.21 1115.17,-18.77 1125.19,-22.21 1125.15,-15.21"/>
</g>
<!-- 20 -->
<g id="node21" class="node">
<title>20</title>
<path fill="none" stroke="#a7d856" stroke-width="2" d="M1068,-1764C1068,-1764 884,-1764 884,-1764 878,-1764 872,-1758 872,-1752 872,-1752 872,-1740 872,-1740 872,-1734 878,-1728 884,-1728 884,-1728 1068,-1728 1068,-1728 1074,-1728 1080,-1734 1080,-1740 1080,-1740 1080,-1752 1080,-1752 1080,-1758 1074,-1764 1068,-1764"/>
<text text-anchor="middle" x="976" y="-1743.5" font-family="sans" font-size="10.00">aggregate_dnabrnn_alr_regions_by_chr</text>
</g>
<!-- 19&#45;&gt;20 -->
<g id="edge77" class="edge">
<title>19&#45;&gt;20</title>
<path fill="none" stroke="grey" stroke-width="2" d="M1866.75,-1811.68C1699.94,-1799.57 1290.75,-1769.86 1090.35,-1755.3"/>
<polygon fill="grey" stroke="grey" stroke-width="2" points="1090.32,-1751.79 1080.09,-1754.56 1089.81,-1758.77 1090.32,-1751.79"/>
</g>
<!-- 20&#45;&gt;0 -->
<g id="edge20" class="edge">
<title>20&#45;&gt;0</title>
<path fill="none" stroke="grey" stroke-width="2" d="M975.04,-1727.68C973.4,-1709.04 968.97,-1678.98 957,-1656 865.45,-1480.33 670,-1513.09 670,-1315 670,-1315 670,-1315 670,-161 670,-116.87 678.25,-97.86 714,-72 767.38,-33.39 967.32,-22.74 1050.91,-19.94"/>
<polygon fill="grey" stroke="grey" stroke-width="2" points="1051.09,-23.44 1060.97,-19.63 1050.87,-16.44 1051.09,-23.44"/>
</g>
<!-- 26 -->
<g id="node27" class="node">
<title>26</title>
<path fill="none" stroke="#b6d856" stroke-width="2" d="M756,-1692C756,-1692 596,-1692 596,-1692 590,-1692 584,-1686 584,-1680 584,-1680 584,-1668 584,-1668 584,-1662 590,-1656 596,-1656 596,-1656 756,-1656 756,-1656 762,-1656 768,-1662 768,-1668 768,-1668 768,-1680 768,-1680 768,-1686 762,-1692 756,-1692"/>
<text text-anchor="middle" x="676" y="-1671.5" font-family="sans" font-size="10.00">extract_alr_region_sample_by_chr</text>
</g>
<!-- 20&#45;&gt;26 -->
<g id="edge86" class="edge">
<title>20&#45;&gt;26</title>
<path fill="none" stroke="grey" stroke-width="2" d="M903,-1727.97C859.45,-1717.8 804.02,-1704.87 758.84,-1694.33"/>
<polygon fill="grey" stroke="grey" stroke-width="2" points="759.61,-1690.91 749.07,-1692.05 758.01,-1697.73 759.61,-1690.91"/>
</g>
<!-- 27 -->
<g id="node28" class="node">
<title>27</title>
<path fill="none" stroke="#56d8c9" stroke-width="2" d="M935.5,-1692C935.5,-1692 798.5,-1692 798.5,-1692 792.5,-1692 786.5,-1686 786.5,-1680 786.5,-1680 786.5,-1668 786.5,-1668 786.5,-1662 792.5,-1656 798.5,-1656 798.5,-1656 935.5,-1656 935.5,-1656 941.5,-1656 947.5,-1662 947.5,-1668 947.5,-1668 947.5,-1680 947.5,-1680 947.5,-1686 941.5,-1692 935.5,-1692"/>
<text text-anchor="middle" x="867" y="-1671.5" font-family="sans" font-size="10.00">extract_alr_region_ref_by_chr</text>
</g>
<!-- 20&#45;&gt;27 -->
<g id="edge87" class="edge">
<title>20&#45;&gt;27</title>
<path fill="none" stroke="grey" stroke-width="2" d="M949.34,-1727.88C935.22,-1718.81 917.69,-1707.55 902.44,-1697.76"/>
<polygon fill="grey" stroke="grey" stroke-width="2" points="904.07,-1694.65 893.77,-1692.19 900.29,-1700.54 904.07,-1694.65"/>
</g>
<!-- 21 -->
<g id="node22" class="node">
<title>21</title>
<path fill="none" stroke="#56c9d8" stroke-width="2" d="M1251,-1836C1251,-1836 1103,-1836 1103,-1836 1097,-1836 1091,-1830 1091,-1824 1091,-1824 1091,-1812 1091,-1812 1091,-1806 1097,-1800 1103,-1800 1103,-1800 1251,-1800 1251,-1800 1257,-1800 1263,-1806 1263,-1812 1263,-1812 1263,-1824 1263,-1824 1263,-1830 1257,-1836 1251,-1836"/>
<text text-anchor="middle" x="1177" y="-1815.5" font-family="sans" font-size="10.00">filter_dnabrnn_ref_cens_regions</text>
</g>
<!-- 21&#45;&gt;20 -->
<g id="edge78" class="edge">
<title>21&#45;&gt;20</title>
<path fill="none" stroke="grey" stroke-width="2" d="M1128.09,-1799.97C1100,-1790.19 1064.54,-1777.84 1034.93,-1767.52"/>
<polygon fill="grey" stroke="grey" stroke-width="2" points="1035.73,-1764.09 1025.13,-1764.11 1033.43,-1770.71 1035.73,-1764.09"/>
</g>
<!-- 22&#45;&gt;20 -->
<g id="edge76" class="edge">
<title>22&#45;&gt;20</title>
<path fill="none" stroke="grey" stroke-width="2" d="M976,-1799.7C976,-1791.98 976,-1782.71 976,-1774.11"/>
<polygon fill="grey" stroke="grey" stroke-width="2" points="979.5,-1774.1 976,-1764.1 972.5,-1774.1 979.5,-1774.1"/>
</g>
<!-- 23&#45;&gt;0 -->
<g id="edge48" class="edge">
<title>23&#45;&gt;0</title>
<path fill="none" stroke="grey" stroke-width="2" d="M575.16,-1799.65C553.69,-1774.27 518,-1724.62 518,-1675 518,-1675 518,-1675 518,-161 518,-117.45 523.54,-97.29 559,-72 598.9,-43.54 936.74,-25.82 1050.66,-20.61"/>
<polygon fill="grey" stroke="grey" stroke-width="2" points="1051.14,-24.09 1060.97,-20.15 1050.82,-17.1 1051.14,-24.09"/>
</g>
<!-- 23&#45;&gt;24 -->
<g id="edge81" class="edge">
<title>23&#45;&gt;24</title>
<path fill="none" stroke="grey" stroke-width="2" d="M607.81,-1799.7C616.13,-1791.14 626.31,-1780.66 635.39,-1771.3"/>
<polygon fill="grey" stroke="grey" stroke-width="2" points="637.93,-1773.72 642.38,-1764.1 632.91,-1768.84 637.93,-1773.72"/>
</g>
<!-- 24&#45;&gt;0 -->
<g id="edge6" class="edge">
<title>24&#45;&gt;0</title>
<path fill="none" stroke="grey" stroke-width="2" d="M618.35,-1727.89C602.58,-1719.31 585.75,-1707.42 575,-1692 551.86,-1658.83 556,-1643.45 556,-1603 556,-1603 556,-1603 556,-161 556,-117.81 560.17,-97.53 595,-72 667.34,-18.98 948.55,-17.16 1050.67,-18.32"/>
<polygon fill="grey" stroke="grey" stroke-width="2" points="1050.78,-21.82 1060.83,-18.45 1050.87,-14.82 1050.78,-21.82"/>
</g>
<!-- 24&#45;&gt;26 -->
<g id="edge85" class="edge">
<title>24&#45;&gt;26</title>
<path fill="none" stroke="grey" stroke-width="2" d="M663.2,-1727.7C665.1,-1719.9 667.38,-1710.51 669.48,-1701.83"/>
<polygon fill="grey" stroke="grey" stroke-width="2" points="672.89,-1702.65 671.85,-1692.1 666.08,-1701 672.89,-1702.65"/>
</g>
<!-- 25 -->
<g id="node26" class="node">
<title>25</title>
<path fill="none" stroke="#56d8d8" stroke-width="2" d="M744.5,-1620C744.5,-1620 623.5,-1620 623.5,-1620 617.5,-1620 611.5,-1614 611.5,-1608 611.5,-1608 611.5,-1596 611.5,-1596 611.5,-1590 617.5,-1584 623.5,-1584 623.5,-1584 744.5,-1584 744.5,-1584 750.5,-1584 756.5,-1590 756.5,-1596 756.5,-1596 756.5,-1608 756.5,-1608 756.5,-1614 750.5,-1620 744.5,-1620"/>
<text text-anchor="middle" x="684" y="-1599.5" font-family="sans" font-size="10.00">merge_alr_regions_by_chr</text>
</g>
<!-- 25&#45;&gt;0 -->
<g id="edge52" class="edge">
<title>25&#45;&gt;0</title>
<path fill="none" stroke="grey" stroke-width="2" d="M651.43,-1583.8C637.58,-1574.89 622.46,-1562.76 613,-1548 591.18,-1513.95 594,-1499.45 594,-1459 594,-1459 594,-1459 594,-161 594,-118.66 594.56,-97.97 628,-72 693.56,-21.09 952.68,-17.83 1050.42,-18.47"/>
<polygon fill="grey" stroke="grey" stroke-width="2" points="1050.68,-21.97 1060.71,-18.55 1050.74,-14.97 1050.68,-21.97"/>
</g>
<!-- 28 -->
<g id="node29" class="node">
<title>28</title>
<path fill="none" stroke="#569ad8" stroke-width="2" d="M750,-1548C750,-1548 634,-1548 634,-1548 628,-1548 622,-1542 622,-1536 622,-1536 622,-1524 622,-1524 622,-1518 628,-1512 634,-1512 634,-1512 750,-1512 750,-1512 756,-1512 762,-1518 762,-1524 762,-1524 762,-1536 762,-1536 762,-1542 756,-1548 750,-1548"/>
<text text-anchor="middle" x="692" y="-1527.5" font-family="sans" font-size="10.00">make_new_cens_bed_file</text>
</g>
<!-- 25&#45;&gt;28 -->
<g id="edge88" class="edge">
<title>25&#45;&gt;28</title>
<path fill="none" stroke="grey" stroke-width="2" d="M685.98,-1583.7C686.86,-1575.98 687.92,-1566.71 688.9,-1558.11"/>
<polygon fill="grey" stroke="grey" stroke-width="2" points="692.39,-1558.44 690.05,-1548.1 685.43,-1557.64 692.39,-1558.44"/>
</g>
<!-- 26&#45;&gt;25 -->
<g id="edge83" class="edge">
<title>26&#45;&gt;25</title>
<path fill="none" stroke="grey" stroke-width="2" d="M677.98,-1655.7C678.86,-1647.98 679.92,-1638.71 680.9,-1630.11"/>
<polygon fill="grey" stroke="grey" stroke-width="2" points="684.39,-1630.44 682.05,-1620.1 677.43,-1629.64 684.39,-1630.44"/>
</g>
<!-- 27&#45;&gt;25 -->
<g id="edge84" class="edge">
<title>27&#45;&gt;25</title>
<path fill="none" stroke="grey" stroke-width="2" d="M822.23,-1655.88C796.88,-1646.18 764.99,-1633.98 738.23,-1623.74"/>
<polygon fill="grey" stroke="grey" stroke-width="2" points="739.21,-1620.37 728.62,-1620.07 736.71,-1626.91 739.21,-1620.37"/>
</g>
<!-- 28&#45;&gt;0 -->
<g id="edge29" class="edge">
<title>28&#45;&gt;0</title>
<path fill="none" stroke="grey" stroke-width="2" d="M679.28,-1511.62C661.66,-1485.81 632,-1435.17 632,-1387 632,-1387 632,-1387 632,-161 632,-120.03 625.06,-98.85 656,-72 714.59,-21.15 957.12,-17.78 1050.82,-18.43"/>
<polygon fill="grey" stroke="grey" stroke-width="2" points="1050.94,-21.93 1060.97,-18.52 1051.01,-14.93 1050.94,-21.93"/>
</g>
<!-- 32 -->
<g id="node33" class="node">
<title>32</title>
<path fill="none" stroke="#56d8a9" stroke-width="2" d="M1025.5,-1476C1025.5,-1476 936.5,-1476 936.5,-1476 930.5,-1476 924.5,-1470 924.5,-1464 924.5,-1464 924.5,-1452 924.5,-1452 924.5,-1446 930.5,-1440 936.5,-1440 936.5,-1440 1025.5,-1440 1025.5,-1440 1031.5,-1440 1037.5,-1446 1037.5,-1452 1037.5,-1452 1037.5,-1464 1037.5,-1464 1037.5,-1470 1031.5,-1476 1025.5,-1476"/>
<text text-anchor="middle" x="981" y="-1455.5" font-family="sans" font-size="10.00">check_asm_nucfreq</text>
</g>
<!-- 28&#45;&gt;32 -->
<g id="edge92" class="edge">
<title>28&#45;&gt;32</title>
<path fill="none" stroke="grey" stroke-width="2" d="M762.33,-1511.97C808.71,-1500.73 869.09,-1486.11 914.65,-1475.07"/>
<polygon fill="grey" stroke="grey" stroke-width="2" points="915.53,-1478.46 924.42,-1472.7 913.88,-1471.66 915.53,-1478.46"/>
</g>
<!-- 29 -->
<g id="node30" class="node">
<title>29</title>
<path fill="none" stroke="#61d856" stroke-width="2" d="M2138,-1548C2138,-1548 1980,-1548 1980,-1548 1974,-1548 1968,-1542 1968,-1536 1968,-1536 1968,-1524 1968,-1524 1968,-1518 1974,-1512 1980,-1512 1980,-1512 2138,-1512 2138,-1512 2144,-1512 2150,-1518 2150,-1524 2150,-1524 2150,-1536 2150,-1536 2150,-1542 2144,-1548 2138,-1548"/>
<text text-anchor="middle" x="2059" y="-1527.5" font-family="sans" font-size="10.00">merge_hifi_read_asm_alignments</text>
</g>
<!-- 29&#45;&gt;0 -->
<g id="edge42" class="edge">
<title>29&#45;&gt;0</title>
<path fill="none" stroke="grey" stroke-width="2" d="M2076.58,-1511.98C2100.4,-1486.99 2140,-1437.8 2140,-1387 2140,-1387 2140,-1387 2140,-161 2140,-120.03 2147.87,-97.74 2116,-72 2076.71,-40.26 1304.79,-23.24 1125.14,-19.7"/>
<polygon fill="grey" stroke="grey" stroke-width="2" points="1125.18,-16.2 1115.12,-19.5 1125.05,-23.2 1125.18,-16.2"/>
</g>
<!-- 29&#45;&gt;32 -->
<g id="edge93" class="edge">
<title>29&#45;&gt;32</title>
<path fill="none" stroke="grey" stroke-width="2" d="M1967.56,-1523.06C1755.38,-1509.28 1233.57,-1475.4 1047.91,-1463.35"/>
<polygon fill="grey" stroke="grey" stroke-width="2" points="1047.95,-1459.84 1037.75,-1462.69 1047.5,-1466.83 1047.95,-1459.84"/>
</g>
<!-- 30 -->
<g id="node31" class="node">
<title>30</title>
<path fill="none" stroke="#d89556" stroke-width="2" d="M2006,-1908C2006,-1908 1888,-1908 1888,-1908 1882,-1908 1876,-1902 1876,-1896 1876,-1896 1876,-1884 1876,-1884 1876,-1878 1882,-1872 1888,-1872 1888,-1872 2006,-1872 2006,-1872 2012,-1872 2018,-1878 2018,-1884 2018,-1884 2018,-1896 2018,-1896 2018,-1902 2012,-1908 2006,-1908"/>
<text text-anchor="middle" x="1947" y="-1887.5" font-family="sans" font-size="10.00">filter_align_reads_to_asm</text>
</g>
<!-- 30&#45;&gt;29 -->
<g id="edge89" class="edge">
<title>30&#45;&gt;29</title>
<path fill="none" stroke="grey" stroke-width="2" d="M1980.36,-1871.96C1994.96,-1863.01 2011.19,-1850.81 2022,-1836 2046.44,-1802.5 2050,-1788.47 2050,-1747 2050,-1747 2050,-1747 2050,-1673 2050,-1632.92 2053.62,-1586.59 2056.26,-1558.05"/>
<polygon fill="grey" stroke="grey" stroke-width="2" points="2059.75,-1558.31 2057.22,-1548.03 2052.79,-1557.65 2059.75,-1558.31"/>
</g>
<!-- 31&#45;&gt;30 -->
<g id="edge90" class="edge">
<title>31&#45;&gt;30</title>
<path fill="none" stroke="grey" stroke-width="2" d="M1938.72,-1943.7C1939.93,-1935.98 1941.39,-1926.71 1942.74,-1918.11"/>
<polygon fill="grey" stroke="grey" stroke-width="2" points="1946.22,-1918.53 1944.31,-1908.1 1939.3,-1917.44 1946.22,-1918.53"/>
</g>
<!-- 32&#45;&gt;0 -->
<g id="edge34" class="edge">
<title>32&#45;&gt;0</title>
<path fill="none" stroke="grey" stroke-width="2" d="M924.43,-1452.48C844.47,-1442.64 708,-1411.7 708,-1315 708,-1315 708,-1315 708,-161 708,-116.87 716.45,-98.14 752,-72 798.97,-37.46 973.39,-24.67 1050.7,-20.63"/>
<polygon fill="grey" stroke="grey" stroke-width="2" points="1051.13,-24.11 1060.94,-20.11 1050.78,-17.12 1051.13,-24.11"/>
</g>
<!-- 34 -->
<g id="node35" class="node">
<title>34</title>
<path fill="none" stroke="#d85656" stroke-width="2" d="M1623,-1404C1623,-1404 1507,-1404 1507,-1404 1501,-1404 1495,-1398 1495,-1392 1495,-1392 1495,-1380 1495,-1380 1495,-1374 1501,-1368 1507,-1368 1507,-1368 1623,-1368 1623,-1368 1629,-1368 1635,-1374 1635,-1380 1635,-1380 1635,-1392 1635,-1392 1635,-1398 1629,-1404 1623,-1404"/>
<text text-anchor="middle" x="1565" y="-1383.5" font-family="sans" font-size="10.00">get_valid_regions_for_rm</text>
</g>
<!-- 32&#45;&gt;34 -->
<g id="edge96" class="edge">
<title>32&#45;&gt;34</title>
<path fill="none" stroke="grey" stroke-width="2" d="M1037.53,-1450.22C1141.83,-1437.72 1364.83,-1410.99 1484.75,-1396.62"/>
<polygon fill="grey" stroke="grey" stroke-width="2" points="1485.46,-1400.06 1494.97,-1395.39 1484.62,-1393.11 1485.46,-1400.06"/>
</g>
<!-- 33&#45;&gt;0 -->
<g id="edge44" class="edge">
<title>33&#45;&gt;0</title>
<path fill="none" stroke="grey" stroke-width="2" d="M1844.08,-1295.97C1854.29,-1264.23 1879.95,-1195.33 1922,-1152 1945,-1128.3 1964.76,-1140.41 1987,-1116 2016.09,-1084.08 2026,-1070.19 2026,-1027 2026,-1027 2026,-1027 2026,-161 2026,-113.3 2007.42,-95.66 1966,-72 1892.28,-29.89 1284.05,-20.95 1125.62,-19.32"/>
<polygon fill="grey" stroke="grey" stroke-width="2" points="1125.45,-15.82 1115.42,-19.22 1125.38,-22.82 1125.45,-15.82"/>
</g>
<!-- 35 -->
<g id="node36" class="node">
<title>35</title>
<path fill="none" stroke="#56d0d8" stroke-width="2" d="M2061.5,-1188C2061.5,-1188 1942.5,-1188 1942.5,-1188 1936.5,-1188 1930.5,-1182 1930.5,-1176 1930.5,-1176 1930.5,-1164 1930.5,-1164 1930.5,-1158 1936.5,-1152 1942.5,-1152 1942.5,-1152 2061.5,-1152 2061.5,-1152 2067.5,-1152 2073.5,-1158 2073.5,-1164 2073.5,-1164 2073.5,-1176 2073.5,-1176 2073.5,-1182 2067.5,-1188 2061.5,-1188"/>
<text text-anchor="middle" x="2002" y="-1167.5" font-family="sans" font-size="10.00">rc_correct_alr_regions_rm</text>
</g>
<!-- 33&#45;&gt;35 -->
<g id="edge97" class="edge">
<title>33&#45;&gt;35</title>
<path fill="none" stroke="grey" stroke-width="2" d="M1866.69,-1295.87C1881.8,-1286.05 1900.52,-1273.11 1916,-1260 1939.67,-1239.95 1964,-1214.21 1980.71,-1195.57"/>
<polygon fill="grey" stroke="grey" stroke-width="2" points="1983.36,-1197.86 1987.38,-1188.06 1978.12,-1193.21 1983.36,-1197.86"/>
</g>
<!-- 36 -->
<g id="node37" class="node">
<title>36</title>
<path fill="none" stroke="#c6d856" stroke-width="2" d="M1798.5,-1260C1798.5,-1260 1717.5,-1260 1717.5,-1260 1711.5,-1260 1705.5,-1254 1705.5,-1248 1705.5,-1248 1705.5,-1236 1705.5,-1236 1705.5,-1230 1711.5,-1224 1717.5,-1224 1717.5,-1224 1798.5,-1224 1798.5,-1224 1804.5,-1224 1810.5,-1230 1810.5,-1236 1810.5,-1236 1810.5,-1248 1810.5,-1248 1810.5,-1254 1804.5,-1260 1798.5,-1260"/>
<text text-anchor="middle" x="1758" y="-1239.5" font-family="sans" font-size="10.00">run_repeatmasker</text>
</g>
<!-- 33&#45;&gt;36 -->
<g id="edge98" class="edge">
<title>33&#45;&gt;36</title>
<path fill="none" stroke="grey" stroke-width="2" d="M1818.98,-1295.7C1808.87,-1286.97 1796.46,-1276.24 1785.48,-1266.75"/>
<polygon fill="grey" stroke="grey" stroke-width="2" points="1787.65,-1263.99 1777.79,-1260.1 1783.07,-1269.29 1787.65,-1263.99"/>
</g>
<!-- 52 -->
<g id="node53" class="node">
<title>52</title>
<path fill="none" stroke="#56d873" stroke-width="2" d="M1278,-684C1278,-684 1170,-684 1170,-684 1164,-684 1158,-678 1158,-672 1158,-672 1158,-660 1158,-660 1158,-654 1164,-648 1170,-648 1170,-648 1278,-648 1278,-648 1284,-648 1290,-654 1290,-660 1290,-660 1290,-672 1290,-672 1290,-678 1284,-684 1278,-684"/>
<text text-anchor="middle" x="1224" y="-663.5" font-family="sans" font-size="10.00">fmt_correct_alr_regions</text>
</g>
<!-- 33&#45;&gt;52 -->
<g id="edge119" class="edge">
<title>33&#45;&gt;52</title>
<path fill="none" stroke="grey" stroke-width="2" d="M1837.26,-1295.69C1834.97,-1277.32 1830.01,-1247.73 1820,-1224 1797.58,-1170.85 1770.71,-1169.03 1748,-1116 1732.04,-1078.73 1728,-1067.54 1728,-1027 1728,-1027 1728,-1027 1728,-809 1728,-721.26 1441.41,-685.1 1300.45,-672.62"/>
<polygon fill="grey" stroke="grey" stroke-width="2" points="1300.41,-669.1 1290.15,-671.73 1299.81,-676.08 1300.41,-669.1"/>
</g>
<!-- 34&#45;&gt;33 -->
<g id="edge94" class="edge">
<title>34&#45;&gt;33</title>
<path fill="none" stroke="grey" stroke-width="2" d="M1631.68,-1367.97C1671.13,-1357.89 1721.25,-1345.08 1762.33,-1334.59"/>
<polygon fill="grey" stroke="grey" stroke-width="2" points="1763.2,-1337.98 1772.02,-1332.11 1761.47,-1331.2 1763.2,-1337.98"/>
</g>
<!-- 35&#45;&gt;0 -->
<g id="edge8" class="edge">
<title>35&#45;&gt;0</title>
<path fill="none" stroke="grey" stroke-width="2" d="M2016.72,-1151.85C2024.59,-1141.93 2033.89,-1128.89 2040,-1116 2057.55,-1078.98 2064,-1067.97 2064,-1027 2064,-1027 2064,-1027 2064,-161 2064,-120.03 2071.82,-97.81 2040,-72 2003.88,-42.7 1297.15,-23.99 1125.38,-19.86"/>
<polygon fill="grey" stroke="grey" stroke-width="2" points="1125.39,-16.36 1115.31,-19.62 1125.22,-23.36 1125.39,-16.36"/>
</g>
<!-- 36&#45;&gt;0 -->
<g id="edge2" class="edge">
<title>36&#45;&gt;0</title>
<path fill="none" stroke="grey" stroke-width="2" d="M1780.79,-1223.82C1806.21,-1205.02 1848.92,-1174.58 1888,-1152 1920.01,-1133.5 1940.96,-1145.69 1963,-1116 2006.17,-1057.86 1988,-1027.41 1988,-955 1988,-955 1988,-955 1988,-161 1988,-114.03 1971.48,-95.83 1931,-72 1860.96,-30.78 1280.1,-21.21 1125.62,-19.38"/>
<polygon fill="grey" stroke="grey" stroke-width="2" points="1125.28,-15.88 1115.24,-19.26 1125.2,-22.88 1125.28,-15.88"/>
</g>
<!-- 37 -->
<g id="node38" class="node">
<title>37</title>
<path fill="none" stroke="#56d892" stroke-width="2" d="M976,-1188C976,-1188 834,-1188 834,-1188 828,-1188 822,-1182 822,-1176 822,-1176 822,-1164 822,-1164 822,-1158 828,-1152 834,-1152 834,-1152 976,-1152 976,-1152 982,-1152 988,-1158 988,-1164 988,-1164 988,-1176 988,-1176 988,-1182 982,-1188 976,-1188"/>
<text text-anchor="middle" x="905" y="-1167.5" font-family="sans" font-size="10.00">remove_repeatmasker_header</text>
</g>
<!-- 36&#45;&gt;37 -->
<g id="edge99" class="edge">
<title>36&#45;&gt;37</title>
<path fill="none" stroke="grey" stroke-width="2" d="M1705.28,-1236.67C1564.36,-1225.11 1177.5,-1193.36 998.33,-1178.66"/>
<polygon fill="grey" stroke="grey" stroke-width="2" points="998.39,-1175.15 988.13,-1177.82 997.81,-1182.13 998.39,-1175.15"/>
</g>
<!-- 37&#45;&gt;0 -->
<g id="edge26" class="edge">
<title>37&#45;&gt;0</title>
<path fill="none" stroke="grey" stroke-width="2" d="M860.71,-1151.86C813.66,-1130.4 746,-1088.81 746,-1027 746,-1027 746,-1027 746,-161 746,-116.87 754.71,-98.49 790,-72 830.68,-41.47 980.21,-26.81 1050.73,-21.47"/>
<polygon fill="grey" stroke="grey" stroke-width="2" points="1051.22,-24.95 1060.94,-20.72 1050.71,-17.96 1051.22,-24.95"/>
</g>
<!-- 38 -->
<g id="node39" class="node">
<title>38</title>
<path fill="none" stroke="#8fd856" stroke-width="2" d="M972,-1116C972,-1116 838,-1116 838,-1116 832,-1116 826,-1110 826,-1104 826,-1104 826,-1092 826,-1092 826,-1086 832,-1080 838,-1080 838,-1080 972,-1080 972,-1080 978,-1080 984,-1086 984,-1092 984,-1092 984,-1104 984,-1104 984,-1110 978,-1116 972,-1116"/>
<text text-anchor="middle" x="905" y="-1095.5" font-family="sans" font-size="10.00">merge_repeatmasker_output</text>
</g>
<!-- 37&#45;&gt;38 -->
<g id="edge100" class="edge">
<title>37&#45;&gt;38</title>
<path fill="none" stroke="grey" stroke-width="2" d="M905,-1151.7C905,-1143.98 905,-1134.71 905,-1126.11"/>
<polygon fill="grey" stroke="grey" stroke-width="2" points="908.5,-1126.1 905,-1116.1 901.5,-1126.1 908.5,-1126.1"/>
</g>
<!-- 38&#45;&gt;0 -->
<g id="edge28" class="edge">
<title>38&#45;&gt;0</title>
<path fill="none" stroke="grey" stroke-width="2" d="M875.71,-1079.97C839.9,-1056.7 784,-1011.36 784,-955 784,-955 784,-955 784,-161 784,-117.07 792.31,-98.95 827,-72 861.5,-45.19 987.29,-29.08 1050.79,-22.48"/>
<polygon fill="grey" stroke="grey" stroke-width="2" points="1051.2,-25.96 1060.79,-21.47 1050.49,-19 1051.2,-25.96"/>
</g>
<!-- 40 -->
<g id="node41" class="node">
<title>40</title>
<path fill="none" stroke="#d8ac56" stroke-width="2" d="M1055.5,-1044C1055.5,-1044 858.5,-1044 858.5,-1044 852.5,-1044 846.5,-1038 846.5,-1032 846.5,-1032 846.5,-1020 846.5,-1020 846.5,-1014 852.5,-1008 858.5,-1008 858.5,-1008 1055.5,-1008 1055.5,-1008 1061.5,-1008 1067.5,-1014 1067.5,-1020 1067.5,-1020 1067.5,-1032 1067.5,-1032 1067.5,-1038 1061.5,-1044 1055.5,-1044"/>
<text text-anchor="middle" x="957" y="-1023.5" font-family="sans" font-size="10.00">format_add_control_repeatmasker_output</text>
</g>
<!-- 38&#45;&gt;40 -->
<g id="edge102" class="edge">
<title>38&#45;&gt;40</title>
<path fill="none" stroke="grey" stroke-width="2" d="M917.85,-1079.7C924.03,-1071.39 931.54,-1061.28 938.32,-1052.14"/>
<polygon fill="grey" stroke="grey" stroke-width="2" points="941.14,-1054.22 944.29,-1044.1 935.52,-1050.04 941.14,-1054.22"/>
</g>
<!-- 39 -->
<g id="node40" class="node">
<title>39</title>
<path fill="none" stroke="#d8cb56" stroke-width="2" d="M1941.5,-1116C1941.5,-1116 1768.5,-1116 1768.5,-1116 1762.5,-1116 1756.5,-1110 1756.5,-1104 1756.5,-1104 1756.5,-1092 1756.5,-1092 1756.5,-1086 1762.5,-1080 1768.5,-1080 1768.5,-1080 1941.5,-1080 1941.5,-1080 1947.5,-1080 1953.5,-1086 1953.5,-1092 1953.5,-1092 1953.5,-1104 1953.5,-1104 1953.5,-1110 1947.5,-1116 1941.5,-1116"/>
<text text-anchor="middle" x="1855" y="-1095.5" font-family="sans" font-size="10.00">merge_control_repeatmasker_output</text>
</g>
<!-- 39&#45;&gt;0 -->
<g id="edge47" class="edge">
<title>39&#45;&gt;0</title>
<path fill="none" stroke="grey" stroke-width="2" d="M1876.56,-1079.78C1904.59,-1055.28 1950,-1007.5 1950,-955 1950,-955 1950,-955 1950,-161 1950,-115.19 1936.97,-96.09 1898,-72 1831.71,-31.02 1275.27,-21.29 1125.18,-19.4"/>
<polygon fill="grey" stroke="grey" stroke-width="2" points="1125.13,-15.9 1115.08,-19.28 1125.04,-22.9 1125.13,-15.9"/>
</g>
<!-- 39&#45;&gt;40 -->
<g id="edge101" class="edge">
<title>39&#45;&gt;40</title>
<path fill="none" stroke="grey" stroke-width="2" d="M1756.33,-1089.31C1590.66,-1076.39 1257.13,-1050.4 1077.74,-1036.41"/>
<polygon fill="grey" stroke="grey" stroke-width="2" points="1077.97,-1032.92 1067.73,-1035.63 1077.43,-1039.9 1077.97,-1032.92"/>
</g>
<!-- 43 -->
<g id="node44" class="node">
<title>43</title>
<path fill="none" stroke="#bed856" stroke-width="2" d="M1862,-900C1862,-900 1778,-900 1778,-900 1772,-900 1766,-894 1766,-888 1766,-888 1766,-876 1766,-876 1766,-870 1772,-864 1778,-864 1778,-864 1862,-864 1862,-864 1868,-864 1874,-870 1874,-876 1874,-876 1874,-888 1874,-888 1874,-894 1868,-900 1862,-900"/>
<text text-anchor="middle" x="1820" y="-879.5" font-family="sans" font-size="10.00">check_cens_status</text>
</g>
<!-- 39&#45;&gt;43 -->
<g id="edge106" class="edge">
<title>39&#45;&gt;43</title>
<path fill="none" stroke="grey" stroke-width="2" d="M1852.19,-1079.85C1846.13,-1042.75 1831.74,-954.81 1824.43,-910.1"/>
<polygon fill="grey" stroke="grey" stroke-width="2" points="1827.89,-909.54 1822.82,-900.23 1820.98,-910.67 1827.89,-909.54"/>
</g>
<!-- 40&#45;&gt;0 -->
<g id="edge31" class="edge">
<title>40&#45;&gt;0</title>
<path fill="none" stroke="grey" stroke-width="2" d="M922.58,-1007.87C882.59,-985.24 822,-941.34 822,-883 822,-883 822,-883 822,-161 822,-117.45 829.28,-99.56 863,-72 917.28,-27.64 1002.24,-19.14 1050.75,-18.22"/>
<polygon fill="grey" stroke="grey" stroke-width="2" points="1050.84,-21.72 1060.81,-18.12 1050.78,-14.72 1050.84,-21.72"/>
</g>
<!-- 41 -->
<g id="node42" class="node">
<title>41</title>
<path fill="none" stroke="#61d856" stroke-width="2" d="M1052,-900C1052,-900 862,-900 862,-900 856,-900 850,-894 850,-888 850,-888 850,-876 850,-876 850,-870 856,-864 862,-864 862,-864 1052,-864 1052,-864 1058,-864 1064,-870 1064,-876 1064,-876 1064,-888 1064,-888 1064,-894 1058,-900 1052,-900"/>
<text text-anchor="middle" x="957" y="-879.5" font-family="sans" font-size="10.00">reverse_complete_repeatmasker_output</text>
</g>
<!-- 40&#45;&gt;41 -->
<g id="edge103" class="edge">
<title>40&#45;&gt;41</title>
<path fill="none" stroke="grey" stroke-width="2" d="M957,-1007.87C957,-983.67 957,-939.21 957,-910.39"/>
<polygon fill="grey" stroke="grey" stroke-width="2" points="960.5,-910.19 957,-900.19 953.5,-910.19 960.5,-910.19"/>
</g>
<!-- 42 -->
<g id="node43" class="node">
<title>42</title>
<path fill="none" stroke="#56d882" stroke-width="2" d="M1182,-972C1182,-972 1078,-972 1078,-972 1072,-972 1066,-966 1066,-960 1066,-960 1066,-948 1066,-948 1066,-942 1072,-936 1078,-936 1078,-936 1182,-936 1182,-936 1188,-936 1194,-942 1194,-948 1194,-948 1194,-960 1194,-960 1194,-966 1188,-972 1182,-972"/>
<text text-anchor="middle" x="1130" y="-951.5" font-family="sans" font-size="10.00">extract_rm_out_by_chr</text>
</g>
<!-- 40&#45;&gt;42 -->
<g id="edge104" class="edge">
<title>40&#45;&gt;42</title>
<path fill="none" stroke="grey" stroke-width="2" d="M999.32,-1007.88C1023.18,-998.22 1053.17,-986.09 1078.4,-975.88"/>
<polygon fill="grey" stroke="grey" stroke-width="2" points="1079.86,-979.06 1087.82,-972.07 1077.23,-972.57 1079.86,-979.06"/>
</g>
<!-- 41&#45;&gt;0 -->
<g id="edge43" class="edge">
<title>41&#45;&gt;0</title>
<path fill="none" stroke="grey" stroke-width="2" d="M934.99,-863.88C906.37,-839.5 860,-791.84 860,-739 860,-739 860,-739 860,-161 860,-118.33 864.14,-100.39 896,-72 939.32,-33.4 1008.33,-22.63 1050.74,-19.79"/>
<polygon fill="grey" stroke="grey" stroke-width="2" points="1051.13,-23.28 1060.92,-19.23 1050.75,-16.29 1051.13,-23.28"/>
</g>
<!-- 47 -->
<g id="node48" class="node">
<title>47</title>
<path fill="none" stroke="#5682d8" stroke-width="2" d="M1258,-828C1258,-828 1122,-828 1122,-828 1116,-828 1110,-822 1110,-816 1110,-816 1110,-804 1110,-804 1110,-798 1116,-792 1122,-792 1122,-792 1258,-792 1258,-792 1264,-792 1270,-798 1270,-804 1270,-804 1270,-816 1270,-816 1270,-822 1264,-828 1258,-828"/>
<text text-anchor="middle" x="1190" y="-807.5" font-family="sans" font-size="10.00">create_correct_oriented_cens</text>
</g>
<!-- 41&#45;&gt;47 -->
<g id="edge114" class="edge">
<title>41&#45;&gt;47</title>
<path fill="none" stroke="grey" stroke-width="2" d="M1013.7,-863.97C1046.68,-854.06 1088.43,-841.51 1123.03,-831.12"/>
<polygon fill="grey" stroke="grey" stroke-width="2" points="1124.48,-834.34 1133.05,-828.11 1122.46,-827.64 1124.48,-834.34"/>
</g>
<!-- 42&#45;&gt;0 -->
<g id="edge14" class="edge">
<title>42&#45;&gt;0</title>
<path fill="none" stroke="grey" stroke-width="2" d="M1125.94,-935.86C1113.76,-884.92 1077.45,-736.93 1063,-720 1038.47,-691.27 1013.69,-709.7 986,-684 952.75,-653.14 936,-640.37 936,-595 936,-595 936,-595 936,-161 936,-115.63 953.4,-103.55 986,-72 1004.44,-54.15 1030.11,-40.85 1051.07,-32.05"/>
<polygon fill="grey" stroke="grey" stroke-width="2" points="1052.67,-35.18 1060.64,-28.2 1050.05,-28.69 1052.67,-35.18"/>
</g>
<!-- 42&#45;&gt;43 -->
<g id="edge105" class="edge">
<title>42&#45;&gt;43</title>
<path fill="none" stroke="grey" stroke-width="2" d="M1194.29,-946.48C1325.73,-933.14 1623.85,-902.9 1755.48,-889.55"/>
<polygon fill="grey" stroke="grey" stroke-width="2" points="1756.2,-892.99 1765.8,-888.5 1755.5,-886.03 1756.2,-892.99"/>
</g>
<!-- 42&#45;&gt;47 -->
<g id="edge112" class="edge">
<title>42&#45;&gt;47</title>
<path fill="none" stroke="grey" stroke-width="2" d="M1137.24,-935.87C1147.55,-911.46 1166.58,-866.43 1178.75,-837.64"/>
<polygon fill="grey" stroke="grey" stroke-width="2" points="1182.07,-838.76 1182.74,-828.19 1175.62,-836.04 1182.07,-838.76"/>
</g>
<!-- 51 -->
<g id="node52" class="node">
<title>51</title>
<path fill="none" stroke="#56a9d8" stroke-width="2" d="M1041.5,-756C1041.5,-756 900.5,-756 900.5,-756 894.5,-756 888.5,-750 888.5,-744 888.5,-744 888.5,-732 888.5,-732 888.5,-726 894.5,-720 900.5,-720 900.5,-720 1041.5,-720 1041.5,-720 1047.5,-720 1053.5,-726 1053.5,-732 1053.5,-732 1053.5,-744 1053.5,-744 1053.5,-750 1047.5,-756 1041.5,-756"/>
<text text-anchor="middle" x="971" y="-735.5" font-family="sans" font-size="10.00">plot_og_cens_from_rm_by_chr</text>
</g>
<!-- 42&#45;&gt;51 -->
<g id="edge118" class="edge">
<title>42&#45;&gt;51</title>
<path fill="none" stroke="grey" stroke-width="2" d="M1119.85,-935.89C1108.86,-917.68 1090.55,-888.22 1073,-864 1047.01,-828.13 1014.21,-788.89 992.93,-764.12"/>
<polygon fill="grey" stroke="grey" stroke-width="2" points="995.37,-761.58 986.18,-756.3 990.07,-766.15 995.37,-761.58"/>
</g>
<!-- 43&#45;&gt;0 -->
<g id="edge3" class="edge">
<title>43&#45;&gt;0</title>
<path fill="none" stroke="grey" stroke-width="2" d="M1853.48,-863.99C1867.73,-855.12 1883.27,-842.97 1893,-828 1915.05,-794.09 1912,-779.45 1912,-739 1912,-739 1912,-739 1912,-161 1912,-116.47 1903.22,-96.43 1866,-72 1803.69,-31.09 1272.77,-21.34 1125.66,-19.42"/>
<polygon fill="grey" stroke="grey" stroke-width="2" points="1125.39,-15.92 1115.35,-19.29 1125.3,-22.91 1125.39,-15.92"/>
</g>
<!-- 44 -->
<g id="node45" class="node">
<title>44</title>
<path fill="none" stroke="#8fd856" stroke-width="2" d="M1872,-828C1872,-828 1768,-828 1768,-828 1762,-828 1756,-822 1756,-816 1756,-816 1756,-804 1756,-804 1756,-798 1762,-792 1768,-792 1768,-792 1872,-792 1872,-792 1878,-792 1884,-798 1884,-804 1884,-804 1884,-816 1884,-816 1884,-822 1878,-828 1872,-828"/>
<text text-anchor="middle" x="1820" y="-807.5" font-family="sans" font-size="10.00">merge_corrections_list</text>
</g>
<!-- 43&#45;&gt;44 -->
<g id="edge107" class="edge">
<title>43&#45;&gt;44</title>
<path fill="none" stroke="grey" stroke-width="2" d="M1820,-863.7C1820,-855.98 1820,-846.71 1820,-838.11"/>
<polygon fill="grey" stroke="grey" stroke-width="2" points="1823.5,-838.1 1820,-828.1 1816.5,-838.1 1823.5,-838.1"/>
</g>
<!-- 43&#45;&gt;47 -->
<g id="edge113" class="edge">
<title>43&#45;&gt;47</title>
<path fill="none" stroke="grey" stroke-width="2" d="M1765.74,-874.97C1657.39,-862.93 1413.22,-835.8 1280.33,-821.04"/>
<polygon fill="grey" stroke="grey" stroke-width="2" points="1280.5,-817.53 1270.17,-819.91 1279.72,-824.49 1280.5,-817.53"/>
</g>
<!-- 44&#45;&gt;0 -->
<g id="edge30" class="edge">
<title>44&#45;&gt;0</title>
<path fill="none" stroke="grey" stroke-width="2" d="M1831.19,-791.87C1847.01,-765.96 1874,-714.74 1874,-667 1874,-667 1874,-667 1874,-161 1874,-118.16 1871.77,-97.02 1837,-72 1778.87,-30.17 1268.63,-21.1 1125.3,-19.37"/>
<polygon fill="grey" stroke="grey" stroke-width="2" points="1125.28,-15.87 1115.24,-19.25 1125.2,-22.87 1125.28,-15.87"/>
</g>
<!-- 44&#45;&gt;45 -->
<g id="edge109" class="edge">
<title>44&#45;&gt;45</title>
<path fill="none" stroke="grey" stroke-width="2" d="M1755.99,-800.42C1663.42,-788 1491.81,-764.99 1386.96,-750.93"/>
<polygon fill="grey" stroke="grey" stroke-width="2" points="1387.41,-747.46 1377.03,-749.6 1386.48,-754.4 1387.41,-747.46"/>
</g>
<!-- 46 -->
<g id="node47" class="node">
<title>46</title>
<path fill="none" stroke="#afd856" stroke-width="2" d="M1620.5,-684C1620.5,-684 1495.5,-684 1495.5,-684 1489.5,-684 1483.5,-678 1483.5,-672 1483.5,-672 1483.5,-660 1483.5,-660 1483.5,-654 1489.5,-648 1495.5,-648 1495.5,-648 1620.5,-648 1620.5,-648 1626.5,-648 1632.5,-654 1632.5,-660 1632.5,-660 1632.5,-672 1632.5,-672 1632.5,-678 1626.5,-684 1620.5,-684"/>
<text text-anchor="middle" x="1558" y="-663.5" font-family="sans" font-size="10.00">fix_incorrect_mapped_cens</text>
</g>
<!-- 44&#45;&gt;46 -->
<g id="edge111" class="edge">
<title>44&#45;&gt;46</title>
<path fill="none" stroke="grey" stroke-width="2" d="M1809.49,-791.96C1796.21,-771.83 1771.48,-738.72 1742,-720 1712.25,-701.1 1675.57,-688.77 1642.82,-680.8"/>
<polygon fill="grey" stroke="grey" stroke-width="2" points="1643.32,-677.32 1632.79,-678.47 1641.74,-684.14 1643.32,-677.32"/>
</g>
<!-- 45&#45;&gt;0 -->
<g id="edge15" class="edge">
<title>45&#45;&gt;0</title>
<path fill="none" stroke="grey" stroke-width="2" d="M1218.71,-731.06C1134.07,-719.9 1012,-687.72 1012,-595 1012,-595 1012,-595 1012,-161 1012,-115.64 1042.52,-70.75 1064.88,-43.95"/>
<polygon fill="grey" stroke="grey" stroke-width="2" points="1067.64,-46.09 1071.51,-36.23 1062.34,-41.53 1067.64,-46.09"/>
</g>
<!-- 45&#45;&gt;52 -->
<g id="edge120" class="edge">
<title>45&#45;&gt;52</title>
<path fill="none" stroke="grey" stroke-width="2" d="M1279.71,-719.7C1270.57,-711.05 1259.36,-700.45 1249.4,-691.03"/>
<polygon fill="grey" stroke="grey" stroke-width="2" points="1251.75,-688.43 1242.08,-684.1 1246.94,-693.52 1251.75,-688.43"/>
</g>
<!-- 46&#45;&gt;0 -->
<g id="edge16" class="edge">
<title>46&#45;&gt;0</title>
<path fill="none" stroke="grey" stroke-width="2" d="M1483.47,-651.37C1439.13,-642.3 1382.13,-628.93 1333,-612 1296.9,-599.56 1200.92,-569.76 1177,-540 1110.6,-457.37 1126,-413.01 1126,-307 1126,-307 1126,-307 1126,-161 1126,-119.63 1110.77,-73.72 1099.59,-45.61"/>
<polygon fill="grey" stroke="grey" stroke-width="2" points="1102.72,-44.02 1095.69,-36.09 1096.24,-46.67 1102.72,-44.02"/>
</g>
<!-- 48 -->
<g id="node49" class="node">
<title>48</title>
<path fill="none" stroke="#56c9d8" stroke-width="2" d="M1758,-324C1758,-324 1660,-324 1660,-324 1654,-324 1648,-318 1648,-312 1648,-312 1648,-300 1648,-300 1648,-294 1654,-288 1660,-288 1660,-288 1758,-288 1758,-288 1764,-288 1770,-294 1770,-300 1770,-300 1770,-312 1770,-312 1770,-318 1764,-324 1758,-324"/>
<text text-anchor="middle" x="1709" y="-303.5" font-family="sans" font-size="10.00">count_complete_cens</text>
</g>
<!-- 46&#45;&gt;48 -->
<g id="edge115" class="edge">
<title>46&#45;&gt;48</title>
<path fill="none" stroke="grey" stroke-width="2" d="M1581.11,-647.95C1592.32,-638.53 1605.04,-625.93 1613,-612 1653.81,-540.59 1630.3,-510.13 1656,-432 1667.51,-397.01 1684.71,-358.16 1696.37,-333.21"/>
<polygon fill="grey" stroke="grey" stroke-width="2" points="1699.6,-334.58 1700.7,-324.04 1693.26,-331.59 1699.6,-334.58"/>
</g>
<!-- 49 -->
<g id="node50" class="node">
<title>49</title>
<path fill="none" stroke="#56d8d0" stroke-width="2" d="M1792,-612C1792,-612 1672,-612 1672,-612 1666,-612 1660,-606 1660,-600 1660,-600 1660,-588 1660,-588 1660,-582 1666,-576 1672,-576 1672,-576 1792,-576 1792,-576 1798,-576 1804,-582 1804,-588 1804,-588 1804,-600 1804,-600 1804,-606 1798,-612 1792,-612"/>
<text text-anchor="middle" x="1732" y="-591.5" font-family="sans" font-size="10.00">split_corrected_rm_output</text>
</g>
<!-- 46&#45;&gt;49 -->
<g id="edge116" class="edge">
<title>46&#45;&gt;49</title>
<path fill="none" stroke="grey" stroke-width="2" d="M1600.57,-647.88C1624.56,-638.22 1654.73,-626.09 1680.1,-615.88"/>
<polygon fill="grey" stroke="grey" stroke-width="2" points="1681.6,-619.05 1689.57,-612.07 1678.99,-612.55 1681.6,-619.05"/>
</g>
<!-- 64 -->
<g id="node65" class="node">
<title>64</title>
<path fill="none" stroke="#566bd8" stroke-width="2" d="M1482,-612C1482,-612 1354,-612 1354,-612 1348,-612 1342,-606 1342,-600 1342,-600 1342,-588 1342,-588 1342,-582 1348,-576 1354,-576 1354,-576 1482,-576 1482,-576 1488,-576 1494,-582 1494,-588 1494,-588 1494,-600 1494,-600 1494,-606 1488,-612 1482,-612"/>
<text text-anchor="middle" x="1418" y="-591.5" font-family="sans" font-size="10.00">create_annotated_satellites</text>
</g>
<!-- 46&#45;&gt;64 -->
<g id="edge135" class="edge">
<title>46&#45;&gt;64</title>
<path fill="none" stroke="grey" stroke-width="2" d="M1523.75,-647.88C1504.94,-638.47 1481.42,-626.71 1461.33,-616.67"/>
<polygon fill="grey" stroke="grey" stroke-width="2" points="1462.89,-613.53 1452.38,-612.19 1459.76,-619.79 1462.89,-613.53"/>
</g>
<!-- 65 -->
<g id="node66" class="node">
<title>65</title>
<path fill="none" stroke="#56d8c9" stroke-width="2" d="M1592,-612C1592,-612 1524,-612 1524,-612 1518,-612 1512,-606 1512,-600 1512,-600 1512,-588 1512,-588 1512,-582 1518,-576 1524,-576 1524,-576 1592,-576 1592,-576 1598,-576 1604,-582 1604,-588 1604,-588 1604,-600 1604,-600 1604,-606 1598,-612 1592,-612"/>
<text text-anchor="middle" x="1558" y="-591.5" font-family="sans" font-size="10.00">create_ct_track</text>
</g>
<!-- 46&#45;&gt;65 -->
<g id="edge136" class="edge">
<title>46&#45;&gt;65</title>
<path fill="none" stroke="grey" stroke-width="2" d="M1558,-647.7C1558,-639.98 1558,-630.71 1558,-622.11"/>
<polygon fill="grey" stroke="grey" stroke-width="2" points="1561.5,-622.1 1558,-612.1 1554.5,-622.1 1561.5,-622.1"/>
</g>
<!-- 47&#45;&gt;0 -->
<g id="edge39" class="edge">
<title>47&#45;&gt;0</title>
<path fill="none" stroke="grey" stroke-width="2" d="M1174.58,-791.77C1156.88,-772.65 1126.37,-741.66 1096,-720 1067.84,-699.92 1052.14,-707.76 1027,-684 993.54,-652.37 974,-641.04 974,-595 974,-595 974,-595 974,-161 974,-110 1019.27,-66.88 1052.76,-41.97"/>
<polygon fill="grey" stroke="grey" stroke-width="2" points="1054.92,-44.73 1060.98,-36.04 1050.83,-39.05 1054.92,-44.73"/>
</g>
<!-- 47&#45;&gt;46 -->
<g id="edge110" class="edge">
<title>47&#45;&gt;46</title>
<path fill="none" stroke="grey" stroke-width="2" d="M1188.59,-791.83C1187.95,-771.58 1190.31,-738.36 1210,-720 1247.12,-685.39 1382.57,-673.38 1473.13,-669.21"/>
<polygon fill="grey" stroke="grey" stroke-width="2" points="1473.55,-672.7 1483.39,-668.76 1473.24,-665.7 1473.55,-672.7"/>
</g>
<!-- 48&#45;&gt;0 -->
<g id="edge11" class="edge">
<title>48&#45;&gt;0</title>
<path fill="none" stroke="grey" stroke-width="2" d="M1716.89,-287.98C1736.26,-243.43 1779.98,-123.26 1714,-72 1667.45,-35.84 1253.15,-22.96 1125.36,-19.82"/>
<polygon fill="grey" stroke="grey" stroke-width="2" points="1125.36,-16.32 1115.28,-19.58 1125.19,-23.32 1125.36,-16.32"/>
</g>
<!-- 49&#45;&gt;0 -->
<g id="edge51" class="edge">
<title>49&#45;&gt;0</title>
<path fill="none" stroke="grey" stroke-width="2" d="M1720.59,-575.78C1702.35,-546 1670.48,-483.14 1689,-432 1710.27,-373.25 1751.68,-380.19 1779,-324 1796.69,-287.62 1798,-275.45 1798,-235 1798,-235 1798,-235 1798,-161 1798,-113.79 1780.56,-96.16 1740,-72 1687.15,-40.52 1256.75,-24.36 1125.72,-20.14"/>
<polygon fill="grey" stroke="grey" stroke-width="2" points="1125.5,-16.63 1115.39,-19.81 1125.27,-23.63 1125.5,-16.63"/>
</g>
<!-- 50 -->
<g id="node51" class="node">
<title>50</title>
<path fill="none" stroke="#88d856" stroke-width="2" d="M1834,-468C1834,-468 1710,-468 1710,-468 1704,-468 1698,-462 1698,-456 1698,-456 1698,-444 1698,-444 1698,-438 1704,-432 1710,-432 1710,-432 1834,-432 1834,-432 1840,-432 1846,-438 1846,-444 1846,-444 1846,-456 1846,-456 1846,-462 1840,-468 1834,-468"/>
<text text-anchor="middle" x="1772" y="-447.5" font-family="sans" font-size="10.00">plot_cens_from_rm_by_chr</text>
</g>
<!-- 49&#45;&gt;50 -->
<g id="edge117" class="edge">
<title>49&#45;&gt;50</title>
<path fill="none" stroke="grey" stroke-width="2" d="M1736.82,-575.87C1743.67,-551.56 1756.28,-506.82 1764.39,-478.01"/>
<polygon fill="grey" stroke="grey" stroke-width="2" points="1767.82,-478.76 1767.16,-468.19 1761.08,-476.87 1767.82,-478.76"/>
</g>
<!-- 54 -->
<g id="node55" class="node">
<title>54</title>
<path fill="none" stroke="#d87556" stroke-width="2" d="M1350,-540C1350,-540 1198,-540 1198,-540 1192,-540 1186,-534 1186,-528 1186,-528 1186,-516 1186,-516 1186,-510 1192,-504 1198,-504 1198,-504 1350,-504 1350,-504 1356,-504 1362,-510 1362,-516 1362,-516 1362,-528 1362,-528 1362,-534 1356,-540 1350,-540"/>
<text text-anchor="middle" x="1274" y="-519.5" font-family="sans" font-size="10.00">extract_cens_for_humas_hmmer</text>
</g>
<!-- 49&#45;&gt;54 -->
<g id="edge122" class="edge">
<title>49&#45;&gt;54</title>
<path fill="none" stroke="grey" stroke-width="2" d="M1659.93,-581.99C1582.39,-570.13 1458.6,-551.21 1372.19,-538.01"/>
<polygon fill="grey" stroke="grey" stroke-width="2" points="1372.52,-534.52 1362.1,-536.47 1371.46,-541.44 1372.52,-534.52"/>
</g>
<!-- 50&#45;&gt;0 -->
<g id="edge33" class="edge">
<title>50&#45;&gt;0</title>
<path fill="none" stroke="grey" stroke-width="2" d="M1785.57,-431.76C1804.36,-406.1 1836,-355.67 1836,-307 1836,-307 1836,-307 1836,-161 1836,-120.03 1843.59,-98.09 1812,-72 1758.78,-28.06 1266.58,-20.51 1125.58,-19.25"/>
<polygon fill="grey" stroke="grey" stroke-width="2" points="1125.32,-15.75 1115.29,-19.16 1125.26,-22.74 1125.32,-15.75"/>
</g>
<!-- 51&#45;&gt;0 -->
<g id="edge23" class="edge">
<title>51&#45;&gt;0</title>
<path fill="none" stroke="grey" stroke-width="2" d="M950.86,-719.64C940.87,-710.05 929.39,-697.38 922,-684 902.19,-648.14 898,-635.97 898,-595 898,-595 898,-595 898,-161 898,-120.03 893.7,-101.62 922,-72 955.81,-36.61 1013.19,-24.78 1050.84,-20.87"/>
<polygon fill="grey" stroke="grey" stroke-width="2" points="1051.25,-24.35 1060.9,-19.97 1050.63,-17.38 1051.25,-24.35"/>
</g>
<!-- 52&#45;&gt;0 -->
<g id="edge7" class="edge">
<title>52&#45;&gt;0</title>
<path fill="none" stroke="grey" stroke-width="2" d="M1157.64,-657.46C1126.54,-650.54 1091.46,-637.31 1069,-612 1042.15,-581.75 1050,-563.45 1050,-523 1050,-523 1050,-523 1050,-161 1050,-119.63 1065.23,-73.72 1076.41,-45.61"/>
<polygon fill="grey" stroke="grey" stroke-width="2" points="1079.76,-46.67 1080.31,-36.09 1073.28,-44.02 1079.76,-46.67"/>
</g>
<!-- 53 -->
<g id="node54" class="node">
<title>53</title>
<path fill="none" stroke="#56c1d8" stroke-width="2" d="M1212,-612C1212,-612 1090,-612 1090,-612 1084,-612 1078,-606 1078,-600 1078,-600 1078,-588 1078,-588 1078,-582 1084,-576 1090,-576 1090,-576 1212,-576 1212,-576 1218,-576 1224,-582 1224,-588 1224,-588 1224,-600 1224,-600 1224,-606 1218,-612 1212,-612"/>
<text text-anchor="middle" x="1151" y="-591.5" font-family="sans" font-size="10.00">merge_correct_alr_regions</text>
</g>
<!-- 52&#45;&gt;53 -->
<g id="edge121" class="edge">
<title>52&#45;&gt;53</title>
<path fill="none" stroke="grey" stroke-width="2" d="M1205.96,-647.7C1196.94,-639.05 1185.88,-628.45 1176.06,-619.03"/>
<polygon fill="grey" stroke="grey" stroke-width="2" points="1178.48,-616.5 1168.84,-612.1 1173.63,-621.55 1178.48,-616.5"/>
</g>
<!-- 53&#45;&gt;0 -->
<g id="edge12" class="edge">
<title>53&#45;&gt;0</title>
<path fill="none" stroke="grey" stroke-width="2" d="M1137.64,-575.72C1119.15,-550.03 1088,-499.55 1088,-451 1088,-451 1088,-451 1088,-161 1088,-121 1088,-74.65 1088,-46.08"/>
<polygon fill="grey" stroke="grey" stroke-width="2" points="1091.5,-46.05 1088,-36.05 1084.5,-46.05 1091.5,-46.05"/>
</g>
<!-- 53&#45;&gt;54 -->
<g id="edge123" class="edge">
<title>53&#45;&gt;54</title>
<path fill="none" stroke="grey" stroke-width="2" d="M1181.09,-575.88C1197.32,-566.64 1217.54,-555.13 1234.97,-545.21"/>
<polygon fill="grey" stroke="grey" stroke-width="2" points="1236.84,-548.18 1243.8,-540.19 1233.37,-542.09 1236.84,-548.18"/>
</g>
<!-- 54&#45;&gt;0 -->
<g id="edge9" class="edge">
<title>54&#45;&gt;0</title>
<path fill="none" stroke="grey" stroke-width="2" d="M1299.66,-503.78C1314.54,-493.62 1333.54,-480.37 1350,-468 1390.67,-437.43 1399.72,-428.33 1439,-396 1458.25,-380.16 1460.85,-373.19 1482,-360 1515.43,-339.15 1537.74,-354.23 1563,-324 1615.81,-260.81 1559.18,-211.05 1607,-144 1624.18,-119.91 1648.82,-133.97 1663,-108 1670.67,-93.96 1673.78,-83.82 1663,-72 1626.77,-32.28 1247.48,-21.91 1125.53,-19.59"/>
<polygon fill="grey" stroke="grey" stroke-width="2" points="1125.27,-16.09 1115.21,-19.41 1125.15,-23.09 1125.27,-16.09"/>
</g>
<!-- 55 -->
<g id="node56" class="node">
<title>55</title>
<path fill="none" stroke="#568ad8" stroke-width="2" d="M1328.5,-468C1328.5,-468 1189.5,-468 1189.5,-468 1183.5,-468 1177.5,-462 1177.5,-456 1177.5,-456 1177.5,-444 1177.5,-444 1177.5,-438 1183.5,-432 1189.5,-432 1189.5,-432 1328.5,-432 1328.5,-432 1334.5,-432 1340.5,-438 1340.5,-444 1340.5,-444 1340.5,-456 1340.5,-456 1340.5,-462 1334.5,-468 1328.5,-468"/>
<text text-anchor="middle" x="1259" y="-447.5" font-family="sans" font-size="10.00">split_cens_for_humas_hmmer</text>
</g>
<!-- 54&#45;&gt;55 -->
<g id="edge124" class="edge">
<title>54&#45;&gt;55</title>
<path fill="none" stroke="grey" stroke-width="2" d="M1270.29,-503.7C1268.64,-495.98 1266.65,-486.71 1264.81,-478.11"/>
<polygon fill="grey" stroke="grey" stroke-width="2" points="1268.18,-477.15 1262.67,-468.1 1261.34,-478.62 1268.18,-477.15"/>
</g>
<!-- 55&#45;&gt;0 -->
<g id="edge37" class="edge">
<title>55&#45;&gt;0</title>
<path fill="none" stroke="grey" stroke-width="2" d="M1237.44,-431.78C1209.41,-407.28 1164,-359.5 1164,-307 1164,-307 1164,-307 1164,-161 1164,-120.03 1160.34,-107.56 1140,-72 1133.96,-61.44 1125.31,-51.47 1116.79,-43.08"/>
<polygon fill="grey" stroke="grey" stroke-width="2" points="1119.09,-40.44 1109.41,-36.14 1114.3,-45.54 1119.09,-40.44"/>
</g>
<!-- 66 -->
<g id="node67" class="node">
<title>66</title>
<path fill="none" stroke="#56c1d8" stroke-width="2" d="M1417.5,-396C1417.5,-396 1282.5,-396 1282.5,-396 1276.5,-396 1270.5,-390 1270.5,-384 1270.5,-384 1270.5,-372 1270.5,-372 1270.5,-366 1276.5,-360 1282.5,-360 1282.5,-360 1417.5,-360 1417.5,-360 1423.5,-360 1429.5,-366 1429.5,-372 1429.5,-372 1429.5,-384 1429.5,-384 1429.5,-390 1423.5,-396 1417.5,-396"/>
<text text-anchor="middle" x="1350" y="-375.5" font-family="sans" font-size="10.00">run_humas_hmmer_for_anvil</text>
</g>
<!-- 55&#45;&gt;66 -->
<g id="edge137" class="edge">
<title>55&#45;&gt;66</title>
<path fill="none" stroke="grey" stroke-width="2" d="M1281.49,-431.7C1292.96,-422.88 1307.06,-412.03 1319.48,-402.47"/>
<polygon fill="grey" stroke="grey" stroke-width="2" points="1321.97,-404.98 1327.76,-396.1 1317.7,-399.43 1321.97,-404.98"/>
</g>
<!-- 67 -->
<g id="node68" class="node">
<title>67</title>
<path fill="none" stroke="#56d89a" stroke-width="2" d="M1281.5,-324C1281.5,-324 1204.5,-324 1204.5,-324 1198.5,-324 1192.5,-318 1192.5,-312 1192.5,-312 1192.5,-300 1192.5,-300 1192.5,-294 1198.5,-288 1204.5,-288 1204.5,-288 1281.5,-288 1281.5,-288 1287.5,-288 1293.5,-294 1293.5,-300 1293.5,-300 1293.5,-312 1293.5,-312 1293.5,-318 1287.5,-324 1281.5,-324"/>
<text text-anchor="middle" x="1243" y="-303.5" font-family="sans" font-size="10.00">stained_glass_all</text>
</g>
<!-- 55&#45;&gt;67 -->
<g id="edge138" class="edge">
<title>55&#45;&gt;67</title>
<path fill="none" stroke="grey" stroke-width="2" d="M1257.07,-431.87C1254.34,-407.67 1249.33,-363.21 1246.09,-334.39"/>
<polygon fill="grey" stroke="grey" stroke-width="2" points="1249.53,-333.73 1244.94,-324.19 1242.58,-334.52 1249.53,-333.73"/>
</g>
<!-- 56 -->
<g id="node57" class="node">
<title>56</title>
<path fill="none" stroke="#88d856" stroke-width="2" d="M1542,-324C1542,-324 1362,-324 1362,-324 1356,-324 1350,-318 1350,-312 1350,-312 1350,-300 1350,-300 1350,-294 1356,-288 1362,-288 1362,-288 1542,-288 1542,-288 1548,-288 1554,-294 1554,-300 1554,-300 1554,-312 1554,-312 1554,-318 1548,-324 1542,-324"/>
<text text-anchor="middle" x="1452" y="-303.5" font-family="sans" font-size="10.00">get_stv_row_from_humas_hmmer_out</text>
</g>
<!-- 56&#45;&gt;0 -->
<g id="edge32" class="edge">
<title>56&#45;&gt;0</title>
<path fill="none" stroke="grey" stroke-width="2" d="M1424.34,-287.77C1410.2,-278.22 1393.23,-265.55 1380,-252 1345.89,-217.07 1293.32,-100.95 1254,-72 1215.42,-43.6 1161.04,-30.05 1125.18,-23.85"/>
<polygon fill="grey" stroke="grey" stroke-width="2" points="1125.57,-20.37 1115.14,-22.22 1124.45,-27.28 1125.57,-20.37"/>
</g>
<!-- 57 -->
<g id="node58" class="node">
<title>57</title>
<path fill="none" stroke="#d88d56" stroke-width="2" d="M1541.5,-252C1541.5,-252 1400.5,-252 1400.5,-252 1394.5,-252 1388.5,-246 1388.5,-240 1388.5,-240 1388.5,-228 1388.5,-228 1388.5,-222 1394.5,-216 1400.5,-216 1400.5,-216 1541.5,-216 1541.5,-216 1547.5,-216 1553.5,-222 1553.5,-228 1553.5,-228 1553.5,-240 1553.5,-240 1553.5,-246 1547.5,-252 1541.5,-252"/>
<text text-anchor="middle" x="1471" y="-231.5" font-family="sans" font-size="10.00">aggregate_format_all_stv_row</text>
</g>
<!-- 56&#45;&gt;57 -->
<g id="edge126" class="edge">
<title>56&#45;&gt;57</title>
<path fill="none" stroke="grey" stroke-width="2" d="M1456.7,-287.7C1458.81,-279.9 1461.36,-270.51 1463.72,-261.83"/>
<polygon fill="grey" stroke="grey" stroke-width="2" points="1467.12,-262.67 1466.36,-252.1 1460.36,-260.84 1467.12,-262.67"/>
</g>
<!-- 57&#45;&gt;0 -->
<g id="edge22" class="edge">
<title>57&#45;&gt;0</title>
<path fill="none" stroke="grey" stroke-width="2" d="M1480.87,-215.98C1498.17,-183.65 1528.92,-112.92 1493,-72 1468.88,-44.52 1220.7,-26.91 1125.18,-21.11"/>
<polygon fill="grey" stroke="grey" stroke-width="2" points="1125.3,-17.61 1115.11,-20.51 1124.88,-24.6 1125.3,-17.61"/>
</g>
<!-- 58 -->
<g id="node59" class="node">
<title>58</title>
<path fill="none" stroke="#d86656" stroke-width="2" d="M1641.5,-108C1641.5,-108 1552.5,-108 1552.5,-108 1546.5,-108 1540.5,-102 1540.5,-96 1540.5,-96 1540.5,-84 1540.5,-84 1540.5,-78 1546.5,-72 1552.5,-72 1552.5,-72 1641.5,-72 1641.5,-72 1647.5,-72 1653.5,-78 1653.5,-84 1653.5,-84 1653.5,-96 1653.5,-96 1653.5,-102 1647.5,-108 1641.5,-108"/>
<text text-anchor="middle" x="1597" y="-87.5" font-family="sans" font-size="10.00">plot_stv_with_order</text>
</g>
<!-- 57&#45;&gt;58 -->
<g id="edge127" class="edge">
<title>57&#45;&gt;58</title>
<path fill="none" stroke="grey" stroke-width="2" d="M1489.93,-215.91C1500.82,-205.8 1514.57,-192.55 1526,-180 1544.64,-159.53 1564.14,-134.81 1577.98,-116.63"/>
<polygon fill="grey" stroke="grey" stroke-width="2" points="1581.05,-118.36 1584.29,-108.27 1575.47,-114.14 1581.05,-118.36"/>
</g>
<!-- 59 -->
<g id="node60" class="node">
<title>59</title>
<path fill="none" stroke="#56b9d8" stroke-width="2" d="M1469,-180C1469,-180 1359,-180 1359,-180 1353,-180 1347,-174 1347,-168 1347,-168 1347,-156 1347,-156 1347,-150 1353,-144 1359,-144 1359,-144 1469,-144 1469,-144 1475,-144 1481,-150 1481,-156 1481,-156 1481,-168 1481,-168 1481,-174 1475,-180 1469,-180"/>
<text text-anchor="middle" x="1414" y="-159.5" font-family="sans" font-size="10.00">calculate_as_hor_length</text>
</g>
<!-- 57&#45;&gt;59 -->
<g id="edge128" class="edge">
<title>57&#45;&gt;59</title>
<path fill="none" stroke="grey" stroke-width="2" d="M1456.91,-215.7C1450.08,-207.3 1441.74,-197.07 1434.24,-187.86"/>
<polygon fill="grey" stroke="grey" stroke-width="2" points="1436.96,-185.65 1427.93,-180.1 1431.53,-190.07 1436.96,-185.65"/>
</g>
<!-- 61 -->
<g id="node62" class="node">
<title>61</title>
<path fill="none" stroke="#bed856" stroke-width="2" d="M1718,-180C1718,-180 1628,-180 1628,-180 1622,-180 1616,-174 1616,-168 1616,-168 1616,-156 1616,-156 1616,-150 1622,-144 1628,-144 1628,-144 1718,-144 1718,-144 1724,-144 1730,-150 1730,-156 1730,-156 1730,-168 1730,-168 1730,-174 1724,-180 1718,-180"/>
<text text-anchor="middle" x="1673" y="-159.5" font-family="sans" font-size="10.00">plot_complete_cens</text>
</g>
<!-- 57&#45;&gt;61 -->
<g id="edge131" class="edge">
<title>57&#45;&gt;61</title>
<path fill="none" stroke="grey" stroke-width="2" d="M1520.16,-215.97C1548.5,-206.14 1584.32,-193.73 1614.16,-183.39"/>
<polygon fill="grey" stroke="grey" stroke-width="2" points="1615.32,-186.69 1623.62,-180.11 1613.03,-180.08 1615.32,-186.69"/>
</g>
<!-- 58&#45;&gt;0 -->
<g id="edge5" class="edge">
<title>58&#45;&gt;0</title>
<path fill="none" stroke="grey" stroke-width="2" d="M1540.15,-74.78C1535.38,-73.77 1530.62,-72.83 1526,-72 1378.57,-45.52 1200.8,-28.57 1125.07,-22.04"/>
<polygon fill="grey" stroke="grey" stroke-width="2" points="1125.34,-18.55 1115.07,-21.19 1124.74,-25.53 1125.34,-18.55"/>
</g>
<!-- 59&#45;&gt;0 -->
<g id="edge17" class="edge">
<title>59&#45;&gt;0</title>
<path fill="none" stroke="grey" stroke-width="2" d="M1386.82,-143.78C1371.35,-133.74 1351.77,-120.59 1335,-108 1315.07,-93.04 1314.16,-83.41 1292,-72 1237.72,-44.04 1167.53,-30.01 1125.23,-23.63"/>
<polygon fill="grey" stroke="grey" stroke-width="2" points="1125.5,-20.14 1115.11,-22.17 1124.51,-27.07 1125.5,-20.14"/>
</g>
<!-- 60 -->
<g id="node61" class="node">
<title>60</title>
<path fill="none" stroke="#78d856" stroke-width="2" d="M1472,-108C1472,-108 1356,-108 1356,-108 1350,-108 1344,-102 1344,-96 1344,-96 1344,-84 1344,-84 1344,-78 1350,-72 1356,-72 1356,-72 1472,-72 1472,-72 1478,-72 1484,-78 1484,-84 1484,-84 1484,-96 1484,-96 1484,-102 1478,-108 1472,-108"/>
<text text-anchor="middle" x="1414" y="-87.5" font-family="sans" font-size="10.00">aggregate_as_hor_length</text>
</g>
<!-- 59&#45;&gt;60 -->
<g id="edge129" class="edge">
<title>59&#45;&gt;60</title>
<path fill="none" stroke="grey" stroke-width="2" d="M1414,-143.7C1414,-135.98 1414,-126.71 1414,-118.11"/>
<polygon fill="grey" stroke="grey" stroke-width="2" points="1417.5,-118.1 1414,-108.1 1410.5,-118.1 1417.5,-118.1"/>
</g>
<!-- 60&#45;&gt;0 -->
<g id="edge36" class="edge">
<title>60&#45;&gt;0</title>
<path fill="none" stroke="grey" stroke-width="2" d="M1343.66,-73.9C1276.63,-59.5 1178.29,-38.39 1125.23,-26.99"/>
<polygon fill="grey" stroke="grey" stroke-width="2" points="1125.76,-23.53 1115.25,-24.85 1124.29,-30.37 1125.76,-23.53"/>
</g>
<!-- 61&#45;&gt;0 -->
<g id="edge1" class="edge">
<title>61&#45;&gt;0</title>
<path fill="none" stroke="grey" stroke-width="2" d="M1685.71,-143.69C1698.55,-123.92 1714.12,-91.76 1696,-72 1657.39,-29.88 1252.15,-21.11 1125.56,-19.4"/>
<polygon fill="grey" stroke="grey" stroke-width="2" points="1125.27,-15.89 1115.22,-19.26 1125.18,-22.89 1125.27,-15.89"/>
</g>
<!-- 62 -->
<g id="node63" class="node">
<title>62</title>
<path fill="none" stroke="#c6d856" stroke-width="2" d="M1643,-396C1643,-396 1503,-396 1503,-396 1497,-396 1491,-390 1491,-384 1491,-384 1491,-372 1491,-372 1491,-366 1497,-360 1503,-360 1503,-360 1643,-360 1643,-360 1649,-360 1655,-366 1655,-372 1655,-372 1655,-384 1655,-384 1655,-390 1649,-396 1643,-396"/>
<text text-anchor="middle" x="1573" y="-375.5" font-family="sans" font-size="10.00">split_rm_satellite_annotations</text>
</g>
<!-- 62&#45;&gt;61 -->
<g id="edge130" class="edge">
<title>62&#45;&gt;61</title>
<path fill="none" stroke="grey" stroke-width="2" d="M1581.01,-359.85C1598.42,-322.6 1639.79,-234.07 1660.6,-189.54"/>
<polygon fill="grey" stroke="grey" stroke-width="2" points="1663.88,-190.77 1664.95,-180.23 1657.54,-187.81 1663.88,-190.77"/>
</g>
<!-- 63 -->
<g id="node64" class="node">
<title>63</title>
<path fill="none" stroke="#70d856" stroke-width="2" d="M1591.5,-540C1591.5,-540 1422.5,-540 1422.5,-540 1416.5,-540 1410.5,-534 1410.5,-528 1410.5,-528 1410.5,-516 1410.5,-516 1410.5,-510 1416.5,-504 1422.5,-504 1422.5,-504 1591.5,-504 1591.5,-504 1597.5,-504 1603.5,-510 1603.5,-516 1603.5,-516 1603.5,-528 1603.5,-528 1603.5,-534 1597.5,-540 1591.5,-540"/>
<text text-anchor="middle" x="1507" y="-519.5" font-family="sans" font-size="10.00">aggregate_rm_satellite_annotations</text>
</g>
<!-- 63&#45;&gt;62 -->
<g id="edge132" class="edge">
<title>63&#45;&gt;62</title>
<path fill="none" stroke="grey" stroke-width="2" d="M1514.96,-503.87C1526.36,-479.35 1547.42,-434.03 1560.8,-405.26"/>
<polygon fill="grey" stroke="grey" stroke-width="2" points="1563.97,-406.73 1565.01,-396.19 1557.62,-403.78 1563.97,-406.73"/>
</g>
<!-- 64&#45;&gt;63 -->
<g id="edge133" class="edge">
<title>64&#45;&gt;63</title>
<path fill="none" stroke="grey" stroke-width="2" d="M1440,-575.7C1451.21,-566.88 1465,-556.03 1477.15,-546.47"/>
<polygon fill="grey" stroke="grey" stroke-width="2" points="1479.56,-549.04 1485.25,-540.1 1475.23,-543.54 1479.56,-549.04"/>
</g>
<!-- 65&#45;&gt;63 -->
<g id="edge134" class="edge">
<title>65&#45;&gt;63</title>
<path fill="none" stroke="grey" stroke-width="2" d="M1545.39,-575.7C1539.4,-567.47 1532.12,-557.48 1525.52,-548.42"/>
<polygon fill="grey" stroke="grey" stroke-width="2" points="1528.18,-546.13 1519.46,-540.1 1522.52,-550.25 1528.18,-546.13"/>
</g>
<!-- 66&#45;&gt;0 -->
<g id="edge13" class="edge">
<title>66&#45;&gt;0</title>
<path fill="none" stroke="grey" stroke-width="2" d="M1346.01,-359.75C1333.46,-309.1 1290.33,-158.88 1202,-72 1180.66,-51.02 1149.48,-37.31 1125.12,-29.1"/>
<polygon fill="grey" stroke="grey" stroke-width="2" points="1126.07,-25.73 1115.48,-26.01 1123.94,-32.4 1126.07,-25.73"/>
</g>
<!-- 66&#45;&gt;56 -->
<g id="edge125" class="edge">
<title>66&#45;&gt;56</title>
<path fill="none" stroke="grey" stroke-width="2" d="M1374.95,-359.88C1388.04,-350.89 1404.26,-339.76 1418.44,-330.03"/>
<polygon fill="grey" stroke="grey" stroke-width="2" points="1420.69,-332.73 1426.95,-324.19 1416.73,-326.96 1420.69,-332.73"/>
</g>
<!-- 67&#45;&gt;0 -->
<g id="edge27" class="edge">
<title>67&#45;&gt;0</title>
<path fill="none" stroke="grey" stroke-width="2" d="M1237.27,-287.88C1233.87,-277.53 1229.54,-264.05 1226,-252 1202.68,-172.56 1228.08,-137.93 1178,-72 1164.46,-54.17 1143.04,-41.21 1124.5,-32.57"/>
<polygon fill="grey" stroke="grey" stroke-width="2" points="1125.68,-29.27 1115.12,-28.44 1122.86,-35.67 1125.68,-29.27"/>
</g>
</g>
</svg>
