<?xml version="1.0" encoding="UTF-8" standalone="no"?>
<!DOCTYPE svg PUBLIC "-//W3C//DTD SVG 1.1//EN"
 "http://www.w3.org/Graphics/SVG/1.1/DTD/svg11.dtd">
<!-- Generated by graphviz version 2.40.1 (20161225.0304)
 -->
<!-- Title: snakemake_dag Pages: 1 -->
<svg width="1563pt" height="1378pt"
 viewBox="0.00 0.00 1563.10 1378.00" xmlns="http://www.w3.org/2000/svg" xmlns:xlink="http://www.w3.org/1999/xlink">
<g id="graph0" class="graph" transform="scale(1 1) rotate(0) translate(4 1374)">
<title>snakemake_dag</title>
<polygon fill="#ffffff" stroke="transparent" points="-4,4 -4,-1374 1559.0995,-1374 1559.0995,4 -4,4"/>
<!-- 0 -->
<g id="node1" class="node">
<title>0</title>
<path fill="none" stroke="#d87556" stroke-width="2" d="M948.0995,-36C948.0995,-36 918.0995,-36 918.0995,-36 912.0995,-36 906.0995,-30 906.0995,-24 906.0995,-24 906.0995,-12 906.0995,-12 906.0995,-6 912.0995,0 918.0995,0 918.0995,0 948.0995,0 948.0995,0 954.0995,0 960.0995,-6 960.0995,-12 960.0995,-12 960.0995,-24 960.0995,-24 960.0995,-30 954.0995,-36 948.0995,-36"/>
<text text-anchor="middle" x="933.0995" y="-15" font-family="sans" font-size="10.00" fill="#000000">all</text>
</g>
<!-- 1 -->
<g id="node2" class="node">
<title>1</title>
<path fill="none" stroke="#56d8a9" stroke-width="2" d="M147.2401,-906C147.2401,-906 58.9589,-906 58.9589,-906 52.9589,-906 46.9589,-900 46.9589,-894 46.9589,-894 46.9589,-882 46.9589,-882 46.9589,-876 52.9589,-870 58.9589,-870 58.9589,-870 147.2401,-870 147.2401,-870 153.2401,-870 159.2401,-876 159.2401,-882 159.2401,-882 159.2401,-894 159.2401,-894 159.2401,-900 153.2401,-906 147.2401,-906"/>
<text text-anchor="middle" x="103.0995" y="-885" font-family="sans" font-size="10.00" fill="#000000">merge_slop_region_bed</text>
</g>
<!-- 1&#45;&gt;0 -->
<g id="edge19" class="edge">
<title>1&#45;&gt;0</title>
<path fill="none" stroke="#c0c0c0" stroke-width="2" d="M66.8279,-869.8934C57.975,-863.9796 49.283,-856.6604 43.0995,-848 22.8036,-819.5742 23.0995,-806.9278 23.0995,-772 23.0995,-772 23.0995,-772 23.0995,-134 23.0995,-90.4082 46.1718,-77.6184 85.0995,-58 121.7274,-39.5406 736.0058,-22.9355 895.5062,-18.9206"/>
<polygon fill="#c0c0c0" stroke="#c0c0c0" stroke-width="2" points="895.8586,-22.413 905.768,-18.6639 895.6835,-15.4152 895.8586,-22.413"/>
</g>
<!-- 18 -->
<g id="node19" class="node">
<title>18</title>
<path fill="none" stroke="#56a9d8" stroke-width="2" d="M142.2342,-848C142.2342,-848 63.9648,-848 63.9648,-848 57.9648,-848 51.9648,-842 51.9648,-836 51.9648,-836 51.9648,-824 51.9648,-824 51.9648,-818 57.9648,-812 63.9648,-812 63.9648,-812 142.2342,-812 142.2342,-812 148.2342,-812 154.2342,-818 154.2342,-824 154.2342,-824 154.2342,-836 154.2342,-836 154.2342,-842 148.2342,-848 142.2342,-848"/>
<text text-anchor="middle" x="103.0995" y="-827" font-family="sans" font-size="10.00" fill="#000000">reorient_satellite_bed</text>
</g>
<!-- 1&#45;&gt;18 -->
<g id="edge48" class="edge">
<title>1&#45;&gt;18</title>
<path fill="none" stroke="#c0c0c0" stroke-width="2" d="M103.0995,-869.9664C103.0995,-866.2918 103.0995,-862.3418 103.0995,-858.4063"/>
<polygon fill="#c0c0c0" stroke="#c0c0c0" stroke-width="2" points="106.5996,-858.2222 103.0995,-848.2222 99.5996,-858.2223 106.5996,-858.2222"/>
</g>
<!-- 2 -->
<g id="node3" class="node">
<title>2</title>
<path fill="none" stroke="#80d856" stroke-width="2" d="M148.4526,-964C148.4526,-964 57.7464,-964 57.7464,-964 51.7464,-964 45.7464,-958 45.7464,-952 45.7464,-952 45.7464,-940 45.7464,-940 45.7464,-934 51.7464,-928 57.7464,-928 57.7464,-928 148.4526,-928 148.4526,-928 154.4526,-928 160.4526,-934 160.4526,-940 160.4526,-940 160.4526,-952 160.4526,-952 160.4526,-958 154.4526,-964 148.4526,-964"/>
<text text-anchor="middle" x="103.0995" y="-943" font-family="sans" font-size="10.00" fill="#000000">extract_filter_monomers</text>
</g>
<!-- 2&#45;&gt;1 -->
<g id="edge25" class="edge">
<title>2&#45;&gt;1</title>
<path fill="none" stroke="#c0c0c0" stroke-width="2" d="M103.0995,-927.9664C103.0995,-924.2918 103.0995,-920.3418 103.0995,-916.4063"/>
<polygon fill="#c0c0c0" stroke="#c0c0c0" stroke-width="2" points="106.5996,-916.2222 103.0995,-906.2222 99.5996,-916.2223 106.5996,-916.2222"/>
</g>
<!-- 3 -->
<g id="node4" class="node">
<title>3</title>
<path fill="none" stroke="#5663d8" stroke-width="2" d="M166.9201,-1022C166.9201,-1022 111.2789,-1022 111.2789,-1022 105.2789,-1022 99.2789,-1016 99.2789,-1010 99.2789,-1010 99.2789,-998 99.2789,-998 99.2789,-992 105.2789,-986 111.2789,-986 111.2789,-986 166.9201,-986 166.9201,-986 172.9201,-986 178.9201,-992 178.9201,-998 178.9201,-998 178.9201,-1010 178.9201,-1010 178.9201,-1016 172.9201,-1022 166.9201,-1022"/>
<text text-anchor="middle" x="139.0995" y="-1001" font-family="sans" font-size="10.00" fill="#000000">srf_map_motifs</text>
</g>
<!-- 3&#45;&gt;2 -->
<g id="edge26" class="edge">
<title>3&#45;&gt;2</title>
<path fill="none" stroke="#c0c0c0" stroke-width="2" d="M127.9062,-985.9664C125.3571,-981.8595 122.5944,-977.4085 119.8695,-973.0184"/>
<polygon fill="#c0c0c0" stroke="#c0c0c0" stroke-width="2" points="122.6573,-970.8729 114.4099,-964.2222 116.7098,-974.5644 122.6573,-970.8729"/>
</g>
<!-- 4 -->
<g id="node5" class="node">
<title>4</title>
<path fill="none" stroke="#5673d8" stroke-width="2" d="M167.6368,-1080C167.6368,-1080 110.5622,-1080 110.5622,-1080 104.5622,-1080 98.5622,-1074 98.5622,-1068 98.5622,-1068 98.5622,-1056 98.5622,-1056 98.5622,-1050 104.5622,-1044 110.5622,-1044 110.5622,-1044 167.6368,-1044 167.6368,-1044 173.6368,-1044 179.6368,-1050 179.6368,-1056 179.6368,-1056 179.6368,-1068 179.6368,-1068 179.6368,-1074 173.6368,-1080 167.6368,-1080"/>
<text text-anchor="middle" x="139.0995" y="-1059" font-family="sans" font-size="10.00" fill="#000000">srf_filter_motifs</text>
</g>
<!-- 4&#45;&gt;3 -->
<g id="edge29" class="edge">
<title>4&#45;&gt;3</title>
<path fill="none" stroke="#c0c0c0" stroke-width="2" d="M139.0995,-1043.9664C139.0995,-1040.2918 139.0995,-1036.3418 139.0995,-1032.4063"/>
<polygon fill="#c0c0c0" stroke="#c0c0c0" stroke-width="2" points="142.5996,-1032.2222 139.0995,-1022.2222 135.5996,-1032.2223 142.5996,-1032.2222"/>
</g>
<!-- 5 -->
<g id="node6" class="node">
<title>5</title>
<path fill="none" stroke="#5673d8" stroke-width="2" d="M170.0655,-1196C170.0655,-1196 108.1335,-1196 108.1335,-1196 102.1335,-1196 96.1335,-1190 96.1335,-1184 96.1335,-1184 96.1335,-1172 96.1335,-1172 96.1335,-1166 102.1335,-1160 108.1335,-1160 108.1335,-1160 170.0655,-1160 170.0655,-1160 176.0655,-1160 182.0655,-1166 182.0655,-1172 182.0655,-1172 182.0655,-1184 182.0655,-1184 182.0655,-1190 176.0655,-1196 170.0655,-1196"/>
<text text-anchor="middle" x="139.0995" y="-1175" font-family="sans" font-size="10.00" fill="#000000">srf_create_motifs</text>
</g>
<!-- 5&#45;&gt;4 -->
<g id="edge30" class="edge">
<title>5&#45;&gt;4</title>
<path fill="none" stroke="#c0c0c0" stroke-width="2" d="M139.0995,-1159.875C139.0995,-1141.3412 139.0995,-1112.2787 139.0995,-1090.6311"/>
<polygon fill="#c0c0c0" stroke="#c0c0c0" stroke-width="2" points="142.5996,-1090.3805 139.0995,-1080.3805 135.5996,-1090.3806 142.5996,-1090.3805"/>
</g>
<!-- 10 -->
<g id="node11" class="node">
<title>10</title>
<path fill="none" stroke="#566bd8" stroke-width="2" d="M101.5795,-1138C101.5795,-1138 34.6195,-1138 34.6195,-1138 28.6195,-1138 22.6195,-1132 22.6195,-1126 22.6195,-1126 22.6195,-1114 22.6195,-1114 22.6195,-1108 28.6195,-1102 34.6195,-1102 34.6195,-1102 101.5795,-1102 101.5795,-1102 107.5795,-1102 113.5795,-1108 113.5795,-1114 113.5795,-1114 113.5795,-1126 113.5795,-1126 113.5795,-1132 107.5795,-1138 101.5795,-1138"/>
<text text-anchor="middle" x="68.0995" y="-1117" font-family="sans" font-size="10.00" fill="#000000">srf_get_monomers</text>
</g>
<!-- 5&#45;&gt;10 -->
<g id="edge37" class="edge">
<title>5&#45;&gt;10</title>
<path fill="none" stroke="#c0c0c0" stroke-width="2" d="M117.0238,-1159.9664C111.0704,-1155.103 104.5262,-1149.757 98.2145,-1144.601"/>
<polygon fill="#c0c0c0" stroke="#c0c0c0" stroke-width="2" points="100.3648,-1141.8382 90.406,-1138.2222 95.9362,-1147.2593 100.3648,-1141.8382"/>
</g>
<!-- 6 -->
<g id="node7" class="node">
<title>6</title>
<path fill="none" stroke="#5682d8" stroke-width="2" d="M68.9091,-1254C68.9091,-1254 13.2899,-1254 13.2899,-1254 7.2899,-1254 1.2899,-1248 1.2899,-1242 1.2899,-1242 1.2899,-1230 1.2899,-1230 1.2899,-1224 7.2899,-1218 13.2899,-1218 13.2899,-1218 68.9091,-1218 68.9091,-1218 74.9091,-1218 80.9091,-1224 80.9091,-1230 80.9091,-1230 80.9091,-1242 80.9091,-1242 80.9091,-1248 74.9091,-1254 68.9091,-1254"/>
<text text-anchor="middle" x="41.0995" y="-1233" font-family="sans" font-size="10.00" fill="#000000">srf_compile_srf</text>
</g>
<!-- 6&#45;&gt;5 -->
<g id="edge32" class="edge">
<title>6&#45;&gt;5</title>
<path fill="none" stroke="#c0c0c0" stroke-width="2" d="M71.5701,-1217.9664C80.5119,-1212.6743 90.4191,-1206.8109 99.8277,-1201.2425"/>
<polygon fill="#c0c0c0" stroke="#c0c0c0" stroke-width="2" points="101.8246,-1204.1278 108.6477,-1196.0225 98.2593,-1198.1037 101.8246,-1204.1278"/>
</g>
<!-- 7 -->
<g id="node8" class="node">
<title>7</title>
<path fill="none" stroke="#567bd8" stroke-width="2" d="M169.8007,-1254C169.8007,-1254 110.3983,-1254 110.3983,-1254 104.3983,-1254 98.3983,-1248 98.3983,-1242 98.3983,-1242 98.3983,-1230 98.3983,-1230 98.3983,-1224 104.3983,-1218 110.3983,-1218 110.3983,-1218 169.8007,-1218 169.8007,-1218 175.8007,-1218 181.8007,-1224 181.8007,-1230 181.8007,-1230 181.8007,-1242 181.8007,-1242 181.8007,-1248 175.8007,-1254 169.8007,-1254"/>
<text text-anchor="middle" x="140.0995" y="-1233" font-family="sans" font-size="10.00" fill="#000000">srf_count_kmers</text>
</g>
<!-- 7&#45;&gt;5 -->
<g id="edge33" class="edge">
<title>7&#45;&gt;5</title>
<path fill="none" stroke="#c0c0c0" stroke-width="2" d="M139.7886,-1217.9664C139.7252,-1214.2918 139.6571,-1210.3418 139.5893,-1206.4063"/>
<polygon fill="#c0c0c0" stroke="#c0c0c0" stroke-width="2" points="143.0856,-1206.1604 139.4137,-1196.2222 136.0867,-1206.2811 143.0856,-1206.1604"/>
</g>
<!-- 8 -->
<g id="node9" class="node">
<title>8</title>
<path fill="none" stroke="#5663d8" stroke-width="2" d="M209.1665,-1312C209.1665,-1312 131.0325,-1312 131.0325,-1312 125.0325,-1312 119.0325,-1306 119.0325,-1300 119.0325,-1300 119.0325,-1288 119.0325,-1288 119.0325,-1282 125.0325,-1276 131.0325,-1276 131.0325,-1276 209.1665,-1276 209.1665,-1276 215.1665,-1276 221.1665,-1282 221.1665,-1288 221.1665,-1288 221.1665,-1300 221.1665,-1300 221.1665,-1306 215.1665,-1312 209.1665,-1312"/>
<text text-anchor="middle" x="170.0995" y="-1291" font-family="sans" font-size="10.00" fill="#000000">srf_merge_sequences</text>
</g>
<!-- 8&#45;&gt;3 -->
<g id="edge28" class="edge">
<title>8&#45;&gt;3</title>
<path fill="none" stroke="#c0c0c0" stroke-width="2" d="M180.609,-1275.7832C192.4603,-1253.4851 210.0995,-1214.2144 210.0995,-1178 210.0995,-1178 210.0995,-1178 210.0995,-1120 210.0995,-1084.9565 208.3868,-1073.2583 189.0995,-1044 185.4859,-1038.5182 180.8782,-1033.4367 175.9276,-1028.8626"/>
<polygon fill="#c0c0c0" stroke="#c0c0c0" stroke-width="2" points="177.8505,-1025.9043 167.9593,-1022.1078 173.324,-1031.244 177.8505,-1025.9043"/>
</g>
<!-- 8&#45;&gt;7 -->
<g id="edge34" class="edge">
<title>8&#45;&gt;7</title>
<path fill="none" stroke="#c0c0c0" stroke-width="2" d="M160.7718,-1275.9664C158.7034,-1271.9676 156.4663,-1267.6426 154.2539,-1263.3651"/>
<polygon fill="#c0c0c0" stroke="#c0c0c0" stroke-width="2" points="157.2278,-1261.4964 149.5248,-1254.2222 151.0103,-1264.7124 157.2278,-1261.4964"/>
</g>
<!-- 9 -->
<g id="node10" class="node">
<title>9</title>
<path fill="none" stroke="#a7d856" stroke-width="2" d="M380.8028,-1370C380.8028,-1370 341.3962,-1370 341.3962,-1370 335.3962,-1370 329.3962,-1364 329.3962,-1358 329.3962,-1358 329.3962,-1346 329.3962,-1346 329.3962,-1340 335.3962,-1334 341.3962,-1334 341.3962,-1334 380.8028,-1334 380.8028,-1334 386.8028,-1334 392.8028,-1340 392.8028,-1346 392.8028,-1346 392.8028,-1358 392.8028,-1358 392.8028,-1364 386.8028,-1370 380.8028,-1370"/>
<text text-anchor="middle" x="361.0995" y="-1349" font-family="sans" font-size="10.00" fill="#000000">concat_asm</text>
</g>
<!-- 9&#45;&gt;1 -->
<g id="edge24" class="edge">
<title>9&#45;&gt;1</title>
<path fill="none" stroke="#c0c0c0" stroke-width="2" d="M329.0738,-1344.4725C310.3802,-1338.5436 287.6785,-1328.455 273.0995,-1312 249.6093,-1285.4872 249.0995,-1271.422 249.0995,-1236 249.0995,-1236 249.0995,-1236 249.0995,-1004 249.0995,-958.8937 205.8518,-928.5252 166.4323,-910.2134"/>
<polygon fill="#c0c0c0" stroke="#c0c0c0" stroke-width="2" points="167.6091,-906.9063 157.0497,-906.0404 164.7644,-913.3022 167.6091,-906.9063"/>
</g>
<!-- 9&#45;&gt;8 -->
<g id="edge35" class="edge">
<title>9&#45;&gt;8</title>
<path fill="none" stroke="#c0c0c0" stroke-width="2" d="M329.1304,-1342.2921C302.4715,-1334.1967 263.7247,-1322.4307 231.1518,-1312.5395"/>
<polygon fill="#c0c0c0" stroke="#c0c0c0" stroke-width="2" points="231.847,-1309.0928 221.2614,-1309.5361 229.813,-1315.7908 231.847,-1309.0928"/>
</g>
<!-- 14 -->
<g id="node15" class="node">
<title>14</title>
<path fill="none" stroke="#d87d56" stroke-width="2" d="M414.7977,-1022C414.7977,-1022 345.4013,-1022 345.4013,-1022 339.4013,-1022 333.4013,-1016 333.4013,-1010 333.4013,-1010 333.4013,-998 333.4013,-998 333.4013,-992 339.4013,-986 345.4013,-986 345.4013,-986 414.7977,-986 414.7977,-986 420.7977,-986 426.7977,-992 426.7977,-998 426.7977,-998 426.7977,-1010 426.7977,-1010 426.7977,-1016 420.7977,-1022 414.7977,-1022"/>
<text text-anchor="middle" x="380.0995" y="-1001" font-family="sans" font-size="10.00" fill="#000000">asm_ref_alignment</text>
</g>
<!-- 9&#45;&gt;14 -->
<g id="edge41" class="edge">
<title>9&#45;&gt;14</title>
<path fill="none" stroke="#c0c0c0" stroke-width="2" d="M382.107,-1333.7725C403.9846,-1312.6562 435.0995,-1275.6537 435.0995,-1236 435.0995,-1236 435.0995,-1236 435.0995,-1120 435.0995,-1085.1827 432.4515,-1074.7385 416.0995,-1044 413.4668,-1039.051 410.0906,-1034.2246 406.4641,-1029.7352"/>
<polygon fill="#c0c0c0" stroke="#c0c0c0" stroke-width="2" points="408.9838,-1027.2993 399.7725,-1022.0644 403.7088,-1031.9009 408.9838,-1027.2993"/>
</g>
<!-- 16 -->
<g id="node17" class="node">
<title>16</title>
<path fill="none" stroke="#56b1d8" stroke-width="2" d="M687.5084,-848C687.5084,-848 620.6906,-848 620.6906,-848 614.6906,-848 608.6906,-842 608.6906,-836 608.6906,-836 608.6906,-824 608.6906,-824 608.6906,-818 614.6906,-812 620.6906,-812 620.6906,-812 687.5084,-812 687.5084,-812 693.5084,-812 699.5084,-818 699.5084,-824 699.5084,-824 699.5084,-836 699.5084,-836 699.5084,-842 693.5084,-848 687.5084,-848"/>
<text text-anchor="middle" x="654.0995" y="-827" font-family="sans" font-size="10.00" fill="#000000">rename_reort_asm</text>
</g>
<!-- 9&#45;&gt;16 -->
<g id="edge42" class="edge">
<title>9&#45;&gt;16</title>
<path fill="none" stroke="#c0c0c0" stroke-width="2" d="M392.8183,-1348.4878C449.912,-1340.2176 564.0995,-1313.9352 564.0995,-1236 564.0995,-1236 564.0995,-1236 564.0995,-946 564.0995,-908.5095 593.8081,-875.8075 619.0877,-854.767"/>
<polygon fill="#c0c0c0" stroke="#c0c0c0" stroke-width="2" points="621.4782,-857.3367 627.0965,-848.3542 617.1029,-851.8725 621.4782,-857.3367"/>
</g>
<!-- 9&#45;&gt;18 -->
<g id="edge46" class="edge">
<title>9&#45;&gt;18</title>
<path fill="none" stroke="#c0c0c0" stroke-width="2" d="M340.092,-1333.7725C318.2144,-1312.6562 287.0995,-1275.6537 287.0995,-1236 287.0995,-1236 287.0995,-1236 287.0995,-946 287.0995,-915.0324 211.575,-876.1316 157.2987,-852.1737"/>
<polygon fill="#c0c0c0" stroke="#c0c0c0" stroke-width="2" points="158.6766,-848.9563 148.111,-848.1702 155.8803,-855.3735 158.6766,-848.9563"/>
</g>
<!-- 69 -->
<g id="node70" class="node">
<title>69</title>
<path fill="none" stroke="#56c1d8" stroke-width="2" d="M1477.4232,-326C1477.4232,-326 1426.7758,-326 1426.7758,-326 1420.7758,-326 1414.7758,-320 1414.7758,-314 1414.7758,-314 1414.7758,-302 1414.7758,-302 1414.7758,-296 1420.7758,-290 1426.7758,-290 1426.7758,-290 1477.4232,-290 1477.4232,-290 1483.4232,-290 1489.4232,-296 1489.4232,-302 1489.4232,-302 1489.4232,-314 1489.4232,-314 1489.4232,-320 1483.4232,-326 1477.4232,-326"/>
<text text-anchor="middle" x="1452.0995" y="-305" font-family="sans" font-size="10.00" fill="#000000">plot_ideogram</text>
</g>
<!-- 9&#45;&gt;69 -->
<g id="edge128" class="edge">
<title>9&#45;&gt;69</title>
<path fill="none" stroke="#c0c0c0" stroke-width="2" d="M392.7582,-1350.4199C574.6983,-1341.1362 1479.0995,-1292.1635 1479.0995,-1236 1479.0995,-1236 1479.0995,-1236 1479.0995,-424 1479.0995,-393.1998 1469.9582,-358.9691 1462.3137,-335.7279"/>
<polygon fill="#c0c0c0" stroke="#c0c0c0" stroke-width="2" points="1465.5966,-334.5111 1459.0527,-326.1788 1458.9723,-336.7733 1465.5966,-334.5111"/>
</g>
<!-- 10&#45;&gt;2 -->
<g id="edge27" class="edge">
<title>10&#45;&gt;2</title>
<path fill="none" stroke="#c0c0c0" stroke-width="2" d="M70.2212,-1101.6174C73.4227,-1075.6317 80.1865,-1026.7764 90.0995,-986 91.0617,-982.0421 92.2218,-977.9099 93.4478,-973.8673"/>
<polygon fill="#c0c0c0" stroke="#c0c0c0" stroke-width="2" points="96.8421,-974.7439 96.5563,-964.153 90.1751,-972.6105 96.8421,-974.7439"/>
</g>
<!-- 10&#45;&gt;4 -->
<g id="edge31" class="edge">
<title>10&#45;&gt;4</title>
<path fill="none" stroke="#c0c0c0" stroke-width="2" d="M90.1752,-1101.9664C96.1286,-1097.103 102.6728,-1091.757 108.9845,-1086.601"/>
<polygon fill="#c0c0c0" stroke="#c0c0c0" stroke-width="2" points="111.2628,-1089.2593 116.793,-1080.2222 106.8342,-1083.8382 111.2628,-1089.2593"/>
</g>
<!-- 11 -->
<g id="node12" class="node">
<title>11</title>
<path fill="none" stroke="#567bd8" stroke-width="2" d="M66.2988,-1196C66.2988,-1196 11.9002,-1196 11.9002,-1196 5.9002,-1196 -.0998,-1190 -.0998,-1184 -.0998,-1184 -.0998,-1172 -.0998,-1172 -.0998,-1166 5.9002,-1160 11.9002,-1160 11.9002,-1160 66.2988,-1160 66.2988,-1160 72.2988,-1160 78.2988,-1166 78.2988,-1172 78.2988,-1172 78.2988,-1184 78.2988,-1184 78.2988,-1190 72.2988,-1196 66.2988,-1196"/>
<text text-anchor="middle" x="39.0995" y="-1175" font-family="sans" font-size="10.00" fill="#000000">srf_compile_trf</text>
</g>
<!-- 11&#45;&gt;10 -->
<g id="edge36" class="edge">
<title>11&#45;&gt;10</title>
<path fill="none" stroke="#c0c0c0" stroke-width="2" d="M48.1163,-1159.9664C50.1157,-1155.9676 52.2782,-1151.6426 54.4169,-1147.3651"/>
<polygon fill="#c0c0c0" stroke="#c0c0c0" stroke-width="2" points="57.6467,-1148.7318 58.9884,-1138.2222 51.3857,-1145.6013 57.6467,-1148.7318"/>
</g>
<!-- 12 -->
<g id="node13" class="node">
<title>12</title>
<path fill="none" stroke="#56d88a" stroke-width="2" d="M401.7544,-906C401.7544,-906 358.4446,-906 358.4446,-906 352.4446,-906 346.4446,-900 346.4446,-894 346.4446,-894 346.4446,-882 346.4446,-882 346.4446,-876 352.4446,-870 358.4446,-870 358.4446,-870 401.7544,-870 401.7544,-870 407.7544,-870 413.7544,-876 413.7544,-882 413.7544,-882 413.7544,-894 413.7544,-894 413.7544,-900 407.7544,-906 401.7544,-906"/>
<text text-anchor="middle" x="380.0995" y="-885" font-family="sans" font-size="10.00" fill="#000000">map_chroms</text>
</g>
<!-- 12&#45;&gt;0 -->
<g id="edge2" class="edge">
<title>12&#45;&gt;0</title>
<path fill="none" stroke="#c0c0c0" stroke-width="2" d="M346.2629,-880.5385C264.1644,-860.2324 61.0995,-795.8696 61.0995,-656 61.0995,-656 61.0995,-656 61.0995,-134 61.0995,-119.6468 60.6219,-94.9353 167.0995,-58 236.2949,-33.9973 752.2464,-21.7086 896.0107,-18.7268"/>
<polygon fill="#c0c0c0" stroke="#c0c0c0" stroke-width="2" points="896.1655,-22.2244 906.0917,-18.5203 896.0221,-15.2259 896.1655,-22.2244"/>
</g>
<!-- 12&#45;&gt;16 -->
<g id="edge43" class="edge">
<title>12&#45;&gt;16</title>
<path fill="none" stroke="#c0c0c0" stroke-width="2" d="M413.9721,-880.8299C460.0709,-871.0717 543.146,-853.4865 598.465,-841.7766"/>
<polygon fill="#c0c0c0" stroke="#c0c0c0" stroke-width="2" points="599.3978,-845.1568 608.4561,-839.6617 597.9481,-838.3086 599.3978,-845.1568"/>
</g>
<!-- 12&#45;&gt;18 -->
<g id="edge47" class="edge">
<title>12&#45;&gt;18</title>
<path fill="none" stroke="#c0c0c0" stroke-width="2" d="M346.3643,-879.8441C332.3963,-876.5897 316.0067,-872.9285 301.0995,-870 242.3088,-858.4508 226.6082,-860.902 168.0995,-848 166.8453,-847.7234 165.5792,-847.4375 164.3045,-847.1435"/>
<polygon fill="#c0c0c0" stroke="#c0c0c0" stroke-width="2" points="164.9631,-843.702 154.4206,-844.7543 163.3183,-850.506 164.9631,-843.702"/>
</g>
<!-- 30 -->
<g id="node31" class="node">
<title>30</title>
<path fill="none" stroke="#56d88a" stroke-width="2" d="M791.6175,-674C791.6175,-674 694.5815,-674 694.5815,-674 688.5815,-674 682.5815,-668 682.5815,-662 682.5815,-662 682.5815,-650 682.5815,-650 682.5815,-644 688.5815,-638 694.5815,-638 694.5815,-638 791.6175,-638 791.6175,-638 797.6175,-638 803.6175,-644 803.6175,-650 803.6175,-650 803.6175,-662 803.6175,-662 803.6175,-668 797.6175,-674 791.6175,-674"/>
<text text-anchor="middle" x="743.0995" y="-653" font-family="sans" font-size="10.00" fill="#000000">make_complete_cens_bed</text>
</g>
<!-- 12&#45;&gt;30 -->
<g id="edge66" class="edge">
<title>12&#45;&gt;30</title>
<path fill="none" stroke="#c0c0c0" stroke-width="2" d="M383.4549,-869.8175C391.69,-830.8036 416.7945,-739.1134 477.0995,-696 505.9375,-675.383 600.057,-679.3589 635.0995,-674 647.1832,-672.1521 660.0112,-670.0967 672.447,-668.0547"/>
<polygon fill="#c0c0c0" stroke="#c0c0c0" stroke-width="2" points="673.0189,-671.5078 682.3144,-666.4242 671.8776,-664.6014 673.0189,-671.5078"/>
</g>
<!-- 13 -->
<g id="node14" class="node">
<title>13</title>
<path fill="none" stroke="#d88556" stroke-width="2" d="M416.7402,-964C416.7402,-964 343.4588,-964 343.4588,-964 337.4588,-964 331.4588,-958 331.4588,-952 331.4588,-952 331.4588,-940 331.4588,-940 331.4588,-934 337.4588,-928 343.4588,-928 343.4588,-928 416.7402,-928 416.7402,-928 422.7402,-928 428.7402,-934 428.7402,-940 428.7402,-940 428.7402,-952 428.7402,-952 428.7402,-958 422.7402,-964 416.7402,-964"/>
<text text-anchor="middle" x="380.0995" y="-943" font-family="sans" font-size="10.00" fill="#000000">asm_ref_aln_to_bed</text>
</g>
<!-- 13&#45;&gt;12 -->
<g id="edge38" class="edge">
<title>13&#45;&gt;12</title>
<path fill="none" stroke="#c0c0c0" stroke-width="2" d="M380.0995,-927.9664C380.0995,-924.2918 380.0995,-920.3418 380.0995,-916.4063"/>
<polygon fill="#c0c0c0" stroke="#c0c0c0" stroke-width="2" points="383.5996,-916.2222 380.0995,-906.2222 376.5996,-916.2223 383.5996,-916.2222"/>
</g>
<!-- 14&#45;&gt;13 -->
<g id="edge39" class="edge">
<title>14&#45;&gt;13</title>
<path fill="none" stroke="#c0c0c0" stroke-width="2" d="M380.0995,-985.9664C380.0995,-982.2918 380.0995,-978.3418 380.0995,-974.4063"/>
<polygon fill="#c0c0c0" stroke="#c0c0c0" stroke-width="2" points="383.5996,-974.2222 380.0995,-964.2222 376.5996,-974.2223 383.5996,-974.2222"/>
</g>
<!-- 15 -->
<g id="node16" class="node">
<title>15</title>
<path fill="none" stroke="#8fd856" stroke-width="2" d="M395.2412,-1080C395.2412,-1080 326.9578,-1080 326.9578,-1080 320.9578,-1080 314.9578,-1074 314.9578,-1068 314.9578,-1068 314.9578,-1056 314.9578,-1056 314.9578,-1050 320.9578,-1044 326.9578,-1044 326.9578,-1044 395.2412,-1044 395.2412,-1044 401.2412,-1044 407.2412,-1050 407.2412,-1056 407.2412,-1056 407.2412,-1068 407.2412,-1068 407.2412,-1074 401.2412,-1080 395.2412,-1080"/>
<text text-anchor="middle" x="361.0995" y="-1059" font-family="sans" font-size="10.00" fill="#000000">download_ref_asm</text>
</g>
<!-- 15&#45;&gt;14 -->
<g id="edge40" class="edge">
<title>15&#45;&gt;14</title>
<path fill="none" stroke="#c0c0c0" stroke-width="2" d="M367.0071,-1043.9664C368.2462,-1040.1837 369.581,-1036.1092 370.9077,-1032.0591"/>
<polygon fill="#c0c0c0" stroke="#c0c0c0" stroke-width="2" points="374.3431,-1032.8149 374.1301,-1022.2222 367.6909,-1030.6357 374.3431,-1032.8149"/>
</g>
<!-- 16&#45;&gt;0 -->
<g id="edge17" class="edge">
<title>16&#45;&gt;0</title>
<path fill="none" stroke="#c0c0c0" stroke-width="2" d="M699.5258,-828.1312C867.1226,-820.6424 1441.0995,-789.4847 1441.0995,-714 1441.0995,-714 1441.0995,-714 1441.0995,-540 1441.0995,-425.113 1555.0995,-422.887 1555.0995,-308 1555.0995,-308 1555.0995,-308 1555.0995,-134 1555.0995,-90.9646 1533.1361,-78.1312 1495.0995,-58 1448.9368,-33.5679 1088.6125,-22.0608 970.4726,-18.9183"/>
<polygon fill="#c0c0c0" stroke="#c0c0c0" stroke-width="2" points="970.2212,-15.4106 960.1332,-18.6483 970.0384,-22.4083 970.2212,-15.4106"/>
</g>
<!-- 17 -->
<g id="node18" class="node">
<title>17</title>
<path fill="none" stroke="#88d856" stroke-width="2" d="M240.5073,-790C240.5073,-790 163.6917,-790 163.6917,-790 157.6917,-790 151.6917,-784 151.6917,-778 151.6917,-778 151.6917,-766 151.6917,-766 151.6917,-760 157.6917,-754 163.6917,-754 163.6917,-754 240.5073,-754 240.5073,-754 246.5073,-754 252.5073,-760 252.5073,-766 252.5073,-766 252.5073,-778 252.5073,-778 252.5073,-784 246.5073,-790 240.5073,-790"/>
<text text-anchor="middle" x="202.0995" y="-769" font-family="sans" font-size="10.00" fill="#000000">extract_cens_regions</text>
</g>
<!-- 16&#45;&gt;17 -->
<g id="edge44" class="edge">
<title>16&#45;&gt;17</title>
<path fill="none" stroke="#c0c0c0" stroke-width="2" d="M608.6905,-824.1732C526.8019,-813.6654 354.3929,-791.5421 262.6009,-779.7635"/>
<polygon fill="#c0c0c0" stroke="#c0c0c0" stroke-width="2" points="262.9909,-776.2849 252.6267,-778.4836 262.0999,-783.228 262.9909,-776.2849"/>
</g>
<!-- 16&#45;&gt;30 -->
<g id="edge65" class="edge">
<title>16&#45;&gt;30</title>
<path fill="none" stroke="#c0c0c0" stroke-width="2" d="M663.4558,-811.7078C679.1878,-780.9509 711.0087,-718.7393 729.3078,-682.9635"/>
<polygon fill="#c0c0c0" stroke="#c0c0c0" stroke-width="2" points="732.4307,-684.5439 733.8685,-674.0471 726.1986,-681.3562 732.4307,-684.5439"/>
</g>
<!-- 36 -->
<g id="node37" class="node">
<title>36</title>
<path fill="none" stroke="#56d892" stroke-width="2" d="M1003.4081,-790C1003.4081,-790 942.7909,-790 942.7909,-790 936.7909,-790 930.7909,-784 930.7909,-778 930.7909,-778 930.7909,-766 930.7909,-766 930.7909,-760 936.7909,-754 942.7909,-754 942.7909,-754 1003.4081,-754 1003.4081,-754 1009.4081,-754 1015.4081,-760 1015.4081,-766 1015.4081,-766 1015.4081,-778 1015.4081,-778 1015.4081,-784 1009.4081,-790 1003.4081,-790"/>
<text text-anchor="middle" x="973.0995" y="-769" font-family="sans" font-size="10.00" fill="#000000">merge_asm_files</text>
</g>
<!-- 16&#45;&gt;36 -->
<g id="edge76" class="edge">
<title>16&#45;&gt;36</title>
<path fill="none" stroke="#c0c0c0" stroke-width="2" d="M699.6965,-824.1406C750.1868,-817.3263 833.8665,-805.0638 905.0995,-790 910.196,-788.9222 915.4821,-787.7039 920.753,-786.4217"/>
<polygon fill="#c0c0c0" stroke="#c0c0c0" stroke-width="2" points="921.9688,-789.7252 930.8169,-783.8975 920.2658,-782.9355 921.9688,-789.7252"/>
</g>
<!-- 39 -->
<g id="node40" class="node">
<title>39</title>
<path fill="none" stroke="#88d856" stroke-width="2" d="M1136.5535,-616C1136.5535,-616 1019.6455,-616 1019.6455,-616 1013.6455,-616 1007.6455,-610 1007.6455,-604 1007.6455,-604 1007.6455,-592 1007.6455,-592 1007.6455,-586 1013.6455,-580 1019.6455,-580 1019.6455,-580 1136.5535,-580 1136.5535,-580 1142.5535,-580 1148.5535,-586 1148.5535,-592 1148.5535,-592 1148.5535,-604 1148.5535,-604 1148.5535,-610 1142.5535,-616 1136.5535,-616"/>
<text text-anchor="middle" x="1078.0995" y="-595" font-family="sans" font-size="10.00" fill="#000000">extract_cens_for_humas_annot</text>
</g>
<!-- 16&#45;&gt;39 -->
<g id="edge80" class="edge">
<title>16&#45;&gt;39</title>
<path fill="none" stroke="#c0c0c0" stroke-width="2" d="M687.0173,-811.9884C763.33,-770.2324 952.2163,-666.8795 1036.4251,-620.803"/>
<polygon fill="#c0c0c0" stroke="#c0c0c0" stroke-width="2" points="1038.1101,-623.8707 1045.2027,-616.0001 1034.75,-617.7299 1038.1101,-623.8707"/>
</g>
<!-- 41 -->
<g id="node42" class="node">
<title>41</title>
<path fill="none" stroke="#56d87b" stroke-width="2" d="M1303.2606,-326C1303.2606,-326 1188.9384,-326 1188.9384,-326 1182.9384,-326 1176.9384,-320 1176.9384,-314 1176.9384,-314 1176.9384,-302 1176.9384,-302 1176.9384,-296 1182.9384,-290 1188.9384,-290 1188.9384,-290 1303.2606,-290 1303.2606,-290 1309.2606,-290 1315.2606,-296 1315.2606,-302 1315.2606,-302 1315.2606,-314 1315.2606,-314 1315.2606,-320 1309.2606,-326 1303.2606,-326"/>
<text text-anchor="middle" x="1246.0995" y="-305" font-family="sans" font-size="10.00" fill="#000000">get_complete_correct_cens_fa</text>
</g>
<!-- 16&#45;&gt;41 -->
<g id="edge84" class="edge">
<title>16&#45;&gt;41</title>
<path fill="none" stroke="#c0c0c0" stroke-width="2" d="M699.3878,-828.5895C769.7151,-825.622 909.0655,-816.6271 1024.0995,-790 1120.8002,-767.6166 1234.0995,-813.2575 1234.0995,-714 1234.0995,-714 1234.0995,-714 1234.0995,-424 1234.0995,-393.8013 1238.1732,-359.414 1241.5735,-335.9705"/>
<polygon fill="#c0c0c0" stroke="#c0c0c0" stroke-width="2" points="1245.0432,-336.4334 1243.0714,-326.0237 1238.1212,-335.391 1245.0432,-336.4334"/>
</g>
<!-- 55 -->
<g id="node56" class="node">
<title>55</title>
<path fill="none" stroke="#ced856" stroke-width="2" d="M683.2393,-616C683.2393,-616 624.9597,-616 624.9597,-616 618.9597,-616 612.9597,-610 612.9597,-604 612.9597,-604 612.9597,-592 612.9597,-592 612.9597,-586 618.9597,-580 624.9597,-580 624.9597,-580 683.2393,-580 683.2393,-580 689.2393,-580 695.2393,-586 695.2393,-592 695.2393,-592 695.2393,-604 695.2393,-604 695.2393,-610 689.2393,-616 683.2393,-616"/>
<text text-anchor="middle" x="654.0995" y="-595" font-family="sans" font-size="10.00" fill="#000000">cdr_subset_fasta</text>
</g>
<!-- 16&#45;&gt;55 -->
<g id="edge108" class="edge">
<title>16&#45;&gt;55</title>
<path fill="none" stroke="#c0c0c0" stroke-width="2" d="M654.0995,-811.7953C654.0995,-771.4758 654.0995,-674.4103 654.0995,-626.1795"/>
<polygon fill="#c0c0c0" stroke="#c0c0c0" stroke-width="2" points="657.5996,-626.12 654.0995,-616.1201 650.5996,-626.1201 657.5996,-626.12"/>
</g>
<!-- 57 -->
<g id="node58" class="node">
<title>57</title>
<path fill="none" stroke="#d8cb56" stroke-width="2" d="M479.2977,-616C479.2977,-616 384.9013,-616 384.9013,-616 378.9013,-616 372.9013,-610 372.9013,-604 372.9013,-604 372.9013,-592 372.9013,-592 372.9013,-586 378.9013,-580 384.9013,-580 384.9013,-580 479.2977,-580 479.2977,-580 485.2977,-580 491.2977,-586 491.2977,-592 491.2977,-592 491.2977,-604 491.2977,-604 491.2977,-610 485.2977,-616 479.2977,-616"/>
<text text-anchor="middle" x="432.0995" y="-595" font-family="sans" font-size="10.00" fill="#000000">cdr_get_methylation_bed</text>
</g>
<!-- 16&#45;&gt;57 -->
<g id="edge113" class="edge">
<title>16&#45;&gt;57</title>
<path fill="none" stroke="#c0c0c0" stroke-width="2" d="M608.8502,-823.9778C566.2579,-817.4547 506.4856,-805.8206 489.0995,-790 442.3746,-747.4826 433.2617,-668.6079 431.9083,-626.3972"/>
<polygon fill="#c0c0c0" stroke="#c0c0c0" stroke-width="2" points="435.405,-626.1858 431.7116,-616.2556 428.4063,-626.3216 435.405,-626.1858"/>
</g>
<!-- 60 -->
<g id="node61" class="node">
<title>60</title>
<path fill="none" stroke="#d8ac56" stroke-width="2" d="M605.8939,-790C605.8939,-790 510.3051,-790 510.3051,-790 504.3051,-790 498.3051,-784 498.3051,-778 498.3051,-778 498.3051,-766 498.3051,-766 498.3051,-760 504.3051,-754 510.3051,-754 510.3051,-754 605.8939,-754 605.8939,-754 611.8939,-754 617.8939,-760 617.8939,-766 617.8939,-766 617.8939,-778 617.8939,-778 617.8939,-784 611.8939,-790 605.8939,-790"/>
<text text-anchor="middle" x="558.0995" y="-769" font-family="sans" font-size="10.00" fill="#000000">cdr_aln_merge_asm_files</text>
</g>
<!-- 16&#45;&gt;60 -->
<g id="edge117" class="edge">
<title>16&#45;&gt;60</title>
<path fill="none" stroke="#c0c0c0" stroke-width="2" d="M624.2507,-811.9664C615.4915,-806.6743 605.7865,-800.8109 596.5699,-795.2425"/>
<polygon fill="#c0c0c0" stroke="#c0c0c0" stroke-width="2" points="598.2989,-792.198 587.9298,-790.0225 594.6791,-798.1894 598.2989,-792.198"/>
</g>
<!-- 17&#45;&gt;0 -->
<g id="edge6" class="edge">
<title>17&#45;&gt;0</title>
<path fill="none" stroke="#c0c0c0" stroke-width="2" d="M170.0743,-753.8464C139.8384,-734.0624 99.0995,-699.3607 99.0995,-656 99.0995,-656 99.0995,-656 99.0995,-134 99.0995,-52.4565 732.6423,-24.937 895.3673,-19.2135"/>
<polygon fill="#c0c0c0" stroke="#c0c0c0" stroke-width="2" points="895.9515,-22.6955 905.825,-18.8531 895.7103,-15.6997 895.9515,-22.6955"/>
</g>
<!-- 25 -->
<g id="node26" class="node">
<title>25</title>
<path fill="none" stroke="#568ad8" stroke-width="2" d="M297.3588,-732C297.3588,-732 232.8402,-732 232.8402,-732 226.8402,-732 220.8402,-726 220.8402,-720 220.8402,-720 220.8402,-708 220.8402,-708 220.8402,-702 226.8402,-696 232.8402,-696 232.8402,-696 297.3588,-696 297.3588,-696 303.3588,-696 309.3588,-702 309.3588,-708 309.3588,-708 309.3588,-720 309.3588,-720 309.3588,-726 303.3588,-732 297.3588,-732"/>
<text text-anchor="middle" x="265.0995" y="-711" font-family="sans" font-size="10.00" fill="#000000">split_cens_for_rm</text>
</g>
<!-- 17&#45;&gt;25 -->
<g id="edge56" class="edge">
<title>17&#45;&gt;25</title>
<path fill="none" stroke="#c0c0c0" stroke-width="2" d="M221.6878,-753.9664C226.7356,-749.3191 232.2621,-744.2313 237.6298,-739.2895"/>
<polygon fill="#c0c0c0" stroke="#c0c0c0" stroke-width="2" points="240.32,-741.5703 245.3064,-732.2222 235.5788,-736.4204 240.32,-741.5703"/>
</g>
<!-- 18&#45;&gt;17 -->
<g id="edge45" class="edge">
<title>18&#45;&gt;17</title>
<path fill="none" stroke="#c0c0c0" stroke-width="2" d="M133.881,-811.9664C142.914,-806.6743 152.9223,-800.8109 162.4269,-795.2425"/>
<polygon fill="#c0c0c0" stroke="#c0c0c0" stroke-width="2" points="164.4779,-798.0974 171.337,-790.0225 160.9394,-792.0576 164.4779,-798.0974"/>
</g>
<!-- 19 -->
<g id="node20" class="node">
<title>19</title>
<path fill="none" stroke="#56b9d8" stroke-width="2" d="M359.4726,-152C359.4726,-152 268.7264,-152 268.7264,-152 262.7264,-152 256.7264,-146 256.7264,-140 256.7264,-140 256.7264,-128 256.7264,-128 256.7264,-122 262.7264,-116 268.7264,-116 268.7264,-116 359.4726,-116 359.4726,-116 365.4726,-116 371.4726,-122 371.4726,-128 371.4726,-128 371.4726,-140 371.4726,-140 371.4726,-146 365.4726,-152 359.4726,-152"/>
<text text-anchor="middle" x="314.0995" y="-131" font-family="sans" font-size="10.00" fill="#000000">plot_og_rm_bed_by_chr</text>
</g>
<!-- 19&#45;&gt;0 -->
<g id="edge8" class="edge">
<title>19&#45;&gt;0</title>
<path fill="none" stroke="#c0c0c0" stroke-width="2" d="M337.2682,-115.9306C361.9622,-97.7775 402.9578,-70.7226 443.0995,-58 527.3923,-31.2841 796.2297,-21.611 895.6605,-18.894"/>
<polygon fill="#c0c0c0" stroke="#c0c0c0" stroke-width="2" points="895.9339,-22.3881 905.8376,-18.6242 895.7483,-15.3905 895.9339,-22.3881"/>
</g>
<!-- 20 -->
<g id="node21" class="node">
<title>20</title>
<path fill="none" stroke="#97d856" stroke-width="2" d="M249.5114,-268C249.5114,-268 182.6876,-268 182.6876,-268 176.6876,-268 170.6876,-262 170.6876,-256 170.6876,-256 170.6876,-244 170.6876,-244 170.6876,-238 176.6876,-232 182.6876,-232 182.6876,-232 249.5114,-232 249.5114,-232 255.5114,-232 261.5114,-238 261.5114,-244 261.5114,-244 261.5114,-256 261.5114,-256 261.5114,-262 255.5114,-268 249.5114,-268"/>
<text text-anchor="middle" x="216.0995" y="-247" font-family="sans" font-size="10.00" fill="#000000">create_og_rm_bed</text>
</g>
<!-- 20&#45;&gt;19 -->
<g id="edge49" class="edge">
<title>20&#45;&gt;19</title>
<path fill="none" stroke="#c0c0c0" stroke-width="2" d="M261.3745,-235.1969C273.8688,-229.1496 286.3734,-220.9345 295.0995,-210 305.8522,-196.5259 310.6149,-177.7636 312.6832,-162.2527"/>
<polygon fill="#c0c0c0" stroke="#c0c0c0" stroke-width="2" points="316.1818,-162.4449 313.7251,-152.1388 309.2187,-161.7275 316.1818,-162.4449"/>
</g>
<!-- 26 -->
<g id="node27" class="node">
<title>26</title>
<path fill="none" stroke="#56d8c1" stroke-width="2" d="M273.9058,-210C273.9058,-210 158.2932,-210 158.2932,-210 152.2932,-210 146.2932,-204 146.2932,-198 146.2932,-198 146.2932,-186 146.2932,-186 146.2932,-180 152.2932,-174 158.2932,-174 158.2932,-174 273.9058,-174 273.9058,-174 279.9058,-174 285.9058,-180 285.9058,-186 285.9058,-186 285.9058,-198 285.9058,-198 285.9058,-204 279.9058,-210 273.9058,-210"/>
<text text-anchor="middle" x="216.0995" y="-189" font-family="sans" font-size="10.00" fill="#000000">modify_og_rm_cenplot_tracks</text>
</g>
<!-- 20&#45;&gt;26 -->
<g id="edge57" class="edge">
<title>20&#45;&gt;26</title>
<path fill="none" stroke="#c0c0c0" stroke-width="2" d="M216.0995,-231.9664C216.0995,-228.2918 216.0995,-224.3418 216.0995,-220.4063"/>
<polygon fill="#c0c0c0" stroke="#c0c0c0" stroke-width="2" points="219.5996,-220.2222 216.0995,-210.2222 212.5996,-220.2223 219.5996,-220.2222"/>
</g>
<!-- 21 -->
<g id="node22" class="node">
<title>21</title>
<path fill="none" stroke="#61d856" stroke-width="2" d="M299.3777,-326C299.3777,-326 138.8213,-326 138.8213,-326 132.8213,-326 126.8213,-320 126.8213,-314 126.8213,-314 126.8213,-302 126.8213,-302 126.8213,-296 132.8213,-290 138.8213,-290 138.8213,-290 299.3777,-290 299.3777,-290 305.3777,-290 311.3777,-296 311.3777,-302 311.3777,-302 311.3777,-314 311.3777,-314 311.3777,-320 305.3777,-326 299.3777,-326"/>
<text text-anchor="middle" x="219.0995" y="-305" font-family="sans" font-size="10.00" fill="#000000">format_add_control_repeatmasker_output</text>
</g>
<!-- 21&#45;&gt;20 -->
<g id="edge51" class="edge">
<title>21&#45;&gt;20</title>
<path fill="none" stroke="#c0c0c0" stroke-width="2" d="M218.1667,-289.9664C217.9767,-286.2918 217.7723,-282.3418 217.5688,-278.4063"/>
<polygon fill="#c0c0c0" stroke="#c0c0c0" stroke-width="2" points="221.054,-278.0281 217.042,-268.2222 214.0633,-278.3897 221.054,-278.0281"/>
</g>
<!-- 22 -->
<g id="node23" class="node">
<title>22</title>
<path fill="none" stroke="#56d89a" stroke-width="2" d="M449.7696,-384C449.7696,-384 310.4294,-384 310.4294,-384 304.4294,-384 298.4294,-378 298.4294,-372 298.4294,-372 298.4294,-360 298.4294,-360 298.4294,-354 304.4294,-348 310.4294,-348 310.4294,-348 449.7696,-348 449.7696,-348 455.7696,-348 461.7696,-354 461.7696,-360 461.7696,-360 461.7696,-372 461.7696,-372 461.7696,-378 455.7696,-384 449.7696,-384"/>
<text text-anchor="middle" x="380.0995" y="-363" font-family="sans" font-size="10.00" fill="#000000">merge_control_repeatmasker_output</text>
</g>
<!-- 22&#45;&gt;21 -->
<g id="edge52" class="edge">
<title>22&#45;&gt;21</title>
<path fill="none" stroke="#c0c0c0" stroke-width="2" d="M330.0406,-347.9664C313.8362,-342.1287 295.7018,-335.5958 278.8658,-329.5307"/>
<polygon fill="#c0c0c0" stroke="#c0c0c0" stroke-width="2" points="279.7218,-326.119 269.1274,-326.0225 277.3493,-332.7047 279.7218,-326.119"/>
</g>
<!-- 28 -->
<g id="node29" class="node">
<title>28</title>
<path fill="none" stroke="#97d856" stroke-width="2" d="M418.5575,-326C418.5575,-326 341.6415,-326 341.6415,-326 335.6415,-326 329.6415,-320 329.6415,-314 329.6415,-314 329.6415,-302 329.6415,-302 329.6415,-296 335.6415,-290 341.6415,-290 341.6415,-290 418.5575,-290 418.5575,-290 424.5575,-290 430.5575,-296 430.5575,-302 430.5575,-302 430.5575,-314 430.5575,-314 430.5575,-320 424.5575,-326 418.5575,-326"/>
<text text-anchor="middle" x="380.0995" y="-305" font-family="sans" font-size="10.00" fill="#000000">create_fixed_rm_bed</text>
</g>
<!-- 22&#45;&gt;28 -->
<g id="edge60" class="edge">
<title>22&#45;&gt;28</title>
<path fill="none" stroke="#c0c0c0" stroke-width="2" d="M380.0995,-347.9664C380.0995,-344.2918 380.0995,-340.3418 380.0995,-336.4063"/>
<polygon fill="#c0c0c0" stroke="#c0c0c0" stroke-width="2" points="383.5996,-336.2222 380.0995,-326.2222 376.5996,-336.2223 383.5996,-336.2222"/>
</g>
<!-- 46 -->
<g id="node47" class="node">
<title>46</title>
<path fill="none" stroke="#56d89a" stroke-width="2" d="M605.3197,-326C605.3197,-326 460.8793,-326 460.8793,-326 454.8793,-326 448.8793,-320 448.8793,-314 448.8793,-314 448.8793,-302 448.8793,-302 448.8793,-296 454.8793,-290 460.8793,-290 460.8793,-290 605.3197,-290 605.3197,-290 611.3197,-290 617.3197,-296 617.3197,-302 617.3197,-302 617.3197,-314 617.3197,-314 617.3197,-320 611.3197,-326 605.3197,-326"/>
<text text-anchor="middle" x="533.0995" y="-305" font-family="sans" font-size="10.00" fill="#000000">merge_complete_and_correct_rm_out</text>
</g>
<!-- 22&#45;&gt;46 -->
<g id="edge90" class="edge">
<title>22&#45;&gt;46</title>
<path fill="none" stroke="#c0c0c0" stroke-width="2" d="M427.671,-347.9664C442.9263,-342.1833 459.9816,-335.7179 475.8541,-329.7009"/>
<polygon fill="#c0c0c0" stroke="#c0c0c0" stroke-width="2" points="477.4474,-332.84 485.5574,-326.0225 474.9661,-326.2945 477.4474,-332.84"/>
</g>
<!-- 23 -->
<g id="node24" class="node">
<title>23</title>
<path fill="none" stroke="#56d8a9" stroke-width="2" d="M267.9436,-384C267.9436,-384 162.2554,-384 162.2554,-384 156.2554,-384 150.2554,-378 150.2554,-372 150.2554,-372 150.2554,-360 150.2554,-360 150.2554,-354 156.2554,-348 162.2554,-348 162.2554,-348 267.9436,-348 267.9436,-348 273.9436,-348 279.9436,-354 279.9436,-360 279.9436,-360 279.9436,-372 279.9436,-372 279.9436,-378 273.9436,-384 267.9436,-384"/>
<text text-anchor="middle" x="215.0995" y="-363" font-family="sans" font-size="10.00" fill="#000000">merge_repeatmasker_output</text>
</g>
<!-- 23&#45;&gt;21 -->
<g id="edge53" class="edge">
<title>23&#45;&gt;21</title>
<path fill="none" stroke="#c0c0c0" stroke-width="2" d="M216.3432,-347.9664C216.5966,-344.2918 216.869,-340.3418 217.1404,-336.4063"/>
<polygon fill="#c0c0c0" stroke="#c0c0c0" stroke-width="2" points="220.6464,-336.4394 217.8428,-326.2222 213.663,-335.9577 220.6464,-336.4394"/>
</g>
<!-- 24 -->
<g id="node25" class="node">
<title>24</title>
<path fill="none" stroke="#56d85b" stroke-width="2" d="M318.6134,-442C318.6134,-442 211.5856,-442 211.5856,-442 205.5856,-442 199.5856,-436 199.5856,-430 199.5856,-430 199.5856,-418 199.5856,-418 199.5856,-412 205.5856,-406 211.5856,-406 211.5856,-406 318.6134,-406 318.6134,-406 324.6134,-406 330.6134,-412 330.6134,-418 330.6134,-418 330.6134,-430 330.6134,-430 330.6134,-436 324.6134,-442 318.6134,-442"/>
<text text-anchor="middle" x="265.0995" y="-421" font-family="sans" font-size="10.00" fill="#000000">format_repeatmasker_output</text>
</g>
<!-- 24&#45;&gt;23 -->
<g id="edge54" class="edge">
<title>24&#45;&gt;23</title>
<path fill="none" stroke="#c0c0c0" stroke-width="2" d="M249.5533,-405.9664C245.7334,-401.5353 241.5681,-396.7036 237.496,-391.98"/>
<polygon fill="#c0c0c0" stroke="#c0c0c0" stroke-width="2" points="239.9887,-389.5111 230.8083,-384.2222 234.6868,-394.0817 239.9887,-389.5111"/>
</g>
<!-- 29 -->
<g id="node30" class="node">
<title>29</title>
<path fill="none" stroke="#68d856" stroke-width="2" d="M550.8618,-384C550.8618,-384 491.3372,-384 491.3372,-384 485.3372,-384 479.3372,-378 479.3372,-372 479.3372,-372 479.3372,-360 479.3372,-360 479.3372,-354 485.3372,-348 491.3372,-348 491.3372,-348 550.8618,-348 550.8618,-348 556.8618,-348 562.8618,-354 562.8618,-360 562.8618,-360 562.8618,-372 562.8618,-372 562.8618,-378 556.8618,-384 550.8618,-384"/>
<text text-anchor="middle" x="521.0995" y="-363" font-family="sans" font-size="10.00" fill="#000000">fix_cens_rm_out</text>
</g>
<!-- 24&#45;&gt;29 -->
<g id="edge62" class="edge">
<title>24&#45;&gt;29</title>
<path fill="none" stroke="#c0c0c0" stroke-width="2" d="M330.6387,-413.9223C368.9457,-407.4204 418.3239,-397.9929 469.3532,-384.2996"/>
<polygon fill="#c0c0c0" stroke="#c0c0c0" stroke-width="2" points="470.5139,-387.6108 479.2376,-381.5986 468.6687,-380.8584 470.5139,-387.6108"/>
</g>
<!-- 25&#45;&gt;24 -->
<g id="edge55" class="edge">
<title>25&#45;&gt;24</title>
<path fill="none" stroke="#c0c0c0" stroke-width="2" d="M265.0995,-695.9166C265.0995,-673.096 265.0995,-632.6389 265.0995,-598 265.0995,-598 265.0995,-598 265.0995,-540 265.0995,-510.0969 265.0995,-475.8577 265.0995,-452.3725"/>
<polygon fill="#c0c0c0" stroke="#c0c0c0" stroke-width="2" points="268.5996,-452.0834 265.0995,-442.0834 261.5996,-452.0834 268.5996,-452.0834"/>
</g>
<!-- 25&#45;&gt;30 -->
<g id="edge64" class="edge">
<title>25&#45;&gt;30</title>
<path fill="none" stroke="#c0c0c0" stroke-width="2" d="M309.5306,-705.8408C329.2547,-702.4313 352.7826,-698.6543 374.0995,-696 489.6188,-681.6162 519.5909,-688.4697 635.0995,-674 647.2289,-672.4806 660.0796,-670.5886 672.5238,-668.6072"/>
<polygon fill="#c0c0c0" stroke="#c0c0c0" stroke-width="2" points="673.0854,-672.062 682.3951,-667.0044 671.9634,-665.1525 673.0854,-672.062"/>
</g>
<!-- 26&#45;&gt;19 -->
<g id="edge50" class="edge">
<title>26&#45;&gt;19</title>
<path fill="none" stroke="#c0c0c0" stroke-width="2" d="M246.5701,-173.9664C255.5119,-168.6743 265.4191,-162.8109 274.8277,-157.2425"/>
<polygon fill="#c0c0c0" stroke="#c0c0c0" stroke-width="2" points="276.8246,-160.1278 283.6477,-152.0225 273.2593,-154.1037 276.8246,-160.1278"/>
</g>
<!-- 27 -->
<g id="node28" class="node">
<title>27</title>
<path fill="none" stroke="#56d0d8" stroke-width="2" d="M481.0202,-210C481.0202,-210 379.1788,-210 379.1788,-210 373.1788,-210 367.1788,-204 367.1788,-198 367.1788,-198 367.1788,-186 367.1788,-186 367.1788,-180 373.1788,-174 379.1788,-174 379.1788,-174 481.0202,-174 481.0202,-174 487.0202,-174 493.0202,-180 493.0202,-186 493.0202,-186 493.0202,-198 493.0202,-198 493.0202,-204 487.0202,-210 481.0202,-210"/>
<text text-anchor="middle" x="430.0995" y="-189" font-family="sans" font-size="10.00" fill="#000000">plot_fixed_rm_bed_by_chr</text>
</g>
<!-- 27&#45;&gt;0 -->
<g id="edge11" class="edge">
<title>27&#45;&gt;0</title>
<path fill="none" stroke="#c0c0c0" stroke-width="2" d="M434.6678,-173.9576C443.2634,-144.1284 464.8965,-85.1362 507.0995,-58 539.4652,-37.1891 798.5068,-23.8623 896.09,-19.5377"/>
<polygon fill="#c0c0c0" stroke="#c0c0c0" stroke-width="2" points="896.2573,-23.0338 906.0951,-19.1009 895.9519,-16.0405 896.2573,-23.0338"/>
</g>
<!-- 28&#45;&gt;27 -->
<g id="edge59" class="edge">
<title>28&#45;&gt;27</title>
<path fill="none" stroke="#c0c0c0" stroke-width="2" d="M397.5899,-289.6492C402.9226,-283.2175 408.358,-275.674 412.0995,-268 419.3678,-253.0926 423.7998,-235.0812 426.4465,-220.3348"/>
<polygon fill="#c0c0c0" stroke="#c0c0c0" stroke-width="2" points="429.9335,-220.6956 428.0732,-210.2653 423.0231,-219.5791 429.9335,-220.6956"/>
</g>
<!-- 31 -->
<g id="node32" class="node">
<title>31</title>
<path fill="none" stroke="#56d8c1" stroke-width="2" d="M391.4059,-268C391.4059,-268 290.7931,-268 290.7931,-268 284.7931,-268 278.7931,-262 278.7931,-256 278.7931,-256 278.7931,-244 278.7931,-244 278.7931,-238 284.7931,-232 290.7931,-232 290.7931,-232 391.4059,-232 391.4059,-232 397.4059,-232 403.4059,-238 403.4059,-244 403.4059,-244 403.4059,-256 403.4059,-256 403.4059,-262 397.4059,-268 391.4059,-268"/>
<text text-anchor="middle" x="341.0995" y="-247" font-family="sans" font-size="10.00" fill="#000000">modify_rm_cenplot_tracks</text>
</g>
<!-- 28&#45;&gt;31 -->
<g id="edge67" class="edge">
<title>28&#45;&gt;31</title>
<path fill="none" stroke="#c0c0c0" stroke-width="2" d="M367.9734,-289.9664C365.1393,-285.7514 362.0613,-281.174 359.0341,-276.6719"/>
<polygon fill="#c0c0c0" stroke="#c0c0c0" stroke-width="2" points="361.8369,-274.5677 353.3524,-268.2222 356.0279,-278.4737 361.8369,-274.5677"/>
</g>
<!-- 29&#45;&gt;28 -->
<g id="edge61" class="edge">
<title>29&#45;&gt;28</title>
<path fill="none" stroke="#c0c0c0" stroke-width="2" d="M479.1766,-348.7551C464.7904,-342.8374 448.4932,-336.1336 433.3313,-329.8968"/>
<polygon fill="#c0c0c0" stroke="#c0c0c0" stroke-width="2" points="434.6446,-326.6525 424.0649,-326.0851 431.9816,-333.1262 434.6446,-326.6525"/>
</g>
<!-- 29&#45;&gt;46 -->
<g id="edge91" class="edge">
<title>29&#45;&gt;46</title>
<path fill="none" stroke="#c0c0c0" stroke-width="2" d="M524.8306,-347.9664C525.6132,-344.1837 526.4562,-340.1092 527.2942,-336.0591"/>
<polygon fill="#c0c0c0" stroke="#c0c0c0" stroke-width="2" points="530.7307,-336.724 529.3294,-326.2222 523.8758,-335.3057 530.7307,-336.724"/>
</g>
<!-- 30&#45;&gt;29 -->
<g id="edge63" class="edge">
<title>30&#45;&gt;29</title>
<path fill="none" stroke="#c0c0c0" stroke-width="2" d="M682.337,-644.6596C657.14,-638.4224 628.2225,-629.1968 604.0995,-616 559.641,-591.6784 519.0995,-590.6764 519.0995,-540 519.0995,-540 519.0995,-540 519.0995,-482 519.0995,-452.0925 519.7723,-417.854 520.3375,-394.3701"/>
<polygon fill="#c0c0c0" stroke="#c0c0c0" stroke-width="2" points="523.8436,-394.1662 520.5948,-384.0817 516.8458,-393.9911 523.8436,-394.1662"/>
</g>
<!-- 32 -->
<g id="node33" class="node">
<title>32</title>
<path fill="none" stroke="#56d87b" stroke-width="2" d="M1169.4316,-384C1169.4316,-384 1048.7674,-384 1048.7674,-384 1042.7674,-384 1036.7674,-378 1036.7674,-372 1036.7674,-372 1036.7674,-360 1036.7674,-360 1036.7674,-354 1042.7674,-348 1048.7674,-348 1048.7674,-348 1169.4316,-348 1169.4316,-348 1175.4316,-348 1181.4316,-354 1181.4316,-360 1181.4316,-360 1181.4316,-372 1181.4316,-372 1181.4316,-378 1175.4316,-384 1169.4316,-384"/>
<text text-anchor="middle" x="1109.0995" y="-363" font-family="sans" font-size="10.00" fill="#000000">get_complete_correct_cens_bed</text>
</g>
<!-- 30&#45;&gt;32 -->
<g id="edge69" class="edge">
<title>30&#45;&gt;32</title>
<path fill="none" stroke="#c0c0c0" stroke-width="2" d="M800.0233,-637.9166C817.3853,-631.7095 836.313,-624.229 853.0995,-616 923.4054,-581.5348 928.9299,-549.8742 1002.0995,-522 1057.679,-500.8268 1095.6558,-545.3813 1134.0995,-500 1159.3587,-470.1825 1141.63,-423.0783 1125.8612,-393.3946"/>
<polygon fill="#c0c0c0" stroke="#c0c0c0" stroke-width="2" points="1128.7859,-391.4521 1120.8673,-384.4131 1122.668,-394.8539 1128.7859,-391.4521"/>
</g>
<!-- 33 -->
<g id="node34" class="node">
<title>33</title>
<path fill="none" stroke="#afd856" stroke-width="2" d="M1039.0104,-442C1039.0104,-442 967.1886,-442 967.1886,-442 961.1886,-442 955.1886,-436 955.1886,-430 955.1886,-430 955.1886,-418 955.1886,-418 955.1886,-412 961.1886,-406 967.1886,-406 967.1886,-406 1039.0104,-406 1039.0104,-406 1045.0104,-406 1051.0104,-412 1051.0104,-418 1051.0104,-418 1051.0104,-430 1051.0104,-430 1051.0104,-436 1045.0104,-442 1039.0104,-442"/>
<text text-anchor="middle" x="1003.0995" y="-421" font-family="sans" font-size="10.00" fill="#000000">check_asm_nucflag</text>
</g>
<!-- 30&#45;&gt;33 -->
<g id="edge72" class="edge">
<title>30&#45;&gt;33</title>
<path fill="none" stroke="#c0c0c0" stroke-width="2" d="M766.3969,-637.9558C773.2496,-631.6511 780.2109,-624.1051 785.0995,-616 821.36,-555.8821 777.2067,-512.3623 828.0995,-464 844.8669,-448.0663 901.026,-437.1621 945.2581,-430.8119"/>
<polygon fill="#c0c0c0" stroke="#c0c0c0" stroke-width="2" points="945.9294,-434.2524 955.3532,-429.4106 944.9669,-427.3189 945.9294,-434.2524"/>
</g>
<!-- 37 -->
<g id="node38" class="node">
<title>37</title>
<path fill="none" stroke="#56d86b" stroke-width="2" d="M969.3948,-500C969.3948,-500 848.8042,-500 848.8042,-500 842.8042,-500 836.8042,-494 836.8042,-488 836.8042,-488 836.8042,-476 836.8042,-476 836.8042,-470 842.8042,-464 848.8042,-464 848.8042,-464 969.3948,-464 969.3948,-464 975.3948,-464 981.3948,-470 981.3948,-476 981.3948,-476 981.3948,-488 981.3948,-488 981.3948,-494 975.3948,-500 969.3948,-500"/>
<text text-anchor="middle" x="909.0995" y="-479" font-family="sans" font-size="10.00" fill="#000000">format_stv_nucflag_ignore_bed</text>
</g>
<!-- 30&#45;&gt;37 -->
<g id="edge77" class="edge">
<title>30&#45;&gt;37</title>
<path fill="none" stroke="#c0c0c0" stroke-width="2" d="M789.7718,-637.899C801.4478,-632.0204 813.3965,-624.7172 823.0995,-616 856.9082,-585.6262 882.763,-538.9954 896.9353,-509.5179"/>
<polygon fill="#c0c0c0" stroke="#c0c0c0" stroke-width="2" points="900.215,-510.7674 901.2884,-500.2271 893.8762,-507.7975 900.215,-510.7674"/>
</g>
<!-- 30&#45;&gt;39 -->
<g id="edge81" class="edge">
<title>30&#45;&gt;39</title>
<path fill="none" stroke="#c0c0c0" stroke-width="2" d="M803.8628,-647.2394C854.793,-639.6756 929.3596,-628.0862 994.0995,-616 995.1991,-615.7947 996.3063,-615.586 997.4199,-615.3743"/>
<polygon fill="#c0c0c0" stroke="#c0c0c0" stroke-width="2" points="998.4271,-618.7439 1007.5734,-613.3965 997.0887,-611.8731 998.4271,-618.7439"/>
</g>
<!-- 49 -->
<g id="node50" class="node">
<title>49</title>
<path fill="none" stroke="#56d892" stroke-width="2" d="M762.1815,-268C762.1815,-268 704.0175,-268 704.0175,-268 698.0175,-268 692.0175,-262 692.0175,-256 692.0175,-256 692.0175,-244 692.0175,-244 692.0175,-238 698.0175,-232 704.0175,-232 704.0175,-232 762.1815,-232 762.1815,-232 768.1815,-232 774.1815,-238 774.1815,-244 774.1815,-244 774.1815,-256 774.1815,-256 774.1815,-262 768.1815,-268 762.1815,-268"/>
<text text-anchor="middle" x="733.0995" y="-247" font-family="sans" font-size="10.00" fill="#000000">merge_cdr_beds</text>
</g>
<!-- 30&#45;&gt;49 -->
<g id="edge99" class="edge">
<title>30&#45;&gt;49</title>
<path fill="none" stroke="#c0c0c0" stroke-width="2" d="M750.3102,-637.8439C758.6064,-615.2826 771.0995,-575.4265 771.0995,-540 771.0995,-540 771.0995,-540 771.0995,-366 771.0995,-334.477 758.2698,-300.4227 747.5199,-277.4217"/>
<polygon fill="#c0c0c0" stroke="#c0c0c0" stroke-width="2" points="750.5985,-275.7489 743.0836,-268.2805 744.3009,-278.8052 750.5985,-275.7489"/>
</g>
<!-- 30&#45;&gt;55 -->
<g id="edge109" class="edge">
<title>30&#45;&gt;55</title>
<path fill="none" stroke="#c0c0c0" stroke-width="2" d="M715.4272,-637.9664C707.4741,-632.7834 698.6799,-627.0524 690.2938,-621.5873"/>
<polygon fill="#c0c0c0" stroke="#c0c0c0" stroke-width="2" points="692.0436,-618.55 681.7547,-616.0225 688.2217,-624.4146 692.0436,-618.55"/>
</g>
<!-- 56 -->
<g id="node57" class="node">
<title>56</title>
<path fill="none" stroke="#d8b456" stroke-width="2" d="M731.5695,-558C731.5695,-558 664.6295,-558 664.6295,-558 658.6295,-558 652.6295,-552 652.6295,-546 652.6295,-546 652.6295,-534 652.6295,-534 652.6295,-528 658.6295,-522 664.6295,-522 664.6295,-522 731.5695,-522 731.5695,-522 737.5695,-522 743.5695,-528 743.5695,-534 743.5695,-534 743.5695,-546 743.5695,-546 743.5695,-552 737.5695,-558 731.5695,-558"/>
<text text-anchor="middle" x="698.0995" y="-537" font-family="sans" font-size="10.00" fill="#000000">cdr_calc_windows</text>
</g>
<!-- 30&#45;&gt;56 -->
<g id="edge111" class="edge">
<title>30&#45;&gt;56</title>
<path fill="none" stroke="#c0c0c0" stroke-width="2" d="M736.0683,-637.875C728.7799,-619.0873 717.2945,-589.4805 708.8629,-567.7457"/>
<polygon fill="#c0c0c0" stroke="#c0c0c0" stroke-width="2" points="712.1097,-566.4377 705.2299,-558.3805 705.5836,-568.9695 712.1097,-566.4377"/>
</g>
<!-- 30&#45;&gt;57 -->
<g id="edge114" class="edge">
<title>30&#45;&gt;57</title>
<path fill="none" stroke="#c0c0c0" stroke-width="2" d="M682.3482,-645.8469C613.2861,-634.2965 509.4652,-616.9038 505.0995,-616 503.8413,-615.7395 502.5718,-615.4725 501.294,-615.1997"/>
<polygon fill="#c0c0c0" stroke="#c0c0c0" stroke-width="2" points="501.896,-611.7484 491.3768,-613.012 500.388,-618.5841 501.896,-611.7484"/>
</g>
<!-- 31&#45;&gt;27 -->
<g id="edge58" class="edge">
<title>31&#45;&gt;27</title>
<path fill="none" stroke="#c0c0c0" stroke-width="2" d="M368.7718,-231.9664C376.7249,-226.7834 385.5191,-221.0524 393.9052,-215.5873"/>
<polygon fill="#c0c0c0" stroke="#c0c0c0" stroke-width="2" points="395.9773,-218.4146 402.4443,-210.0225 392.1554,-212.55 395.9773,-218.4146"/>
</g>
<!-- 32&#45;&gt;0 -->
<g id="edge22" class="edge">
<title>32&#45;&gt;0</title>
<path fill="none" stroke="#c0c0c0" stroke-width="2" d="M1036.7225,-356.1123C1003.1097,-349.9731 963.1449,-340.4224 929.0995,-326 918.3166,-321.4321 760.5885,-219.0028 753.0995,-210 717.3081,-166.9742 715.2095,-148.8527 704.0995,-94 700.9233,-78.3184 693.8051,-70.2485 704.0995,-58 728.1172,-29.4234 836.9978,-21.2597 895.5561,-18.9294"/>
<polygon fill="#c0c0c0" stroke="#c0c0c0" stroke-width="2" points="896.005,-22.4157 905.8728,-18.5586 895.7534,-15.4202 896.005,-22.4157"/>
</g>
<!-- 32&#45;&gt;41 -->
<g id="edge83" class="edge">
<title>32&#45;&gt;41</title>
<path fill="none" stroke="#c0c0c0" stroke-width="2" d="M1151.6962,-347.9664C1165.0985,-342.2924 1180.0522,-335.9616 1194.0349,-330.0419"/>
<polygon fill="#c0c0c0" stroke="#c0c0c0" stroke-width="2" points="1195.6849,-333.1442 1203.5292,-326.0225 1192.9559,-326.6981 1195.6849,-333.1442"/>
</g>
<!-- 44 -->
<g id="node45" class="node">
<title>44</title>
<path fill="none" stroke="#70d856" stroke-width="2" d="M1146.6575,-326C1146.6575,-326 1023.5415,-326 1023.5415,-326 1017.5415,-326 1011.5415,-320 1011.5415,-314 1011.5415,-314 1011.5415,-302 1011.5415,-302 1011.5415,-296 1017.5415,-290 1023.5415,-290 1023.5415,-290 1146.6575,-290 1146.6575,-290 1152.6575,-290 1158.6575,-296 1158.6575,-302 1158.6575,-302 1158.6575,-314 1158.6575,-314 1158.6575,-320 1152.6575,-326 1146.6575,-326"/>
<text text-anchor="middle" x="1085.0995" y="-305" font-family="sans" font-size="10.00" fill="#000000">filter_complete_correct_stv_row</text>
</g>
<!-- 32&#45;&gt;44 -->
<g id="edge87" class="edge">
<title>32&#45;&gt;44</title>
<path fill="none" stroke="#c0c0c0" stroke-width="2" d="M1101.6373,-347.9664C1100.0274,-344.0757 1098.2896,-339.8761 1096.5665,-335.712"/>
<polygon fill="#c0c0c0" stroke="#c0c0c0" stroke-width="2" points="1099.6974,-334.1242 1092.6397,-326.2222 1093.2293,-336.8007 1099.6974,-334.1242"/>
</g>
<!-- 32&#45;&gt;69 -->
<g id="edge127" class="edge">
<title>32&#45;&gt;69</title>
<path fill="none" stroke="#c0c0c0" stroke-width="2" d="M1181.841,-353.6997C1249.1815,-342.3127 1347.3384,-325.7147 1404.9665,-315.97"/>
<polygon fill="#c0c0c0" stroke="#c0c0c0" stroke-width="2" points="1405.6165,-319.4099 1414.893,-314.2915 1404.4494,-312.5078 1405.6165,-319.4099"/>
</g>
<!-- 33&#45;&gt;0 -->
<g id="edge9" class="edge">
<title>33&#45;&gt;0</title>
<path fill="none" stroke="#c0c0c0" stroke-width="2" d="M999.9558,-405.7663C988.8524,-341.367 951.4248,-124.2869 937.9689,-46.2427"/>
<polygon fill="#c0c0c0" stroke="#c0c0c0" stroke-width="2" points="941.3828,-45.4434 936.2346,-36.1835 934.4846,-46.6328 941.3828,-45.4434"/>
</g>
<!-- 33&#45;&gt;32 -->
<g id="edge68" class="edge">
<title>33&#45;&gt;32</title>
<path fill="none" stroke="#c0c0c0" stroke-width="2" d="M1036.0575,-405.9664C1045.9286,-400.5652 1056.8875,-394.5688 1067.2506,-388.8985"/>
<polygon fill="#c0c0c0" stroke="#c0c0c0" stroke-width="2" points="1069.0693,-391.8931 1076.1619,-384.0225 1065.7092,-385.7522 1069.0693,-391.8931"/>
</g>
<!-- 34 -->
<g id="node35" class="node">
<title>34</title>
<path fill="none" stroke="#56d8a2" stroke-width="2" d="M1142.7826,-674C1142.7826,-674 1033.4164,-674 1033.4164,-674 1027.4164,-674 1021.4164,-668 1021.4164,-662 1021.4164,-662 1021.4164,-650 1021.4164,-650 1021.4164,-644 1027.4164,-638 1033.4164,-638 1033.4164,-638 1142.7826,-638 1142.7826,-638 1148.7826,-638 1154.7826,-644 1154.7826,-650 1154.7826,-650 1154.7826,-662 1154.7826,-662 1154.7826,-668 1148.7826,-674 1142.7826,-674"/>
<text text-anchor="middle" x="1088.0995" y="-653" font-family="sans" font-size="10.00" fill="#000000">merge_read_asm_alignments</text>
</g>
<!-- 34&#45;&gt;33 -->
<g id="edge70" class="edge">
<title>34&#45;&gt;33</title>
<path fill="none" stroke="#c0c0c0" stroke-width="2" d="M1135.0276,-637.7824C1143.846,-632.1572 1151.915,-624.9982 1157.0995,-616 1191.2095,-556.799 1181.7511,-512.965 1134.0995,-464 1123.5203,-453.1292 1090.951,-443.1592 1060.9365,-435.892"/>
<polygon fill="#c0c0c0" stroke="#c0c0c0" stroke-width="2" points="1061.4264,-432.4119 1050.8911,-433.5336 1059.8265,-439.2266 1061.4264,-432.4119"/>
</g>
<!-- 35 -->
<g id="node36" class="node">
<title>35</title>
<path fill="none" stroke="#d86e56" stroke-width="2" d="M1118.0785,-732C1118.0785,-732 1046.1205,-732 1046.1205,-732 1040.1205,-732 1034.1205,-726 1034.1205,-720 1034.1205,-720 1034.1205,-708 1034.1205,-708 1034.1205,-702 1040.1205,-696 1046.1205,-696 1046.1205,-696 1118.0785,-696 1118.0785,-696 1124.0785,-696 1130.0785,-702 1130.0785,-708 1130.0785,-708 1130.0785,-720 1130.0785,-720 1130.0785,-726 1124.0785,-732 1118.0785,-732"/>
<text text-anchor="middle" x="1082.0995" y="-711" font-family="sans" font-size="10.00" fill="#000000">align_reads_to_asm</text>
</g>
<!-- 35&#45;&gt;34 -->
<g id="edge74" class="edge">
<title>35&#45;&gt;34</title>
<path fill="none" stroke="#c0c0c0" stroke-width="2" d="M1083.965,-695.9664C1084.3452,-692.2918 1084.7538,-688.3418 1085.1609,-684.4063"/>
<polygon fill="#c0c0c0" stroke="#c0c0c0" stroke-width="2" points="1088.6668,-684.5293 1086.2144,-674.2222 1081.7039,-683.809 1088.6668,-684.5293"/>
</g>
<!-- 36&#45;&gt;35 -->
<g id="edge75" class="edge">
<title>36&#45;&gt;35</title>
<path fill="none" stroke="#c0c0c0" stroke-width="2" d="M1006.9903,-753.9664C1017.2433,-748.5106 1028.6376,-742.4476 1039.3889,-736.7267"/>
<polygon fill="#c0c0c0" stroke="#c0c0c0" stroke-width="2" points="1041.0458,-739.8098 1048.2297,-732.0225 1037.7575,-733.6302 1041.0458,-739.8098"/>
</g>
<!-- 37&#45;&gt;33 -->
<g id="edge71" class="edge">
<title>37&#45;&gt;33</title>
<path fill="none" stroke="#c0c0c0" stroke-width="2" d="M938.3264,-463.9664C946.8148,-458.7289 956.2102,-452.9317 965.1513,-447.4148"/>
<polygon fill="#c0c0c0" stroke="#c0c0c0" stroke-width="2" points="967.2182,-450.2522 973.8907,-442.0225 963.5424,-444.295 967.2182,-450.2522"/>
</g>
<!-- 38 -->
<g id="node39" class="node">
<title>38</title>
<path fill="none" stroke="#5692d8" stroke-width="2" d="M1129.5755,-558C1129.5755,-558 1022.6235,-558 1022.6235,-558 1016.6235,-558 1010.6235,-552 1010.6235,-546 1010.6235,-546 1010.6235,-534 1010.6235,-534 1010.6235,-528 1016.6235,-522 1022.6235,-522 1022.6235,-522 1129.5755,-522 1129.5755,-522 1135.5755,-522 1141.5755,-528 1141.5755,-534 1141.5755,-534 1141.5755,-546 1141.5755,-546 1141.5755,-552 1135.5755,-558 1129.5755,-558"/>
<text text-anchor="middle" x="1076.0995" y="-537" font-family="sans" font-size="10.00" fill="#000000">split_cens_for_humas_annot</text>
</g>
<!-- 38&#45;&gt;37 -->
<g id="edge78" class="edge">
<title>38&#45;&gt;37</title>
<path fill="none" stroke="#c0c0c0" stroke-width="2" d="M1024.1751,-521.9664C1007.2096,-516.0742 988.2047,-509.4737 970.6038,-503.3608"/>
<polygon fill="#c0c0c0" stroke="#c0c0c0" stroke-width="2" points="971.5866,-499.9971 960.9918,-500.0225 969.29,-506.6096 971.5866,-499.9971"/>
</g>
<!-- 40 -->
<g id="node41" class="node">
<title>40</title>
<path fill="none" stroke="#56d873" stroke-width="2" d="M1113.1274,-500C1113.1274,-500 1011.0716,-500 1011.0716,-500 1005.0716,-500 999.0716,-494 999.0716,-488 999.0716,-488 999.0716,-476 999.0716,-476 999.0716,-470 1005.0716,-464 1011.0716,-464 1011.0716,-464 1113.1274,-464 1113.1274,-464 1119.1274,-464 1125.1274,-470 1125.1274,-476 1125.1274,-476 1125.1274,-488 1125.1274,-488 1125.1274,-494 1119.1274,-500 1113.1274,-500"/>
<text text-anchor="middle" x="1062.0995" y="-479" font-family="sans" font-size="10.00" fill="#000000">format_stv_to_overlay_bed</text>
</g>
<!-- 38&#45;&gt;40 -->
<g id="edge82" class="edge">
<title>38&#45;&gt;40</title>
<path fill="none" stroke="#c0c0c0" stroke-width="2" d="M1071.7466,-521.9664C1070.8335,-518.1837 1069.85,-514.1092 1068.8724,-510.0591"/>
<polygon fill="#c0c0c0" stroke="#c0c0c0" stroke-width="2" points="1072.2467,-509.1218 1066.498,-500.2222 1065.4422,-510.7643 1072.2467,-509.1218"/>
</g>
<!-- 42 -->
<g id="node43" class="node">
<title>42</title>
<path fill="none" stroke="#56a2d8" stroke-width="2" d="M1364.7542,-442C1364.7542,-442 1301.4448,-442 1301.4448,-442 1295.4448,-442 1289.4448,-436 1289.4448,-430 1289.4448,-430 1289.4448,-418 1289.4448,-418 1289.4448,-412 1295.4448,-406 1301.4448,-406 1301.4448,-406 1364.7542,-406 1364.7542,-406 1370.7542,-406 1376.7542,-412 1376.7542,-418 1376.7542,-418 1376.7542,-430 1376.7542,-430 1376.7542,-436 1370.7542,-442 1364.7542,-442"/>
<text text-anchor="middle" x="1333.0995" y="-421" font-family="sans" font-size="10.00" fill="#000000">run_humas_annot</text>
</g>
<!-- 38&#45;&gt;42 -->
<g id="edge85" class="edge">
<title>38&#45;&gt;42</title>
<path fill="none" stroke="#c0c0c0" stroke-width="2" d="M1117.8366,-521.8128C1133.3305,-515.0194 1151.0392,-507.2057 1167.0995,-500 1206.7122,-482.2272 1251.4598,-461.7148 1284.506,-446.4831"/>
<polygon fill="#c0c0c0" stroke="#c0c0c0" stroke-width="2" points="1286.3193,-449.5012 1293.9339,-442.1345 1283.3874,-443.1447 1286.3193,-449.5012"/>
</g>
<!-- 39&#45;&gt;38 -->
<g id="edge79" class="edge">
<title>39&#45;&gt;38</title>
<path fill="none" stroke="#c0c0c0" stroke-width="2" d="M1077.4777,-579.9664C1077.3509,-576.2918 1077.2147,-572.3418 1077.079,-568.4063"/>
<polygon fill="#c0c0c0" stroke="#c0c0c0" stroke-width="2" points="1080.5705,-568.0956 1076.7279,-558.2222 1073.5746,-568.337 1080.5705,-568.0956"/>
</g>
<!-- 40&#45;&gt;33 -->
<g id="edge73" class="edge">
<title>40&#45;&gt;33</title>
<path fill="none" stroke="#c0c0c0" stroke-width="2" d="M1043.7549,-463.9664C1039.0276,-459.3191 1033.852,-454.2313 1028.8251,-449.2895"/>
<polygon fill="#c0c0c0" stroke="#c0c0c0" stroke-width="2" points="1031.2208,-446.7367 1021.6359,-442.2222 1026.3135,-451.7286 1031.2208,-446.7367"/>
</g>
<!-- 41&#45;&gt;0 -->
<g id="edge10" class="edge">
<title>41&#45;&gt;0</title>
<path fill="none" stroke="#c0c0c0" stroke-width="2" d="M1255.6803,-289.7364C1282.0774,-238.2185 1351.8563,-93.2083 1320.0995,-58 1296.9032,-32.2825 1062.4788,-22.0984 970.1678,-19.0652"/>
<polygon fill="#c0c0c0" stroke="#c0c0c0" stroke-width="2" points="970.2548,-15.5663 960.1484,-18.7459 970.0318,-22.5627 970.2548,-15.5663"/>
</g>
<!-- 42&#45;&gt;0 -->
<g id="edge18" class="edge">
<title>42&#45;&gt;0</title>
<path fill="none" stroke="#c0c0c0" stroke-width="2" d="M1377.1721,-416.2513C1431.6069,-403.8547 1517.0995,-373.8959 1517.0995,-308 1517.0995,-308 1517.0995,-308 1517.0995,-134 1517.0995,-90.6878 1494.4088,-78.2076 1456.0995,-58 1413.4279,-35.4914 1083.0245,-22.8381 970.492,-19.1476"/>
<polygon fill="#c0c0c0" stroke="#c0c0c0" stroke-width="2" points="970.4067,-15.6431 960.2989,-18.8184 970.1807,-22.6395 970.4067,-15.6431"/>
</g>
<!-- 43 -->
<g id="node44" class="node">
<title>43</title>
<path fill="none" stroke="#d86656" stroke-width="2" d="M1390.3318,-384C1390.3318,-384 1275.8672,-384 1275.8672,-384 1269.8672,-384 1263.8672,-378 1263.8672,-372 1263.8672,-372 1263.8672,-360 1263.8672,-360 1263.8672,-354 1269.8672,-348 1275.8672,-348 1275.8672,-348 1390.3318,-348 1390.3318,-348 1396.3318,-348 1402.3318,-354 1402.3318,-360 1402.3318,-360 1402.3318,-372 1402.3318,-372 1402.3318,-378 1396.3318,-384 1390.3318,-384"/>
<text text-anchor="middle" x="1333.0995" y="-363" font-family="sans" font-size="10.00" fill="#000000">aggregate_format_all_stv_row</text>
</g>
<!-- 42&#45;&gt;43 -->
<g id="edge86" class="edge">
<title>42&#45;&gt;43</title>
<path fill="none" stroke="#c0c0c0" stroke-width="2" d="M1333.0995,-405.9664C1333.0995,-402.2918 1333.0995,-398.3418 1333.0995,-394.4063"/>
<polygon fill="#c0c0c0" stroke="#c0c0c0" stroke-width="2" points="1336.5996,-394.2222 1333.0995,-384.2222 1329.5996,-394.2223 1336.5996,-394.2222"/>
</g>
<!-- 43&#45;&gt;0 -->
<g id="edge7" class="edge">
<title>43&#45;&gt;0</title>
<path fill="none" stroke="#c0c0c0" stroke-width="2" d="M1336.5583,-347.6928C1347.376,-288.0145 1377.6194,-100.5014 1339.0995,-58 1314.5722,-30.9375 1065.9925,-21.5171 970.3363,-18.8782"/>
<polygon fill="#c0c0c0" stroke="#c0c0c0" stroke-width="2" points="970.3329,-15.377 960.2432,-18.6095 970.1465,-22.3745 970.3329,-15.377"/>
</g>
<!-- 43&#45;&gt;44 -->
<g id="edge88" class="edge">
<title>43&#45;&gt;44</title>
<path fill="none" stroke="#c0c0c0" stroke-width="2" d="M1263.6879,-349.7666C1234.2071,-342.8719 1199.5831,-334.7744 1168.7093,-327.5539"/>
<polygon fill="#c0c0c0" stroke="#c0c0c0" stroke-width="2" points="1169.3627,-324.1123 1158.8284,-325.243 1167.7685,-330.9284 1169.3627,-324.1123"/>
</g>
<!-- 48 -->
<g id="node49" class="node">
<title>48</title>
<path fill="none" stroke="#80d856" stroke-width="2" d="M871.6354,-210C871.6354,-210 774.5636,-210 774.5636,-210 768.5636,-210 762.5636,-204 762.5636,-198 762.5636,-198 762.5636,-186 762.5636,-186 762.5636,-180 768.5636,-174 774.5636,-174 774.5636,-174 871.6354,-174 871.6354,-174 877.6354,-174 883.6354,-180 883.6354,-186 883.6354,-186 883.6354,-198 883.6354,-198 883.6354,-204 877.6354,-210 871.6354,-210"/>
<text text-anchor="middle" x="823.0995" y="-189" font-family="sans" font-size="10.00" fill="#000000">filter_annotations_hor_stv</text>
</g>
<!-- 43&#45;&gt;48 -->
<g id="edge95" class="edge">
<title>43&#45;&gt;48</title>
<path fill="none" stroke="#c0c0c0" stroke-width="2" d="M1263.6538,-357.135C1240.2882,-354.1852 1214.0699,-350.9111 1190.0995,-348 1106.5874,-337.8578 1081.6864,-353.2591 1002.0995,-326 938.1807,-304.1073 878.4368,-250.045 846.7359,-217.6747"/>
<polygon fill="#c0c0c0" stroke="#c0c0c0" stroke-width="2" points="849.1235,-215.1084 839.6646,-210.3355 844.0825,-219.9653 849.1235,-215.1084"/>
</g>
<!-- 63 -->
<g id="node64" class="node">
<title>63</title>
<path fill="none" stroke="#56d8b1" stroke-width="2" d="M1438.9836,-210C1438.9836,-210 1383.2154,-210 1383.2154,-210 1377.2154,-210 1371.2154,-204 1371.2154,-198 1371.2154,-198 1371.2154,-186 1371.2154,-186 1371.2154,-180 1377.2154,-174 1383.2154,-174 1383.2154,-174 1438.9836,-174 1438.9836,-174 1444.9836,-174 1450.9836,-180 1450.9836,-186 1450.9836,-186 1450.9836,-198 1450.9836,-198 1450.9836,-204 1444.9836,-210 1438.9836,-210"/>
<text text-anchor="middle" x="1411.0995" y="-189" font-family="sans" font-size="10.00" fill="#000000">moddotplot_chr</text>
</g>
<!-- 43&#45;&gt;63 -->
<g id="edge121" class="edge">
<title>43&#45;&gt;63</title>
<path fill="none" stroke="#c0c0c0" stroke-width="2" d="M1344.9548,-347.6192C1349.0401,-340.94 1353.4915,-333.2504 1357.0995,-326 1374.8357,-290.3586 1391.3369,-247.4019 1401.3166,-219.9021"/>
<polygon fill="#c0c0c0" stroke="#c0c0c0" stroke-width="2" points="1404.7267,-220.7613 1404.811,-210.1668 1398.1383,-218.3964 1404.7267,-220.7613"/>
</g>
<!-- 44&#45;&gt;0 -->
<g id="edge23" class="edge">
<title>44&#45;&gt;0</title>
<path fill="none" stroke="#c0c0c0" stroke-width="2" d="M1044.6813,-289.981C1035.1795,-284.135 1025.8637,-276.827 1019.0995,-268 976.322,-212.1766 998.7741,-182.2245 975.0995,-116 966.4107,-91.695 954.7264,-64.7919 945.8877,-45.332"/>
<polygon fill="#c0c0c0" stroke="#c0c0c0" stroke-width="2" points="949.0291,-43.7858 941.6796,-36.1546 942.6661,-46.7034 949.0291,-43.7858"/>
</g>
<!-- 44&#45;&gt;48 -->
<g id="edge96" class="edge">
<title>44&#45;&gt;48</title>
<path fill="none" stroke="#c0c0c0" stroke-width="2" d="M1038.3142,-289.9371C1021.4523,-283.2559 1002.3372,-275.4834 985.0995,-268 945.6761,-250.8851 901.5518,-230.0733 869.3205,-214.5584"/>
<polygon fill="#c0c0c0" stroke="#c0c0c0" stroke-width="2" points="870.6666,-211.3218 860.1393,-210.1274 867.624,-217.626 870.6666,-211.3218"/>
</g>
<!-- 65 -->
<g id="node66" class="node">
<title>65</title>
<path fill="none" stroke="#d89556" stroke-width="2" d="M1129.7857,-268C1129.7857,-268 1040.4133,-268 1040.4133,-268 1034.4133,-268 1028.4133,-262 1028.4133,-256 1028.4133,-256 1028.4133,-244 1028.4133,-244 1028.4133,-238 1034.4133,-232 1040.4133,-232 1040.4133,-232 1129.7857,-232 1129.7857,-232 1135.7857,-232 1141.7857,-238 1141.7857,-244 1141.7857,-244 1141.7857,-256 1141.7857,-256 1141.7857,-262 1135.7857,-268 1129.7857,-268"/>
<text text-anchor="middle" x="1085.0995" y="-247" font-family="sans" font-size="10.00" fill="#000000">calculate_as_hor_length</text>
</g>
<!-- 44&#45;&gt;65 -->
<g id="edge123" class="edge">
<title>44&#45;&gt;65</title>
<path fill="none" stroke="#c0c0c0" stroke-width="2" d="M1085.0995,-289.9664C1085.0995,-286.2918 1085.0995,-282.3418 1085.0995,-278.4063"/>
<polygon fill="#c0c0c0" stroke="#c0c0c0" stroke-width="2" points="1088.5996,-278.2222 1085.0995,-268.2222 1081.5996,-278.2223 1088.5996,-278.2222"/>
</g>
<!-- 45 -->
<g id="node46" class="node">
<title>45</title>
<path fill="none" stroke="#8fd856" stroke-width="2" d="M590.7766,-268C590.7766,-268 471.4224,-268 471.4224,-268 465.4224,-268 459.4224,-262 459.4224,-256 459.4224,-256 459.4224,-244 459.4224,-244 459.4224,-238 465.4224,-232 471.4224,-232 471.4224,-232 590.7766,-232 590.7766,-232 596.7766,-232 602.7766,-238 602.7766,-244 602.7766,-244 602.7766,-256 602.7766,-256 602.7766,-262 596.7766,-268 590.7766,-268"/>
<text text-anchor="middle" x="531.0995" y="-247" font-family="sans" font-size="10.00" fill="#000000">create_rm_satellite_annotations</text>
</g>
<!-- 45&#45;&gt;0 -->
<g id="edge3" class="edge">
<title>45&#45;&gt;0</title>
<path fill="none" stroke="#c0c0c0" stroke-width="2" d="M528.3771,-231.6664C525.2505,-204.8931 522.5845,-154.1399 540.0995,-116 555.4451,-82.5842 565.9577,-73.9286 599.0995,-58 650.8798,-33.1135 820.3477,-22.8534 896.024,-19.437"/>
<polygon fill="#c0c0c0" stroke="#c0c0c0" stroke-width="2" points="896.2197,-22.9319 906.0577,-18.9996 895.9147,-15.9386 896.2197,-22.9319"/>
</g>
<!-- 45&#45;&gt;48 -->
<g id="edge97" class="edge">
<title>45&#45;&gt;48</title>
<path fill="none" stroke="#c0c0c0" stroke-width="2" d="M602.9047,-235.7373C648.4321,-226.6942 707.069,-215.0472 752.3848,-206.0461"/>
<polygon fill="#c0c0c0" stroke="#c0c0c0" stroke-width="2" points="753.3001,-209.4327 762.4266,-204.0515 751.9363,-202.5669 753.3001,-209.4327"/>
</g>
<!-- 46&#45;&gt;45 -->
<g id="edge89" class="edge">
<title>46&#45;&gt;45</title>
<path fill="none" stroke="#c0c0c0" stroke-width="2" d="M532.4777,-289.9664C532.3509,-286.2918 532.2147,-282.3418 532.079,-278.4063"/>
<polygon fill="#c0c0c0" stroke="#c0c0c0" stroke-width="2" points="535.5705,-278.0956 531.7279,-268.2222 528.5746,-278.337 535.5705,-278.0956"/>
</g>
<!-- 47 -->
<g id="node48" class="node">
<title>47</title>
<path fill="none" stroke="#56d0d8" stroke-width="2" d="M767.156,-94C767.156,-94 725.043,-94 725.043,-94 719.043,-94 713.043,-88 713.043,-82 713.043,-82 713.043,-70 713.043,-70 713.043,-64 719.043,-58 725.043,-58 725.043,-58 767.156,-58 767.156,-58 773.156,-58 779.156,-64 779.156,-70 779.156,-70 779.156,-82 779.156,-82 779.156,-88 773.156,-94 767.156,-94"/>
<text text-anchor="middle" x="746.0995" y="-73" font-family="sans" font-size="10.00" fill="#000000">plot_hor_stv</text>
</g>
<!-- 47&#45;&gt;0 -->
<g id="edge20" class="edge">
<title>47&#45;&gt;0</title>
<path fill="none" stroke="#c0c0c0" stroke-width="2" d="M779.4088,-61.2408C782.3287,-60.0944 785.2545,-58.9969 788.0995,-58 824.2541,-45.3315 866.5888,-34.0467 896.1474,-26.7201"/>
<polygon fill="#c0c0c0" stroke="#c0c0c0" stroke-width="2" points="897.1583,-30.076 906.0387,-24.2978 895.4932,-23.2769 897.1583,-30.076"/>
</g>
<!-- 48&#45;&gt;47 -->
<g id="edge92" class="edge">
<title>48&#45;&gt;47</title>
<path fill="none" stroke="#c0c0c0" stroke-width="2" d="M765.7244,-173.8644C756.3289,-168.334 747.8116,-161.1914 742.0995,-152 733.3165,-137.8671 734.143,-119.2467 737.2499,-103.9743"/>
<polygon fill="#c0c0c0" stroke="#c0c0c0" stroke-width="2" points="740.7055,-104.5769 739.6751,-94.0323 733.9049,-102.918 740.7055,-104.5769"/>
</g>
<!-- 61 -->
<g id="node62" class="node">
<title>61</title>
<path fill="none" stroke="#56d8b9" stroke-width="2" d="M882.7946,-152C882.7946,-152 763.4044,-152 763.4044,-152 757.4044,-152 751.4044,-146 751.4044,-140 751.4044,-140 751.4044,-128 751.4044,-128 751.4044,-122 757.4044,-116 763.4044,-116 763.4044,-116 882.7946,-116 882.7946,-116 888.7946,-116 894.7946,-122 894.7946,-128 894.7946,-128 894.7946,-140 894.7946,-140 894.7946,-146 888.7946,-152 882.7946,-152"/>
<text text-anchor="middle" x="823.0995" y="-131" font-family="sans" font-size="10.00" fill="#000000">modify_hor_stv_cenplot_tracks</text>
</g>
<!-- 48&#45;&gt;61 -->
<g id="edge118" class="edge">
<title>48&#45;&gt;61</title>
<path fill="none" stroke="#c0c0c0" stroke-width="2" d="M823.0995,-173.9664C823.0995,-170.2918 823.0995,-166.3418 823.0995,-162.4063"/>
<polygon fill="#c0c0c0" stroke="#c0c0c0" stroke-width="2" points="826.5996,-162.2222 823.0995,-152.2222 819.5996,-162.2223 826.5996,-162.2222"/>
</g>
<!-- 62 -->
<g id="node63" class="node">
<title>62</title>
<path fill="none" stroke="#56c9d8" stroke-width="2" d="M893.3087,-94C893.3087,-94 808.8903,-94 808.8903,-94 802.8903,-94 796.8903,-88 796.8903,-82 796.8903,-82 796.8903,-70 796.8903,-70 796.8903,-64 802.8903,-58 808.8903,-58 808.8903,-58 893.3087,-58 893.3087,-58 899.3087,-58 905.3087,-64 905.3087,-70 905.3087,-70 905.3087,-82 905.3087,-82 905.3087,-88 899.3087,-94 893.3087,-94"/>
<text text-anchor="middle" x="851.0995" y="-73" font-family="sans" font-size="10.00" fill="#000000">plot_hor_stv_complete</text>
</g>
<!-- 48&#45;&gt;62 -->
<g id="edge119" class="edge">
<title>48&#45;&gt;62</title>
<path fill="none" stroke="#c0c0c0" stroke-width="2" d="M880.4746,-173.8644C889.8701,-168.334 898.3874,-161.1914 904.0995,-152 912.5449,-138.4104 911.2334,-130.3216 904.0995,-116 901.2661,-110.3119 897.1955,-105.2187 892.5518,-100.728"/>
<polygon fill="#c0c0c0" stroke="#c0c0c0" stroke-width="2" points="894.7538,-98.0058 884.8784,-94.1682 890.2052,-103.3266 894.7538,-98.0058"/>
</g>
<!-- 49&#45;&gt;0 -->
<g id="edge16" class="edge">
<title>49&#45;&gt;0</title>
<path fill="none" stroke="#c0c0c0" stroke-width="2" d="M717.1068,-231.886C686.474,-194.96 626.3661,-110.0813 671.0995,-58 685.5717,-41.1506 827.2624,-26.9628 896.0295,-21.0071"/>
<polygon fill="#c0c0c0" stroke="#c0c0c0" stroke-width="2" points="896.3498,-24.4926 906.0163,-20.1557 895.7551,-17.5179 896.3498,-24.4926"/>
</g>
<!-- 49&#45;&gt;48 -->
<g id="edge94" class="edge">
<title>49&#45;&gt;48</title>
<path fill="none" stroke="#c0c0c0" stroke-width="2" d="M761.0827,-231.9664C769.1252,-226.7834 778.0182,-221.0524 786.4985,-215.5873"/>
<polygon fill="#c0c0c0" stroke="#c0c0c0" stroke-width="2" points="788.6238,-218.3815 795.1336,-210.0225 784.8319,-212.4975 788.6238,-218.3815"/>
</g>
<!-- 50 -->
<g id="node51" class="node">
<title>50</title>
<path fill="none" stroke="#d8b456" stroke-width="2" d="M692.9606,-326C692.9606,-326 647.2384,-326 647.2384,-326 641.2384,-326 635.2384,-320 635.2384,-314 635.2384,-314 635.2384,-302 635.2384,-302 635.2384,-296 641.2384,-290 647.2384,-290 647.2384,-290 692.9606,-290 692.9606,-290 698.9606,-290 704.9606,-296 704.9606,-302 704.9606,-302 704.9606,-314 704.9606,-314 704.9606,-320 698.9606,-326 692.9606,-326"/>
<text text-anchor="middle" x="670.0995" y="-305" font-family="sans" font-size="10.00" fill="#000000">cdr_call_cdrs</text>
</g>
<!-- 50&#45;&gt;49 -->
<g id="edge100" class="edge">
<title>50&#45;&gt;49</title>
<path fill="none" stroke="#c0c0c0" stroke-width="2" d="M689.6878,-289.9664C694.7356,-285.3191 700.2621,-280.2313 705.6298,-275.2895"/>
<polygon fill="#c0c0c0" stroke="#c0c0c0" stroke-width="2" points="708.32,-277.5703 713.3064,-268.2222 703.5788,-272.4204 708.32,-277.5703"/>
</g>
<!-- 70 -->
<g id="node71" class="node">
<title>70</title>
<path fill="none" stroke="#d8bc56" stroke-width="2" d="M607.5825,-152C607.5825,-152 560.6165,-152 560.6165,-152 554.6165,-152 548.6165,-146 548.6165,-140 548.6165,-140 548.6165,-128 548.6165,-128 548.6165,-122 554.6165,-116 560.6165,-116 560.6165,-116 607.5825,-116 607.5825,-116 613.5825,-116 619.5825,-122 619.5825,-128 619.5825,-128 619.5825,-140 619.5825,-140 619.5825,-146 613.5825,-152 607.5825,-152"/>
<text text-anchor="middle" x="584.0995" y="-131" font-family="sans" font-size="10.00" fill="#000000">cdr_cdr_plots</text>
</g>
<!-- 50&#45;&gt;70 -->
<g id="edge129" class="edge">
<title>50&#45;&gt;70</title>
<path fill="none" stroke="#c0c0c0" stroke-width="2" d="M661.0585,-289.7078C645.9215,-259.0818 615.37,-197.2682 597.6527,-161.4216"/>
<polygon fill="#c0c0c0" stroke="#c0c0c0" stroke-width="2" points="600.5879,-159.4611 593.0193,-152.0471 594.3126,-162.5627 600.5879,-159.4611"/>
</g>
<!-- 51 -->
<g id="node52" class="node">
<title>51</title>
<path fill="none" stroke="#d8d356" stroke-width="2" d="M693.2977,-384C693.2977,-384 628.9013,-384 628.9013,-384 622.9013,-384 616.9013,-378 616.9013,-372 616.9013,-372 616.9013,-360 616.9013,-360 616.9013,-354 622.9013,-348 628.9013,-348 628.9013,-348 693.2977,-348 693.2977,-348 699.2977,-348 705.2977,-354 705.2977,-360 705.2977,-360 705.2977,-372 705.2977,-372 705.2977,-378 699.2977,-384 693.2977,-384"/>
<text text-anchor="middle" x="661.0995" y="-363" font-family="sans" font-size="10.00" fill="#000000">cdr_intersect_RM</text>
</g>
<!-- 51&#45;&gt;50 -->
<g id="edge101" class="edge">
<title>51&#45;&gt;50</title>
<path fill="none" stroke="#c0c0c0" stroke-width="2" d="M663.8978,-347.9664C664.468,-344.2918 665.081,-340.3418 665.6916,-336.4063"/>
<polygon fill="#c0c0c0" stroke="#c0c0c0" stroke-width="2" points="669.1971,-336.6407 667.2719,-326.2222 662.2798,-335.5673 669.1971,-336.6407"/>
</g>
<!-- 52 -->
<g id="node53" class="node">
<title>52</title>
<path fill="none" stroke="#d8c356" stroke-width="2" d="M655.5805,-442C655.5805,-442 598.6185,-442 598.6185,-442 592.6185,-442 586.6185,-436 586.6185,-430 586.6185,-430 586.6185,-418 586.6185,-418 586.6185,-412 592.6185,-406 598.6185,-406 598.6185,-406 655.5805,-406 655.5805,-406 661.5805,-406 667.5805,-412 667.5805,-418 667.5805,-418 667.5805,-430 667.5805,-430 667.5805,-436 661.5805,-442 655.5805,-442"/>
<text text-anchor="middle" x="627.0995" y="-421" font-family="sans" font-size="10.00" fill="#000000">cdr_format_RM</text>
</g>
<!-- 52&#45;&gt;51 -->
<g id="edge102" class="edge">
<title>52&#45;&gt;51</title>
<path fill="none" stroke="#c0c0c0" stroke-width="2" d="M637.6709,-405.9664C640.0784,-401.8595 642.6876,-397.4085 645.2611,-393.0184"/>
<polygon fill="#c0c0c0" stroke="#c0c0c0" stroke-width="2" points="648.3797,-394.6193 650.4175,-384.2222 642.3408,-391.0792 648.3797,-394.6193"/>
</g>
<!-- 53 -->
<g id="node54" class="node">
<title>53</title>
<path fill="none" stroke="#d6d856" stroke-width="2" d="M650.8048,-500C650.8048,-500 611.3942,-500 611.3942,-500 605.3942,-500 599.3942,-494 599.3942,-488 599.3942,-488 599.3942,-476 599.3942,-476 599.3942,-470 605.3942,-464 611.3942,-464 611.3942,-464 650.8048,-464 650.8048,-464 656.8048,-464 662.8048,-470 662.8048,-476 662.8048,-476 662.8048,-488 662.8048,-488 662.8048,-494 656.8048,-500 650.8048,-500"/>
<text text-anchor="middle" x="631.0995" y="-479" font-family="sans" font-size="10.00" fill="#000000">cdr_run_rm</text>
</g>
<!-- 53&#45;&gt;52 -->
<g id="edge105" class="edge">
<title>53&#45;&gt;52</title>
<path fill="none" stroke="#c0c0c0" stroke-width="2" d="M629.8558,-463.9664C629.6024,-460.2918 629.33,-456.3418 629.0586,-452.4063"/>
<polygon fill="#c0c0c0" stroke="#c0c0c0" stroke-width="2" points="632.536,-451.9577 628.3562,-442.2222 625.5526,-452.4394 632.536,-451.9577"/>
</g>
<!-- 54 -->
<g id="node55" class="node">
<title>54</title>
<path fill="none" stroke="#d6d856" stroke-width="2" d="M622.6675,-558C622.6675,-558 559.5315,-558 559.5315,-558 553.5315,-558 547.5315,-552 547.5315,-546 547.5315,-546 547.5315,-534 547.5315,-534 547.5315,-528 553.5315,-522 559.5315,-522 559.5315,-522 622.6675,-522 622.6675,-522 628.6675,-522 634.6675,-528 634.6675,-534 634.6675,-534 634.6675,-546 634.6675,-546 634.6675,-552 628.6675,-558 622.6675,-558"/>
<text text-anchor="middle" x="591.0995" y="-537" font-family="sans" font-size="10.00" fill="#000000">cdr_rename_fasta</text>
</g>
<!-- 54&#45;&gt;52 -->
<g id="edge104" class="edge">
<title>54&#45;&gt;52</title>
<path fill="none" stroke="#c0c0c0" stroke-width="2" d="M587.1175,-521.8093C584.5099,-505.9676 582.7861,-482.6764 590.0995,-464 592.0332,-459.0617 594.8945,-454.368 598.1843,-450.0486"/>
<polygon fill="#c0c0c0" stroke="#c0c0c0" stroke-width="2" points="601.0366,-452.0999 604.9076,-442.2375 595.7312,-447.5333 601.0366,-452.0999"/>
</g>
<!-- 54&#45;&gt;53 -->
<g id="edge106" class="edge">
<title>54&#45;&gt;53</title>
<path fill="none" stroke="#c0c0c0" stroke-width="2" d="M603.5365,-521.9664C606.4433,-517.7514 609.6002,-513.174 612.7051,-508.6719"/>
<polygon fill="#c0c0c0" stroke="#c0c0c0" stroke-width="2" points="615.7363,-510.4415 618.5324,-500.2222 609.9738,-506.4673 615.7363,-510.4415"/>
</g>
<!-- 55&#45;&gt;54 -->
<g id="edge107" class="edge">
<title>55&#45;&gt;54</title>
<path fill="none" stroke="#c0c0c0" stroke-width="2" d="M634.5112,-579.9664C629.4634,-575.3191 623.9369,-570.2313 618.5692,-565.2895"/>
<polygon fill="#c0c0c0" stroke="#c0c0c0" stroke-width="2" points="620.6202,-562.4204 610.8926,-558.2222 615.879,-567.5703 620.6202,-562.4204"/>
</g>
<!-- 56&#45;&gt;49 -->
<g id="edge98" class="edge">
<title>56&#45;&gt;49</title>
<path fill="none" stroke="#c0c0c0" stroke-width="2" d="M707.2953,-521.6295C717.6652,-499.1802 733.0995,-459.7606 733.0995,-424 733.0995,-424 733.0995,-424 733.0995,-366 733.0995,-336.0969 733.0995,-301.8577 733.0995,-278.3725"/>
<polygon fill="#c0c0c0" stroke="#c0c0c0" stroke-width="2" points="736.5996,-278.0834 733.0995,-268.0834 729.5996,-278.0834 736.5996,-278.0834"/>
</g>
<!-- 56&#45;&gt;51 -->
<g id="edge103" class="edge">
<title>56&#45;&gt;51</title>
<path fill="none" stroke="#c0c0c0" stroke-width="2" d="M696.2786,-521.9902C693.4,-496.0413 686.9788,-446.7734 676.0995,-406 675.0329,-402.0027 673.719,-397.8483 672.3161,-393.795"/>
<polygon fill="#c0c0c0" stroke="#c0c0c0" stroke-width="2" points="675.4765,-392.2488 668.7359,-384.0747 668.9079,-394.6682 675.4765,-392.2488"/>
</g>
<!-- 57&#45;&gt;56 -->
<g id="edge110" class="edge">
<title>57&#45;&gt;56</title>
<path fill="none" stroke="#c0c0c0" stroke-width="2" d="M491.5176,-588.9991C531.9436,-582.3694 586.7732,-572.3946 642.8263,-558.1713"/>
<polygon fill="#c0c0c0" stroke="#c0c0c0" stroke-width="2" points="643.7551,-561.5464 652.5642,-555.66 642.007,-554.7682 643.7551,-561.5464"/>
</g>
<!-- 58 -->
<g id="node59" class="node">
<title>58</title>
<path fill="none" stroke="#d8ac56" stroke-width="2" d="M614.2686,-674C614.2686,-674 469.9304,-674 469.9304,-674 463.9304,-674 457.9304,-668 457.9304,-662 457.9304,-662 457.9304,-650 457.9304,-650 457.9304,-644 463.9304,-638 469.9304,-638 469.9304,-638 614.2686,-638 614.2686,-638 620.2686,-638 626.2686,-644 626.2686,-650 626.2686,-650 626.2686,-662 626.2686,-662 626.2686,-668 620.2686,-674 614.2686,-674"/>
<text text-anchor="middle" x="542.0995" y="-653" font-family="sans" font-size="10.00" fill="#000000">cdr_aln_merge_read_asm_alignments</text>
</g>
<!-- 58&#45;&gt;57 -->
<g id="edge112" class="edge">
<title>58&#45;&gt;57</title>
<path fill="none" stroke="#c0c0c0" stroke-width="2" d="M507.8978,-637.9664C497.5507,-632.5106 486.0519,-626.4476 475.2019,-620.7267"/>
<polygon fill="#c0c0c0" stroke="#c0c0c0" stroke-width="2" points="476.7582,-617.5906 466.2801,-616.0225 473.4933,-623.7826 476.7582,-617.5906"/>
</g>
<!-- 59 -->
<g id="node60" class="node">
<title>59</title>
<path fill="none" stroke="#d8a456" stroke-width="2" d="M604.5645,-732C604.5645,-732 497.6345,-732 497.6345,-732 491.6345,-732 485.6345,-726 485.6345,-720 485.6345,-720 485.6345,-708 485.6345,-708 485.6345,-702 491.6345,-696 497.6345,-696 497.6345,-696 604.5645,-696 604.5645,-696 610.5645,-696 616.5645,-702 616.5645,-708 616.5645,-708 616.5645,-720 616.5645,-720 616.5645,-726 610.5645,-732 604.5645,-732"/>
<text text-anchor="middle" x="551.0995" y="-711" font-family="sans" font-size="10.00" fill="#000000">cdr_aln_align_reads_to_asm</text>
</g>
<!-- 59&#45;&gt;58 -->
<g id="edge115" class="edge">
<title>59&#45;&gt;58</title>
<path fill="none" stroke="#c0c0c0" stroke-width="2" d="M548.3012,-695.9664C547.731,-692.2918 547.118,-688.3418 546.5074,-684.4063"/>
<polygon fill="#c0c0c0" stroke="#c0c0c0" stroke-width="2" points="549.9192,-683.5673 544.9271,-674.2222 543.0019,-684.6407 549.9192,-683.5673"/>
</g>
<!-- 60&#45;&gt;59 -->
<g id="edge116" class="edge">
<title>60&#45;&gt;59</title>
<path fill="none" stroke="#c0c0c0" stroke-width="2" d="M555.923,-753.9664C555.4795,-750.2918 555.0028,-746.3418 554.5278,-742.4063"/>
<polygon fill="#c0c0c0" stroke="#c0c0c0" stroke-width="2" points="557.9718,-741.7308 553.2987,-732.2222 551.0222,-742.5696 557.9718,-741.7308"/>
</g>
<!-- 61&#45;&gt;47 -->
<g id="edge93" class="edge">
<title>61&#45;&gt;47</title>
<path fill="none" stroke="#c0c0c0" stroke-width="2" d="M799.1583,-115.9664C792.4948,-110.9471 785.1489,-105.4138 778.1021,-100.1058"/>
<polygon fill="#c0c0c0" stroke="#c0c0c0" stroke-width="2" points="780.1193,-97.2435 770.0259,-94.0225 775.9076,-102.8347 780.1193,-97.2435"/>
</g>
<!-- 61&#45;&gt;62 -->
<g id="edge120" class="edge">
<title>61&#45;&gt;62</title>
<path fill="none" stroke="#c0c0c0" stroke-width="2" d="M831.8054,-115.9664C833.7358,-111.9676 835.8238,-107.6426 837.8888,-103.3651"/>
<polygon fill="#c0c0c0" stroke="#c0c0c0" stroke-width="2" points="841.1069,-104.7494 842.3026,-94.2222 834.8031,-101.7061 841.1069,-104.7494"/>
</g>
<!-- 62&#45;&gt;0 -->
<g id="edge13" class="edge">
<title>62&#45;&gt;0</title>
<path fill="none" stroke="#c0c0c0" stroke-width="2" d="M876.5953,-57.9664C883.6915,-52.9471 891.5144,-47.4138 899.0188,-42.1058"/>
<polygon fill="#c0c0c0" stroke="#c0c0c0" stroke-width="2" points="901.4764,-44.6546 907.6194,-36.0225 897.4341,-38.9397 901.4764,-44.6546"/>
</g>
<!-- 63&#45;&gt;0 -->
<g id="edge1" class="edge">
<title>63&#45;&gt;0</title>
<path fill="none" stroke="#c0c0c0" stroke-width="2" d="M1414.6514,-173.676C1419.1246,-144.5179 1422.7939,-87.8163 1391.0995,-58 1360.6787,-29.3818 1073.8269,-20.8211 970.2085,-18.6504"/>
<polygon fill="#c0c0c0" stroke="#c0c0c0" stroke-width="2" points="970.2673,-15.151 960.1988,-18.4488 970.1263,-22.1496 970.2673,-15.151"/>
</g>
<!-- 64 -->
<g id="node65" class="node">
<title>64</title>
<path fill="none" stroke="#d85e56" stroke-width="2" d="M1131.1185,-210C1131.1185,-210 1039.0805,-210 1039.0805,-210 1033.0805,-210 1027.0805,-204 1027.0805,-198 1027.0805,-198 1027.0805,-186 1027.0805,-186 1027.0805,-180 1033.0805,-174 1039.0805,-174 1039.0805,-174 1131.1185,-174 1131.1185,-174 1137.1185,-174 1143.1185,-180 1143.1185,-186 1143.1185,-186 1143.1185,-198 1143.1185,-198 1143.1185,-204 1137.1185,-210 1131.1185,-210"/>
<text text-anchor="middle" x="1085.0995" y="-189" font-family="sans" font-size="10.00" fill="#000000">aggregate_as_hor_length</text>
</g>
<!-- 64&#45;&gt;0 -->
<g id="edge15" class="edge">
<title>64&#45;&gt;0</title>
<path fill="none" stroke="#c0c0c0" stroke-width="2" d="M1073.8757,-173.8709C1056.698,-146.9124 1021.9792,-95.4217 985.0995,-58 979.768,-52.5901 973.6855,-47.2844 967.605,-42.3957"/>
<polygon fill="#c0c0c0" stroke="#c0c0c0" stroke-width="2" points="969.4316,-39.3829 959.3855,-36.0171 965.14,-44.913 969.4316,-39.3829"/>
</g>
<!-- 66 -->
<g id="node67" class="node">
<title>66</title>
<path fill="none" stroke="#56d8d0" stroke-width="2" d="M1118.8117,-94C1118.8117,-94 1049.3873,-94 1049.3873,-94 1043.3873,-94 1037.3873,-88 1037.3873,-82 1037.3873,-82 1037.3873,-70 1037.3873,-70 1037.3873,-64 1043.3873,-58 1049.3873,-58 1049.3873,-58 1118.8117,-58 1118.8117,-58 1124.8117,-58 1130.8117,-64 1130.8117,-70 1130.8117,-70 1130.8117,-82 1130.8117,-82 1130.8117,-88 1124.8117,-94 1118.8117,-94"/>
<text text-anchor="middle" x="1084.0995" y="-73" font-family="sans" font-size="10.00" fill="#000000">plot_as_hor_length</text>
</g>
<!-- 64&#45;&gt;66 -->
<g id="edge124" class="edge">
<title>64&#45;&gt;66</title>
<path fill="none" stroke="#c0c0c0" stroke-width="2" d="M1084.9433,-173.875C1084.7835,-155.3412 1084.5329,-126.2787 1084.3463,-104.6311"/>
<polygon fill="#c0c0c0" stroke="#c0c0c0" stroke-width="2" points="1087.8441,-104.35 1084.258,-94.3805 1080.8444,-104.4104 1087.8441,-104.35"/>
</g>
<!-- 67 -->
<g id="node68" class="node">
<title>67</title>
<path fill="none" stroke="#9fd856" stroke-width="2" d="M1202.2391,-152C1202.2391,-152 1123.9599,-152 1123.9599,-152 1117.9599,-152 1111.9599,-146 1111.9599,-140 1111.9599,-140 1111.9599,-128 1111.9599,-128 1111.9599,-122 1117.9599,-116 1123.9599,-116 1123.9599,-116 1202.2391,-116 1202.2391,-116 1208.2391,-116 1214.2391,-122 1214.2391,-128 1214.2391,-128 1214.2391,-140 1214.2391,-140 1214.2391,-146 1208.2391,-152 1202.2391,-152"/>
<text text-anchor="middle" x="1163.0995" y="-131" font-family="sans" font-size="10.00" fill="#000000">count_complete_cens</text>
</g>
<!-- 64&#45;&gt;67 -->
<g id="edge125" class="edge">
<title>64&#45;&gt;67</title>
<path fill="none" stroke="#c0c0c0" stroke-width="2" d="M1109.3516,-173.9664C1116.1017,-168.9471 1123.543,-163.4138 1130.6813,-158.1058"/>
<polygon fill="#c0c0c0" stroke="#c0c0c0" stroke-width="2" points="1132.9262,-160.7982 1138.8624,-152.0225 1128.7493,-155.1809 1132.9262,-160.7982"/>
</g>
<!-- 65&#45;&gt;64 -->
<g id="edge122" class="edge">
<title>65&#45;&gt;64</title>
<path fill="none" stroke="#c0c0c0" stroke-width="2" d="M1085.0995,-231.9664C1085.0995,-228.2918 1085.0995,-224.3418 1085.0995,-220.4063"/>
<polygon fill="#c0c0c0" stroke="#c0c0c0" stroke-width="2" points="1088.5996,-220.2222 1085.0995,-210.2222 1081.5996,-220.2223 1088.5996,-220.2222"/>
</g>
<!-- 66&#45;&gt;0 -->
<g id="edge14" class="edge">
<title>66&#45;&gt;0</title>
<path fill="none" stroke="#c0c0c0" stroke-width="2" d="M1037.1499,-57.9664C1015.425,-49.6217 990.0014,-39.8564 969.7232,-32.0674"/>
<polygon fill="#c0c0c0" stroke="#c0c0c0" stroke-width="2" points="970.8106,-28.7358 960.2206,-28.4174 968.3006,-35.2703 970.8106,-28.7358"/>
</g>
<!-- 67&#45;&gt;0 -->
<g id="edge5" class="edge">
<title>67&#45;&gt;0</title>
<path fill="none" stroke="#c0c0c0" stroke-width="2" d="M1162.7058,-115.8579C1161.3062,-98.4428 1156.3756,-72.6807 1140.0995,-58 1115.6253,-35.9249 1023.1425,-25.1131 970.4497,-20.6423"/>
<polygon fill="#c0c0c0" stroke="#c0c0c0" stroke-width="2" points="970.4114,-17.1278 960.1609,-19.807 969.8448,-24.1048 970.4114,-17.1278"/>
</g>
<!-- 68 -->
<g id="node69" class="node">
<title>68</title>
<path fill="none" stroke="#56d8d8" stroke-width="2" d="M1298.7967,-94C1298.7967,-94 1199.4023,-94 1199.4023,-94 1193.4023,-94 1187.4023,-88 1187.4023,-82 1187.4023,-82 1187.4023,-70 1187.4023,-70 1187.4023,-64 1193.4023,-58 1199.4023,-58 1199.4023,-58 1298.7967,-58 1298.7967,-58 1304.7967,-58 1310.7967,-64 1310.7967,-70 1310.7967,-70 1310.7967,-82 1310.7967,-82 1310.7967,-88 1304.7967,-94 1298.7967,-94"/>
<text text-anchor="middle" x="1249.0995" y="-73" font-family="sans" font-size="10.00" fill="#000000">plot_complete_cen_counts</text>
</g>
<!-- 67&#45;&gt;68 -->
<g id="edge126" class="edge">
<title>67&#45;&gt;68</title>
<path fill="none" stroke="#c0c0c0" stroke-width="2" d="M1189.839,-115.9664C1197.4432,-110.838 1205.843,-105.173 1213.8692,-99.76"/>
<polygon fill="#c0c0c0" stroke="#c0c0c0" stroke-width="2" points="1216.0428,-102.5157 1222.3765,-94.0225 1212.1288,-96.7122 1216.0428,-102.5157"/>
</g>
<!-- 68&#45;&gt;0 -->
<g id="edge4" class="edge">
<title>68&#45;&gt;0</title>
<path fill="none" stroke="#c0c0c0" stroke-width="2" d="M1187.3743,-61.0134C1182.5526,-59.9551 1177.7518,-58.9375 1173.0995,-58 1101.6868,-43.6092 1017.5735,-30.4547 970.2798,-23.4016"/>
<polygon fill="#c0c0c0" stroke="#c0c0c0" stroke-width="2" points="970.6076,-19.912 960.2026,-21.9081 969.5814,-26.8364 970.6076,-19.912"/>
</g>
<!-- 69&#45;&gt;0 -->
<g id="edge12" class="edge">
<title>69&#45;&gt;0</title>
<path fill="none" stroke="#c0c0c0" stroke-width="2" d="M1459.0527,-289.8212C1467.0526,-267.2371 1479.0995,-227.358 1479.0995,-192 1479.0995,-192 1479.0995,-192 1479.0995,-134 1479.0995,-90.1259 1455.0027,-78.285 1416.0995,-58 1376.9235,-37.5727 1076.9017,-23.7389 970.4301,-19.4298"/>
<polygon fill="#c0c0c0" stroke="#c0c0c0" stroke-width="2" points="970.2953,-15.9217 960.1635,-19.0197 970.0158,-22.9162 970.2953,-15.9217"/>
</g>
<!-- 70&#45;&gt;0 -->
<g id="edge21" class="edge">
<title>70&#45;&gt;0</title>
<path fill="none" stroke="#c0c0c0" stroke-width="2" d="M590.5174,-115.9636C597.8785,-98.1091 611.7567,-71.5402 633.0995,-58 675.9348,-30.8247 824.8208,-21.8876 895.4114,-19.1362"/>
<polygon fill="#c0c0c0" stroke="#c0c0c0" stroke-width="2" points="895.7743,-22.6253 905.6388,-18.7598 895.5168,-15.6301 895.7743,-22.6253"/>
</g>
</g>
</svg>
