<?xml version="1.0" encoding="UTF-8" standalone="no"?>
<!DOCTYPE svg PUBLIC "-//W3C//DTD SVG 1.1//EN"
 "http://www.w3.org/Graphics/SVG/1.1/DTD/svg11.dtd">
<!-- Generated by graphviz version 2.50.0 (0)
 -->
<!-- Title: snakemake_dag Pages: 1 -->
<svg width="1667pt" height="1412pt"
 viewBox="0.00 0.00 1666.50 1412.00" xmlns="http://www.w3.org/2000/svg" xmlns:xlink="http://www.w3.org/1999/xlink">
<g id="graph0" class="graph" transform="scale(1 1) rotate(0) translate(4 1408)">
<title>snakemake_dag</title>
<polygon fill="white" stroke="transparent" points="-4,4 -4,-1408 1662.5,-1408 1662.5,4 -4,4"/>
<!-- 0 -->
<g id="node1" class="node">
<title>0</title>
<path fill="none" stroke="#bed856" stroke-width="2" d="M727,-36C727,-36 697,-36 697,-36 691,-36 685,-30 685,-24 685,-24 685,-12 685,-12 685,-6 691,0 697,0 697,0 727,0 727,0 733,0 739,-6 739,-12 739,-12 739,-24 739,-24 739,-30 733,-36 727,-36"/>
<text text-anchor="middle" x="712" y="-15.5" font-family="sans" font-size="10.00">all</text>
</g>
<!-- 1 -->
<g id="node2" class="node">
<title>1</title>
<path fill="none" stroke="#56d89a" stroke-width="2" d="M506.5,-1404C506.5,-1404 435.5,-1404 435.5,-1404 429.5,-1404 423.5,-1398 423.5,-1392 423.5,-1392 423.5,-1380 423.5,-1380 423.5,-1374 429.5,-1368 435.5,-1368 435.5,-1368 506.5,-1368 506.5,-1368 512.5,-1368 518.5,-1374 518.5,-1380 518.5,-1380 518.5,-1392 518.5,-1392 518.5,-1398 512.5,-1404 506.5,-1404"/>
<text text-anchor="middle" x="471" y="-1383.5" font-family="sans" font-size="10.00">mask_hor_arrays</text>
</g>
<!-- 1&#45;&gt;0 -->
<g id="edge19" class="edge">
<title>1&#45;&gt;0</title>
<path fill="none" stroke="grey" stroke-width="2" d="M423.25,-1380.85C303.5,-1369.12 0,-1330.75 0,-1243 0,-1243 0,-1243 0,-161 0,-112.54 20.9,-96 63,-72 116.2,-41.67 544.21,-24.72 674.5,-20.22"/>
<polygon fill="grey" stroke="grey" stroke-width="2" points="674.89,-23.71 684.77,-19.87 674.65,-16.71 674.89,-23.71"/>
</g>
<!-- 2 -->
<g id="node3" class="node">
<title>2</title>
<path fill="none" stroke="#56d8a2" stroke-width="2" d="M471.5,-1332C471.5,-1332 352.5,-1332 352.5,-1332 346.5,-1332 340.5,-1326 340.5,-1320 340.5,-1320 340.5,-1308 340.5,-1308 340.5,-1302 346.5,-1296 352.5,-1296 352.5,-1296 471.5,-1296 471.5,-1296 477.5,-1296 483.5,-1302 483.5,-1308 483.5,-1308 483.5,-1320 483.5,-1320 483.5,-1326 477.5,-1332 471.5,-1332"/>
<text text-anchor="middle" x="412" y="-1311.5" font-family="sans" font-size="10.00">extract_masked_hor_arrays</text>
</g>
<!-- 1&#45;&gt;2 -->
<g id="edge30" class="edge">
<title>1&#45;&gt;2</title>
<path fill="none" stroke="grey" stroke-width="2" d="M456.42,-1367.7C449.34,-1359.3 440.72,-1349.07 432.95,-1339.86"/>
<polygon fill="grey" stroke="grey" stroke-width="2" points="435.54,-1337.49 426.42,-1332.1 430.19,-1342.01 435.54,-1337.49"/>
</g>
<!-- 6 -->
<g id="node7" class="node">
<title>6</title>
<path fill="none" stroke="#70d856" stroke-width="2" d="M566,-1260C566,-1260 486,-1260 486,-1260 480,-1260 474,-1254 474,-1248 474,-1248 474,-1236 474,-1236 474,-1230 480,-1224 486,-1224 486,-1224 566,-1224 566,-1224 572,-1224 578,-1230 578,-1236 578,-1236 578,-1248 578,-1248 578,-1254 572,-1260 566,-1260"/>
<text text-anchor="middle" x="526" y="-1239.5" font-family="sans" font-size="10.00">asm_ref_alignment</text>
</g>
<!-- 1&#45;&gt;6 -->
<g id="edge35" class="edge">
<title>1&#45;&gt;6</title>
<path fill="none" stroke="grey" stroke-width="2" d="M478.3,-1367.88C482.67,-1357.53 488.27,-1344.05 493,-1332 501.16,-1311.23 509.92,-1287.53 516.36,-1269.81"/>
<polygon fill="grey" stroke="grey" stroke-width="2" points="519.75,-1270.73 519.87,-1260.14 513.17,-1268.35 519.75,-1270.73"/>
</g>
<!-- 7 -->
<g id="node8" class="node">
<title>7</title>
<path fill="none" stroke="#56b9d8" stroke-width="2" d="M651,-1188C651,-1188 565,-1188 565,-1188 559,-1188 553,-1182 553,-1176 553,-1176 553,-1164 553,-1164 553,-1158 559,-1152 565,-1152 565,-1152 651,-1152 651,-1152 657,-1152 663,-1158 663,-1164 663,-1164 663,-1176 663,-1176 663,-1182 657,-1188 651,-1188"/>
<text text-anchor="middle" x="608" y="-1167.5" font-family="sans" font-size="10.00">asm_ref_alignment2</text>
</g>
<!-- 1&#45;&gt;7 -->
<g id="edge37" class="edge">
<title>1&#45;&gt;7</title>
<path fill="none" stroke="grey" stroke-width="2" d="M492.53,-1367.97C518.91,-1345.91 563.04,-1304.93 587,-1260 597.24,-1240.8 602.54,-1216.64 605.25,-1198.34"/>
<polygon fill="grey" stroke="grey" stroke-width="2" points="608.73,-1198.69 606.56,-1188.32 601.79,-1197.78 608.73,-1198.69"/>
</g>
<!-- 2&#45;&gt;0 -->
<g id="edge20" class="edge">
<title>2&#45;&gt;0</title>
<path fill="none" stroke="grey" stroke-width="2" d="M411.21,-1295.96C410.04,-1269.3 408,-1216.13 408,-1171 408,-1171 408,-1171 408,-161 408,-116.47 418.5,-98.88 454,-72 488.29,-46.03 611.5,-29.61 674.43,-22.73"/>
<polygon fill="grey" stroke="grey" stroke-width="2" points="675.15,-26.17 684.72,-21.63 674.4,-19.21 675.15,-26.17"/>
</g>
<!-- 3 -->
<g id="node4" class="node">
<title>3</title>
<path fill="none" stroke="#d8a456" stroke-width="2" d="M367.5,-1188C367.5,-1188 260.5,-1188 260.5,-1188 254.5,-1188 248.5,-1182 248.5,-1176 248.5,-1176 248.5,-1164 248.5,-1164 248.5,-1158 254.5,-1152 260.5,-1152 260.5,-1152 367.5,-1152 367.5,-1152 373.5,-1152 379.5,-1158 379.5,-1164 379.5,-1164 379.5,-1176 379.5,-1176 379.5,-1182 373.5,-1188 367.5,-1188"/>
<text text-anchor="middle" x="314" y="-1167.5" font-family="sans" font-size="10.00">index_masked_hor_array</text>
</g>
<!-- 2&#45;&gt;3 -->
<g id="edge31" class="edge">
<title>2&#45;&gt;3</title>
<path fill="none" stroke="grey" stroke-width="2" d="M400.18,-1295.87C383.11,-1271.14 351.43,-1225.24 331.61,-1196.51"/>
<polygon fill="grey" stroke="grey" stroke-width="2" points="334.42,-1194.43 325.86,-1188.19 328.66,-1198.41 334.42,-1194.43"/>
</g>
<!-- 2&#45;&gt;6 -->
<g id="edge36" class="edge">
<title>2&#45;&gt;6</title>
<path fill="none" stroke="grey" stroke-width="2" d="M439.89,-1295.88C454.79,-1286.72 473.33,-1275.34 489.38,-1265.48"/>
<polygon fill="grey" stroke="grey" stroke-width="2" points="491.31,-1268.41 498.01,-1260.19 487.65,-1262.44 491.31,-1268.41"/>
</g>
<!-- 2&#45;&gt;7 -->
<g id="edge38" class="edge">
<title>2&#45;&gt;7</title>
<path fill="none" stroke="grey" stroke-width="2" d="M418.11,-1295.89C426.03,-1276 441.64,-1243.45 465,-1224 487.28,-1205.45 516.67,-1193.07 543,-1184.98"/>
<polygon fill="grey" stroke="grey" stroke-width="2" points="544.31,-1188.24 552.93,-1182.08 542.35,-1181.52 544.31,-1188.24"/>
</g>
<!-- 24 -->
<g id="node25" class="node">
<title>24</title>
<path fill="none" stroke="#566bd8" stroke-width="2" d="M270.5,-324C270.5,-324 169.5,-324 169.5,-324 163.5,-324 157.5,-318 157.5,-312 157.5,-312 157.5,-300 157.5,-300 157.5,-294 163.5,-288 169.5,-288 169.5,-288 270.5,-288 270.5,-288 276.5,-288 282.5,-294 282.5,-300 282.5,-300 282.5,-312 282.5,-312 282.5,-318 276.5,-324 270.5,-324"/>
<text text-anchor="middle" x="220" y="-303.5" font-family="sans" font-size="10.00">run_dna_brnn_ref_cens</text>
</g>
<!-- 2&#45;&gt;24 -->
<g id="edge59" class="edge">
<title>2&#45;&gt;24</title>
<path fill="none" stroke="grey" stroke-width="2" d="M350.99,-1295.96C294.77,-1276.1 220,-1237.23 220,-1171 220,-1171 220,-1171 220,-449 220,-409 220,-362.65 220,-334.08"/>
<polygon fill="grey" stroke="grey" stroke-width="2" points="223.5,-334.05 220,-324.05 216.5,-334.05 223.5,-334.05"/>
</g>
<!-- 3&#45;&gt;0 -->
<g id="edge7" class="edge">
<title>3&#45;&gt;0</title>
<path fill="none" stroke="grey" stroke-width="2" d="M325.6,-1151.93C342.01,-1126.09 370,-1074.97 370,-1027 370,-1027 370,-1027 370,-161 370,-120.03 363.64,-99.51 394,-72 434.66,-35.15 599.63,-23.65 674.6,-20.29"/>
<polygon fill="grey" stroke="grey" stroke-width="2" points="675.14,-23.77 684.98,-19.86 674.85,-16.78 675.14,-23.77"/>
</g>
<!-- 4 -->
<g id="node5" class="node">
<title>4</title>
<path fill="none" stroke="#d8c356" stroke-width="2" d="M688,-1044C688,-1044 604,-1044 604,-1044 598,-1044 592,-1038 592,-1032 592,-1032 592,-1020 592,-1020 592,-1014 598,-1008 604,-1008 604,-1008 688,-1008 688,-1008 694,-1008 700,-1014 700,-1020 700,-1020 700,-1032 700,-1032 700,-1038 694,-1044 688,-1044"/>
<text text-anchor="middle" x="646" y="-1023.5" font-family="sans" font-size="10.00">asm_ref_aln_to_bed</text>
</g>
<!-- 4&#45;&gt;0 -->
<g id="edge10" class="edge">
<title>4&#45;&gt;0</title>
<path fill="none" stroke="grey" stroke-width="2" d="M700.22,-1021.11C879.83,-1007.5 1444,-958.72 1444,-883 1444,-883 1444,-883 1444,-161 1444,-110.95 1419.03,-95.8 1375,-72 1319.86,-42.2 881.34,-24.82 749.42,-20.23"/>
<polygon fill="grey" stroke="grey" stroke-width="2" points="749.5,-16.73 739.39,-19.89 749.26,-23.73 749.5,-16.73"/>
</g>
<!-- 12 -->
<g id="node13" class="node">
<title>12</title>
<path fill="none" stroke="#5663d8" stroke-width="2" d="M579,-972C579,-972 485,-972 485,-972 479,-972 473,-966 473,-960 473,-960 473,-948 473,-948 473,-942 479,-936 485,-936 485,-936 579,-936 579,-936 585,-936 591,-942 591,-948 591,-948 591,-960 591,-960 591,-966 585,-972 579,-972"/>
<text text-anchor="middle" x="532" y="-951.5" font-family="sans" font-size="10.00">intersect_cen_regions</text>
</g>
<!-- 4&#45;&gt;12 -->
<g id="edge43" class="edge">
<title>4&#45;&gt;12</title>
<path fill="none" stroke="grey" stroke-width="2" d="M618.11,-1007.88C603.21,-998.72 584.67,-987.34 568.62,-977.48"/>
<polygon fill="grey" stroke="grey" stroke-width="2" points="570.35,-974.44 559.99,-972.19 566.69,-980.41 570.35,-974.44"/>
</g>
<!-- 14 -->
<g id="node15" class="node">
<title>14</title>
<path fill="none" stroke="#d85e56" stroke-width="2" d="M780,-900C780,-900 620,-900 620,-900 614,-900 608,-894 608,-888 608,-888 608,-876 608,-876 608,-870 614,-864 620,-864 620,-864 780,-864 780,-864 786,-864 792,-870 792,-876 792,-876 792,-888 792,-888 792,-894 786,-900 780,-900"/>
<text text-anchor="middle" x="700" y="-879.5" font-family="sans" font-size="10.00">collapse_cens_contigs_only_t2t_cens</text>
</g>
<!-- 4&#45;&gt;14 -->
<g id="edge45" class="edge">
<title>4&#45;&gt;14</title>
<path fill="none" stroke="grey" stroke-width="2" d="M652.51,-1007.87C661.8,-983.46 678.92,-938.43 689.87,-909.64"/>
<polygon fill="grey" stroke="grey" stroke-width="2" points="693.18,-910.78 693.46,-900.19 686.64,-908.29 693.18,-910.78"/>
</g>
<!-- 5 -->
<g id="node6" class="node">
<title>5</title>
<path fill="none" stroke="#d87556" stroke-width="2" d="M670.5,-1116C670.5,-1116 569.5,-1116 569.5,-1116 563.5,-1116 557.5,-1110 557.5,-1104 557.5,-1104 557.5,-1092 557.5,-1092 557.5,-1086 563.5,-1080 569.5,-1080 569.5,-1080 670.5,-1080 670.5,-1080 676.5,-1080 682.5,-1086 682.5,-1092 682.5,-1092 682.5,-1104 682.5,-1104 682.5,-1110 676.5,-1116 670.5,-1116"/>
<text text-anchor="middle" x="620" y="-1095.5" font-family="sans" font-size="10.00">asm_ref_compress_sam</text>
</g>
<!-- 5&#45;&gt;4 -->
<g id="edge32" class="edge">
<title>5&#45;&gt;4</title>
<path fill="none" stroke="grey" stroke-width="2" d="M626.43,-1079.7C629.36,-1071.81 632.89,-1062.3 636.14,-1053.55"/>
<polygon fill="grey" stroke="grey" stroke-width="2" points="639.45,-1054.7 639.65,-1044.1 632.88,-1052.26 639.45,-1054.7"/>
</g>
<!-- 8 -->
<g id="node9" class="node">
<title>8</title>
<path fill="none" stroke="#56d873" stroke-width="2" d="M1570,-252C1570,-252 1484,-252 1484,-252 1478,-252 1472,-246 1472,-240 1472,-240 1472,-228 1472,-228 1472,-222 1478,-216 1484,-216 1484,-216 1570,-216 1570,-216 1576,-216 1582,-222 1582,-228 1582,-228 1582,-240 1582,-240 1582,-246 1576,-252 1570,-252"/>
<text text-anchor="middle" x="1527" y="-231.5" font-family="sans" font-size="10.00">asm_ref_sam_to_paf</text>
</g>
<!-- 5&#45;&gt;8 -->
<g id="edge40" class="edge">
<title>5&#45;&gt;8</title>
<path fill="none" stroke="grey" stroke-width="2" d="M682.51,-1093.57C884.1,-1081.67 1504,-1038.31 1504,-955 1504,-955 1504,-955 1504,-377 1504,-336.7 1513.14,-290.78 1519.9,-262.34"/>
<polygon fill="grey" stroke="grey" stroke-width="2" points="1523.37,-262.89 1522.35,-252.34 1516.57,-261.22 1523.37,-262.89"/>
</g>
<!-- 6&#45;&gt;5 -->
<g id="edge34" class="edge">
<title>6&#45;&gt;5</title>
<path fill="none" stroke="grey" stroke-width="2" d="M525.79,-1223.85C526.34,-1204.81 529.64,-1173.88 544,-1152 551.95,-1139.88 563.73,-1129.72 575.64,-1121.65"/>
<polygon fill="grey" stroke="grey" stroke-width="2" points="577.74,-1124.47 584.29,-1116.14 573.98,-1118.56 577.74,-1124.47"/>
</g>
<!-- 6&#45;&gt;7 -->
<g id="edge39" class="edge">
<title>6&#45;&gt;7</title>
<path fill="none" stroke="grey" stroke-width="2" d="M546.27,-1223.7C556.5,-1214.97 569.06,-1204.24 580.18,-1194.75"/>
<polygon fill="grey" stroke="grey" stroke-width="2" points="582.63,-1197.26 587.96,-1188.1 578.09,-1191.94 582.63,-1197.26"/>
</g>
<!-- 7&#45;&gt;5 -->
<g id="edge33" class="edge">
<title>7&#45;&gt;5</title>
<path fill="none" stroke="grey" stroke-width="2" d="M610.97,-1151.7C612.29,-1143.98 613.88,-1134.71 615.35,-1126.11"/>
<polygon fill="grey" stroke="grey" stroke-width="2" points="618.83,-1126.55 617.07,-1116.1 611.93,-1125.37 618.83,-1126.55"/>
</g>
<!-- 8&#45;&gt;0 -->
<g id="edge17" class="edge">
<title>8&#45;&gt;0</title>
<path fill="none" stroke="grey" stroke-width="2" d="M1518.23,-215.97C1513.02,-205.66 1506.4,-192.18 1501,-180 1480.05,-132.77 1499.7,-102.5 1458,-72 1400.42,-29.89 892,-21.02 749.17,-19.35"/>
<polygon fill="grey" stroke="grey" stroke-width="2" points="749.19,-15.85 739.15,-19.24 749.11,-22.85 749.19,-15.85"/>
</g>
<!-- 9 -->
<g id="node10" class="node">
<title>9</title>
<path fill="none" stroke="#56d892" stroke-width="2" d="M1646.5,-180C1646.5,-180 1521.5,-180 1521.5,-180 1515.5,-180 1509.5,-174 1509.5,-168 1509.5,-168 1509.5,-156 1509.5,-156 1509.5,-150 1515.5,-144 1521.5,-144 1521.5,-144 1646.5,-144 1646.5,-144 1652.5,-144 1658.5,-150 1658.5,-156 1658.5,-156 1658.5,-168 1658.5,-168 1658.5,-174 1652.5,-180 1646.5,-180"/>
<text text-anchor="middle" x="1584" y="-159.5" font-family="sans" font-size="10.00">asm_ref_trim_and_break_paf</text>
</g>
<!-- 8&#45;&gt;9 -->
<g id="edge41" class="edge">
<title>8&#45;&gt;9</title>
<path fill="none" stroke="grey" stroke-width="2" d="M1541.09,-215.7C1547.92,-207.3 1556.26,-197.07 1563.76,-187.86"/>
<polygon fill="grey" stroke="grey" stroke-width="2" points="1566.47,-190.07 1570.07,-180.1 1561.04,-185.65 1566.47,-190.07"/>
</g>
<!-- 9&#45;&gt;0 -->
<g id="edge18" class="edge">
<title>9&#45;&gt;0</title>
<path fill="none" stroke="grey" stroke-width="2" d="M1597.15,-143.99C1610.75,-124.2 1627.6,-91.74 1609,-72 1579.06,-40.24 915.72,-23.5 749.5,-19.8"/>
<polygon fill="grey" stroke="grey" stroke-width="2" points="749.36,-16.29 739.29,-19.57 749.21,-23.29 749.36,-16.29"/>
</g>
<!-- 10 -->
<g id="node11" class="node">
<title>10</title>
<path fill="none" stroke="#d87d56" stroke-width="2" d="M1587.5,-108C1587.5,-108 1522.5,-108 1522.5,-108 1516.5,-108 1510.5,-102 1510.5,-96 1510.5,-96 1510.5,-84 1510.5,-84 1510.5,-78 1516.5,-72 1522.5,-72 1522.5,-72 1587.5,-72 1587.5,-72 1593.5,-72 1599.5,-78 1599.5,-84 1599.5,-84 1599.5,-96 1599.5,-96 1599.5,-102 1593.5,-108 1587.5,-108"/>
<text text-anchor="middle" x="1555" y="-87.5" font-family="sans" font-size="10.00">asm_ref_SafFire</text>
</g>
<!-- 9&#45;&gt;10 -->
<g id="edge42" class="edge">
<title>9&#45;&gt;10</title>
<path fill="none" stroke="grey" stroke-width="2" d="M1576.83,-143.7C1573.57,-135.81 1569.63,-126.3 1566,-117.55"/>
<polygon fill="grey" stroke="grey" stroke-width="2" points="1569.15,-116 1562.09,-108.1 1562.68,-118.68 1569.15,-116"/>
</g>
<!-- 10&#45;&gt;0 -->
<g id="edge4" class="edge">
<title>10&#45;&gt;0</title>
<path fill="none" stroke="grey" stroke-width="2" d="M1510.46,-75.08C1505.61,-73.89 1500.72,-72.83 1496,-72 1212.25,-22.12 863.11,-18.47 749.58,-18.72"/>
<polygon fill="grey" stroke="grey" stroke-width="2" points="749.32,-15.22 739.33,-18.75 749.35,-22.22 749.32,-15.22"/>
</g>
<!-- 11 -->
<g id="node12" class="node">
<title>11</title>
<path fill="none" stroke="#59d856" stroke-width="2" d="M1315,-684C1315,-684 1269,-684 1269,-684 1263,-684 1257,-678 1257,-672 1257,-672 1257,-660 1257,-660 1257,-654 1263,-648 1269,-648 1269,-648 1315,-648 1315,-648 1321,-648 1327,-654 1327,-660 1327,-660 1327,-672 1327,-672 1327,-678 1321,-684 1315,-684"/>
<text text-anchor="middle" x="1292" y="-663.5" font-family="sans" font-size="10.00">concat_asm</text>
</g>
<!-- 11&#45;&gt;0 -->
<g id="edge16" class="edge">
<title>11&#45;&gt;0</title>
<path fill="none" stroke="grey" stroke-width="2" d="M1308.49,-647.77C1330.84,-622.53 1368,-573.05 1368,-523 1368,-523 1368,-523 1368,-161 1368,-109.56 1339.53,-95.94 1294,-72 1198.84,-21.98 862.42,-18.45 749.37,-18.72"/>
<polygon fill="grey" stroke="grey" stroke-width="2" points="749.13,-15.22 739.14,-18.76 749.15,-22.22 749.13,-15.22"/>
</g>
<!-- 18 -->
<g id="node19" class="node">
<title>18</title>
<path fill="none" stroke="#56d8a9" stroke-width="2" d="M1115,-612C1115,-612 981,-612 981,-612 975,-612 969,-606 969,-600 969,-600 969,-588 969,-588 969,-582 975,-576 981,-576 981,-576 1115,-576 1115,-576 1121,-576 1127,-582 1127,-588 1127,-588 1127,-600 1127,-600 1127,-606 1121,-612 1115,-612"/>
<text text-anchor="middle" x="1048" y="-591.5" font-family="sans" font-size="10.00">extract_cens_oriented_regions</text>
</g>
<!-- 11&#45;&gt;18 -->
<g id="edge52" class="edge">
<title>11&#45;&gt;18</title>
<path fill="none" stroke="grey" stroke-width="2" d="M1256.78,-654.9C1220.39,-644.46 1162.63,-627.89 1117.08,-614.82"/>
<polygon fill="grey" stroke="grey" stroke-width="2" points="1117.84,-611.4 1107.27,-612 1115.91,-618.12 1117.84,-611.4"/>
</g>
<!-- 31 -->
<g id="node32" class="node">
<title>31</title>
<path fill="none" stroke="#56d8b9" stroke-width="2" d="M1278.5,-324C1278.5,-324 1121.5,-324 1121.5,-324 1115.5,-324 1109.5,-318 1109.5,-312 1109.5,-312 1109.5,-300 1109.5,-300 1109.5,-294 1115.5,-288 1121.5,-288 1121.5,-288 1278.5,-288 1278.5,-288 1284.5,-288 1290.5,-294 1290.5,-300 1290.5,-300 1290.5,-312 1290.5,-312 1290.5,-318 1284.5,-324 1278.5,-324"/>
<text text-anchor="middle" x="1200" y="-303.5" font-family="sans" font-size="10.00">extract_new_oriented_cens_regions</text>
</g>
<!-- 11&#45;&gt;31 -->
<g id="edge69" class="edge">
<title>11&#45;&gt;31</title>
<path fill="none" stroke="grey" stroke-width="2" d="M1292,-647.95C1292,-621.29 1292,-568.11 1292,-523 1292,-523 1292,-523 1292,-449 1292,-401.47 1255.25,-357.3 1228.21,-331.23"/>
<polygon fill="grey" stroke="grey" stroke-width="2" points="1230.57,-328.65 1220.88,-324.37 1225.79,-333.76 1230.57,-328.65"/>
</g>
<!-- 12&#45;&gt;0 -->
<g id="edge29" class="edge">
<title>12&#45;&gt;0</title>
<path fill="none" stroke="grey" stroke-width="2" d="M501.95,-935.9C488.69,-926.87 474.08,-914.61 465,-900 443.65,-865.64 446,-851.45 446,-811 446,-811 446,-811 446,-161 446,-116.47 456.96,-99.48 492,-72 545.6,-29.96 627.51,-20.56 674.8,-18.86"/>
<polygon fill="grey" stroke="grey" stroke-width="2" points="675,-22.36 684.91,-18.6 674.82,-15.36 675,-22.36"/>
</g>
<!-- 13 -->
<g id="node14" class="node">
<title>13</title>
<path fill="none" stroke="#568ad8" stroke-width="2" d="M578,-900C578,-900 486,-900 486,-900 480,-900 474,-894 474,-888 474,-888 474,-876 474,-876 474,-870 480,-864 486,-864 486,-864 578,-864 578,-864 584,-864 590,-870 590,-876 590,-876 590,-888 590,-888 590,-894 584,-900 578,-900"/>
<text text-anchor="middle" x="532" y="-879.5" font-family="sans" font-size="10.00">collapse_cens_contigs</text>
</g>
<!-- 12&#45;&gt;13 -->
<g id="edge44" class="edge">
<title>12&#45;&gt;13</title>
<path fill="none" stroke="grey" stroke-width="2" d="M532,-935.7C532,-927.98 532,-918.71 532,-910.11"/>
<polygon fill="grey" stroke="grey" stroke-width="2" points="535.5,-910.1 532,-900.1 528.5,-910.1 535.5,-910.1"/>
</g>
<!-- 13&#45;&gt;0 -->
<g id="edge26" class="edge">
<title>13&#45;&gt;0</title>
<path fill="none" stroke="grey" stroke-width="2" d="M522.05,-863.71C507.99,-837.58 484,-786.1 484,-739 484,-739 484,-739 484,-161 484,-116.27 496.36,-100.3 531,-72 572.55,-38.06 635.07,-25.85 674.68,-21.47"/>
<polygon fill="grey" stroke="grey" stroke-width="2" points="675.12,-24.94 684.72,-20.47 674.43,-17.97 675.12,-24.94"/>
</g>
<!-- 15 -->
<g id="node16" class="node">
<title>15</title>
<path fill="none" stroke="#d8d356" stroke-width="2" d="M715,-828C715,-828 579,-828 579,-828 573,-828 567,-822 567,-816 567,-816 567,-804 567,-804 567,-798 573,-792 579,-792 579,-792 715,-792 715,-792 721,-792 727,-798 727,-804 727,-804 727,-816 727,-816 727,-822 721,-828 715,-828"/>
<text text-anchor="middle" x="647" y="-807.5" font-family="sans" font-size="10.00">intersect_filter_both_cens_ctgs</text>
</g>
<!-- 13&#45;&gt;15 -->
<g id="edge47" class="edge">
<title>13&#45;&gt;15</title>
<path fill="none" stroke="grey" stroke-width="2" d="M560.13,-863.88C575.17,-854.72 593.87,-843.34 610.06,-833.48"/>
<polygon fill="grey" stroke="grey" stroke-width="2" points="612.04,-836.38 618.76,-828.19 608.4,-830.4 612.04,-836.38"/>
</g>
<!-- 14&#45;&gt;0 -->
<g id="edge2" class="edge">
<title>14&#45;&gt;0</title>
<path fill="none" stroke="grey" stroke-width="2" d="M792.3,-881.5C983.67,-880.03 1406,-862.77 1406,-739 1406,-739 1406,-739 1406,-161 1406,-110.4 1379.62,-95.87 1335,-72 1232.79,-17.33 867.57,-16.99 749.27,-18.38"/>
<polygon fill="grey" stroke="grey" stroke-width="2" points="749.2,-14.88 739.25,-18.51 749.29,-21.88 749.2,-14.88"/>
</g>
<!-- 14&#45;&gt;15 -->
<g id="edge46" class="edge">
<title>14&#45;&gt;15</title>
<path fill="none" stroke="grey" stroke-width="2" d="M686.9,-863.7C680.61,-855.39 672.95,-845.28 666.04,-836.14"/>
<polygon fill="grey" stroke="grey" stroke-width="2" points="668.78,-833.96 659.95,-828.1 663.2,-838.19 668.78,-833.96"/>
</g>
<!-- 15&#45;&gt;0 -->
<g id="edge11" class="edge">
<title>15&#45;&gt;0</title>
<path fill="none" stroke="grey" stroke-width="2" d="M590.64,-791.95C572.33,-783.8 553.53,-772.19 541,-756 516.24,-724.02 522,-707.45 522,-667 522,-667 522,-667 522,-161 522,-115.85 536.86,-101.55 571,-72 600.75,-46.24 644.25,-32.45 675.05,-25.46"/>
<polygon fill="grey" stroke="grey" stroke-width="2" points="675.92,-28.85 684.97,-23.34 674.46,-22.01 675.92,-28.85"/>
</g>
<!-- 16 -->
<g id="node17" class="node">
<title>16</title>
<path fill="none" stroke="#afd856" stroke-width="2" d="M732,-756C732,-756 562,-756 562,-756 556,-756 550,-750 550,-744 550,-744 550,-732 550,-732 550,-726 556,-720 562,-720 562,-720 732,-720 732,-720 738,-720 744,-726 744,-732 744,-732 744,-744 744,-744 744,-750 738,-756 732,-756"/>
<text text-anchor="middle" x="647" y="-735.5" font-family="sans" font-size="10.00">collapse_intersected_filtered_cen_ctgs</text>
</g>
<!-- 15&#45;&gt;16 -->
<g id="edge48" class="edge">
<title>15&#45;&gt;16</title>
<path fill="none" stroke="grey" stroke-width="2" d="M647,-791.7C647,-783.98 647,-774.71 647,-766.11"/>
<polygon fill="grey" stroke="grey" stroke-width="2" points="650.5,-766.1 647,-756.1 643.5,-766.1 650.5,-766.1"/>
</g>
<!-- 17 -->
<g id="node18" class="node">
<title>17</title>
<path fill="none" stroke="#d89c56" stroke-width="2" d="M791,-684C791,-684 651,-684 651,-684 645,-684 639,-678 639,-672 639,-672 639,-660 639,-660 639,-654 645,-648 651,-648 651,-648 791,-648 791,-648 797,-648 803,-654 803,-660 803,-660 803,-672 803,-672 803,-678 797,-684 791,-684"/>
<text text-anchor="middle" x="721" y="-663.5" font-family="sans" font-size="10.00">reintersect_sort_uniq_cens_ctgs</text>
</g>
<!-- 15&#45;&gt;17 -->
<g id="edge49" class="edge">
<title>15&#45;&gt;17</title>
<path fill="none" stroke="grey" stroke-width="2" d="M708.41,-791.95C725.84,-783.97 742.83,-772.45 753,-756 765.3,-736.1 754,-710.8 741.56,-692.26"/>
<polygon fill="grey" stroke="grey" stroke-width="2" points="744.32,-690.1 735.66,-684.01 738.63,-694.17 744.32,-690.1"/>
</g>
<!-- 16&#45;&gt;0 -->
<g id="edge12" class="edge">
<title>16&#45;&gt;0</title>
<path fill="none" stroke="grey" stroke-width="2" d="M627.69,-719.82C602.06,-695.01 560,-646.46 560,-595 560,-595 560,-595 560,-161 560,-115.63 577.4,-103.55 610,-72 628.44,-54.15 654.11,-40.85 675.07,-32.05"/>
<polygon fill="grey" stroke="grey" stroke-width="2" points="676.67,-35.18 684.64,-28.2 674.05,-28.69 676.67,-35.18"/>
</g>
<!-- 16&#45;&gt;17 -->
<g id="edge50" class="edge">
<title>16&#45;&gt;17</title>
<path fill="none" stroke="grey" stroke-width="2" d="M665.29,-719.7C674.43,-711.05 685.64,-700.45 695.6,-691.03"/>
<polygon fill="grey" stroke="grey" stroke-width="2" points="698.06,-693.52 702.92,-684.1 693.25,-688.43 698.06,-693.52"/>
</g>
<!-- 17&#45;&gt;0 -->
<g id="edge6" class="edge">
<title>17&#45;&gt;0</title>
<path fill="none" stroke="grey" stroke-width="2" d="M690.91,-647.89C654.5,-624.7 598,-579.59 598,-523 598,-523 598,-523 598,-161 598,-110 643.27,-66.88 676.76,-41.97"/>
<polygon fill="grey" stroke="grey" stroke-width="2" points="678.92,-44.73 684.98,-36.04 674.83,-39.05 678.92,-44.73"/>
</g>
<!-- 17&#45;&gt;18 -->
<g id="edge51" class="edge">
<title>17&#45;&gt;18</title>
<path fill="none" stroke="grey" stroke-width="2" d="M800.58,-647.97C848.42,-637.72 909.41,-624.67 958.87,-614.08"/>
<polygon fill="grey" stroke="grey" stroke-width="2" points="959.87,-617.44 968.92,-611.93 958.41,-610.6 959.87,-617.44"/>
</g>
<!-- 18&#45;&gt;0 -->
<g id="edge21" class="edge">
<title>18&#45;&gt;0</title>
<path fill="none" stroke="grey" stroke-width="2" d="M1086.91,-575.9C1164.27,-538.96 1330,-443.85 1330,-307 1330,-307 1330,-307 1330,-161 1330,-108.11 1298.12,-96.02 1251,-72 1163.03,-27.15 856.58,-20.22 749.38,-19.17"/>
<polygon fill="grey" stroke="grey" stroke-width="2" points="749.08,-15.67 739.06,-19.09 749.03,-22.67 749.08,-15.67"/>
</g>
<!-- 19 -->
<g id="node20" class="node">
<title>19</title>
<path fill="none" stroke="#5692d8" stroke-width="2" d="M883.5,-540C883.5,-540 704.5,-540 704.5,-540 698.5,-540 692.5,-534 692.5,-528 692.5,-528 692.5,-516 692.5,-516 692.5,-510 698.5,-504 704.5,-504 704.5,-504 883.5,-504 883.5,-504 889.5,-504 895.5,-510 895.5,-516 895.5,-516 895.5,-528 895.5,-528 895.5,-534 889.5,-540 883.5,-540"/>
<text text-anchor="middle" x="794" y="-519.5" font-family="sans" font-size="10.00">cens_create_oriented_ctg_name_legend</text>
</g>
<!-- 18&#45;&gt;19 -->
<g id="edge53" class="edge">
<title>18&#45;&gt;19</title>
<path fill="none" stroke="grey" stroke-width="2" d="M986.19,-575.97C949.93,-565.97 903.94,-553.3 866.04,-542.85"/>
<polygon fill="grey" stroke="grey" stroke-width="2" points="866.66,-539.39 856.09,-540.11 864.8,-546.14 866.66,-539.39"/>
</g>
<!-- 20 -->
<g id="node21" class="node">
<title>20</title>
<path fill="none" stroke="#d86e56" stroke-width="2" d="M1126,-540C1126,-540 970,-540 970,-540 964,-540 958,-534 958,-528 958,-528 958,-516 958,-516 958,-510 964,-504 970,-504 970,-504 1126,-504 1126,-504 1132,-504 1138,-510 1138,-516 1138,-516 1138,-528 1138,-528 1138,-534 1132,-540 1126,-540"/>
<text text-anchor="middle" x="1048" y="-519.5" font-family="sans" font-size="10.00">cens_split_oriented_assembly_fasta</text>
</g>
<!-- 18&#45;&gt;20 -->
<g id="edge54" class="edge">
<title>18&#45;&gt;20</title>
<path fill="none" stroke="grey" stroke-width="2" d="M1048,-575.7C1048,-567.98 1048,-558.71 1048,-550.11"/>
<polygon fill="grey" stroke="grey" stroke-width="2" points="1051.5,-550.1 1048,-540.1 1044.5,-550.1 1051.5,-550.1"/>
</g>
<!-- 19&#45;&gt;0 -->
<g id="edge25" class="edge">
<title>19&#45;&gt;0</title>
<path fill="none" stroke="grey" stroke-width="2" d="M750.41,-503.97C703.64,-482.5 636,-440.78 636,-379 636,-379 636,-379 636,-161 636,-115.64 666.52,-70.75 688.88,-43.95"/>
<polygon fill="grey" stroke="grey" stroke-width="2" points="691.64,-46.09 695.51,-36.23 686.34,-41.53 691.64,-46.09"/>
</g>
<!-- 21 -->
<g id="node22" class="node">
<title>21</title>
<path fill="none" stroke="#569ad8" stroke-width="2" d="M855,-468C855,-468 733,-468 733,-468 727,-468 721,-462 721,-456 721,-456 721,-444 721,-444 721,-438 727,-432 733,-432 733,-432 855,-432 855,-432 861,-432 867,-438 867,-444 867,-444 867,-456 867,-456 867,-462 861,-468 855,-468"/>
<text text-anchor="middle" x="794" y="-447.5" font-family="sans" font-size="10.00">cens_rename_oriented_ctgs</text>
</g>
<!-- 19&#45;&gt;21 -->
<g id="edge55" class="edge">
<title>19&#45;&gt;21</title>
<path fill="none" stroke="grey" stroke-width="2" d="M794,-503.7C794,-495.98 794,-486.71 794,-478.11"/>
<polygon fill="grey" stroke="grey" stroke-width="2" points="797.5,-478.1 794,-468.1 790.5,-478.1 797.5,-478.1"/>
</g>
<!-- 20&#45;&gt;0 -->
<g id="edge3" class="edge">
<title>20&#45;&gt;0</title>
<path fill="none" stroke="grey" stroke-width="2" d="M1052.45,-503.65C1058.88,-477.02 1070,-424.4 1070,-379 1070,-379 1070,-379 1070,-305 1070,-264.46 1062.85,-246.11 1090,-216 1123.6,-178.73 1167.72,-220.75 1197,-180 1215.36,-154.45 1181.77,-76.86 1176,-72 1143.52,-44.62 853.31,-26.55 749.07,-20.9"/>
<polygon fill="grey" stroke="grey" stroke-width="2" points="749.18,-17.4 739.01,-20.36 748.81,-24.39 749.18,-17.4"/>
</g>
<!-- 20&#45;&gt;21 -->
<g id="edge56" class="edge">
<title>20&#45;&gt;21</title>
<path fill="none" stroke="grey" stroke-width="2" d="M986.19,-503.97C949.93,-493.97 903.94,-481.3 866.04,-470.85"/>
<polygon fill="grey" stroke="grey" stroke-width="2" points="866.66,-467.39 856.09,-468.11 864.8,-474.14 866.66,-467.39"/>
</g>
<!-- 21&#45;&gt;0 -->
<g id="edge24" class="edge">
<title>21&#45;&gt;0</title>
<path fill="none" stroke="grey" stroke-width="2" d="M742.44,-431.95C724.69,-423.69 706.22,-412.01 694,-396 669.39,-363.78 674,-347.54 674,-307 674,-307 674,-307 674,-161 674,-119.63 689.23,-73.72 700.41,-45.61"/>
<polygon fill="grey" stroke="grey" stroke-width="2" points="703.76,-46.67 704.31,-36.09 697.28,-44.02 703.76,-46.67"/>
</g>
<!-- 22 -->
<g id="node23" class="node">
<title>22</title>
<path fill="none" stroke="#d8bc56" stroke-width="2" d="M827.5,-396C827.5,-396 714.5,-396 714.5,-396 708.5,-396 702.5,-390 702.5,-384 702.5,-384 702.5,-372 702.5,-372 702.5,-366 708.5,-360 714.5,-360 714.5,-360 827.5,-360 827.5,-360 833.5,-360 839.5,-366 839.5,-372 839.5,-372 839.5,-384 839.5,-384 839.5,-390 833.5,-396 827.5,-396"/>
<text text-anchor="middle" x="771" y="-375.5" font-family="sans" font-size="10.00">cens_index_renamed_ctgs</text>
</g>
<!-- 21&#45;&gt;22 -->
<g id="edge57" class="edge">
<title>21&#45;&gt;22</title>
<path fill="none" stroke="grey" stroke-width="2" d="M788.31,-431.7C785.75,-423.9 782.67,-414.51 779.82,-405.83"/>
<polygon fill="grey" stroke="grey" stroke-width="2" points="783.07,-404.51 776.62,-396.1 776.42,-406.7 783.07,-404.51"/>
</g>
<!-- 23 -->
<g id="node24" class="node">
<title>23</title>
<path fill="none" stroke="#78d856" stroke-width="2" d="M928,-396C928,-396 870,-396 870,-396 864,-396 858,-390 858,-384 858,-384 858,-372 858,-372 858,-366 864,-360 870,-360 870,-360 928,-360 928,-360 934,-360 940,-366 940,-372 940,-372 940,-384 940,-384 940,-390 934,-396 928,-396"/>
<text text-anchor="middle" x="899" y="-375.5" font-family="sans" font-size="10.00">run_dna_brnn</text>
</g>
<!-- 21&#45;&gt;23 -->
<g id="edge58" class="edge">
<title>21&#45;&gt;23</title>
<path fill="none" stroke="grey" stroke-width="2" d="M819.69,-431.88C833.29,-422.81 850.17,-411.55 864.86,-401.76"/>
<polygon fill="grey" stroke="grey" stroke-width="2" points="866.84,-404.65 873.22,-396.19 862.95,-398.82 866.84,-404.65"/>
</g>
<!-- 22&#45;&gt;0 -->
<g id="edge9" class="edge">
<title>22&#45;&gt;0</title>
<path fill="none" stroke="grey" stroke-width="2" d="M758.49,-359.59C741.17,-333.73 712,-283.05 712,-235 712,-235 712,-235 712,-161 712,-121 712,-74.65 712,-46.08"/>
<polygon fill="grey" stroke="grey" stroke-width="2" points="715.5,-46.05 712,-36.05 708.5,-46.05 715.5,-46.05"/>
</g>
<!-- 23&#45;&gt;0 -->
<g id="edge15" class="edge">
<title>23&#45;&gt;0</title>
<path fill="none" stroke="grey" stroke-width="2" d="M926.31,-359.83C966.34,-332.27 1034.03,-275.22 1013,-216 985.41,-138.29 964.77,-117.5 896,-72 850.7,-42.03 788.27,-28.73 749.03,-23.02"/>
<polygon fill="grey" stroke="grey" stroke-width="2" points="749.47,-19.55 739.09,-21.67 748.53,-26.49 749.47,-19.55"/>
</g>
<!-- 26 -->
<g id="node27" class="node">
<title>26</title>
<path fill="none" stroke="#d88d56" stroke-width="2" d="M912.5,-180C912.5,-180 751.5,-180 751.5,-180 745.5,-180 739.5,-174 739.5,-168 739.5,-168 739.5,-156 739.5,-156 739.5,-150 745.5,-144 751.5,-144 751.5,-144 912.5,-144 912.5,-144 918.5,-144 924.5,-150 924.5,-156 924.5,-156 924.5,-168 924.5,-168 924.5,-174 918.5,-180 912.5,-180"/>
<text text-anchor="middle" x="832" y="-159.5" font-family="sans" font-size="10.00">filter_dnabrnn_sample_cens_regions</text>
</g>
<!-- 23&#45;&gt;26 -->
<g id="edge61" class="edge">
<title>23&#45;&gt;26</title>
<path fill="none" stroke="grey" stroke-width="2" d="M870.78,-360C839.15,-339.11 789.61,-300.4 769,-252 762.73,-237.28 762.25,-230.51 769,-216 774.43,-204.34 783.82,-194.34 793.72,-186.26"/>
<polygon fill="grey" stroke="grey" stroke-width="2" points="795.85,-189.03 801.7,-180.2 791.62,-183.45 795.85,-189.03"/>
</g>
<!-- 29 -->
<g id="node30" class="node">
<title>29</title>
<path fill="none" stroke="#56d8c1" stroke-width="2" d="M992,-252C992,-252 790,-252 790,-252 784,-252 778,-246 778,-240 778,-240 778,-228 778,-228 778,-222 784,-216 790,-216 790,-216 992,-216 992,-216 998,-216 1004,-222 1004,-228 1004,-228 1004,-240 1004,-240 1004,-246 998,-252 992,-252"/>
<text text-anchor="middle" x="891" y="-231.5" font-family="sans" font-size="10.00">new_cens_create_oriented_ctg_name_legend</text>
</g>
<!-- 23&#45;&gt;29 -->
<g id="edge66" class="edge">
<title>23&#45;&gt;29</title>
<path fill="none" stroke="grey" stroke-width="2" d="M898.04,-359.87C896.67,-335.67 894.17,-291.21 892.54,-262.39"/>
<polygon fill="grey" stroke="grey" stroke-width="2" points="896.03,-261.98 891.97,-252.19 889.04,-262.37 896.03,-261.98"/>
</g>
<!-- 23&#45;&gt;31 -->
<g id="edge68" class="edge">
<title>23&#45;&gt;31</title>
<path fill="none" stroke="grey" stroke-width="2" d="M940.22,-367.41C985.5,-356.88 1059.42,-339.69 1116.85,-326.34"/>
<polygon fill="grey" stroke="grey" stroke-width="2" points="1117.69,-329.73 1126.64,-324.06 1116.11,-322.92 1117.69,-329.73"/>
</g>
<!-- 24&#45;&gt;0 -->
<g id="edge28" class="edge">
<title>24&#45;&gt;0</title>
<path fill="none" stroke="grey" stroke-width="2" d="M239.1,-287.58C249.12,-277.78 261.13,-264.94 270,-252 320.14,-178.87 284.7,-124.69 356,-72 406.08,-34.99 593.95,-23.48 674.72,-20.2"/>
<polygon fill="grey" stroke="grey" stroke-width="2" points="675.07,-23.69 684.93,-19.81 674.8,-16.7 675.07,-23.69"/>
</g>
<!-- 25 -->
<g id="node26" class="node">
<title>25</title>
<path fill="none" stroke="#5682d8" stroke-width="2" d="M249,-252C249,-252 107,-252 107,-252 101,-252 95,-246 95,-240 95,-240 95,-228 95,-228 95,-222 101,-216 107,-216 107,-216 249,-216 249,-216 255,-216 261,-222 261,-228 261,-228 261,-240 261,-240 261,-246 255,-252 249,-252"/>
<text text-anchor="middle" x="178" y="-231.5" font-family="sans" font-size="10.00">filter_dnabrnn_ref_cens_regions</text>
</g>
<!-- 24&#45;&gt;25 -->
<g id="edge60" class="edge">
<title>24&#45;&gt;25</title>
<path fill="none" stroke="grey" stroke-width="2" d="M209.62,-287.7C204.74,-279.56 198.81,-269.69 193.42,-260.7"/>
<polygon fill="grey" stroke="grey" stroke-width="2" points="196.41,-258.88 188.26,-252.1 190.41,-262.48 196.41,-258.88"/>
</g>
<!-- 25&#45;&gt;0 -->
<g id="edge27" class="edge">
<title>25&#45;&gt;0</title>
<path fill="none" stroke="grey" stroke-width="2" d="M103.38,-215.9C85.19,-208.04 67.85,-196.6 57,-180 37.34,-149.92 83.61,-72.29 84,-72 131.14,-36.3 546.47,-23.1 674.55,-19.86"/>
<polygon fill="grey" stroke="grey" stroke-width="2" points="674.75,-23.35 684.66,-19.61 674.58,-16.36 674.75,-23.35"/>
</g>
<!-- 27 -->
<g id="node28" class="node">
<title>27</title>
<path fill="none" stroke="#56b1d8" stroke-width="2" d="M195.5,-180C195.5,-180 78.5,-180 78.5,-180 72.5,-180 66.5,-174 66.5,-168 66.5,-168 66.5,-156 66.5,-156 66.5,-150 72.5,-144 78.5,-144 78.5,-144 195.5,-144 195.5,-144 201.5,-144 207.5,-150 207.5,-156 207.5,-156 207.5,-168 207.5,-168 207.5,-174 201.5,-180 195.5,-180"/>
<text text-anchor="middle" x="137" y="-159.5" font-family="sans" font-size="10.00">get_dnabrnn_ref_cens_pos</text>
</g>
<!-- 25&#45;&gt;27 -->
<g id="edge62" class="edge">
<title>25&#45;&gt;27</title>
<path fill="none" stroke="grey" stroke-width="2" d="M167.87,-215.7C163.15,-207.64 157.44,-197.89 152.22,-188.98"/>
<polygon fill="grey" stroke="grey" stroke-width="2" points="155.09,-186.96 147.02,-180.1 149.05,-190.5 155.09,-186.96"/>
</g>
<!-- 28 -->
<g id="node29" class="node">
<title>28</title>
<path fill="none" stroke="#97d856" stroke-width="2" d="M292,-108C292,-108 116,-108 116,-108 110,-108 104,-102 104,-96 104,-96 104,-84 104,-84 104,-78 110,-72 116,-72 116,-72 292,-72 292,-72 298,-72 304,-78 304,-84 304,-84 304,-96 304,-96 304,-102 298,-108 292,-108"/>
<text text-anchor="middle" x="204" y="-87.5" font-family="sans" font-size="10.00">aggregate_dnabrnn_alr_regions_by_chr</text>
</g>
<!-- 25&#45;&gt;28 -->
<g id="edge65" class="edge">
<title>25&#45;&gt;28</title>
<path fill="none" stroke="grey" stroke-width="2" d="M194.46,-215.92C202.65,-206.22 211.7,-193.37 216,-180 222.5,-159.77 218.68,-135.87 213.69,-117.92"/>
<polygon fill="grey" stroke="grey" stroke-width="2" points="216.96,-116.66 210.68,-108.12 210.27,-118.71 216.96,-116.66"/>
</g>
<!-- 26&#45;&gt;0 -->
<g id="edge5" class="edge">
<title>26&#45;&gt;0</title>
<path fill="none" stroke="grey" stroke-width="2" d="M817.53,-143.87C796.53,-119.03 757.5,-72.85 733.25,-44.14"/>
<polygon fill="grey" stroke="grey" stroke-width="2" points="735.65,-41.57 726.53,-36.19 730.31,-46.09 735.65,-41.57"/>
</g>
<!-- 26&#45;&gt;28 -->
<g id="edge64" class="edge">
<title>26&#45;&gt;28</title>
<path fill="none" stroke="grey" stroke-width="2" d="M739.34,-150.67C626.09,-138.05 434.69,-116.71 314.06,-103.27"/>
<polygon fill="grey" stroke="grey" stroke-width="2" points="314.39,-99.78 304.06,-102.15 313.61,-106.74 314.39,-99.78"/>
</g>
<!-- 27&#45;&gt;0 -->
<g id="edge23" class="edge">
<title>27&#45;&gt;0</title>
<path fill="none" stroke="grey" stroke-width="2" d="M118.31,-143.83C99.46,-124.49 75.71,-93.02 95,-72 134.29,-29.19 547.18,-20.89 674.7,-19.34"/>
<polygon fill="grey" stroke="grey" stroke-width="2" points="674.8,-22.84 684.76,-19.23 674.72,-15.84 674.8,-22.84"/>
</g>
<!-- 27&#45;&gt;28 -->
<g id="edge63" class="edge">
<title>27&#45;&gt;28</title>
<path fill="none" stroke="grey" stroke-width="2" d="M153.56,-143.7C161.68,-135.22 171.59,-124.86 180.47,-115.58"/>
<polygon fill="grey" stroke="grey" stroke-width="2" points="183.24,-117.75 187.63,-108.1 178.19,-112.91 183.24,-117.75"/>
</g>
<!-- 28&#45;&gt;0 -->
<g id="edge14" class="edge">
<title>28&#45;&gt;0</title>
<path fill="none" stroke="grey" stroke-width="2" d="M304.08,-73.99C308.78,-73.31 313.44,-72.65 318,-72 448.97,-53.43 604.68,-32.96 674.67,-23.84"/>
<polygon fill="grey" stroke="grey" stroke-width="2" points="675.29,-27.29 684.75,-22.53 674.39,-20.35 675.29,-27.29"/>
</g>
<!-- 29&#45;&gt;0 -->
<g id="edge22" class="edge">
<title>29&#45;&gt;0</title>
<path fill="none" stroke="grey" stroke-width="2" d="M909.49,-215.86C926.82,-197.63 948.12,-168.15 934,-144 893.93,-75.44 800.88,-41.57 748.86,-27.45"/>
<polygon fill="grey" stroke="grey" stroke-width="2" points="749.6,-24.02 739.04,-24.88 747.83,-30.79 749.6,-24.02"/>
</g>
<!-- 32 -->
<g id="node33" class="node">
<title>32</title>
<path fill="none" stroke="#d8b456" stroke-width="2" d="M1176,-180C1176,-180 1030,-180 1030,-180 1024,-180 1018,-174 1018,-168 1018,-168 1018,-156 1018,-156 1018,-150 1024,-144 1030,-144 1030,-144 1176,-144 1176,-144 1182,-144 1188,-150 1188,-156 1188,-156 1188,-168 1188,-168 1188,-174 1182,-180 1176,-180"/>
<text text-anchor="middle" x="1103" y="-159.5" font-family="sans" font-size="10.00">new_cens_rename_oriented_ctgs</text>
</g>
<!-- 29&#45;&gt;32 -->
<g id="edge70" class="edge">
<title>29&#45;&gt;32</title>
<path fill="none" stroke="grey" stroke-width="2" d="M942.59,-215.97C972.47,-206.1 1010.26,-193.62 1041.66,-183.25"/>
<polygon fill="grey" stroke="grey" stroke-width="2" points="1042.78,-186.57 1051.18,-180.11 1040.59,-179.92 1042.78,-186.57"/>
</g>
<!-- 30 -->
<g id="node31" class="node">
<title>30</title>
<path fill="none" stroke="#9fd856" stroke-width="2" d="M1289.5,-252C1289.5,-252 1110.5,-252 1110.5,-252 1104.5,-252 1098.5,-246 1098.5,-240 1098.5,-240 1098.5,-228 1098.5,-228 1098.5,-222 1104.5,-216 1110.5,-216 1110.5,-216 1289.5,-216 1289.5,-216 1295.5,-216 1301.5,-222 1301.5,-228 1301.5,-228 1301.5,-240 1301.5,-240 1301.5,-246 1295.5,-252 1289.5,-252"/>
<text text-anchor="middle" x="1200" y="-231.5" font-family="sans" font-size="10.00">new_cens_split_oriented_assembly_fasta</text>
</g>
<!-- 30&#45;&gt;0 -->
<g id="edge13" class="edge">
<title>30&#45;&gt;0</title>
<path fill="none" stroke="grey" stroke-width="2" d="M1211.24,-215.95C1231.05,-183.55 1266.77,-112.73 1230,-72 1197.87,-36.41 863.23,-23.41 749.55,-20"/>
<polygon fill="grey" stroke="grey" stroke-width="2" points="749.35,-16.49 739.26,-19.7 749.15,-23.49 749.35,-16.49"/>
</g>
<!-- 30&#45;&gt;32 -->
<g id="edge71" class="edge">
<title>30&#45;&gt;32</title>
<path fill="none" stroke="grey" stroke-width="2" d="M1176.02,-215.7C1163.69,-206.8 1148.48,-195.82 1135.15,-186.2"/>
<polygon fill="grey" stroke="grey" stroke-width="2" points="1136.86,-183.12 1126.7,-180.1 1132.76,-188.79 1136.86,-183.12"/>
</g>
<!-- 31&#45;&gt;30 -->
<g id="edge67" class="edge">
<title>31&#45;&gt;30</title>
<path fill="none" stroke="grey" stroke-width="2" d="M1200,-287.7C1200,-279.98 1200,-270.71 1200,-262.11"/>
<polygon fill="grey" stroke="grey" stroke-width="2" points="1203.5,-262.1 1200,-252.1 1196.5,-262.1 1203.5,-262.1"/>
</g>
<!-- 32&#45;&gt;0 -->
<g id="edge8" class="edge">
<title>32&#45;&gt;0</title>
<path fill="none" stroke="grey" stroke-width="2" d="M1126.78,-143.79C1149.96,-124.98 1179.01,-94.52 1159,-72 1131.93,-41.53 852.14,-25.52 749.49,-20.64"/>
<polygon fill="grey" stroke="grey" stroke-width="2" points="749.43,-17.14 739.28,-20.17 749.1,-24.13 749.43,-17.14"/>
</g>
<!-- 33 -->
<g id="node34" class="node">
<title>33</title>
<path fill="none" stroke="#d85656" stroke-width="2" d="M1138,-108C1138,-108 1002,-108 1002,-108 996,-108 990,-102 990,-96 990,-96 990,-84 990,-84 990,-78 996,-72 1002,-72 1002,-72 1138,-72 1138,-72 1144,-72 1150,-78 1150,-84 1150,-84 1150,-96 1150,-96 1150,-102 1144,-108 1138,-108"/>
<text text-anchor="middle" x="1070" y="-87.5" font-family="sans" font-size="10.00">new_cens_index_renamed_ctgs</text>
</g>
<!-- 32&#45;&gt;33 -->
<g id="edge72" class="edge">
<title>32&#45;&gt;33</title>
<path fill="none" stroke="grey" stroke-width="2" d="M1094.84,-143.7C1091.09,-135.73 1086.55,-126.1 1082.38,-117.26"/>
<polygon fill="grey" stroke="grey" stroke-width="2" points="1085.49,-115.66 1078.06,-108.1 1079.16,-118.64 1085.49,-115.66"/>
</g>
<!-- 33&#45;&gt;0 -->
<g id="edge1" class="edge">
<title>33&#45;&gt;0</title>
<path fill="none" stroke="grey" stroke-width="2" d="M989.66,-73.29C914.55,-58.61 805.74,-37.33 749.23,-26.28"/>
<polygon fill="grey" stroke="grey" stroke-width="2" points="749.79,-22.82 739.3,-24.34 748.44,-29.69 749.79,-22.82"/>
</g>
</g>
</svg>
